<?xml version="1.0" encoding="utf-8"?>
<!-- Generator: Adobe Illustrator 21.1.0, SVG Export Plug-In . SVG Version: 6.00 Build 0)  -->
<svg version="1.1" id="Capa_1" xmlns="http://www.w3.org/2000/svg" xmlns:xlink="http://www.w3.org/1999/xlink" x="0px" y="0px"
	 width="512px" height="512px" viewBox="0 0 512 512" style="enable-background:new 0 0 512 512;" xml:space="preserve">
<style type="text/css">
	.st0{fill:#350482;}
	.st1{fill-rule:evenodd;clip-rule:evenodd;fill:#FFAB00;}
</style>
<circle class="st0" cx="256" cy="256" r="256"/>
<path class="st1" d="M235.9,100.5c0,0,36.2-0.7,57.3,0c10.1,0.4,15.2,2.2,15.2,2.2s8.6,2.5,18.4,11c9.2,8,81.5,114.8,81.5,114.8
	s8,14.3,7.7,27.6c-0.3,14-8.8,27-8.8,27l-74,106.1c-2.2,2.5-7.9,9.1-17.9,14.3c-8.6,4.4-19.8,5.1-19.8,5.1s-24.7,2-40.7-2.6
	c-17.2-4.9-30.8-21.9-30.8-21.9s-13.8-15.7-12.7-30.6c1.1-15,18.7-36.7,18.7-36.7l35.2-51.5c0,0,4.1-5.5,3.9-11.2
	c-0.3-5.7-5.5-12.8-5.5-12.8l-66.6-97c0,0-4-4.8-8.3-7.1c-2.8-1.5-6.6-1-6.6-1h-22.6c0,0-9.4,0.4-13.8,12.2
	c-2.7,7.3,2.8,16.8,2.8,16.8c1.1,1.7,42.9,62.3,42.9,62.3s8.8,14.8,8.8,28.6c0,13.2-8.8,25.5-8.8,25.5l-44.6,65.8
	c0,0-4.5,7.6,1.1,16.8c5.8,9.5,16,9.2,16,9.2h18.7c0,0,5.9,0.8,10.5,4.6c4.7,3.9,21.5,30.6,21.5,30.6H155c0,0-26.2-0.8-39.1-25
	c-4.1-7.8-8.1-17.2-8.8-26c-1.2-14.4,5.1-23.9,5.1-23.9l46.1-69.5c0,0,3-5.7,2.8-11.2c-0.3-4.8-3.9-9.7-3.9-9.7l-44-63.8
	c0,0-3.2-3.8-5-13.3c-0.9-5.1-1.5-11.1-1.1-16.8c0.9-12.7,9.9-25,9.9-25s8.3-10.2,18.7-16.3c12.4-7.4,20.9-7.1,20.9-7.1h34.1
	c0,0,9.3,0.7,17.6,5.6c8.7,5.1,20.9,19.4,20.9,19.4L302,232.2c0,0,5.1,7.1,5.5,19.4c0.1,3.8,0.2,9-0.7,13.2
	c-1.6,7.5-4.1,11.2-4.1,11.2l-48,72c0,0-4.2,7.1,0.4,15.5c5.6,10.2,13.5,9.5,13.5,9.5l23.5,0c0,0,4,0.4,8.3-3.6
	c2.2-2,6.1-6.6,6.1-6.6l67.7-98.5c0,0,2.8-5.2,2.8-10.2c0-4.4-2.8-8.7-2.8-8.7l-69.9-101.6c0,0-3-3.6-6.6-5.6c-3.3-1.8-7.2-2-7.2-2
	l-24.2-0.5c0,0-5-0.2-9.9-5.1c-4-4.1-19.8-28.6-19.8-28.6L235.9,100.5z"/>
</svg>
