<?xml version="1.0" encoding="utf-8"?>
<!-- Generator: Adobe Illustrator 21.1.0, SVG Export Plug-In . SVG Version: 6.00 Build 0)  -->
<svg version="1.1" id="Capa_1" xmlns="http://www.w3.org/2000/svg" xmlns:xlink="http://www.w3.org/1999/xlink" x="0px" y="0px"
	 viewBox="0 0 512 512" style="enable-background:new 0 0 512 512;" xml:space="preserve">
<style type="text/css">
	.st0{fill:#463F5B;}
	.st1{fill:#ED55A9;}
	.st2{fill:#DB428F;}
	.st3{fill:#FFDE56;}
	.st4{fill:#EDC51C;}
	.st5{fill:#3DD0F2;}
	.st6{fill:#FFFFFF;}
	.st7{fill:#F48C6C;}
</style>
<path class="st0" d="M512,256c0,72.8-30.4,138.6-79.3,185.2c-7.5,7.2-15.4,13.9-23.8,20.1c-42.7,31.9-95.6,50.7-153,50.7
	s-110.3-18.9-153-50.7c-8.3-6.2-16.3-12.9-23.8-20.1C30.4,394.6,0,328.8,0,256C0,114.6,114.6,0,256,0S512,114.6,512,256z"/>
<g>
	<path class="st1" d="M287.5,293.9L256,406.8v0l-2,7l-20.4,73.1c-4.7,16.9-26.7,21.1-37.3,7.2l-17.1-22.2
		c-11-14.3-29.2-20.9-46.8-17l-27.4,6.1c-0.7,0.2-1.4,0.3-2.1,0.4c-8.3-6.2-16.3-12.9-23.8-20.1c-0.2-3.2,0.4-6.5,1.9-9.8l43.5-95.8
		L164,249l92,33.5L287.5,293.9z"/>
	<path class="st1" d="M432.7,441.2c-7.5,7.2-15.4,13.9-23.8,20.1c-0.7-0.1-1.4-0.2-2.1-0.4l-27.4-6.1c-17.6-3.9-35.8,2.7-46.7,17
		l-17.1,22.2c-10.7,13.9-32.6,9.6-37.3-7.2L258,413.8l-2-7v0l-31.5-112.9l31.5-11.5l92-33.5l39.4,86.6l43.5,95.8
		C432.3,434.7,432.9,438,432.7,441.2z"/>
</g>
<path class="st2" d="M387.3,335.6c-4.6,15.1-6.4,33.2-17.8,41.4c-15.3,11.1-42.5,0-60.8,6c-17.1,5.6-32.1,29.2-50.7,30.8l-2-7l-2,7
	c-18.7-1.6-33.6-25.2-50.8-30.8c-18.3-6-45.5,5.1-60.8-6c-11.3-8.3-13.2-26.3-17.8-41.4L164,249l92,33.5l92-33.5L387.3,335.6z"/>
<path class="st3" d="M426.5,193.1c0-19.6,18.9-42,13.2-59.7c-6-18.3-34.6-25.3-45.7-40.5c-11.2-15.4-9-44.8-24.5-56
	c-15.3-11.1-42.5,0-60.8-6C291,25.1,275.6,0,256,0c-19.6,0-35,25.1-52.7,30.9c-18.3,6-45.5-5.1-60.8,6c-15.4,11.2-13.2,40.6-24.5,56
	c-11.1,15.3-39.8,22.2-45.7,40.5c-5.7,17.7,13.2,40.1,13.2,59.7c0,19.6-18.9,42-13.2,59.7c6,18.3,34.6,25.3,45.7,40.5
	c11.2,15.4,9,44.8,24.5,56c15.3,11.1,42.5,0,60.8,6c17.7,5.7,33.1,30.9,52.7,30.9c19.6,0,35-25.1,52.7-30.9c18.3-6,45.5,5.1,60.8-6
	c15.4-11.2,13.2-40.6,24.5-56c11.1-15.3,39.8-22.2,45.7-40.5C445.4,235.1,426.5,212.7,426.5,193.1z"/>
<circle class="st4" cx="256" cy="193.1" r="136.7"/>
<path class="st3" d="M365.8,193.1c0,60.7-49.2,109.8-109.8,109.8c-9.2,0-18.2-1.1-26.7-3.3c-47.7-11.9-83.1-55.1-83.1-106.5
	c0-60.6,49.2-109.8,109.8-109.8c11.1,0,21.8,1.6,31.9,4.7C333,101.7,365.8,143.5,365.8,193.1z"/>
<g>
	<path class="st2" d="M169.8,365c0,0-14.6,50.9-31.3,59.2s17.4-62,17.4-62L169.8,365z"/>
	<path class="st2" d="M232.6,384c0,0-8.8,52.2-24.5,62.4s10.3-63.6,10.3-63.6L232.6,384z"/>
	<path class="st2" d="M342.2,365c0,0,14.6,50.9,31.3,59.2c16.7,8.4-17.4-62-17.4-62L342.2,365z"/>
	<path class="st2" d="M279.4,384c0,0,8.8,52.2,24.5,62.4c15.7,10.2-10.3-63.6-10.3-63.6L279.4,384z"/>
</g>
<g>
	<path d="M337.8,176.6v59.6c0,14.6-11.9,26.6-26.6,26.6h-36.4c-1.3,4.7-5.7,8.2-10.8,8.2h-10.9c-6.2,0-11.2-5-11.2-11.2
		c0-6.2,5-11.2,11.2-11.2h10.9c5.1,0,9.5,3.5,10.8,8.2h36.4c11.3,0,20.6-9.2,20.6-20.6v-2.2c-3,2.6-6.9,4.1-11.1,4.1h-13.3
		c-4,0-7.2-3.2-7.2-7.2v-47.2c0-4,3.2-7.2,7.2-7.2h13.3c4.2,0,8.1,1.6,11.1,4.1v-4.1c0-25.6-19.4-46.9-44.7-49.4
		c-1.4,2.9-4.3,4.9-7.6,4.9h-46.7c-3.4,0-6.3-2-7.7-4.9c-25.2,2.5-44.7,23.8-44.7,49.4v4.1c3-2.6,6.9-4.1,11.1-4.1H205
		c4,0,7.2,3.2,7.2,7.2V231c0,4-3.2,7.2-7.2,7.2h-13.3c-9.4,0-17.1-7.7-17.1-17.1v-44.5c0-28.8,21.8-52.6,50.2-55.4
		c1-3.5,4.3-6.1,8.1-6.1h46.7c3.8,0,7.1,2.6,8.1,6.1C316,124,337.8,147.9,337.8,176.6z M331.8,221.1v-27.4c0-6.1-5-11.1-11.1-11.1
		h-6.1v49.6h6.1C326.9,232.2,331.8,227.2,331.8,221.1z M308.6,232.2v-49.6h-1.2c-0.7,0-1.2,0.5-1.2,1.2V231c0,0.7,0.5,1.2,1.2,1.2
		L308.6,232.2L308.6,232.2z M282,123.6c0-1.4-1.1-2.5-2.5-2.5h-46.7c-1.4,0-2.5,1.1-2.5,2.5s1.1,2.5,2.5,2.5h46.7
		C280.9,126.1,282,125,282,123.6z M269.3,259.8c0-2.9-2.3-5.2-5.2-5.2h-10.9c-2.9,0-5.2,2.3-5.2,5.2c0,2.9,2.3,5.2,5.2,5.2h10.9
		C267,265.1,269.3,262.7,269.3,259.8z M206.2,231v-47.2c0-0.7-0.5-1.2-1.2-1.2h-1.2v49.6h1.2C205.6,232.2,206.2,231.7,206.2,231z
		 M197.8,232.2v-49.6h-6.1c-6.1,0-11.1,5-11.1,11.1v27.4c0,6.1,5,11.1,11.1,11.1H197.8z"/>
	<path class="st5" d="M331.8,193.7v27.4c0,6.1-5,11.1-11.1,11.1h-6.1v-49.6h6.1C326.9,182.6,331.8,187.6,331.8,193.7z"/>
	<path class="st6" d="M279.5,121.1c1.4,0,2.5,1.1,2.5,2.5s-1.1,2.5-2.5,2.5h-46.7c-1.4,0-2.5-1.1-2.5-2.5s1.1-2.5,2.5-2.5
		C232.8,121.1,279.5,121.1,279.5,121.1z"/>
	<path class="st7" d="M264.1,254.6c2.9,0,5.2,2.3,5.2,5.2c0,2.9-2.3,5.2-5.2,5.2h-10.9c-2.9,0-5.2-2.3-5.2-5.2
		c0-2.9,2.3-5.2,5.2-5.2H264.1z"/>
	<path class="st5" d="M197.8,182.6v49.6h-6.1c-6.1,0-11.1-5-11.1-11.1v-27.4c0-6.1,5-11.1,11.1-11.1H197.8L197.8,182.6z"/>
</g>
</svg>
