<?xml version="1.0" encoding="iso-8859-1"?>
<!-- Generator: Adobe Illustrator 19.0.0, SVG Export Plug-In . SVG Version: 6.00 Build 0)  -->
<svg xmlns="http://www.w3.org/2000/svg" xmlns:xlink="http://www.w3.org/1999/xlink" version="1.1" id="Capa_1" x="0px" y="0px" viewBox="0 0 60 60" style="enable-background:new 0 0 60 60;" xml:space="preserve" width="512px" height="512px">
<g>
	<g>
		<path d="M26.707,12.707l2.345-2.345c0.523-0.522,1.373-0.522,1.896,0l2.345,2.345C33.488,12.902,33.744,13,34,13    s0.512-0.098,0.707-0.293c0.391-0.391,0.391-1.023,0-1.414l-2.345-2.345c-1.262-1.262-3.463-1.262-4.725,0l-2.345,2.345    c-0.391,0.391-0.391,1.023,0,1.414S26.316,13.098,26.707,12.707z" fill="#FFFFFF"/>
		<path d="M59.109,32.127L57,30.826V25.5c0-1.93-1.57-3.5-3.5-3.5S50,23.57,50,25.5v1.006l-2-1.234V18.5c0-1.93-1.57-3.5-3.5-3.5    S41,16.57,41,18.5v2.452l-1.996-1.232C39.012,17.602,39.002,16.222,39,16c0-3.463-0.61-6.64-1.812-9.441    C36.214,4.29,33.459,0,30,0s-6.214,4.29-7.188,6.559C21.61,9.36,21,12.537,21,15.992c-0.002,0.224-0.012,1.606-0.003,3.728    L19,20.952V18.5c0-1.93-1.57-3.5-3.5-3.5S12,16.57,12,18.5v6.771l-2,1.234V25.5c0-1.93-1.57-3.5-3.5-3.5S3,23.57,3,25.5v5.326    l-2.109,1.301C0.348,32.414,0,32.986,0,33.604V39c0,0.524,0.239,1.008,0.656,1.326c0.296,0.226,0.648,0.343,1.008,0.343    c0.147,0,0.297-0.02,0.444-0.06l0.281-0.126c5.068-3.293,12.329-4.334,18.954-5.163c0.24,5.537,0.642,11.193,1.311,15.388    l-4.993,2.629l-0.209,0.147C17.165,53.747,17,54.121,17,54.509v4.101c0,0.513,0.281,0.982,0.733,1.225    c0.403,0.215,0.879,0.219,1.28,0.017L30,56.109l10.986,3.743C41.182,59.95,41.396,60,41.61,60c0.225,0,0.45-0.054,0.656-0.165    C42.719,59.592,43,59.123,43,58.61v-4.101c0-0.389-0.165-0.762-0.451-1.025l-5.206-2.757c0.671-4.197,1.074-9.862,1.314-15.407    c6.605,0.826,13.879,1.865,18.954,5.163l0.281,0.126c0.147,0.04,0.296,0.06,0.444,0.06c0.36,0,0.712-0.117,1.008-0.343    C59.761,40.008,60,39.525,60,39v-5.396C60,32.986,59.652,32.414,59.109,32.127z M14,18.5c0-0.827,0.673-1.5,1.5-1.5    s1.5,0.673,1.5,1.5v2.655l-3,2.043V18.5z M5,25.5C5,24.673,5.673,24,6.5,24S8,24.673,8,25.5v1.783l-3,2.043V25.5z M2,38.371    v-4.578l18.999-11.725c0.013,2.082,0.055,5.19,0.178,8.66c0.025,0.85,0.054,1.713,0.086,2.586    C14.686,34.135,7.429,35.147,2,38.371z M23,16c0-3.19,0.555-6.102,1.65-8.652C25.763,4.756,28.016,2,30,2s4.237,2.755,5.35,5.348    C36.445,9.899,37,12.81,37,16.008c0,0.046,0.007,0.963,0.004,2.477l0,0v0.14c-0.007,2.935-0.05,8.008-0.235,13.516    c-0.027,0.659-0.057,1.326-0.091,1.999l-0.012,0.721c-0.223,5.314-0.589,10.758-1.191,14.862l-4.5-2.369l-0.151-0.08    c-0.082-0.062-0.177-0.098-0.27-0.139c-0.348-0.151-0.747-0.154-1.096-0.006c-0.098,0.041-0.197,0.081-0.283,0.145l-4.651,2.449    c-0.594-4.05-0.958-9.404-1.182-14.652l0.026-0.003l-0.046-0.928c-0.034-0.673-0.063-1.339-0.09-1.997    c-0.185-5.509-0.228-10.584-0.235-13.521v-0.137l0,0C22.993,16.968,23,16.047,23,16z M41,54.893v2.851l-10.412-3.547    c-0.373-0.178-0.803-0.178-1.176,0L19,57.743v-2.851L30,49.1L41,54.893z M52,25.5c0-0.827,0.673-1.5,1.5-1.5s1.5,0.673,1.5,1.5    v3.826l-3-2.043V25.5z M43,18.5c0-0.827,0.673-1.5,1.5-1.5s1.5,0.673,1.5,1.5v4.698l-3-2.043V18.5z M58,38.371    c-5.421-3.219-12.667-4.233-19.263-5.056c0.032-0.874,0.061-1.739,0.086-2.59c0.123-3.468,0.165-6.575,0.178-8.656L58,33.793    V38.371z" fill="#FFFFFF"/>
	</g>
</g>
<g>
</g>
<g>
</g>
<g>
</g>
<g>
</g>
<g>
</g>
<g>
</g>
<g>
</g>
<g>
</g>
<g>
</g>
<g>
</g>
<g>
</g>
<g>
</g>
<g>
</g>
<g>
</g>
<g>
</g>
</svg>
