<?xml version="1.0" encoding="iso-8859-1"?>
<!-- Generator: Adobe Illustrator 19.0.0, SVG Export Plug-In . SVG Version: 6.00 Build 0)  -->
<svg version="1.1" id="Layer_1" xmlns="http://www.w3.org/2000/svg" xmlns:xlink="http://www.w3.org/1999/xlink" x="0px" y="0px"
	 viewBox="0 0 512 512" style="enable-background:new 0 0 512 512;" xml:space="preserve">
<g>
	<g>
		<path d="M473.803,60.368c-24.636-24.637-57.439-38.205-92.364-38.205s-67.727,13.568-92.363,38.205L29.038,320.407
			C10.313,339.132,0,364.062,0,390.604c0,26.542,10.313,51.471,29.038,70.196c18.724,18.725,43.654,29.038,70.196,29.038
			s51.471-10.313,70.196-29.038l223.094-223.094c12.829-12.829,19.894-29.886,19.894-48.029c0-18.143-7.065-35.2-19.894-48.028
			c-12.828-12.829-29.886-19.895-48.029-19.895c-18.143,0-35.2,7.066-48.028,19.895L97.773,340.341l22.167,22.167l198.693-198.693
			c6.907-6.908,16.091-10.712,25.861-10.712s18.955,3.805,25.862,10.713c6.907,6.907,10.712,16.091,10.712,25.861
			s-3.805,18.954-10.712,25.862L147.262,438.633c-12.804,12.803-29.86,19.854-48.029,19.854s-35.225-7.051-48.029-19.854
			c-12.804-12.804-19.855-29.861-19.855-48.029c0-18.168,7.051-35.225,19.855-48.029l260.04-260.04
			c18.715-18.715,43.645-29.022,70.196-29.022c26.552,0,51.481,10.308,70.197,29.022c38.706,38.707,38.706,101.686,0,140.393
			L215.998,458.564l22.167,22.167l235.638-235.638C524.732,194.164,524.732,111.297,473.803,60.368z"/>
	</g>
</g>
<g>
</g>
<g>
</g>
<g>
</g>
<g>
</g>
<g>
</g>
<g>
</g>
<g>
</g>
<g>
</g>
<g>
</g>
<g>
</g>
<g>
</g>
<g>
</g>
<g>
</g>
<g>
</g>
<g>
</g>
</svg>
