<?xml version="1.0" encoding="iso-8859-1"?>
<!-- Generator: Adobe Illustrator 18.0.0, SVG Export Plug-In . SVG Version: 6.00 Build 0)  -->
<!DOCTYPE svg PUBLIC "-//W3C//DTD SVG 1.1//EN" "http://www.w3.org/Graphics/SVG/1.1/DTD/svg11.dtd">
<svg xmlns="http://www.w3.org/2000/svg" xmlns:xlink="http://www.w3.org/1999/xlink" version="1.1" id="Capa_1" x="0px" y="0px" viewBox="0 0 393.559 393.559" style="enable-background:new 0 0 393.559 393.559;" xml:space="preserve" width="512px" height="512px">
<g>
	<path d="M308.268,150.032h-13.207V98.28c0-26.25-10.223-50.93-28.787-69.493C247.712,10.223,223.032,0,196.782,0   c-54.197,0-98.29,44.088-98.29,98.28v51.752H85.291c-13.914,0-25.233,11.319-25.233,25.233v193.062   c0,13.913,11.319,25.233,25.233,25.233h222.977c13.914,0,25.233-11.319,25.233-25.233V175.265   C333.501,161.351,322.182,150.032,308.268,150.032z M113.492,98.28c0-45.921,37.364-83.28,83.29-83.28   c22.244,0,43.156,8.663,58.887,24.393c15.73,15.73,24.393,36.644,24.393,58.887v51.752h-13.9V98.28   c0-38.256-31.124-69.38-69.38-69.38c-38.262,0-69.39,31.124-69.39,69.38v51.752h-13.9V98.28z M251.161,150.032h-108.77V98.28   c0-29.985,24.399-54.38,54.39-54.38c29.985,0,54.38,24.395,54.38,54.38V150.032z M85.291,165.032h222.977   c5.643,0,10.233,4.59,10.233,10.233v2.981H75.058v-2.981C75.058,169.622,79.648,165.032,85.291,165.032z M318.501,193.245v157.1   H75.058v-157.1H318.501z M308.268,378.559H85.291c-5.643,0-10.233-4.59-10.233-10.233v-2.981h243.443v2.981   C318.501,373.969,313.911,378.559,308.268,378.559z" fill="#5e5e5e"/>
	<path d="M177.779,280.997v15.813c0,10.477,8.523,19,19,19c10.477,0,19-8.523,19-19v-15.822c6.874-5.651,11-14.196,11-23.208   c0-8.246-3.447-16.215-9.458-21.864c-6.096-5.729-14.074-8.596-22.443-8.077c-15.199,0.944-27.261,13.127-28.057,28.34   C166.315,265.842,170.44,274.998,177.779,280.997z M181.801,256.963c0.391-7.472,6.544-13.689,14.007-14.153   c0.326-0.02,0.65-0.03,0.973-0.03c3.842,0,7.457,1.425,10.268,4.066c3.05,2.867,4.73,6.75,4.73,10.934   c0,5.336-2.744,10.157-7.339,12.896c-2.27,1.353-3.661,3.8-3.661,6.443v19.691c0,2.206-1.794,4-4,4s-4-1.794-4-4v-19.691   c0-2.642-1.391-5.09-3.66-6.443C184.312,267.812,181.508,262.557,181.801,256.963z" fill="#5e5e5e"/>
</g>
<g>
</g>
<g>
</g>
<g>
</g>
<g>
</g>
<g>
</g>
<g>
</g>
<g>
</g>
<g>
</g>
<g>
</g>
<g>
</g>
<g>
</g>
<g>
</g>
<g>
</g>
<g>
</g>
<g>
</g>
</svg>
