<?xml version="1.0" encoding="iso-8859-1"?>
<!-- Generator: Adobe Illustrator 18.0.0, SVG Export Plug-In . SVG Version: 6.00 Build 0)  -->
<!DOCTYPE svg PUBLIC "-//W3C//DTD SVG 1.1//EN" "http://www.w3.org/Graphics/SVG/1.1/DTD/svg11.dtd">
<svg xmlns="http://www.w3.org/2000/svg" xmlns:xlink="http://www.w3.org/1999/xlink" version="1.1" id="Capa_1" x="0px" y="0px" viewBox="0 0 451.559 451.559" style="enable-background:new 0 0 451.559 451.559;" xml:space="preserve" width="512px" height="512px">
<g>
	<path d="M337.268,208.032H171.391V98.28c0-29.985,24.399-54.38,54.39-54.38c29.985,0,54.38,24.395,54.38,54.38v78.25   c0,4.142,3.358,7.5,7.5,7.5h28.9c4.142,0,7.5-3.358,7.5-7.5V98.28c0-26.25-10.223-50.93-28.787-69.493   C276.712,10.223,252.032,0,225.782,0c-54.197,0-98.29,44.088-98.29,98.28v109.752h-13.201c-13.914,0-25.233,11.319-25.233,25.233   v193.062c0,13.913,11.319,25.233,25.233,25.233h222.977c13.914,0,25.233-11.319,25.233-25.233V233.265   C362.501,219.351,351.182,208.032,337.268,208.032z M142.492,98.28c0-45.921,37.364-83.28,83.29-83.28   c22.244,0,43.156,8.663,58.887,24.393c15.73,15.73,24.393,36.644,24.393,58.887v70.75h-13.9V98.28   c0-38.256-31.124-69.38-69.38-69.38c-38.262,0-69.39,31.124-69.39,69.38v109.752h-13.9V98.28z M114.291,223.032h222.977   c5.643,0,10.233,4.59,10.233,10.233v2.981H104.058v-2.981C104.058,227.622,108.648,223.032,114.291,223.032z M347.501,251.245   v157.1H104.058v-157.1H347.501z M337.268,436.559H114.291c-5.643,0-10.233-4.59-10.233-10.233v-2.981h243.443v2.981   C347.501,431.969,342.911,436.559,337.268,436.559z" fill="#5e5e5e"/>
	<path d="M206.779,338.997v15.813c0,10.477,8.523,19,19,19c10.477,0,19-8.523,19-19v-15.822c6.874-5.651,11-14.196,11-23.208   c0-8.246-3.447-16.215-9.458-21.864c-6.096-5.729-14.076-8.596-22.443-8.077c-15.199,0.944-27.261,13.127-28.057,28.34   C195.315,323.842,199.44,332.998,206.779,338.997z M210.801,314.963c0.391-7.472,6.544-13.689,14.007-14.153   c0.326-0.02,0.65-0.03,0.973-0.03c3.842,0,7.457,1.425,10.268,4.066c3.05,2.867,4.73,6.75,4.73,10.934   c0,5.336-2.744,10.157-7.339,12.896c-2.27,1.353-3.661,3.8-3.661,6.443v19.691c0,2.206-1.794,4-4,4s-4-1.794-4-4v-19.691   c0-2.642-1.391-5.09-3.66-6.443C213.312,325.812,210.508,320.557,210.801,314.963z" fill="#5e5e5e"/>
</g>
<g>
</g>
<g>
</g>
<g>
</g>
<g>
</g>
<g>
</g>
<g>
</g>
<g>
</g>
<g>
</g>
<g>
</g>
<g>
</g>
<g>
</g>
<g>
</g>
<g>
</g>
<g>
</g>
<g>
</g>
</svg>
