<?xml version="1.0" encoding="iso-8859-1"?>
<!-- Generator: Adobe Illustrator 19.0.0, SVG Export Plug-In . SVG Version: 6.00 Build 0)  -->
<svg version="1.1" id="Layer_1" xmlns="http://www.w3.org/2000/svg" xmlns:xlink="http://www.w3.org/1999/xlink" x="0px" y="0px"
	 viewBox="0 0 512 512" style="enable-background:new 0 0 512 512;" xml:space="preserve">
<path style="fill:#CDD6E0;" d="M137.067,49.067h268.8c11.733,0,21.333,9.6,21.333,21.333v420.267c0,11.733-9.6,21.333-21.333,21.333
	H72c-11.733,0-21.333-9.6-21.333-21.333v-355.2L137.067,49.067z"/>
<path style="fill:#F2F2F2;" d="M1.6,441.6V116.267L117.867,0H356.8c11.733,0,21.333,9.6,21.333,21.333V441.6
	c0,11.733-9.6,21.333-21.333,21.333H22.933C11.2,462.933,1.6,453.333,1.6,441.6z"/>
<path style="fill:#CDD6E0;" d="M117.867,94.933c0,11.733-9.6,21.333-21.333,21.333H1.6L117.867,0V94.933z"/>
<rect x="165.867" y="91.733" style="fill:#FFD05C;" width="147.2" height="26.667"/>
<g>
	<rect x="67.733" y="334.933" style="fill:#ACB3BA;" width="104.533" height="26.667"/>
	<rect x="67.733" y="253.867" style="fill:#ACB3BA;" width="244.267" height="26.667"/>
	<rect x="67.733" y="172.8" style="fill:#ACB3BA;" width="244.267" height="26.667"/>
</g>
<polygon style="fill:#FFD15C;" points="243.733,380.8 216,449.067 284.267,421.333 "/>
<polygon style="fill:#334A5E;" points="228.8,416 216,449.067 249.067,436.267 "/>
<rect x="321.4" y="191.493" transform="matrix(0.7071 0.7071 -0.7071 0.7071 324.8706 -155.9909)" style="fill:#FF7058;" width="58.666" height="245.331"/>
<path style="fill:#40596B;" d="M493.333,160L504,170.667c8.533,8.533,8.533,21.333,0,29.867l-28.8,28.8l-41.6-41.6l28.8-28.8
	C472,152.533,485.867,152.533,493.333,160z"/>
<rect x="416.915" y="206.375" transform="matrix(0.7071 0.7071 -0.7071 0.7071 285.5271 -250.9731)" style="fill:#F2F2F2;" width="57.599" height="25.6"/>
<g>
</g>
<g>
</g>
<g>
</g>
<g>
</g>
<g>
</g>
<g>
</g>
<g>
</g>
<g>
</g>
<g>
</g>
<g>
</g>
<g>
</g>
<g>
</g>
<g>
</g>
<g>
</g>
<g>
</g>
</svg>
