<?xml version="1.0" encoding="utf-8"?>
<!-- Generator: Adobe Illustrator 16.0.0, SVG Export Plug-In . SVG Version: 6.00 Build 0)  -->
<!DOCTYPE svg PUBLIC "-//W3C//DTD SVG 1.1//EN" "http://www.w3.org/Graphics/SVG/1.1/DTD/svg11.dtd" [
	<!ENTITY ns_flows "http://ns.adobe.com/Flows/1.0/">
	<!ENTITY ns_extend "http://ns.adobe.com/Extensibility/1.0/">
	<!ENTITY ns_ai "http://ns.adobe.com/AdobeIllustrator/10.0/">
	<!ENTITY ns_graphs "http://ns.adobe.com/Graphs/1.0/">
]>
<svg version="1.1" id="Layer_1" xmlns:x="&ns_extend;" xmlns:i="&ns_ai;" xmlns:graph="&ns_graphs;"
	 xmlns="http://www.w3.org/2000/svg" xmlns:xlink="http://www.w3.org/1999/xlink" xmlns:a="http://ns.adobe.com/AdobeSVGViewerExtensions/3.0/"
	 x="0px" y="0px" width="548.66px" height="611.998px" viewBox="31.669 90.001 548.66 611.998"
	 style="enable-background:new 31.669 90.001 548.66 611.998;" xml:space="preserve">
<style type="text/css">
<![CDATA[
	.st0{fill:#E6AF78;}
	.st1{fill:#B4E1FA;}
	.st2{fill:#515262;}
	.st3{fill:#F0C087;}
	.st4{fill:#5A4146;}
	.st5{fill:#5B5D6E;}
	.st6{fill:#694B4B;}
	.st7{fill:#D29B6E;}
	.st8{fill:#A0D2F0;}
	.st9{fill:#785550;}
]]>
</style>
<polygon class="st0" points="400.961,522.628 400.961,448.771 211.041,448.771 211.041,522.628 306.001,607.036 "/>
<path class="st1" d="M547.792,557.177l-130.563-30.721c-1.972-0.464-3.785-1.251-5.482-2.206L306,585.936l-101.624-64.669
	c-2.631,2.477-5.896,4.317-9.605,5.19L64.208,557.178c-19.065,4.486-32.539,21.498-32.539,41.083v82.636
	c0,11.656,9.448,21.103,21.102,21.103h506.453c11.655,0,21.103-9.448,21.103-21.103v-82.636
	C580.329,578.675,566.855,561.661,547.792,557.177z"/>
<path class="st7" d="M211.041,448.771v77.926c119.624,43.1,189.919-64.768,189.919-64.768V448.77L211.041,448.771L211.041,448.771z"
	/>
<path class="st3" d="M168.836,206.097l9.194,202.279c0.858,18.896,10.125,36.421,25.257,47.77l43.626,32.721
	c10.958,8.218,24.286,12.662,37.984,12.662h42.205c13.698,0,27.025-4.443,37.984-12.662l43.626-32.721
	c15.133-11.351,24.398-28.872,25.257-47.77l9.194-202.279C443.163,206.097,168.836,206.097,168.836,206.097z"/>
<path class="st0" d="M274.348,248.3c42.205,0,105.511-10.551,120.526-42.205H168.836l9.194,202.279
	c0.858,18.896,10.125,36.42,25.258,47.771l43.626,32.721c10.959,8.218,24.287,12.662,37.984,12.662h21.103
	c-21.103,0-63.308-42.205-63.308-94.96c0-25.802,0-94.96,0-126.614C242.694,269.402,253.245,248.3,274.348,248.3z"/>
<g>
	<path class="st8" d="M109.131,633.522l-68.37-61.418c-5.729,7.255-9.088,16.384-9.088,26.156v82.636
		c0,11.656,9.448,21.103,21.102,21.103h73.858v-29.23C126.632,657.795,120.269,643.527,109.131,633.522z"/>
	<path class="st8" d="M502.871,633.522l68.37-61.418c5.729,7.255,9.088,16.384,9.088,26.156v82.636
		c0,11.656-9.447,21.103-21.102,21.103h-73.858v-29.23C485.369,657.795,491.732,643.527,502.871,633.522z"/>
</g>
<polygon class="st5" points="332.379,701.998 279.623,701.998 286.217,607.036 325.784,607.036 "/>
<path class="st2" d="M332.379,585.935h-52.756v19.857c0,6.516,5.281,11.797,11.796,11.797h29.162
	c6.516,0,11.796-5.281,11.796-11.797v-19.857H332.379z"/>
<g>
	<path class="st8" d="M209.56,499.138l96.442,86.797c0,0-27.009,13.635-60.339,41.116c-6.875,5.668-17.275,3.372-20.963-4.74
		l-45.311-99.682l14.334-21.5C197.29,495.773,204.777,494.834,209.56,499.138z"/>
	<path class="st8" d="M402.442,499.138l-96.441,86.797c0,0,27.009,13.635,60.339,41.116c6.875,5.668,17.275,3.372,20.963-4.74
		l45.311-99.682l-14.334-21.5C414.711,495.773,407.224,494.834,402.442,499.138z"/>
</g>
<path class="st9" d="M369.966,136.195l9.892,69.902c45.152,9.03,51.66,79.891,52.597,100.129c0.17,3.673,1.343,7.22,3.335,10.31
	l17.229,26.725c0,0-5.896-44.184,21.102-73.858C474.12,269.402,483.391,93.99,369.966,136.195z"/>
<path class="st6" d="M178.948,117.29l15.606,10.661c-70.56,52.096-57.372,141.451-57.372,141.451
	c21.102,21.102,21.102,73.858,21.102,73.858l21.102-21.102c0,0-8.144-60.958,31.653-84.409
	c36.929-21.762,69.242-10.551,102.215-10.551c88.365,0,113.095-33.302,108.809-73.858C419.843,132.355,387.758,88.644,306,90.033
	C273.004,90.594,211.041,100.584,178.948,117.29z"/>
<path class="st4" d="M172.792,217.966c0,0-11.21-44.183,21.762-90.014c-70.56,52.096-57.372,141.451-57.372,141.451
	c21.102,21.102,21.102,73.858,21.102,73.858l21.102-21.102c0,0-8.144-60.958,31.653-84.409
	c36.929-21.762,69.242-10.551,102.215-10.551c14.371,0,26.894-0.962,38.049-2.612C283.25,226.869,243.135,175.321,172.792,217.966z"
	/>
<path class="st7" d="M435.398,390.74l15.27-7.636c3.574-1.787,5.832-5.439,5.832-9.437v-39.713c0-3.996-2.258-7.65-5.832-9.437
	l-15.27-7.636V390.74z"/>
<path class="st8" d="M443.165,680.895h-73.857c-5.827,0-10.551,4.724-10.551,10.551v10.551h94.96v-10.551
	C453.717,685.619,448.991,680.895,443.165,680.895z"/>
<path class="st7" d="M179.285,385.464l-15.27-7.636c-3.574-1.787-5.832-5.439-5.832-9.437v-39.713c0-3.996,2.258-7.65,5.832-9.437
	l15.27-7.636V385.464z"/>
</svg>
