<?xml version="1.0" encoding="utf-8"?>
<!-- Generator: Adobe Illustrator 16.0.0, SVG Export Plug-In . SVG Version: 6.00 Build 0)  -->
<!DOCTYPE svg PUBLIC "-//W3C//DTD SVG 1.1//EN" "http://www.w3.org/Graphics/SVG/1.1/DTD/svg11.dtd" [
	<!ENTITY ns_flows "http://ns.adobe.com/Flows/1.0/">
	<!ENTITY ns_extend "http://ns.adobe.com/Extensibility/1.0/">
	<!ENTITY ns_ai "http://ns.adobe.com/AdobeIllustrator/10.0/">
	<!ENTITY ns_graphs "http://ns.adobe.com/Graphs/1.0/">
]>
<svg version="1.1" id="Layer_1" xmlns:x="&ns_extend;" xmlns:i="&ns_ai;" xmlns:graph="&ns_graphs;"
	 xmlns="http://www.w3.org/2000/svg" xmlns:xlink="http://www.w3.org/1999/xlink" xmlns:a="http://ns.adobe.com/AdobeSVGViewerExtensions/3.0/"
	 x="0px" y="0px" width="366px" height="366.037px" viewBox="72.993 72.971 366 366.037"
	 style="enable-background:new 72.993 72.971 366 366.037;" xml:space="preserve">
<style type="text/css">
<![CDATA[
	.st0{fill:#E1E6E9;}
	.st1{fill:#E56353;}
	.st2{fill:#64798A;}
	.st3{fill:#D15241;}
]]>
</style>
<g>
	<path class="st0" d="M155.845,177.496v43.333v43.368c100.963,3.929,235.942,101.648,235.942,101.648V75.813
		C391.787,75.813,257.456,175.958,155.845,177.496z"/>
	<path class="st1" d="M397.051,72.971c23.12,0,41.942,66.188,41.942,147.857c0,81.667-18.822,147.855-41.942,147.855
		c-23.19,0-42.014-66.188-42.014-147.855C355.037,139.159,373.859,72.971,397.051,72.971z"/>
	<path class="st3" d="M397.066,356.911c-10.179-2.966-29.566-53.138-29.566-136.066c0-83.33,19.63-133.612,29.697-136.099
		c9.733,2.485,29.363,52.769,29.363,136.099C426.563,303.773,407.173,353.945,397.066,356.911z"/>
	<path class="st0" d="M430.087,220.838c0,7.342-1.43,14.401-3.969,20.872c-8.427,21.325-29.28,36.426-53.685,36.426
		c-0.54,0-1.01-0.05-1.6-0.05c-1.998-16.791-3.328-35.874-3.328-57.248c0-21.339,1.33-40.422,3.328-57.213
		c0.591,0,1.061-0.05,1.6-0.05c24.403,0,45.258,15.102,53.685,36.426C428.657,206.473,430.087,213.497,430.087,220.838z"/>
	<path class="st0" d="M98.401,187.338H79.574c-3.654,0-6.581,2.911-6.581,6.509v53.964c0,3.599,2.928,6.544,6.581,6.544h18.828
		c3.654,0,6.58-2.946,6.58-6.544v-53.963C104.981,190.249,102.055,187.338,98.401,187.338z"/>
	<path class="st2" d="M211.829,430.994l-29.286-164.285h-63.978l29.904,167.149c0.685,2.995,3.385,5.149,6.527,5.149H205.3
		C209.569,439.009,212.746,435.088,211.829,430.994z"/>
	<path class="st1" d="M197.699,167.285h-97.605c-4.783,0-8.664,3.825-8.664,8.581v90c0,4.721,3.881,8.581,8.664,8.581h97.605
		c4.748,0,8.628-3.86,8.628-8.581v-90C206.327,171.108,202.447,167.285,197.699,167.285z"/>
</g>
</svg>
