<?xml version="1.0" encoding="utf-8"?>
<!-- Generator: Adobe Illustrator 16.0.0, SVG Export Plug-In . SVG Version: 6.00 Build 0)  -->
<!DOCTYPE svg PUBLIC "-//W3C//DTD SVG 1.1//EN" "http://www.w3.org/Graphics/SVG/1.1/DTD/svg11.dtd" [
	<!ENTITY ns_flows "http://ns.adobe.com/Flows/1.0/">
	<!ENTITY ns_extend "http://ns.adobe.com/Extensibility/1.0/">
	<!ENTITY ns_ai "http://ns.adobe.com/AdobeIllustrator/10.0/">
	<!ENTITY ns_graphs "http://ns.adobe.com/Graphs/1.0/">
]>
<svg version="1.1" id="Layer_1" xmlns:x="&ns_extend;" xmlns:i="&ns_ai;" xmlns:graph="&ns_graphs;"
	 xmlns="http://www.w3.org/2000/svg" xmlns:xlink="http://www.w3.org/1999/xlink" xmlns:a="http://ns.adobe.com/AdobeSVGViewerExtensions/3.0/"
	 x="0px" y="0px" width="428.75px" height="512px" viewBox="41.625 0 428.75 512"
	 style="enable-background:new 41.625 0 428.75 512;" xml:space="preserve">
<style type="text/css">
<![CDATA[
	.st0{fill:#876B2A;}
	.st1{fill:#F1543F;}
	.st2{fill:#F8B64C;}
	.st3{fill:#FF7058;}
	.st4{fill:#FFD15C;}
	.st5{fill:#FFFFFF;}
]]>
</style>
<g>
	<polygon class="st4" points="420.688,247.433 470.375,209.739 420.688,171.943 449.209,116.409 388.031,104.113 389.645,41.625 
		329.272,57.046 303.672,0 256,40.315 208.328,0 182.728,57.046 122.356,41.524 123.969,104.113 62.791,116.409 91.313,171.943 
		41.625,209.739 91.313,247.433 62.791,303.068 123.969,315.363 122.356,377.852 182.728,362.432 208.328,419.478 256,379.162 
		303.672,419.478 329.272,362.432 389.645,377.852 388.031,315.363 449.209,303.068 	"/>
	<g>
		<polygon class="st3" points="182.728,362.432 122.356,377.852 123.767,321.311 111.874,342.477 46.665,457.877 121.146,437.216 
			141.808,512 195.125,417.764 201.978,405.468 		"/>
		<polygon class="st3" points="400.025,338.746 388.132,317.581 389.645,377.852 329.272,362.432 310.828,403.452 317.782,415.748 
			372.208,512 392.869,437.216 467.352,457.877 		"/>
	</g>
	<g>
		<polygon class="st1" points="201.978,405.468 195.125,417.764 176.277,375.836 110.564,392.668 111.874,342.477 123.767,321.311 
			122.356,377.852 182.728,362.432 		"/>
		<polygon class="st1" points="401.438,392.668 335.723,375.836 317.782,415.748 310.828,403.452 329.272,362.432 389.645,377.852 
			388.132,317.581 400.025,338.746 		"/>
	</g>
	<ellipse class="st2" cx="256" cy="209.738" rx="133.141" ry="133.543"/>
	<polygon class="st2" points="224.252,278.477 173.959,228.082 197.241,204.699 224.252,231.811 314.759,140.901 338.041,164.283 	
		"/>
</g>
<g>
	<path class="st0" d="M194.111,214.236c-2.448,3.517-3.671,8.258-3.671,14.222c0,5.014,2.542,8.662,7.628,10.943
		c2.139,0.95,4.111,1.426,5.917,1.426h0.499c3.802,0,7.224-1.165,10.266-3.493c3.564-2.709,5.347-6.535,5.347-11.478
		c0-3.398-0.066-7.141-0.196-11.228c-0.131-4.087-0.255-7.426-0.374-10.016c-0.119-2.59-0.315-6.416-0.588-11.478
		c-0.274-5.062-0.458-8.459-0.553-10.194c-0.095-1.782-0.297-5.394-0.606-10.836l9.303-1.747c0.451,9.767,0.998,26.08,1.64,48.94
		c0.071,2.614,0.107,4.848,0.107,6.701c0,5.489-1.188,10.021-3.564,13.599c-2.376,3.576-5.667,6.291-9.874,8.145
		c-3.327,1.473-6.892,2.21-10.693,2.21h-0.677c-3.161,0-6.547-0.868-10.159-2.603c-3.541-1.688-6.369-4.069-8.483-7.146
		c-2.115-3.078-3.172-6.885-3.172-11.424c0-6.701,1.034-12.119,3.101-16.254c0.356-0.736,0.725-1.354,1.105-1.854L194.111,214.236z"
		/>
	<path class="st0" d="M238.417,226.498c0.522-9.743,0.784-17.275,0.784-22.599c0-7.913-0.285-15.042-0.855-21.387
		c-0.095-1.141-0.535-4.408-1.319-9.802l9.161-3.101c0.143,0.57,0.273,1.224,0.392,1.96c0.119,0.737,0.202,1.354,0.25,1.854
		c0.047,0.499,0.119,1.242,0.214,2.228c0.095,0.986,0.166,1.705,0.214,2.156c0.736,7.367,1.105,16.088,1.105,26.163
		c0,7.699-0.202,14.745-0.606,21.137L238.417,226.498z"/>
	<path class="st0" d="M297.587,226.569c-4.989,0-8.875-1.461-11.655-4.384c-1.188,0.832-3.113,1.759-5.773,2.78
		c-2.781,1.069-6.108,1.604-9.98,1.604c-5.632,0-10.896-2.519-15.791-7.557l5.239-7.378c2.162,1.996,4.183,3.434,6.062,4.313
		c1.924,0.903,3.719,1.354,5.381,1.354c1.094,0,2.187-0.119,3.279-0.356c1.094-0.237,1.932-0.463,2.514-0.677
		c0.582-0.214,1.432-0.558,2.549-1.034c0.831-0.356,1.484-0.725,1.96-1.105L270,186.683l8.447-3.529
		c0.783,2.067,1.906,4.812,3.369,8.234c1.461,3.422,2.513,5.941,3.153,7.557c1.235,3.089,2.839,6.951,4.813,11.584l0.569,1.39
		c0.381,0.951,0.731,1.711,1.053,2.281c0.32,0.57,0.748,1.129,1.283,1.675c0.535,0.547,1.205,0.944,2.015,1.194
		c0.807,0.249,1.771,0.374,2.887,0.374c1.308,0,2.399,0.434,3.279,1.301c0.879,0.868,1.317,1.955,1.317,3.262
		c0,1.307-0.438,2.395-1.317,3.262C299.986,226.135,298.895,226.569,297.587,226.569z"/>
	<path class="st0" d="M310.989,220.795c-1.901,1.854-3.897,3.279-5.988,4.277c-2.092,0.998-4.587,1.497-7.485,1.497
		c-1.899,0-3.291-0.927-4.17-2.78c-0.236-0.499-0.356-1.093-0.356-1.782c0-1.331,0.428-2.406,1.282-3.226
		c0.855-0.82,1.938-1.266,3.244-1.337c3.019,0,5.655-1.176,7.914-3.529c1.092-1.117,2.125-2.572,3.101-4.367
		c0.975-1.793,1.947-3.647,2.924-5.561c0.974-1.912,1.924-3.451,2.852-4.616c2.472-2.875,5.334-4.313,8.591-4.313
		c2.993,0,5.507,0.826,7.538,2.478c2.031,1.652,3.582,3.772,4.651,6.362c0.665,1.568,1.081,3.22,1.247,4.955
		c0.143,0.927,0.215,1.925,0.215,2.994c0,4.896-1.426,8.697-4.276,11.406c-1.07,0.998-2.176,1.741-3.315,2.228
		c-1.141,0.486-2.543,0.73-4.206,0.73c-1.545,0-3.119-0.25-4.723-0.749c-1.604-0.499-2.848-0.986-3.726-1.461
		c-0.88-0.475-2.057-1.164-3.528-2.067C311.868,221.389,311.274,221.009,310.989,220.795z M316.336,213.274
		c2.162,1.568,4.919,2.792,8.271,3.671c0.808,0.214,1.461,0.321,1.961,0.321c0.948,0,1.661-0.397,2.139-1.194
		c0.475-0.796,0.713-1.788,0.713-2.978c0-0.784-0.084-1.473-0.25-2.067c-0.381-1.426-0.992-2.745-1.836-3.957
		c-0.844-1.212-1.824-2.091-2.94-2.638c-0.666-0.333-1.343-0.499-2.031-0.499c-0.665,0-1.318,0.523-1.96,1.568
		c-0.784,1.283-1.641,2.84-2.566,4.669L316.336,213.274z"/>
</g>
<g>
	<path class="st5" d="M192.111,211.236c-2.448,3.517-3.671,8.258-3.671,14.222c0,5.014,2.542,8.662,7.628,10.943
		c2.139,0.95,4.111,1.426,5.917,1.426h0.499c3.802,0,7.224-1.165,10.266-3.493c3.564-2.709,5.347-6.535,5.347-11.478
		c0-3.398-0.066-7.141-0.196-11.228c-0.131-4.087-0.255-7.426-0.374-10.016c-0.119-2.59-0.315-6.416-0.588-11.478
		c-0.274-5.062-0.458-8.459-0.553-10.194c-0.095-1.782-0.297-5.394-0.606-10.836l9.303-1.747c0.451,9.767,0.998,26.08,1.64,48.94
		c0.071,2.614,0.107,4.848,0.107,6.701c0,5.489-1.188,10.021-3.564,13.599c-2.376,3.576-5.667,6.291-9.874,8.145
		c-3.327,1.473-6.892,2.21-10.693,2.21h-0.677c-3.161,0-6.547-0.868-10.159-2.603c-3.541-1.688-6.369-4.069-8.483-7.146
		c-2.115-3.078-3.172-6.885-3.172-11.424c0-6.701,1.034-12.119,3.101-16.254c0.356-0.736,0.725-1.354,1.105-1.854L192.111,211.236z"
		/>
	<path class="st5" d="M236.417,223.498c0.522-9.743,0.784-17.275,0.784-22.599c0-7.913-0.285-15.042-0.855-21.387
		c-0.095-1.141-0.535-4.408-1.319-9.802l9.161-3.101c0.143,0.57,0.273,1.224,0.392,1.96c0.119,0.737,0.202,1.354,0.25,1.854
		c0.047,0.499,0.119,1.242,0.214,2.228c0.095,0.986,0.166,1.705,0.214,2.156c0.736,7.367,1.105,16.088,1.105,26.163
		c0,7.699-0.202,14.745-0.606,21.137L236.417,223.498z"/>
	<path class="st5" d="M295.587,223.569c-4.989,0-8.875-1.461-11.655-4.384c-1.188,0.832-3.113,1.759-5.773,2.78
		c-2.781,1.069-6.108,1.604-9.98,1.604c-5.632,0-10.896-2.519-15.791-7.557l5.239-7.378c2.162,1.996,4.183,3.434,6.062,4.313
		c1.924,0.903,3.719,1.354,5.381,1.354c1.094,0,2.187-0.119,3.279-0.356c1.094-0.237,1.932-0.463,2.514-0.677
		c0.582-0.214,1.432-0.558,2.549-1.034c0.831-0.356,1.484-0.725,1.96-1.105L268,183.683l8.447-3.529
		c0.783,2.067,1.906,4.812,3.369,8.234c1.461,3.422,2.513,5.941,3.153,7.557c1.235,3.089,2.839,6.951,4.813,11.584l0.569,1.39
		c0.381,0.951,0.731,1.711,1.053,2.281c0.32,0.57,0.748,1.129,1.283,1.675c0.535,0.547,1.205,0.944,2.015,1.194
		c0.807,0.249,1.771,0.374,2.887,0.374c1.308,0,2.399,0.434,3.279,1.301c0.879,0.868,1.317,1.955,1.317,3.262
		c0,1.307-0.438,2.395-1.317,3.262C297.986,223.135,296.895,223.569,295.587,223.569z"/>
	<path class="st5" d="M308.989,217.795c-1.901,1.854-3.897,3.279-5.988,4.277c-2.092,0.998-4.587,1.497-7.485,1.497
		c-1.899,0-3.291-0.927-4.17-2.78c-0.236-0.499-0.356-1.093-0.356-1.782c0-1.331,0.428-2.406,1.282-3.226
		c0.855-0.82,1.938-1.266,3.244-1.337c3.019,0,5.655-1.176,7.914-3.529c1.092-1.117,2.125-2.572,3.101-4.367
		c0.975-1.793,1.947-3.647,2.924-5.561c0.974-1.912,1.924-3.451,2.852-4.616c2.472-2.875,5.334-4.313,8.591-4.313
		c2.993,0,5.507,0.826,7.538,2.478c2.031,1.652,3.582,3.772,4.651,6.362c0.665,1.568,1.081,3.22,1.247,4.955
		c0.143,0.927,0.215,1.925,0.215,2.994c0,4.896-1.426,8.697-4.276,11.406c-1.07,0.998-2.176,1.741-3.315,2.228
		c-1.141,0.486-2.543,0.73-4.206,0.73c-1.545,0-3.119-0.25-4.723-0.749c-1.604-0.499-2.848-0.986-3.726-1.461
		c-0.88-0.475-2.057-1.164-3.528-2.067C309.868,218.389,309.274,218.009,308.989,217.795z M314.336,210.274
		c2.162,1.568,4.919,2.792,8.271,3.671c0.808,0.214,1.461,0.321,1.961,0.321c0.948,0,1.661-0.397,2.139-1.194
		c0.475-0.796,0.713-1.788,0.713-2.978c0-0.784-0.084-1.473-0.25-2.067c-0.381-1.426-0.992-2.745-1.836-3.957
		c-0.844-1.212-1.824-2.091-2.94-2.638c-0.666-0.333-1.343-0.499-2.031-0.499c-0.665,0-1.318,0.523-1.96,1.568
		c-0.784,1.283-1.641,2.84-2.566,4.669L314.336,210.274z"/>
</g>
</svg>
