<?xml version="1.0" encoding="utf-8"?>
<!-- Generator: Adobe Illustrator 16.0.0, SVG Export Plug-In . SVG Version: 6.00 Build 0)  -->
<!DOCTYPE svg PUBLIC "-//W3C//DTD SVG 1.1//EN" "http://www.w3.org/Graphics/SVG/1.1/DTD/svg11.dtd">
<svg version="1.1" id="Capa_1" xmlns="http://www.w3.org/2000/svg" xmlns:xlink="http://www.w3.org/1999/xlink" x="0px" y="0px"
	 width="612px" height="612px" viewBox="0 90 612 612" enable-background="new 0 90 612 612" xml:space="preserve">
<rect y="227.312" fill="#84DBFF" width="611.88" height="337.136"/>
<path fill="#40596B" d="M586.345,90H25.535C11.443,90,0,101.442,0,115.535v111.776h611.88V115.535
	C611.88,101.442,600.437,90,586.345,90z"/>
<g>
	<rect x="38.182" y="128.182" fill="#F2F2F2" width="109.97" height="60.947"/>
	<rect x="171.76" y="128.182" fill="#F2F2F2" width="109.97" height="60.947"/>
	<rect x="313.648" y="128.182" fill="#F2F2F2" width="109.97" height="60.947"/>
	<rect x="455.417" y="128.182" fill="#F2F2F2" width="109.97" height="60.947"/>
</g>
<path fill="#40596B" d="M0,564.568v111.896C0,690.558,11.443,702,25.535,702h560.93C600.558,702,612,690.558,612,676.465V564.568H0z
	"/>
<g>
	<rect x="38.182" y="602.75" fill="#F2F2F2" width="109.97" height="60.827"/>
	<rect x="180.071" y="602.75" fill="#F2F2F2" width="109.97" height="60.827"/>
	<rect x="321.839" y="602.75" fill="#F2F2F2" width="109.97" height="60.827"/>
	<rect x="463.607" y="602.75" fill="#F2F2F2" width="109.97" height="60.827"/>
</g>
<path fill="#FF7058" d="M305.94,276.939c38.63,0,70,31.345,70,70c0,38.63-31.369,70-70,70c-38.655,0-70-31.369-70-70
	C235.939,308.284,267.285,276.939,305.94,276.939z"/>
<g>
	<path fill="#FFFFFF" d="M221.447,515.241h-12.365l-20.105-22.843h-13.97v22.843h-10.572v-66.168c3.398,0,8.527,0.016,15.386,0.047
		c6.859,0.032,11.988,0.048,15.386,0.048c7.3,0,13.01,2.123,17.132,6.371c4.122,4.247,6.183,9.329,6.183,15.244
		c0,5.223-1.463,9.738-4.389,13.545c-2.926,3.808-7.441,6.151-13.545,7.032l19.728,21.993L221.447,515.241z M175.007,458.796v23.975
		h20.105c4.153,0,7.3-1.133,9.439-3.397c2.14-2.266,3.209-5.066,3.209-8.401c0-3.272-1.07-6.119-3.209-8.542
		c-2.139-2.423-5.254-3.634-9.345-3.634H175.007z"/>
	<path fill="#FFFFFF" d="M328.293,515.241h-48.801v-66.073h48.518v10.288h-37.945v17.84h36.435v9.816h-36.435v17.746h38.229V515.241
		z"/>
	<path fill="#FFFFFF" d="M444.483,506.746c-6.607,6.544-14.882,9.816-24.824,9.816c-5.79,0-10.949-0.943-15.48-2.832
		c-4.53-1.888-8.181-4.436-10.949-7.646c-2.769-3.209-4.861-6.796-6.277-10.76c-1.416-3.965-2.123-8.181-2.123-12.648
		s0.724-8.731,2.171-12.79c1.447-4.06,3.555-7.74,6.324-11.044c2.769-3.304,6.434-5.931,10.996-7.882
		c4.563-1.95,9.675-2.926,15.339-2.926c9.438,0,17.493,3.335,24.164,10.005l-7.08,6.797c-4.593-4.531-10.288-6.797-17.084-6.797
		c-7.866,0-13.907,2.423-18.123,7.269c-4.217,4.846-6.293,10.604-6.23,17.273c0.063,6.67,2.14,12.35,6.23,17.037
		c4.09,4.688,10.131,7.032,18.123,7.032c3.146,0,6.292-0.629,9.438-1.888s5.853-3.021,8.118-5.286L444.483,506.746z"/>
</g>
</svg>
