<?xml version="1.0" encoding="utf-8"?>
<!-- Generator: Adobe Illustrator 21.1.0, SVG Export Plug-In . SVG Version: 6.00 Build 0)  -->
<svg version="1.1" id="Capa_1" xmlns="http://www.w3.org/2000/svg" xmlns:xlink="http://www.w3.org/1999/xlink" x="0px" y="0px"
	 viewBox="0 0 512 512" style="enable-background:new 0 0 512 512;" xml:space="preserve">
<style type="text/css">
	.st0{fill:#666633;}
	.st1{fill:#D43D21;}
	.st2{fill:#DEC8AE;}
</style>
<circle class="st0" cx="256" cy="256" r="256"/>
<g>
	<g id="Guides_For_Artboard_27_">
	</g>
	<g id="Artwork_26_">
	</g>
	<g id="Layer_2_26_">
		<g>
			<path class="st1" d="M296.7,266.7c31.9-30,71.5-67.3,77-100.4c3.8-23.4,0.1-42.8-11.1-57.5C351.2,94,334.1,85.5,310,82.9
				c-2.3-0.2-4.4-0.3-6.5-0.3c-17,0-34.2,6.3-47.4,17c-13.2-10.7-30.4-17-47.3-17c-2.1,0-4.2,0.1-6.5,0.3
				c-24.1,2.6-41.2,11-52.5,25.9c-11.2,14.7-14.9,34-11.1,57.5c5.4,33.2,45,70.4,77,100.4c0,0,15.9,16,20.7,20.1
				c3.6,3.1,11.4,9.3,19.8,9.3c8.4,0,16.2-6.2,19.8-9.3C280.8,282.7,296.7,266.7,296.7,266.7z"/>
			<path class="st2" d="M199.8,318.3c-1.7-1.3-15.5-11.7-53.7-14.3c-2.1-0.2-4.2-1.7-6.1-2.9c-0.5-0.3-0.9-0.6-1.4-0.9
				c-1.9-1.3-3.8-2.7-5.3-4.5c-2.9-3.5-6.2-6.4-9-10.3c-18.6-25.9-36.8-31.1-39.5-32.1c-3.6-1.7-6.1-2.2-6.9-4.7
				c-0.3-1.1-3.5-31.2-4-36.3c-1.6-14.5-3.1-25.2-11.4-28.1c-2.1-0.8-3.7-0.5-5.2,1.2c-1.9,2-3,12.5-3.6,19.2c0,0-3.1,38.9-2.8,52.4
				c0.4,13.5,23.7,67.3,36.2,79.9s70.4,45.5,70.4,45.5c2.1,1.7,13.6,10.6,13.6,22.3v13.2c0,0-1.6,12.2,11.7,12.2s31.8,0.1,45,0.1
				s10.6-11.9,10.6-16.1c0-3,0-5.3,0-6.5c0-0.5,0-0.7,0-0.7c0.2-4.3,0.9-8.6,1.4-12.8c1.5-4.9,0.3-14.1-0.4-17.7
				C231.7,341.4,203,320.8,199.8,318.3z"/>
			<path class="st2" d="M458.5,204.6c-0.5-6.7-1.7-17.2-3.6-19.2c-1.6-1.7-3.1-1.9-5.2-1.2c-8.3,2.9-9.9,13.7-11.4,28.1
				c-0.6,5-3.7,35.1-4,36.3c-0.8,2.5-3.3,3-6.9,4.7c-2.7,1-20.9,6.2-39.5,32.1c-2.8,3.9-6.1,6.8-9,10.3c-1.5,1.7-3.4,3.1-5.3,4.5
				c-0.5,0.3-0.9,0.6-1.4,0.9c-1.9,1.2-4,2.7-6.1,2.9c-38.2,2.5-52,13-53.7,14.3c-3.1,2.4-31.9,23-39.7,57.9
				c-0.7,3.6-1.8,12.8-0.4,17.7c0.5,4.3,1.2,8.5,1.4,12.8c0,0,0,0.3,0,0.7c0,1.1,0,3.5,0,6.5c0,4.2-2.6,16.1,10.6,16.1
				c13.2,0,31.7-0.1,45-0.1s11.7-12.2,11.7-12.2v-13.2c0-11.7,11.6-20.6,13.6-22.3c0,0,62.4-36,70.4-45.5s34.7-66.8,36.2-79.9
				S458.5,204.6,458.5,204.6z"/>
		</g>
	</g>
</g>
</svg>
