<?xml version="1.0" encoding="utf-8"?>
<!-- Generator: Adobe Illustrator 21.1.0, SVG Export Plug-In . SVG Version: 6.00 Build 0)  -->
<svg version="1.1" xmlns="http://www.w3.org/2000/svg" xmlns:xlink="http://www.w3.org/1999/xlink" x="0px" y="0px" width="130px"
	 height="130px" viewBox="0 0 130 130" style="enable-background:new 0 0 130 130;" xml:space="preserve">
<g id="Layer_1">
	<g>
		<g>
			<path d="M89.4,58.6c0.5-0.6,0.4-1.5-0.2-2.1c-0.6-0.5-1.5-0.4-2.1,0.2l-5.7,6.9c-0.7,0.8-0.9,1.9-0.6,3c0.3,1,1.1,1.9,2.1,2.2
				l3.8,1.3c0.2,0.1,0.3,0.1,0.5,0.1c0.6,0,1.2-0.4,1.4-1c0.3-0.8-0.1-1.6-0.9-1.9l-3.8-1.3c-0.1,0-0.2-0.1-0.2-0.2
				c0-0.1,0-0.2,0.1-0.3L89.4,58.6z"/>
		</g>
	</g>
	<g>
		<g>
			<path d="M84.9,50.2c-0.8-1.6-2.8-3.5-7.8-3.3c-2.7,0.1-5,0.8-5.1,0.8c-0.8,0.2-1.2,1-1,1.8c0.2,0.8,1,1.2,1.8,1
				c0,0,2.1-0.6,4.4-0.7c1.7-0.1,3.8,0.1,4.7,1.3c0,0.3,0,0.6,0.1,0.9c0.3,0.5,0.8,0.8,1.3,0.8c0.2,0,0.5-0.1,0.7-0.2
				C85,52.2,85.4,51.1,84.9,50.2z"/>
		</g>
	</g>
	<g>
		<g>
			<path d="M106.5,59.5c-0.1-0.1-1.5-2.1-3.5-3.8c-3.8-3.2-6.5-2.9-8.2-2.1c-0.9,0.4-1.3,1.5-0.9,2.4c0.3,0.7,1.2,1.1,1.9,0.7
				c0.3-0.1,0.5-0.4,0.7-0.6c2.6-0.7,6.4,3.5,7.6,5.2c0.3,0.4,0.7,0.6,1.2,0.6c0.3,0,0.6-0.1,0.9-0.3
				C106.8,61.1,107,60.2,106.5,59.5z"/>
		</g>
	</g>
	<g>
		<g>
			<path d="M51.1,73.9c-0.2-0.8-1.1-1.2-1.8-1l-3.8,1.2c-0.1,0-0.2,0-0.3-0.1C45.1,74,45,73.9,45,73.7l0.6-9
				c0.1-0.8-0.5-1.5-1.4-1.6c-0.8-0.1-1.5,0.5-1.6,1.4l-0.6,9c-0.1,1.1,0.4,2.1,1.2,2.8c0.6,0.5,1.3,0.7,2,0.7c0.3,0,0.6,0,0.9-0.1
				l3.8-1.2C50.9,75.5,51.4,74.7,51.1,73.9z"/>
		</g>
	</g>
	<g>
		<g>
			<path d="M38.3,63.2c-0.2-0.5-0.6-0.9-1.1-1c-5.6-1.7-11.8,3-12,3.2c-0.6,0.5-0.8,1.4-0.3,2.1c0.5,0.6,1.4,0.8,2.1,0.3
				c0,0,1.4-1.1,3.3-1.9c1.3-0.6,3-1.1,4.7-1.1l-0.7,1.3c-0.4,0.7-0.1,1.6,0.6,2c0.2,0.1,0.4,0.2,0.7,0.2c0.5,0,1-0.3,1.3-0.8
				l1.4-2.7C38.4,64.3,38.5,63.7,38.3,63.2z"/>
		</g>
	</g>
	<g>
		<g>
			<path d="M59.8,55c-0.3,0-8.1-0.6-11.8,3.9c-0.3,0.4-0.5,0.9-0.4,1.5c0.1,0.5,0.4,1,0.9,1.2l2.6,1.5c0.2,0.1,0.5,0.2,0.7,0.2
				c0.5,0,1-0.3,1.3-0.7c0.4-0.7,0.2-1.6-0.6-2l-1.3-0.7c3-2.3,8.2-1.9,8.3-1.9c0.8,0.1,1.5-0.5,1.6-1.4
				C61.2,55.8,60.6,55.1,59.8,55z"/>
		</g>
	</g>
	<g>
		<g>
			<path d="M89.7,77.3c-1.3-2.7-3.7-4.8-6.5-5.8c-2.9-1-6-0.8-8.7,0.6c-1.3,0.7-2.5,1.6-3.5,2.6l0.1-0.5c1.3-5.2,0.4-10.8-2.5-15.4
				c-1.2-1.8-2-3.9-2.4-6l-0.7-4c-1.2-6.4-6.7-11.1-13.2-11.1C41.4,37.7,31,40.8,22,46.8c-5.4,3.6-7.5,10.6-4.9,16.6l1.6,3.7
				c0.9,2,1.3,4.1,1.3,6.3c0.1,5.4,2.4,10.6,6.3,14.2l12.4,12.1c2.7,2.6,6.2,4,9.8,4c1.4,0,2.7-0.2,4-0.6l5.1-1.5
				c4.9-1.5,8.6-5.5,9.7-10.5l2.3-10.6c0.2,0.1,0.5,0.1,0.7,0c6.2-1.5,12.6,0.6,16.8,5.3l0.6,0.7c0.3,0.3,0.7,0.5,1.1,0.5
				c0.1,0,0.2,0,0.3,0c0.5-0.1,0.9-0.5,1.1-1C91.2,83.1,91,80,89.7,77.3z M68.2,73.5C68.2,73.6,68.2,73.6,68.2,73.5l-3.7,16.9
				c-0.9,4-3.8,7.1-7.7,8.3l-5.1,1.5c-3.9,1.2-8.1,0.1-11-2.7L28.3,85.5c0,0,0,0,0,0c-3.4-3.1-5.4-7.5-5.4-12.1
				c0-2.6-0.5-5.1-1.6-7.4l-1.6-3.7c-2-4.7-0.4-10.1,3.9-13c8.4-5.6,18.1-8.6,28.1-8.6c0.1,0,0.3,0,0.4,0c5.1,0,9.4,3.7,10.4,8.7
				l0.7,4c0.5,2.5,1.4,4.9,2.8,7.1C68.5,64.3,69.3,69.1,68.2,73.5z M74.4,77.1c-0.6,0-1.1,0-1.7,0.1c0.8-1,1.8-1.9,3-2.5
				c2-1,4.3-1.1,6.5-0.4c2.1,0.7,3.9,2.3,4.9,4.3c0.6,1.2,0.9,2.5,0.9,3.8C84.2,79,79.4,77.1,74.4,77.1z"/>
		</g>
	</g>
	<g>
		<g>
			<path d="M59.7,78c-0.2-0.5-0.6-0.9-1.1-1c-0.5-0.1-1,0-1.4,0.4L56.6,78c-4.4,4.6-10.9,6.4-17,4.7c-0.5-0.1-1.1,0-1.4,0.4
				c-0.4,0.4-0.5,0.9-0.4,1.4c1.5,4.9,6,8.1,10.9,8.1c1.1,0,2.2-0.2,3.3-0.5C58.1,90.4,61.5,84,59.7,78z M51.2,89.4
				c-2.2,0.7-4.5,0.4-6.4-0.7c-1.2-0.6-2.2-1.5-2.9-2.6c5.5,0.7,11.1-1,15.4-4.6C57.1,85,54.8,88.3,51.2,89.4z"/>
		</g>
	</g>
	<g>
		<g>
			<path d="M110.4,40.5c-8.7-6.3-19-9.9-29.8-10.2c-6.5-0.2-12.2,4.3-13.6,10.6l-0.8,3.6c-0.2,0.8,0.3,1.6,1.1,1.8
				c0.8,0.2,1.6-0.3,1.8-1.1l0.8-3.6c1.1-5,5.6-8.5,10.7-8.3c10.2,0.3,19.9,3.6,28.2,9.6c4.1,3,5.5,8.5,3.4,13.1l-1.7,3.7
				c-1.1,2.3-1.7,4.8-1.8,7.4c-0.2,4.6-2.4,8.9-5.9,11.9c0,0,0,0,0,0L89.8,90.5c-3,2.7-7.3,3.6-11.1,2.3l-5-1.7
				c-0.2-0.1-0.3-0.1-0.5-0.2c-0.8-0.3-1.6,0.1-1.9,0.8c-0.3,0.8,0.1,1.6,0.8,1.9c0.2,0.1,0.4,0.2,0.6,0.2l5,1.7
				c1.5,0.5,3,0.8,4.6,0.8c3.4,0,6.8-1.3,9.5-3.6l12.8-11.6c4.1-3.5,6.6-8.6,6.9-14c0.1-2.2,0.6-4.3,1.6-6.3l1.7-3.7
				C117.5,51.3,115.7,44.3,110.4,40.5z"/>
		</g>
	</g>
</g>
<g id="Layer_2">
</g>
</svg>
