<?xml version="1.0" encoding="utf-8"?>
<!-- Generator: Adobe Illustrator 21.1.0, SVG Export Plug-In . SVG Version: 6.00 Build 0)  -->
<svg version="1.1" xmlns="http://www.w3.org/2000/svg" xmlns:xlink="http://www.w3.org/1999/xlink" x="0px" y="0px" width="130px"
	 height="130px" viewBox="0 0 130 130" style="enable-background:new 0 0 130 130;" xml:space="preserve">
<g id="Layer_1">
	<g>
		<path d="M46.5,77.2c-1.3-1-3-1.6-4.6-1.6c-2.3,0-4.4,1-5.8,2.8c-1.2,1.5-1.8,3.5-1.6,5.4c0.2,2,1.2,3.7,2.8,5c1.3,1,3,1.6,4.6,1.6
			c2.3,0,4.4-1,5.8-2.8c1.2-1.5,1.8-3.5,1.6-5.4C49.1,80.2,48.1,78.5,46.5,77.2z M45.1,85.5c-0.8,1-1.9,1.5-3.2,1.5
			c-0.9,0-1.8-0.3-2.5-0.9c-0.8-0.7-1.4-1.6-1.5-2.7c-0.1-1.1,0.2-2.1,0.9-2.9c0.8-1,1.9-1.5,3.2-1.5c0.9,0,1.8,0.3,2.5,0.9
			c0.8,0.7,1.4,1.6,1.5,2.7C46,83.6,45.7,84.7,45.1,85.5z"/>
		<path d="M76.4,59.8c1.1,0,2.2-0.2,3.2-0.7c1.8-0.9,3.2-2.4,3.8-4.2c0.7-1.9,0.5-3.9-0.3-5.6c-1.2-2.5-3.9-4.2-6.7-4.2
			c-1.1,0-2.2,0.2-3.2,0.7c-1.8,0.9-3.2,2.4-3.8,4.2c-0.7,1.9-0.5,3.9,0.3,5.6C70.9,58.2,73.5,59.8,76.4,59.8z M72.5,51.1
			c0.4-1,1.1-1.8,2.1-2.3c0.6-0.3,1.2-0.4,1.8-0.4c1.6,0,3,0.9,3.7,2.3c0.5,1,0.5,2,0.2,3c-0.4,1-1.1,1.8-2.1,2.3
			c-0.6,0.3-1.1,0.4-1.8,0.4c-1.6,0-3-0.9-3.7-2.3C72.3,53.2,72.2,52.1,72.5,51.1z"/>
		<path d="M57.9,47.8C58.5,48,59,48,59.6,48c3.5,0,6.5-2.4,7.3-5.8c0.4-1.9,0.1-3.9-0.9-5.6c-1.1-1.7-2.7-2.9-4.7-3.3
			c-0.5-0.1-1.1-0.2-1.7-0.2c-3.5,0-6.5,2.4-7.3,5.8c-0.4,1.9-0.1,3.9,0.9,5.6C54.3,46.2,56,47.4,57.9,47.8z M55.6,39.7
			c0.4-1.8,2-3.1,3.9-3.1c0.3,0,0.6,0,0.9,0.1c1.1,0.2,2,0.9,2.5,1.8c0.6,0.9,0.8,2,0.5,3c-0.4,1.8-2.1,3.1-4,3.1
			c-0.3,0-0.6,0-0.9-0.1c-1.1-0.2-2-0.9-2.5-1.8C55.6,41.8,55.4,40.8,55.6,39.7z"/>
		<path d="M44.4,52.1c1.6-1.2,2.5-3,2.8-5c0.2-2-0.3-3.9-1.6-5.4c-1.4-1.8-3.5-2.8-5.8-2.8c-1.7,0-3.3,0.6-4.6,1.6
			c-1.6,1.2-2.5,3-2.8,5c-0.2,2,0.3,3.9,1.6,5.5c1.4,1.8,3.5,2.8,5.8,2.8C41.5,53.7,43.1,53.1,44.4,52.1z M36.6,48.8
			c-0.7-0.8-1-1.9-0.9-2.9c0.1-1.1,0.7-2,1.5-2.7c0.7-0.6,1.6-0.9,2.5-0.9c1.2,0,2.4,0.6,3.2,1.5c0.7,0.8,1,1.9,0.9,2.9
			c-0.1,1.1-0.7,2-1.5,2.7c-0.7,0.6-1.6,0.9-2.5,0.9C38.5,50.3,37.4,49.7,36.6,48.8z"/>
		<path d="M113.9,35.4c-0.3-0.3-0.8-0.6-1.6-0.6c-1,0-3.5,0-19.2,13.3c-0.3,0.3-0.6,0.5-0.9,0.8c-2.8-7.3-7.7-13.8-14-18.5
			c-7.2-5.4-15.9-8.2-25-8.2c0,0,0,0,0,0c-6.1,0-13.6,2.1-19.4,5.6c-7.2,4.2-11.1,9.9-11.1,15.9c0,7.3,4.1,10.3,7.4,12.8
			c2.7,2,4.8,3.6,4.8,7c0,3.5-2.1,5-4.8,7c-3.3,2.4-7.4,5.5-7.4,12.8c0,6,4,11.7,11.2,15.9c5.9,3.5,13.3,5.6,19.5,5.6c0,0,0,0,0,0
			c11.1,0,21.6-4.3,29.4-12.1c7.8-7.7,12.1-17.9,12.2-28.8c2.6-3,5.2-6,7.5-8.8c4-4.8,7.1-8.8,9.1-11.8
			C114.2,39.4,115.4,37,113.9,35.4z M80.2,90.3c-7.2,7.2-16.8,11.1-27.1,11.1c0,0,0,0,0,0c-11,0-27.2-7.6-27.2-18.1
			c0-5.6,2.9-7.8,6-10.1c2.9-2.2,6.2-4.6,6.2-9.8c0-5.2-3.3-7.6-6.2-9.8c-3.1-2.3-6-4.5-6-10.1c0-6.5,5.9-10.9,9.5-13
			c5.3-3.1,12.2-5.1,17.7-5.1c0,0,0,0,0,0c8.3,0,16.3,2.6,22.9,7.6c6.1,4.6,10.8,11,13.3,18.1C82,57.7,74,65.1,68.1,71.1
			c-9.9,1.3-11.2,7.9-12.2,12.7c-0.8,4.1-1.4,6.1-4.6,6.4c-0.8,0.1-1.4,0.7-1.5,1.4c-0.1,0.8,0.3,1.5,1,1.8
			c0.2,0.1,5.1,2.1,10.7,2.1c0,0,0,0,0,0c4,0,7.3-1,10.1-2.8c3.4-2.3,5.7-6,6.8-11c3.9-3.9,8.3-8.7,12.7-13.5
			C90.1,76.5,86.3,84.3,80.2,90.3z M75,81.3c-1.8,7.1-6.3,10.7-13.5,10.7c0,0,0,0,0,0c-1.9,0-3.7-0.3-5.2-0.6c1.8-1.8,2.4-4.6,2.9-7
			c0.9-4.6,1.8-8.9,9-10L75,81.3z M98.5,54.5c-6.7,8-14.9,17-21.6,23.9l-1-1l-4.6-4.6c6.1-6.1,13.9-13.3,21.2-19.6l0,0
			c0.8-0.7,1.7-1.5,2.5-2.2c8.4-7.2,12.9-10.3,15.1-11.7C108.7,41.5,105.6,46,98.5,54.5z"/>
	</g>
</g>
<g id="Layer_2">
</g>
</svg>
