<?xml version="1.0" encoding="utf-8"?>
<!-- Generator: Adobe Illustrator 21.1.0, SVG Export Plug-In . SVG Version: 6.00 Build 0)  -->
<svg version="1.1" xmlns="http://www.w3.org/2000/svg" xmlns:xlink="http://www.w3.org/1999/xlink" x="0px" y="0px" width="130px"
	 height="130px" viewBox="0 0 130 130" style="enable-background:new 0 0 130 130;" xml:space="preserve">
<g id="Layer_1">
</g>
<g id="Layer_2">
	<g>
		<path d="M68.2,88.8V39.4c0-0.9-0.7-1.7-1.7-1.7s-1.7,0.7-1.7,1.7v49.4c0,0.9,0.7,1.7,1.7,1.7S68.2,89.7,68.2,88.8z"/>
		<path d="M116.1,26.9c-3.5,0-7.9-1.5-12.5-3.1c-5.8-2-12.5-4.3-19.3-4.3c-7.9,0-12.8,3.5-15.5,6.4c-1,1.1-1.8,2.2-2.4,3.2
			c-0.6-1-1.4-2.1-2.4-3.2c-2.7-2.9-7.5-6.4-15.5-6.4c-6.9,0-13.5,2.3-19.3,4.3c-4.6,1.6-9,3.1-12.5,3.1c-0.9,0-1.7,0.7-1.7,1.7
			v66.6c0,0.9,0.7,1.7,1.7,1.7c4.1,0,8.7-1.6,13.6-3.3c5.6-1.9,11.9-4.1,18.3-4.1c5.4,0,9.8,1.8,13,5.3c0.6,0.7,1.7,0.7,2.3,0.1
			c0.7-0.6,0.7-1.7,0.1-2.3c-2.7-2.9-7.5-6.4-15.5-6.4c-6.9,0-13.5,2.3-19.3,4.3c-3.9,1.4-7.6,2.6-10.8,3V30.2
			c3.6-0.3,7.7-1.7,11.9-3.2c5.6-1.9,11.9-4.1,18.3-4.1c12.8,0,16.1,10.1,16.2,10.6c0.2,0.7,0.9,1.2,1.6,1.2s1.4-0.5,1.6-1.2
			c0-0.1,3.4-10.6,16.2-10.6c6.3,0,12.7,2.2,18.3,4.1c4.2,1.5,8.3,2.9,11.9,3.2v63.3c-3.2-0.4-6.9-1.7-10.8-3
			c-5.8-2-12.5-4.3-19.3-4.3c-8,0-12.8,3.5-15.5,6.4c-0.6,0.7-0.6,1.7,0.1,2.3c0.7,0.6,1.7,0.6,2.3-0.1c3.2-3.5,7.6-5.3,13-5.3
			c6.3,0,12.7,2.2,18.3,4.1c4.9,1.7,9.5,3.3,13.6,3.3c0.9,0,1.7-0.7,1.7-1.7V28.6C117.8,27.7,117.1,26.9,116.1,26.9z"/>
		<path d="M116.1,100.2c-3.5,0-7.9-1.5-12.5-3.1c-5.8-2-12.5-4.3-19.3-4.3c-7.5,0-12.2,3.1-15,5.9l-5.7,0c-2.8-2.8-7.5-5.9-15-5.9
			c-6.9,0-13.5,2.3-19.3,4.3c-4.6,1.6-9,3.1-12.5,3.1c-0.9,0-1.7,0.7-1.7,1.7s0.7,1.7,1.7,1.7c4.1,0,8.7-1.6,13.6-3.3
			c5.6-1.9,11.9-4.1,18.3-4.1c5.4,0,9.8,1.8,13,5.3c0.3,0.3,0.8,0.5,1.2,0.5l7.2,0c0.5,0,0.9-0.2,1.2-0.5c3.2-3.5,7.6-5.3,13-5.3
			c6.3,0,12.7,2.2,18.3,4.1c4.9,1.7,9.5,3.3,13.6,3.3c0.9,0,1.7-0.7,1.7-1.7S117.1,100.2,116.1,100.2z"/>
	</g>
</g>
</svg>
