<?xml version="1.0" encoding="utf-8"?>
<!-- Generator: Adobe Illustrator 21.1.0, SVG Export Plug-In . SVG Version: 6.00 Build 0)  -->
<svg version="1.1" xmlns="http://www.w3.org/2000/svg" xmlns:xlink="http://www.w3.org/1999/xlink" x="0px" y="0px" width="130px"
	 height="130px" viewBox="0 0 130 130" style="enable-background:new 0 0 130 130;" xml:space="preserve">
<g id="Layer_1">
</g>
<g id="Layer_2">
	<g>
		<g>
			<path d="M105.2,60.3c-3.4-1.7-9.8-1.7-10.1-1.7c-0.8,0-1.5,0.7-1.5,1.5c0,0.8,0.7,1.5,1.5,1.5c1.6,0,6.4,0.3,8.7,1.4
				c0.2,0.1,0.4,0.2,0.7,0.2c0.5,0,1.1-0.3,1.3-0.8C106.2,61.6,106,60.7,105.2,60.3z"/>
		</g>
	</g>
	<g>
		<g>
			<path d="M112.5,81.2l-6-1.7c-0.3-0.1-0.4-0.3-0.4-0.6v-2c0.5-0.3,1-0.7,1.4-1.1c2.1-2.1,3.3-4.8,3.3-7.8v-2.8l0.6-1.2
				c0.6-1.3,1-2.7,1-4.2v-7.5c0-0.8-0.7-1.5-1.5-1.5H96.7c-5.1,0-9.3,4.2-9.3,9.3v0.1c0,1.2,0.3,2.4,0.8,3.5l0.8,1.5v2.4
				c0,3.8,1.9,7.2,4.7,9.2l0,2.1c0,0.3,0,0.5-1.2,0.8l-3,0.8L81,77.4c0-0.4-0.1-0.8-0.4-1.1l-2.7-2.9v-4.8c0.3-0.2,0.6-0.5,0.8-0.7
				c3.4-3.2,5.4-7.8,5.4-12.5v-3.8c1-2.3,1.6-4.7,1.6-7.1V28.8c0-0.8-0.7-1.5-1.5-1.5H62.3c-7.7,0-14,6.3-14,14v3.1
				c0,2.5,0.5,4.9,1.6,7.1v3.3c0,5.5,2.4,10.4,6.3,13.7v4.9l-2.7,2.9C53.1,76.6,53,77,53,77.4l-9,3.3c-0.7,0.2-1.3,0.6-1.8,0.9
				l-1.4-0.7c4.2-1.8,5.5-4.4,5.6-4.5c0.2-0.4,0.2-0.9,0-1.3c-1.1-2.1-1.2-6-1.3-9.1c0-1-0.1-2-0.1-2.9c-0.5-7-5.8-12.3-12.4-12.3
				s-11.9,5.3-12.4,12.3C20.1,64,20,65,20,66c-0.1,3.1-0.2,7-1.3,9.1c-0.2,0.4-0.2,0.9,0,1.3c0.1,0.1,1.4,2.7,5.6,4.5l-3.9,2
				C18.3,84,17,86.1,17,88.4v10.8c0,0.8,0.7,1.5,1.5,1.5s1.5-0.7,1.5-1.5V88.4c0-1.2,0.7-2.3,1.8-2.9l4.9-2.4l1.7,1.6
				c1.2,1.1,2.7,1.7,4.2,1.7c1.5,0,3.1-0.6,4.2-1.7l1.7-1.6l1.6,0.8c-0.8,1.2-1.2,2.6-1.2,4.1v11.3c0,0.8,0.7,1.5,1.5,1.5
				c0.8,0,1.5-0.7,1.5-1.5V88c0-2,1.3-3.8,3.2-4.5l9.5-3.5l4,5.9c0.5,0.8,1.3,1.2,2.2,1.3c0.1,0,0.2,0,0.3,0c0.8,0,1.6-0.3,2.1-0.9
				l2.4-2.4v15.3c0,0.8,0.7,1.5,1.5,1.5s1.5-0.7,1.5-1.5V84l2.4,2.4c0.6,0.6,1.3,0.9,2.1,0.9c0.1,0,0.2,0,0.3,0
				c0.9-0.1,1.7-0.6,2.2-1.3l4-5.9l9.5,3.5c1.9,0.7,3.2,2.5,3.2,4.5v11.3c0,0.8,0.7,1.5,1.5,1.5c0.8,0,1.5-0.7,1.5-1.5V88
				c0-2-0.8-3.9-2.2-5.4l0.4-0.1c0.4-0.1,0.9-0.2,1.4-0.5l3.7,3.7v13.5c0,0.8,0.7,1.5,1.5,1.5c0.8,0,1.5-0.7,1.5-1.5V85.8l3.7-3.7
				c0.2,0.1,0.4,0.2,0.6,0.2l6.1,1.7c1.4,0.4,2.3,1.7,2.3,3.1v12.1c0,0.8,0.7,1.5,1.5,1.5s1.5-0.7,1.5-1.5V87.1
				C117,84.4,115.2,81.9,112.5,81.2z M26.4,78.6c-2.7-1-4.1-2.3-4.7-3c0.4-1,0.7-2.2,0.8-3.5c0.8,1.9,2.2,3.6,3.9,4.8V78.6z
				 M34.8,82.6c-1.2,1.2-3.2,1.2-4.5,0L29,81.3c0.2-0.4,0.4-0.9,0.4-1.4v-1.6c1,0.3,2.1,0.5,3.2,0.5c1.1,0,2.2-0.2,3.2-0.5l0,1.6
				c0,0.5,0.1,1,0.4,1.4L34.8,82.6z M32.6,75.8c-4.4,0-7.9-3.6-7.9-7.9c0-0.8-0.7-1.5-1.5-1.5c-0.1,0-0.2,0-0.2,0c0-0.1,0-0.3,0-0.4
				c0-1,0.1-2,0.1-2.8c0.2-2.6,1.2-5.1,3-6.8c1.7-1.8,4.1-2.8,6.5-2.8s4.8,1,6.5,2.8c1.7,1.8,2.8,4.2,3,6.8c0.1,0.8,0.1,1.8,0.1,2.8
				c0,0.1,0,0.2,0,0.3c-1.6-2.5-4.1-4.3-7.2-5.3c-2.9-0.9-5.5-0.9-5.6-0.9c-0.4,0-0.7,0.2-1,0.4l-2.6,2.7c-0.6,0.6-0.5,1.5,0,2.1
				s1.5,0.5,2.1,0l2.2-2.3c1.9,0.1,8,0.8,10.4,6C39.8,73,36.5,75.8,32.6,75.8z M38.7,78.6l0-1.7c1.7-1.2,3.1-2.8,3.9-4.8
				c0.2,1.3,0.4,2.5,0.8,3.5C42.8,76.3,41.5,77.6,38.7,78.6z M52.8,54.8v-3.6c0-0.2,0-0.4-0.1-0.6c-0.9-2-1.4-4-1.4-6.2v-3.1
				c0-6.1,5-11.1,11.1-11.1h20.5v14.2c0,2.1-0.5,4.2-1.4,6.2c-0.1,0.2-0.1,0.4-0.1,0.6v4.2c0,4-1.6,7.6-4.5,10.4
				c-0.4,0.3-0.7,0.7-1.1,1c0,0,0,0,0,0c-2.7,2.1-6,3.1-9.5,2.8C58.6,69.1,52.8,62.6,52.8,54.8z M61.1,84.3
				C61.1,84.3,61,84.4,61.1,84.3c-0.1,0-0.1,0-0.2,0l-4.6-6.8l1.5-1.5l6.9,4.7L61.1,84.3z M67,78.7l-7.9-5.4v-2.7
				c2.1,1.1,4.4,1.8,6.8,2c0.4,0,0.8,0,1.2,0c2.8,0,5.5-0.7,7.9-1.9v2.7L67,78.7z M73.1,84.3C73.1,84.3,73.1,84.3,73.1,84.3
				c-0.1,0.1-0.1,0-0.2,0l-3.7-3.7l6.9-4.7l1.5,1.5L73.1,84.3z M99.9,83.1l-3.3-3.3c0.1-0.3,0.1-0.6,0.1-0.9l0-0.6
				c0.9,0.3,1.9,0.5,2.9,0.5c0.1,0,0.2,0,0.3,0c1.1,0,2.2-0.2,3.2-0.5v0.6c0,0.3,0,0.6,0.1,0.9L99.9,83.1z M105.4,73.6
				c-1.6,1.5-3.6,2.3-5.8,2.2c-4.2-0.1-7.7-3.9-7.7-8.3v-2.7c0-0.2-0.1-0.5-0.2-0.7l-0.9-1.8c-0.3-0.7-0.5-1.4-0.5-2.1v-0.1
				c0-3.5,2.9-6.4,6.4-6.4h12.6v6.1c0,1-0.2,2-0.7,2.8l-0.7,1.5c-0.1,0.2-0.2,0.4-0.2,0.7v3.1C107.8,70.1,107,72.1,105.4,73.6z"/>
		</g>
	</g>
	<g>
		<g>
			<path d="M109.3,88.4c-0.8,0-1.5,0.7-1.5,1.5v9.4c0,0.8,0.7,1.5,1.5,1.5s1.5-0.7,1.5-1.5v-9.4C110.7,89,110.1,88.4,109.3,88.4z"/>
		</g>
	</g>
	<g>
		<g>
			<path d="M24.7,90.3c-0.8,0-1.5,0.7-1.5,1.5v7.5c0,0.8,0.7,1.5,1.5,1.5s1.5-0.7,1.5-1.5v-7.5C26.2,91,25.5,90.3,24.7,90.3z"/>
		</g>
	</g>
	<g>
		<g>
			<path d="M79,45c-5.5-5.5-17.1-4.5-21.9-3.8c-1.5,0.2-2.6,1.5-2.6,3v3.4c0,0.8,0.7,1.5,1.5,1.5s1.5-0.7,1.5-1.5v-3.4
				c0,0,0-0.1,0.1-0.1c1.9-0.3,5.6-0.7,9.5-0.5c4.6,0.3,7.9,1.5,9.8,3.4c0.6,0.6,1.5,0.6,2.1,0C79.6,46.5,79.6,45.5,79,45z"/>
		</g>
	</g>
	<g>
		<g>
			<path d="M49.8,91.5c-0.8,0-1.5,0.7-1.5,1.5v6.3c0,0.8,0.7,1.5,1.5,1.5s1.5-0.7,1.5-1.5V93C51.3,92.2,50.6,91.5,49.8,91.5z"/>
		</g>
	</g>
	<g>
		<g>
			<path d="M84.2,91.5c-0.8,0-1.5,0.7-1.5,1.5v6.3c0,0.8,0.7,1.5,1.5,1.5c0.8,0,1.5-0.7,1.5-1.5V93C85.7,92.2,85.1,91.5,84.2,91.5z"
				/>
		</g>
	</g>
</g>
</svg>
