<?xml version="1.0" encoding="utf-8"?>
<!-- Generator: Adobe Illustrator 21.1.0, SVG Export Plug-In . SVG Version: 6.00 Build 0)  -->
<svg version="1.1" xmlns="http://www.w3.org/2000/svg" xmlns:xlink="http://www.w3.org/1999/xlink" x="0px" y="0px" width="130px"
	 height="130px" viewBox="0 0 130 130" style="enable-background:new 0 0 130 130;" xml:space="preserve">
<g id="Layer_1">
	<g>
		<g>
			<g>
				<path d="M61.1,24.5h8c0.9,0,1.5-0.7,1.5-1.5c0-0.9-0.7-1.5-1.5-1.5h-8c-0.9,0-1.5,0.7-1.5,1.5C59.5,23.8,60.2,24.5,61.1,24.5z"
					/>
				<path d="M111,52.9L105.6,31c-0.1-0.2-1.3-5.3-6.4-7.5c-3.7-1.6-15.3-6-18.2-7.1c-0.3-0.2-0.6-0.3-1-0.3h-0.2H50.2
					c0,0-0.1,0-0.1,0c0,0,0,0-0.1,0c0,0-0.1,0-0.1,0c0,0,0,0-0.1,0c0,0,0,0-0.1,0c0,0-0.1,0-0.1,0c0,0,0,0,0,0
					c-0.6,0.2-14.7,5.6-18.9,7.3c-4.9,2.1-6.3,6.9-6.4,7.4c0,0,0,0,0,0c0,0,0,0,0,0c0,0,0,0,0,0l-3.8,15.5c0,0,0,0,0,0L19,52.9
					c-0.2,0.7,0.2,1.5,0.9,1.8l15.2,6v45.3v6.3c0,0.9,0.7,1.5,1.5,1.5h56.6c0.9,0,1.5-0.7,1.5-1.5v-6.3V76.7c0-0.9-0.7-1.5-1.5-1.5
					c-0.9,0-1.5,0.7-1.5,1.5v27.8H53.8c-0.9,0-1.5,0.7-1.5,1.5c0,0.9,0.7,1.5,1.5,1.5h37.9v3.2H38.2v-3.2h10.5
					c0.9,0,1.5-0.7,1.5-1.5c0-0.9-0.7-1.5-1.5-1.5H38.2V59.7v-6.6v-12c0-0.3-0.1-0.6-0.2-0.8l-7.8-12.9c0.5-0.4,1.1-0.8,1.8-1.1
					c3.2-1.3,12.6-5,16.8-6.5c1,9.1,8.1,16.5,16.4,16.5c8.3,0,15.3-7.3,16.3-16.4c4.2,1.6,13.5,5.1,16.6,6.4
					c0.7,0.3,1.3,0.7,1.8,1.1L92,40.3c-0.1,0.2-0.2,0.5-0.2,0.8v12v6.6v11.8c0,0.9,0.7,1.5,1.5,1.5c0.9,0,1.5-0.7,1.5-1.5V60.7
					l15.2-6C110.7,54.4,111.1,53.7,111,52.9z M35.1,57.4l-12.8-5.1l0.8-3.3l12,5L35.1,57.4L35.1,57.4z M35.1,41.5v9.2L23.9,46
					l3.5-14.3c0,0,0.2-0.8,0.8-1.8L35.1,41.5z M65.1,33.2c-6.1,0-12.6-5.6-13.3-14h26.6C77.7,27.7,71.2,33.2,65.1,33.2z M94.9,41.5
					l7-11.6c0.4,0.7,0.6,1.2,0.7,1.5c0,0,0,0,0,0c0,0,0,0.1,0,0.1c0,0,0,0,0,0c0,0,0,0,0,0.1c0,0,0,0,0,0c0,0,0,0,0,0c0,0,0,0,0,0
					c0,0,0,0,0,0c0,0,0,0,0,0c0,0,0,0,0,0l3.5,14.3l-11.3,4.7L94.9,41.5L94.9,41.5z M94.9,57.4v-3.3l12-5l0.8,3.3L94.9,57.4z"/>
			</g>
		</g>
	</g>
</g>
<g id="Layer_2">
</g>
</svg>
