<?xml version="1.0" encoding="utf-8"?>
<!-- Generator: Adobe Illustrator 21.1.0, SVG Export Plug-In . SVG Version: 6.00 Build 0)  -->
<svg version="1.1" xmlns="http://www.w3.org/2000/svg" xmlns:xlink="http://www.w3.org/1999/xlink" x="0px" y="0px" width="130px"
	 height="130px" viewBox="0 0 130 130" style="enable-background:new 0 0 130 130;" xml:space="preserve">
<g id="Layer_1">
</g>
<g id="Layer_2">
	<g>
		<g>
			<path d="M97,31.7l-1-7.2c-0.1-0.4-0.2-0.7-0.5-0.9c-0.3-0.2-0.7-0.3-1-0.3l-7.9,1.2c-0.7,0.1-1.3,0.8-1.1,1.6
				c0.1,0.7,0.8,1.3,1.6,1.1l4.6-0.7c-6.2,7.6-12.8,14.1-19.8,19.4C65.7,50.5,59.4,54,53,56.5c-10.9,4.3-18.3,4-18.4,4
				c-0.8,0-1.4,0.5-1.4,1.3c0,0.8,0.5,1.4,1.3,1.4c0,0,0.2,0,0.6,0c2,0,9-0.3,18.8-4.1c6.6-2.6,13.2-6.3,19.5-11
				c7.2-5.4,14.1-12.1,20.5-20l0.5,3.9c0.1,0.7,0.7,1.2,1.4,1.2c0.1,0,0.1,0,0.2,0C96.6,33.1,97.1,32.5,97,31.7z"/>
		</g>
	</g>
	<g>
		<g>
			<path d="M112.5,97.1h-11.1c0.9-0.6,1.8-1.3,2.6-2.1c3.1-3.1,4.8-7.3,4.8-11.7c0-4.4-1.7-8.5-4.8-11.7c-1.1-1.1-2.3-2-3.7-2.8
				v-5.5c0-0.8-0.6-1.4-1.4-1.4c-0.8,0-1.4,0.6-1.4,1.4v4.3c-3.7-1.3-7.8-1.1-11.5,0.3V51.3c0-0.2,0.1-0.3,0.3-0.3h10.8
				c0.2,0,0.3,0.1,0.3,0.3v3.4c0,0.8,0.6,1.4,1.4,1.4c0.8,0,1.4-0.6,1.4-1.4v-3.4c0-1.7-1.4-3.1-3.1-3.1H86.4
				c-1.7,0-3.1,1.4-3.1,3.1v18.2c-1,0.6-1.9,1.4-2.7,2.2c-3.1,3.1-4.8,7.3-4.8,11.7c0,4.4,1.7,8.5,4.8,11.7c0.8,0.8,1.6,1.5,2.6,2.1
				h-8.6V63.7c0-1.7-1.4-3.1-3.1-3.1H60.7c-1.7,0-3.1,1.4-3.1,3.1v33.4h-8.8V74.9c0-1.7-1.4-3.1-3.1-3.1H34.9
				c-1.7,0-3.1,1.4-3.1,3.1v22.2h-5.6V26.8c0-1.4-1.1-2.5-2.5-2.5h-2.2c-1.4,0-2.5,1.1-2.5,2.5v9.7c0,0.8,0.6,1.4,1.4,1.4
				c0.8,0,1.4-0.6,1.4-1.4V27h1.7v70.4c0,1.4,1.1,2.5,2.5,2.5h86.3v2.1H21.7V45.1c0-0.8-0.6-1.4-1.4-1.4S19,44.4,19,45.1v57
				c0,1.4,1.1,2.5,2.5,2.5h90.9c1.4,0,2.5-1.1,2.5-2.5v-2.5C115,98.3,113.9,97.1,112.5,97.1z M46.1,97.1L46.1,97.1H34.6V74.9
				c0-0.2,0.1-0.3,0.3-0.3h10.8c0.2,0,0.3,0.1,0.3,0.3V97.1L46.1,97.1z M60.4,97.1V63.7c0-0.2,0.1-0.3,0.3-0.3h10.8
				c0.2,0,0.3,0.1,0.3,0.3v33.4L60.4,97.1L60.4,97.1z M98.4,95.7c-1.4,0.7-2.9,1.1-4.4,1.3c0,0-0.1,0-0.1,0c-0.1,0-0.2,0-0.3,0
				c-0.2,0-0.3,0-0.5,0c-0.1,0-0.1,0-0.2,0c-0.2,0-0.4,0-0.6,0c-0.2,0-0.4,0-0.6,0c-0.1,0-0.1,0-0.2,0c-0.1,0-0.3,0-0.4,0
				c-0.1,0-0.2,0-0.4,0c-0.1,0-0.2,0-0.3,0c-0.1,0-0.2,0-0.4-0.1c0,0,0,0,0,0c-1.6-0.3-3.2-0.8-4.6-1.6c0,0,0,0,0,0
				c-1-0.6-2-1.3-2.8-2.2c-2.6-2.6-4-6.1-4-9.7s1.4-7.1,4-9.7c1-1,2.1-1.8,3.3-2.4c0,0,0.1,0,0.1-0.1c2-1,4.2-1.5,6.3-1.5
				c1.7,0,3.5,0.3,5.1,1c0,0,0.1,0,0.1,0c0.2,0.1,0.3,0.1,0.5,0.2c0.1,0,0.1,0.1,0.2,0.1c1.4,0.7,2.7,1.6,3.8,2.7
				c5.4,5.4,5.4,14.1,0,19.5C101,94.2,99.7,95.1,98.4,95.7C98.4,95.7,98.4,95.7,98.4,95.7z"/>
		</g>
	</g>
	<g>
		<g>
			<path d="M92.9,82.1v-4.9c1.7,0.1,2.3,0.9,2.9,0.9c0.7,0,1.1-0.9,1.1-1.4c0-1.2-2.3-1.7-3.9-1.7v-0.6c0-0.3-0.4-0.6-0.7-0.6
				c-0.4,0-0.7,0.3-0.7,0.6V75c-2.3,0.2-4.6,1.4-4.6,4.5c0,3.1,2.4,3.9,4.6,4.7v5.6c-2.4-0.2-3.1-1.9-3.9-1.9
				c-0.6,0-1.1,0.8-1.1,1.4c0,1.2,2,2.8,5,2.8h0v0.7c0,0.3,0.3,0.6,0.7,0.6c0.4,0,0.7-0.3,0.7-0.6v-0.8c2.6-0.4,4.4-2,4.4-4.9
				C97.3,83.9,95,82.8,92.9,82.1z M91.7,81.6c-1.3-0.5-2.3-1-2.3-2.4c0-1.2,1-1.8,2.3-2V81.6z M92.8,89.8v-5.1
				c1.2,0.5,2.1,1.2,2.1,2.7C94.9,88.8,94.1,89.5,92.8,89.8z"/>
		</g>
	</g>
</g>
</svg>
