<?xml version="1.0" encoding="utf-8"?>
<!-- Generator: Adobe Illustrator 21.1.0, SVG Export Plug-In . SVG Version: 6.00 Build 0)  -->
<svg version="1.1" xmlns="http://www.w3.org/2000/svg" xmlns:xlink="http://www.w3.org/1999/xlink" x="0px" y="0px" width="130px"
	 height="130px" viewBox="0 0 130 130" style="enable-background:new 0 0 130 130;" xml:space="preserve">
<g id="Layer_1">
</g>
<g id="Layer_2">
	<g>
		<g>
			<path d="M104.9,24.4c-0.7-0.7-1.8-0.7-2.5,0L83.7,43c-0.7,0.7-0.7,1.8,0,2.5c0.4,0.4,0.8,0.5,1.3,0.5c0.5,0,0.9-0.2,1.3-0.5
				l18.6-18.6C105.6,26.2,105.6,25.1,104.9,24.4z"/>
		</g>
	</g>
	<g>
		<g>
			<path d="M109.9,29.4c-0.7-0.7-1.8-0.7-2.5,0L88.8,48c-0.7,0.7-0.7,1.8,0,2.5c0.4,0.4,0.8,0.5,1.3,0.5c0.5,0,0.9-0.2,1.3-0.5
				l18.6-18.6C110.6,31.2,110.6,30.1,109.9,29.4z"/>
		</g>
	</g>
	<g>
		<g>
			<path d="M92.4,60.8l23.1-23.1c0.7-0.7,0.7-1.8,0-2.5c-0.7-0.7-1.8-0.7-2.5,0L89.8,58.3c-2.8,2.8-7.2,3.6-10.8,1.9
				c-0.7-0.3-1.6-0.2-2.1,0.4L69,69.4c0,0,0,0,0,0c0,0,0,0,0,0l-33.9,38.2c0,0,0,0,0,0c-0.1,0.1-0.2,0.2-0.3,0.4
				c-2.2,2.2-5.9,2.2-8.1,0c-1.1-1.1-1.7-2.5-1.7-4.1c0-1.5,0.6-3,1.7-4.1c0.1-0.1,0.2-0.2,0.4-0.3c0,0,0,0,0,0l21.2-18.8
				c0.7-0.7,0.8-1.8,0.2-2.5c-0.7-0.7-1.8-0.8-2.5-0.2L24.6,96.9c-0.2,0.2-0.4,0.3-0.6,0.5c-1.8,1.8-2.7,4.1-2.7,6.6
				c0,2.5,1,4.8,2.7,6.6c1.8,1.8,4.2,2.7,6.6,2.7c2.4,0,4.8-0.9,6.6-2.7c0.2-0.2,0.3-0.4,0.5-0.6l25.9-29.1l25.9,29.1
				c0.2,0.2,0.3,0.4,0.5,0.6c1.8,1.8,4.2,2.7,6.6,2.7c2.4,0,4.8-0.9,6.6-2.7c3.6-3.6,3.6-9.6,0-13.2c-0.2-0.2-0.4-0.3-0.6-0.5
				L72.9,70.5l5.8-6.6C83.4,65.6,88.8,64.4,92.4,60.8z M100.3,99.6C100.3,99.6,100.3,99.6,100.3,99.6c0.2,0.1,0.3,0.2,0.4,0.4
				c2.2,2.2,2.2,5.9,0,8.1c-2.2,2.2-5.9,2.2-8.1,0c-0.1-0.1-0.2-0.2-0.3-0.4c0,0,0,0,0,0L66,78.2l4.5-5L100.3,99.6z"/>
		</g>
	</g>
	<g>
		<g>
			<path d="M99.5,19.2c-0.7-0.7-1.8-0.7-2.5,0L73.8,42.3c-3.6,3.6-4.8,8.9-3.1,13.7l-7.1,6.3l-6.8-6.1c3.5-7,2.2-15.4-3.4-21
				c-5.6-5.6-12-9.5-18.2-11c-6.4-1.6-11.9-0.5-15.5,3s-4.7,9.1-3,15.5c1.5,6.1,5.5,12.6,11,18.2c5.6,5.6,14.1,6.9,21,3.4
				c0,0,6.7,7.5,6.8,7.6c0.4,0.4,0.8,0.6,1.3,0.6c0.4,0,0.8-0.1,1.2-0.5l16-14.2c0.6-0.5,0.8-1.4,0.4-2.1c-1.7-3.6-1-8,1.9-10.8
				l23.1-23.1C100.2,21,100.2,19.9,99.5,19.2z M57,68.1l-6.5-7.4c-0.6-0.7-1.5-0.8-2.3-0.3c-5.8,3.6-13.1,2.7-17.9-2.1
				c-5.1-5.1-8.7-11-10.1-16.5c-1.3-5.1-0.6-9.4,2.1-12.1c2.6-2.6,6.9-3.4,12.1-2.1c5.5,1.4,11.4,5,16.5,10.1
				c4.8,4.8,5.7,12.2,2.1,17.9c-0.5,0.7-0.3,1.7,0.3,2.3l7.6,6.7L57,68.1z"/>
		</g>
	</g>
</g>
</svg>
