<?xml version="1.0" encoding="utf-8"?>
<!-- Generator: Adobe Illustrator 21.1.0, SVG Export Plug-In . SVG Version: 6.00 Build 0)  -->
<svg version="1.1" xmlns="http://www.w3.org/2000/svg" xmlns:xlink="http://www.w3.org/1999/xlink" x="0px" y="0px" width="130px"
	 height="130px" viewBox="0 0 130 130" style="enable-background:new 0 0 130 130;" xml:space="preserve">
<g id="Layer_1">
	<g>
		<g>
			<path d="M115.5,72.2c-0.2-5.7-1.2-12.1-2.7-18.1c-1.5-5.7-3.4-11.1-5.6-15.2c-8.7-15.3-18.2-13-29.5-10
				c-3.6,0.9-7.5,1.9-11.5,2.2H65c-4-0.4-7.8-1.4-11.5-2.2C42.2,26.1,32.7,23.6,24,39c-2.2,4.1-4.2,9.5-5.6,15.2
				c-1.5,6-2.5,12.3-2.7,18.1c-0.2,6.4,0.4,11,1.7,14.2c1.4,3,3.4,4.9,6,5.6c2.4,0.6,5.1,0.4,8-0.9c4.9-2,10.5-6.2,15.9-11.3
				c3.9-3.7,11.1-5.6,18.3-5.6c7.2,0,14.4,1.9,18.3,5.6C89.4,85,95,89.2,99.8,91.2c2.9,1.1,5.6,1.5,8,0.9c2.5-0.7,4.6-2.5,6-5.7
				C115.1,83.2,115.8,78.6,115.5,72.2z M109.5,84.6c-0.7,1.7-1.7,2.7-3,3.1c-1.4,0.4-3.1,0.1-5.1-0.6C97.1,85.4,92,81.5,87,76.8
				c-4.7-4.7-13.1-7.1-21.4-7.1S48.9,72,44,76.5c-5.1,4.7-10.2,8.7-14.4,10.3c-2,0.7-3.7,1.1-5.1,0.6c-1.2-0.4-2.2-1.4-3-3.1
				c-1-2.4-1.5-6.2-1.2-12c0.2-5.4,1.1-11.5,2.6-17.2c1.4-5.4,3.1-10.3,5.2-14.1c6.9-12.3,14.8-10.3,24.3-7.8c3.9,1,7.8,2,12.2,2.4
				c0.1,0,0.1,0,0.2,0h1.4c0.1,0,0.1,0,0.2,0c4.5-0.4,8.5-1.4,12.3-2.4c9.5-2.4,17.4-4.5,24.3,7.8c2.1,3.7,3.9,8.6,5.2,14.1
				c1.4,5.7,2.4,11.7,2.6,17.2C111.2,78.1,110.7,82,109.5,84.6z"/>
		</g>
	</g>
	<g>
		<g>
			<path d="M54.1,47.9c-1.2-1.1-2.7-2-4.5-2.1c-0.1-1.6-0.9-3.2-2-4.4l-0.1-0.1c-1.4-1.4-3.1-2.1-5.1-2.1c-2,0-3.9,0.9-5.1,2.1
				c-1.1,1.1-2,2.7-2.1,4.5c-1.7,0.1-3.2,0.9-4.5,2l-0.1,0.1c-1.4,1.4-2.1,3.1-2.1,5.1s0.9,3.9,2.1,5.1c1.2,1.2,2.7,2,4.6,2.1
				c0.1,1.7,0.9,3.4,2.1,4.5c1.4,1.4,3.1,2.1,5.1,2.1c2,0,3.9-0.9,5.1-2.1c1.1-1.2,2-2.7,2.1-4.5c1.7-0.1,3.4-0.9,4.5-2.1
				c1.4-1.4,2.1-3.1,2.1-5.1S55.4,49.1,54.1,47.9z M51,54.8c-0.5,0.5-1.1,0.7-1.9,0.7h-1.7c-1.2,0-2.4,1-2.4,2.4v1.6
				c0,0.7-0.2,1.4-0.7,1.9s-1.1,0.7-1.9,0.7s-1.4-0.2-1.9-0.7c-0.5-0.5-0.7-1.1-0.7-1.9v-1.7c0-1.2-1-2.4-2.4-2.4h-1.7
				c-0.7,0-1.4-0.2-1.9-0.7c-0.4-0.4-0.7-1-0.7-1.7c0-0.7,0.2-1.4,0.7-1.9c0,0,0,0,0.1-0.1c0.5-0.4,1.1-0.6,1.7-0.6h1.7
				c1.2,0,2.4-1,2.4-2.4v-1.7c0-0.7,0.2-1.4,0.7-1.9c0.5-0.5,1.1-0.7,1.9-0.7s1.4,0.2,1.9,0.7c0,0,0,0,0.1,0.1
				c0.4,0.5,0.6,1.1,0.6,1.7V48c0,1.2,1,2.4,2.4,2.4h1.7c0.7,0,1.4,0.2,1.9,0.7c0.5,0.5,0.7,1.1,0.7,1.9
				C51.7,53.7,51.5,54.3,51,54.8z"/>
		</g>
	</g>
	<g>
		<g>
			<circle cx="87.2" cy="44.1" r="4.4"/>
		</g>
	</g>
	<g>
		<g>
			<circle cx="87.2" cy="61.8" r="4.4"/>
		</g>
	</g>
	<g>
		<g>
			<circle cx="78.4" cy="53" r="4.4"/>
		</g>
	</g>
	<g>
		<g>
			<circle cx="96.1" cy="53" r="4.4"/>
		</g>
	</g>
</g>
<g id="Layer_2">
</g>
</svg>
