<?xml version="1.0" encoding="iso-8859-1"?>
<!-- Generator: Adobe Illustrator 19.0.0, SVG Export Plug-In . SVG Version: 6.00 Build 0)  -->
<svg version="1.1" id="Capa_1" xmlns="http://www.w3.org/2000/svg" xmlns:xlink="http://www.w3.org/1999/xlink" x="0px" y="0px"
	 viewBox="0 0 511.998 511.998" style="enable-background:new 0 0 511.998 511.998;" xml:space="preserve">
<g>
	<g>
		<path d="M499.265,400.934L353.53,255.199l155.271-155.27c3.905-3.905,3.905-10.237,0-14.143L426.212,3.197
			c-3.906-3.904-10.236-3.904-14.143,0l-155.27,155.271L119.004,20.673c-0.003-0.003-0.007-0.006-0.01-0.009l-1.371-1.37
			c-1.482-1.481-3.394-2.46-5.462-2.797L11.607,0.13c-3.18-0.516-6.404,0.526-8.678,2.799C0.655,5.203-0.387,8.432,0.13,11.606
			L16.496,112.16c0.337,2.068,1.315,3.979,2.797,5.462l1.37,1.371c0.003,0.003,0.006,0.007,0.009,0.01l137.795,137.795
			L3.197,412.069c-3.905,3.905-3.905,10.237,0,14.143l82.589,82.589c1.953,1.952,4.512,2.929,7.071,2.929s5.118-0.977,7.071-2.929
			L255.2,353.53l145.735,145.735c8.212,8.211,19.13,12.733,30.742,12.733s22.53-4.522,30.741-12.733l36.846-36.847
			c8.212-8.211,12.734-19.129,12.734-30.741S507.476,409.146,499.265,400.934z M419.141,24.411l68.446,68.446l-22.99,22.99
			l-25.878-25.879c-3.905-3.902-10.235-3.904-14.143,0c-3.905,3.905-3.905,10.237,0,14.143l25.878,25.879l-33.658,33.658
			l-19.116-19.116c-3.906-3.904-10.236-3.904-14.143,0c-3.905,3.905-3.905,10.237,0,14.143l19.116,19.116l-33.658,33.658
			l-25.879-25.878c-3.906-3.904-10.236-3.904-14.143,0c-3.905,3.905-3.905,10.237,0,14.143l25.879,25.878l-15.465,15.465
			l-68.446-68.446L419.141,24.411z M111.932,41.887l320.599,320.6l-11.794,11.793L100.138,53.681L111.932,41.887z M22.102,22.101
			l69.946,11.385L33.486,92.048L22.102,22.101z M225.592,354.852l-19.116-19.117c-3.904-3.902-10.234-3.904-14.143,0
			c-3.905,3.905-3.905,10.237,0,14.143l19.116,19.117l-33.658,33.658l-25.879-25.879c-3.906-3.904-10.236-3.904-14.143,0
			c-3.905,3.905-3.905,10.237,0,14.143l25.879,25.879l-33.658,33.658l-19.117-19.116c-3.906-3.904-10.236-3.904-14.143,0
			c-3.905,3.905-3.905,10.237,0,14.143l19.117,19.116l-22.99,22.99l-68.446-68.446l148.199-148.2l68.446,68.446L225.592,354.852z
			 M362.486,432.531l-320.6-320.599l44.11-44.108l320.599,320.599l-18.172,18.172L119.004,137.176
			c-3.906-3.904-10.236-3.904-14.143,0c-3.905,3.905-3.905,10.237,0,14.143L374.28,420.737L362.486,432.531z M485.122,448.275
			l-36.847,36.848c-4.434,4.434-10.328,6.875-16.599,6.875s-12.166-2.441-16.6-6.876l-38.448-38.448l70.045-70.045l38.448,38.448
			c4.435,4.434,6.876,10.329,6.876,16.6S489.557,443.842,485.122,448.275z"/>
	</g>
</g>
<g>
	<g>
		<path d="M96.159,116.718c-0.13-0.639-0.32-1.269-0.57-1.87c-0.25-0.609-0.56-1.189-0.92-1.729c-0.36-0.551-0.78-1.061-1.24-1.521
			c-0.46-0.46-0.979-0.88-1.52-1.24c-0.551-0.359-1.13-0.67-1.73-0.92c-0.6-0.25-1.229-0.449-1.87-0.569
			c-1.29-0.261-2.62-0.261-3.91,0c-0.64,0.12-1.27,0.319-1.869,0.569c-0.601,0.25-1.181,0.561-1.73,0.92
			c-0.54,0.36-1.06,0.78-1.52,1.24c-0.461,0.46-0.881,0.97-1.24,1.521c-0.36,0.54-0.67,1.12-0.92,1.729
			c-0.25,0.601-0.44,1.23-0.57,1.87c-0.13,0.64-0.2,1.3-0.2,1.95c0,0.649,0.07,1.31,0.2,1.95s0.32,1.27,0.57,1.87
			c0.25,0.609,0.56,1.189,0.92,1.729c0.359,0.55,0.779,1.061,1.24,1.521c0.46,0.46,0.979,0.88,1.52,1.239
			c0.55,0.36,1.13,0.67,1.73,0.92c0.6,0.25,1.229,0.45,1.869,0.57c0.65,0.13,1.301,0.2,1.96,0.2c0.65,0,1.301-0.07,1.95-0.2
			c0.641-0.12,1.271-0.32,1.87-0.57c0.601-0.25,1.18-0.56,1.73-0.92c0.54-0.359,1.06-0.779,1.52-1.239
			c0.46-0.46,0.88-0.971,1.24-1.521c0.36-0.54,0.67-1.12,0.92-1.729c0.25-0.601,0.44-1.23,0.57-1.87
			c0.13-0.641,0.199-1.301,0.199-1.95C96.358,118.018,96.289,117.357,96.159,116.718z"/>
	</g>
</g>
<g>
</g>
<g>
</g>
<g>
</g>
<g>
</g>
<g>
</g>
<g>
</g>
<g>
</g>
<g>
</g>
<g>
</g>
<g>
</g>
<g>
</g>
<g>
</g>
<g>
</g>
<g>
</g>
<g>
</g>
</svg>
