<?xml version="1.0" encoding="utf-8"?>
<!-- Generator: Adobe Illustrator 21.1.0, SVG Export Plug-In . SVG Version: 6.00 Build 0)  -->
<svg version="1.1" xmlns="http://www.w3.org/2000/svg" xmlns:xlink="http://www.w3.org/1999/xlink" x="0px" y="0px" width="130px"
	 height="130px" viewBox="0 0 130 130" style="enable-background:new 0 0 130 130;" xml:space="preserve">
<g id="Layer_1">
</g>
<g id="Layer_2">
	<g>
		<g>
			<path d="M111.1,90.9l-27-27L112.9,35c0.7-0.7,0.7-1.9,0-2.6L97.6,17.1c-0.7-0.7-1.9-0.7-2.6,0L66.1,45.9L40.6,20.3c0,0,0,0,0,0
				l-0.3-0.3c-0.3-0.3-0.6-0.5-1-0.5l-18.7-3c-0.6-0.1-1.2,0.1-1.6,0.5c-0.4,0.4-0.6,1-0.5,1.6l3,18.7c0.1,0.4,0.2,0.7,0.5,1
				l0.3,0.3c0,0,0,0,0,0l25.6,25.6L19.1,93c-0.7,0.7-0.7,1.9,0,2.6l15.3,15.3c0.4,0.4,0.8,0.5,1.3,0.5s0.9-0.2,1.3-0.5l28.8-28.8
				l27,27c1.5,1.5,3.5,2.4,5.7,2.4s4.2-0.8,5.7-2.4l6.8-6.8c1.5-1.5,2.4-3.5,2.4-5.7S112.7,92.4,111.1,90.9z M96.3,21L109,33.7
				l-4.3,4.3l-4.8-4.8c-0.7-0.7-1.9-0.7-2.6,0c-0.7,0.7-0.7,1.9,0,2.6l4.8,4.8l-6.2,6.2l-3.5-3.5c-0.7-0.7-1.9-0.7-2.6,0
				c-0.7,0.7-0.7,1.9,0,2.6l3.5,3.5L87,55.7l-4.8-4.8c-0.7-0.7-1.9-0.7-2.6,0c-0.7,0.7-0.7,1.9,0,2.6l4.8,4.8l-2.9,2.9L68.8,48.5
				L96.3,21z M39.3,24.3l59.5,59.5l-2.2,2.2L37.1,26.5L39.3,24.3z M22.6,20.6l13,2.1L24.7,33.6L22.6,20.6z M60.4,82.3l-3.5-3.5
				c-0.7-0.7-1.9-0.7-2.6,0c-0.7,0.7-0.7,1.9,0,2.6l3.5,3.5l-6.2,6.2l-4.8-4.8c-0.7-0.7-1.9-0.7-2.6,0c-0.7,0.7-0.7,1.9,0,2.6
				l4.8,4.8l-6.2,6.2l-3.5-3.5c-0.7-0.7-1.9-0.7-2.6,0c-0.7,0.7-0.7,1.9,0,2.6l3.5,3.5l-4.3,4.3L23,94.3l27.5-27.5l12.7,12.7
				L60.4,82.3z M85.8,96.8L26.3,37.3l8.2-8.2l59.5,59.5l-3.4,3.4l-50-50c-0.7-0.7-1.9-0.7-2.6,0c-0.7,0.7-0.7,1.9,0,2.6l50,50
				L85.8,96.8z M108.5,99.7l-6.8,6.8c-0.8,0.8-1.9,1.3-3.1,1.3c-1.2,0-2.3-0.5-3.1-1.3l-7.1-7.1l13-13l7.1,7.1
				c0.8,0.8,1.3,1.9,1.3,3.1S109.3,98.9,108.5,99.7z"/>
		</g>
	</g>
	<g>
		<g>
			<path d="M36.3,38.2c0-0.1-0.1-0.2-0.1-0.3c0-0.1-0.1-0.2-0.2-0.3c-0.1-0.1-0.1-0.2-0.2-0.3c-0.1-0.1-0.2-0.2-0.3-0.2
				c-0.1-0.1-0.2-0.1-0.3-0.2s-0.2-0.1-0.3-0.1c-0.2,0-0.5,0-0.7,0c-0.1,0-0.2,0.1-0.3,0.1c-0.1,0-0.2,0.1-0.3,0.2
				c-0.1,0.1-0.2,0.1-0.3,0.2c-0.1,0.1-0.2,0.2-0.2,0.3c-0.1,0.1-0.1,0.2-0.2,0.3c0,0.1-0.1,0.2-0.1,0.3c0,0.1,0,0.2,0,0.4
				c0,0.1,0,0.2,0,0.4s0.1,0.2,0.1,0.3c0,0.1,0.1,0.2,0.2,0.3c0.1,0.1,0.1,0.2,0.2,0.3c0.1,0.1,0.2,0.2,0.3,0.2
				c0.1,0.1,0.2,0.1,0.3,0.2c0.1,0,0.2,0.1,0.3,0.1c0.1,0,0.2,0,0.4,0c0.1,0,0.2,0,0.4,0c0.1,0,0.2-0.1,0.3-0.1
				c0.1,0,0.2-0.1,0.3-0.2c0.1-0.1,0.2-0.1,0.3-0.2c0.1-0.1,0.2-0.2,0.2-0.3c0.1-0.1,0.1-0.2,0.2-0.3c0-0.1,0.1-0.2,0.1-0.3
				c0-0.1,0-0.2,0-0.4C36.4,38.4,36.4,38.3,36.3,38.2z"/>
		</g>
	</g>
</g>
</svg>
