<?xml version="1.0" encoding="utf-8"?>
<!-- Generator: Adobe Illustrator 21.1.0, SVG Export Plug-In . SVG Version: 6.00 Build 0)  -->
<svg version="1.1" xmlns="http://www.w3.org/2000/svg" xmlns:xlink="http://www.w3.org/1999/xlink" x="0px" y="0px" width="130px"
	 height="130px" viewBox="0 0 130 130" style="enable-background:new 0 0 130 130;" xml:space="preserve">
<g id="Layer_1">
	<g>
		<g>
			<path d="M82.3,39.2c0-0.4,0-0.8,0.1-1.2l-2.9-0.4c-0.1,0.5-0.1,1.1-0.1,1.6c0,0.5,0,1.1,0.1,1.6l2.9-0.4
				C82.4,40,82.3,39.6,82.3,39.2z"/>
		</g>
	</g>
	<g>
		<g>
			<path d="M85.8,47l-2,2.2c0.8,0.7,1.7,1.3,2.6,1.8l1.4-2.6C87.2,48,86.5,47.5,85.8,47z"/>
		</g>
	</g>
	<g>
		<g>
			<path d="M83,42.9l-2.8,1.1c0.4,1,0.9,2,1.5,2.8l2.4-1.7C83.7,44.4,83.3,43.6,83,42.9z"/>
		</g>
	</g>
	<g>
		<g>
			<path d="M81.7,31.6c-0.6,0.9-1.1,1.8-1.5,2.9l2.8,1.1c0.3-0.8,0.7-1.5,1.2-2.2L81.7,31.6z"/>
		</g>
	</g>
	<g>
		<g>
			<path d="M86.5,27.4c-0.9,0.5-1.8,1.1-2.6,1.8l2,2.2c0.6-0.6,1.3-1,2.1-1.4L86.5,27.4z"/>
		</g>
	</g>
	<g>
		<g>
			<path d="M105.2,34.4l-2.8,1.1c0.3,0.8,0.5,1.6,0.6,2.4l2.9-0.4C105.9,36.5,105.6,35.4,105.2,34.4z"/>
		</g>
	</g>
	<g>
		<g>
			<path d="M101.3,45.1c-0.5,0.7-1,1.3-1.7,1.9l2,2.2c0.8-0.7,1.5-1.5,2.1-2.4L101.3,45.1z"/>
		</g>
	</g>
	<g>
		<g>
			<path d="M103,40.4c-0.1,0.8-0.3,1.7-0.6,2.4l2.8,1c0.4-1,0.6-2.1,0.8-3.1L103,40.4z"/>
		</g>
	</g>
	<g>
		<g>
			<path d="M101.6,29.2l-2,2.2c0.6,0.6,1.2,1.2,1.7,1.9l2.4-1.7C103.1,30.7,102.4,29.9,101.6,29.2z"/>
		</g>
	</g>
	<g>
		<g>
			<path d="M97.6,48.4c-0.7,0.4-1.5,0.7-2.3,0.9l0.7,2.9c1-0.3,2.1-0.6,3-1.2L97.6,48.4z"/>
		</g>
	</g>
	<g>
		<g>
			<path d="M92.8,49.6L92.8,49.6c-0.9,0-1.7-0.1-2.5-0.3l-0.7,2.9c1,0.3,2.1,0.4,3.2,0.4h0.1L92.8,49.6z"/>
		</g>
	</g>
	<g>
		<g>
			<path d="M92.7,25.8c-1.1,0-2.2,0.1-3.2,0.4l0.7,2.9c0.8-0.2,1.6-0.3,2.5-0.3L92.7,25.8z"/>
		</g>
	</g>
	<g>
		<g>
			<path d="M95.9,26.2l-0.7,2.9c0.8,0.2,1.6,0.5,2.3,0.9l1.4-2.6C98,26.8,96.9,26.4,95.9,26.2z"/>
		</g>
	</g>
	<g>
		<g>
			<path d="M108.5,23.5c-4.2-4.3-9.8-6.6-15.8-6.6c0,0,0,0,0,0c-3.9,0-7.7,1-11.1,2.9c-4.2,2.4-8.6,3.9-13.2,4.3l-37.1,3.6L15,25.6
				v27.2l16.4-2.2L68,54.2c3.9,0.4,7.6,1.4,11.1,3l-4.8,32.9c-0.3,1.6,0.1,3.2,1.2,4.4c1,1.2,2.6,2,4.2,2h7.8c2.6,0,4.9-1.9,5.4-4.5
				l4.5-31c4.2-0.9,8-2.9,11.1-6c4.2-4.2,6.5-9.7,6.6-15.6C115.1,33.4,112.8,27.8,108.5,23.5z M29.9,47.8L18,49.4V29l11.9,1.6V47.8z
				 M89.9,91.5c-0.2,1.2-1.2,2-2.4,2h-7.8c-0.7,0-1.4-0.3-1.9-0.9c-0.5-0.6-0.7-1.3-0.5-2l4.7-32c3.3,1.8,7,2.8,10.8,2.8
				c0.5,0,1,0,1.5-0.1L89.9,91.5z M92.7,58.5c-3.4,0-6.7-0.9-9.6-2.5c-4.6-2.6-9.6-4.2-14.8-4.7l-35.5-3.5V30.6l36-3.5
				c5-0.5,9.8-2.1,14.4-4.7c2.9-1.7,6.2-2.5,9.6-2.5c0,0,0,0,0,0c5.2,0,10,2,13.7,5.7c3.7,3.7,5.7,8.6,5.6,13.8
				C111.9,49.9,103.3,58.5,92.7,58.5z"/>
		</g>
	</g>
	<g>
		<g>
			<rect x="78.5" y="99.5" width="8.9" height="3"/>
		</g>
	</g>
	<g>
		<g>
			<rect x="69.2" y="63.2" transform="matrix(0.1797 -0.9837 0.9837 0.1797 -3.7944 124.8838)" width="7.7" height="3"/>
		</g>
	</g>
	<g>
		<g>
			<path d="M81.4,105.3v0.2c0,4.7-3.8,8.6-8.6,8.6c-4.7,0-8.6-3.8-8.6-8.6V83.6c0-8-6.5-14.5-14.5-14.5c-8,0-14.5,6.5-14.5,14.5
				v27.2h3V83.6c0-6.3,5.2-11.5,11.5-11.5s11.5,5.2,11.5,11.5v21.9c0,6.4,5.2,11.5,11.5,11.5c6.4,0,11.5-5.2,11.5-11.5v-0.2H81.4z"
				/>
		</g>
	</g>
	<g>
		<g>
			<rect x="35.4" y="113.9" width="3" height="3"/>
		</g>
	</g>
</g>
<g id="Layer_2">
</g>
</svg>
