<?xml version="1.0" encoding="iso-8859-1"?>
<!-- Generator: Adobe Illustrator 19.0.0, SVG Export Plug-In . SVG Version: 6.00 Build 0)  -->
<svg version="1.1" id="Capa_1" xmlns="http://www.w3.org/2000/svg" xmlns:xlink="http://www.w3.org/1999/xlink" x="0px" y="0px"
	 viewBox="0 0 512 512" style="enable-background:new 0 0 512 512;" xml:space="preserve">
<g>
	<g>
		<path d="M344.537,113.834c0-2.124,0.127-4.261,0.377-6.353l-15.071-1.802c-0.322,2.688-0.485,5.432-0.485,8.156
			c0,2.767,0.169,5.556,0.501,8.287l15.068-1.833C344.668,118.163,344.537,115.991,344.537,113.834z"/>
	</g>
</g>
<g>
	<g>
		<path d="M362.468,153.592l-10.066,11.359c4.12,3.651,8.672,6.8,13.527,9.357l7.072-13.429
			C369.223,158.888,365.678,156.436,362.468,153.592z"/>
	</g>
</g>
<g>
	<g>
		<path d="M347.996,132.696l-14.182,5.409c1.957,5.128,4.538,10.023,7.675,14.549l12.475-8.645
			C351.524,140.489,349.516,136.683,347.996,132.696z"/>
	</g>
</g>
<g>
	<g>
		<path d="M341.424,75.107c-3.132,4.535-5.707,9.439-7.654,14.573l14.191,5.381c1.514-3.99,3.516-7.802,5.952-11.33L341.424,75.107z
			"/>
	</g>
</g>
<g>
	<g>
		<path d="M365.826,53.414c-4.85,2.565-9.395,5.72-13.508,9.378l10.086,11.342c3.205-2.849,6.743-5.306,10.517-7.302L365.826,53.414
			z"/>
	</g>
</g>
<g>
	<g>
		<path d="M461.461,89.449l-14.172,5.433c1.529,3.987,2.568,8.16,3.091,12.403l15.065-1.858
			C464.77,99.961,463.431,94.586,461.461,89.449z"/>
	</g>
</g>
<g>
	<g>
		<path d="M441.46,143.858c-2.424,3.525-5.276,6.759-8.473,9.613l10.105,11.324c4.102-3.661,7.76-7.811,10.872-12.334
			L441.46,143.858z"/>
	</g>
</g>
<g>
	<g>
		<path d="M450.417,120.092c-0.502,4.251-1.519,8.432-3.026,12.427l14.201,5.356c1.941-5.147,3.252-10.532,3.898-16.006
			L450.417,120.092z"/>
	</g>
</g>
<g>
	<g>
		<path d="M442.826,62.638l-10.048,11.376c3.213,2.835,6.08,6.054,8.523,9.566l12.459-8.667
			C450.626,70.407,446.946,66.277,442.826,62.638z"/>
	</g>
</g>
<g>
	<g>
		<path d="M422.482,160.791c-3.78,2.008-7.795,3.551-11.934,4.585l3.682,14.725c5.332-1.334,10.504-3.32,15.371-5.904
			L422.482,160.791z"/>
	</g>
</g>
<g>
	<g>
		<path d="M397.824,166.957h-0.164c-4.296,0-8.57-0.516-12.705-1.534l-3.629,14.738c5.32,1.309,10.815,1.974,16.282,1.974h0.32
			L397.824,166.957z"/>
	</g>
</g>
<g>
	<g>
		<path d="M397.538,45.534c-5.52,0.01-11.014,0.684-16.33,2.003l3.656,14.732c4.13-1.026,8.404-1.55,12.701-1.557L397.538,45.534z"
			/>
	</g>
</g>
<g>
	<g>
		<path d="M413.874,47.478l-3.603,14.744c4.146,1.013,8.171,2.535,11.962,4.523l7.049-13.443
			C424.399,50.744,419.215,48.784,413.874,47.478z"/>
	</g>
</g>
<g>
	<g>
		<path d="M478.459,33.871C456.869,12.052,428.205,0.023,397.748,0c-0.029,0-0.057,0-0.085,0c-19.836,0-39.369,5.183-56.49,14.989
			c-21.492,12.31-44.125,19.704-67.27,21.978L84.118,55.603L0.506,44.455v138.759l83.61-11.148l187.458,18.409
			c19.716,1.936,38.68,7.135,56.564,15.471l-24.654,168.14c-1.435,8.1,0.759,16.359,6.031,22.68c5.302,6.354,13.088,10,21.363,10
			h39.806c13.445,0,24.959-9.6,27.379-22.828l22.921-158.658c21.335-4.423,40.969-14.9,56.796-30.581
			c21.443-21.246,33.415-49.561,33.71-79.729C511.786,84.498,500.057,55.698,478.459,33.871z M76.395,157.782l-60.711,8.095V61.79
			l60.711,8.095V157.782z M383.109,381.332c-1.149,5.951-6.354,10.257-12.426,10.257h-39.806c-3.76,0-7.299-1.656-9.708-4.545
			c-2.41-2.89-3.406-6.671-2.73-10.374l23.95-163.319c16.826,9.363,35.904,14.317,55.271,14.317c2.574,0,5.135-0.092,7.681-0.26
			L383.109,381.332z M397.66,212.49c-17.154,0-34.045-4.469-48.846-12.925c-23.503-13.426-48.991-21.567-75.758-24.196
			L91.573,157.546V70.121L275.385,52.07c25.294-2.484,49.967-10.528,73.331-23.911c14.829-8.494,31.751-12.981,48.946-12.981
			c0.024,0,0.05,0,0.074,0c26.377,0.02,51.213,10.451,69.934,29.368c18.727,18.926,28.9,43.883,28.642,70.275
			C495.785,168.676,451.529,212.49,397.66,212.49z"/>
	</g>
</g>
<g>
	<g>
		<rect x="324.826" y="421.945" width="45.534" height="15.178"/>
	</g>
</g>
<g>
	<g>
		<rect x="277.228" y="236.74" transform="matrix(0.1797 -0.9837 0.9837 0.1797 3.1163 492.3952)" width="39.153" height="15.178"/>
	</g>
</g>
<g>
	<g>
		<path d="M340.004,451.794v1.255c0,24.137-19.636,43.773-43.773,43.773s-43.773-19.636-43.773-43.773V340.996
			c0-40.729-33.136-73.866-73.866-73.866c-40.729,0-73.866,33.136-73.866,73.866v139.13h15.178v-139.13
			c0-32.36,26.328-58.688,58.688-58.688s58.688,26.328,58.688,58.688v112.053c0,32.506,26.445,58.951,58.951,58.951
			s58.951-26.445,58.951-58.951v-1.255H340.004z"/>
	</g>
</g>
<g>
	<g>
		<rect x="104.727" y="495.81" width="15.178" height="15.178"/>
	</g>
</g>
<g>
</g>
<g>
</g>
<g>
</g>
<g>
</g>
<g>
</g>
<g>
</g>
<g>
</g>
<g>
</g>
<g>
</g>
<g>
</g>
<g>
</g>
<g>
</g>
<g>
</g>
<g>
</g>
<g>
</g>
</svg>
