<?xml version="1.0" encoding="iso-8859-1"?>
<!-- Generator: Adobe Illustrator 19.0.0, SVG Export Plug-In . SVG Version: 6.00 Build 0)  -->
<svg version="1.1" id="Capa_1" xmlns="http://www.w3.org/2000/svg" xmlns:xlink="http://www.w3.org/1999/xlink" x="0px" y="0px"
	 viewBox="0 0 512 512" style="enable-background:new 0 0 512 512;" xml:space="preserve">
<g>
	<g>
		<path d="M406,375c8.284,0,15-6.716,15-15v-30c0-24.813-20.187-45-45-45h-9.735l14.763-48.343c0.075-0.246,0.144-0.494,0.206-0.743
			c7.1-28.398-14.36-55.914-43.657-55.914H316c-8.271,0-15-6.729-15-15v-10.042c17.841-21.769,30-55.002,30-79.958
			c0-41.355-33.645-75-75-75c-41.355,0-75,33.645-75,75c0,24.955,12.158,58.188,30,79.958V165c0,8.271-6.729,15-15,15h-21.577
			c-29.274,0-50.761,27.494-43.656,55.914c0.063,0.25,0.131,0.497,0.206,0.743L145.736,285H136c-24.813,0-45,20.187-45,45v30
			c0,8.284,6.716,15,15,15h15v107h-15c-8.284,0-15,6.716-15,15s6.716,15,15,15h30h240h30c8.284,0,15-6.716,15-15s-6.716-15-15-15
			h-15V375H406z M256,30c24.813,0,45,20.187,45,45c0,14.122-6.223,34.131-15.484,49.79C276.179,140.576,265.146,150,256,150
			s-20.179-9.424-29.516-25.21C217.223,109.131,211,89.122,211,75C211,50.187,231.187,30,256,30z M174.423,210H196
			c20.716,0,38.197-14.075,43.408-33.161C244.829,178.924,250.384,180,256,180c5.616,0,11.171-1.076,16.592-3.161
			C277.803,195.925,295.284,210,316,210h21.577c9.649,0,16.762,8.96,14.627,18.326L334.897,285H177.103l-17.306-56.675
			C157.66,218.956,164.778,210,174.423,210z M361,482H151V375h210V482z M376,345H136h-15v-15c0-8.271,6.729-15,15-15h30h180h30
			c8.271,0,15,6.729,15,15v15H376z"/>
	</g>
</g>
<g>
	<g>
		<path d="M286,422h-60c-8.284,0-15,6.716-15,15s6.716,15,15,15h60c8.284,0,15-6.716,15-15S294.284,422,286,422z"/>
	</g>
</g>
<g>
</g>
<g>
</g>
<g>
</g>
<g>
</g>
<g>
</g>
<g>
</g>
<g>
</g>
<g>
</g>
<g>
</g>
<g>
</g>
<g>
</g>
<g>
</g>
<g>
</g>
<g>
</g>
<g>
</g>
</svg>
