<?xml version="1.0" encoding="utf-8"?>
<!-- Generator: Adobe Illustrator 21.1.0, SVG Export Plug-In . SVG Version: 6.00 Build 0)  -->
<svg version="1.1" xmlns="http://www.w3.org/2000/svg" xmlns:xlink="http://www.w3.org/1999/xlink" x="0px" y="0px" width="130px"
	 height="130px" viewBox="0 0 130 130" style="enable-background:new 0 0 130 130;" xml:space="preserve">
<g id="Layer_1">
</g>
<g id="Layer_2">
	<g>
		<g>
			<path d="M95,87.8c1.7,0,3-1.3,3-3v-6c0-5-4-9-9-9h-1.9l3-9.7c0,0,0-0.1,0-0.1c1.4-5.7-2.9-11.2-8.7-11.2H77c-1.7,0-3-1.3-3-3v-2
				c3.6-4.4,6-11,6-16c0-8.3-6.7-15-15-15s-15,6.7-15,15c0,5,2.4,11.6,6,16v2c0,1.7-1.3,3-3,3h-4.3c-5.9,0-10.2,5.5-8.7,11.2
				c0,0,0,0.1,0,0.1l3,9.7H41c-5,0-9,4-9,9v6c0,1.7,1.3,3,3,3h3v21.4h-3c-1.7,0-3,1.3-3,3s1.3,3,3,3h6h48h6c1.7,0,3-1.3,3-3
				s-1.3-3-3-3h-3V87.8H95z M65,18.8c5,0,9,4,9,9c0,2.8-1.2,6.8-3.1,10c-1.9,3.2-4.1,5-5.9,5s-4-1.9-5.9-5c-1.9-3.1-3.1-7.1-3.1-10
				C56,22.8,60,18.8,65,18.8z M48.7,54.8H53c4.1,0,7.6-2.8,8.7-6.6c1.1,0.4,2.2,0.6,3.3,0.6s2.2-0.2,3.3-0.6c1,3.8,4.5,6.6,8.7,6.6
				h4.3c1.9,0,3.4,1.8,2.9,3.7l-3.5,11.3H49.2l-3.5-11.3C45.3,56.6,46.8,54.8,48.7,54.8z M86,109.2H44V87.8h42V109.2z M89,81.8H41
				h-3v-3c0-1.7,1.3-3,3-3h6h36h6c1.7,0,3,1.3,3,3v3H89z"/>
		</g>
	</g>
	<g>
		<g>
			<path d="M71,97.2H59c-1.7,0-3,1.3-3,3s1.3,3,3,3h12c1.7,0,3-1.3,3-3S72.7,97.2,71,97.2z"/>
		</g>
	</g>
</g>
</svg>
