<?xml version="1.0" encoding="utf-8"?>
<!-- Generator: Adobe Illustrator 21.1.0, SVG Export Plug-In . SVG Version: 6.00 Build 0)  -->
<svg version="1.1" xmlns="http://www.w3.org/2000/svg" xmlns:xlink="http://www.w3.org/1999/xlink" x="0px" y="0px" width="130px"
	 height="130px" viewBox="0 0 130 130" style="enable-background:new 0 0 130 130;" xml:space="preserve">
<g id="Layer_1">
</g>
<g id="Layer_2">
	<g>
		<g>
			<g>
				<path d="M113.4,52.3c1.3,0,2.3-1,2.3-2.3c0-1.3-1-2.3-2.3-2.3h-6.8v-9.1h6.8c1.3,0,2.3-1,2.3-2.3c0-1.3-1-2.3-2.3-2.3h-6.8v-2.3
					c0-5-4.1-9.1-9.1-9.1h-2.3v-6.8c0-1.3-1-2.3-2.3-2.3s-2.3,1-2.3,2.3v6.8h-9.1v-6.8c0-1.3-1-2.3-2.3-2.3s-2.3,1-2.3,2.3v6.8h-9.1
					v-6.8c0-1.3-1-2.3-2.3-2.3c-1.3,0-2.3,1-2.3,2.3v6.8h-9.1v-6.8c0-1.3-1-2.3-2.3-2.3c-1.3,0-2.3,1-2.3,2.3v6.8h-9.1v-6.8
					c0-1.3-1-2.3-2.3-2.3c-1.3,0-2.3,1-2.3,2.3v6.8h-2.3c-5,0-9.1,4.1-9.1,9.1v2.3h-6.8c-1.3,0-2.3,1-2.3,2.3c0,1.3,1,2.3,2.3,2.3
					h6.8v9.1h-6.8c-1.3,0-2.3,1-2.3,2.3c0,1.3,1,2.3,2.3,2.3h6.8v9.1h-6.8c-1.3,0-2.3,1-2.3,2.3s1,2.3,2.3,2.3h6.8V75h-6.8
					c-1.3,0-2.3,1-2.3,2.3s1,2.3,2.3,2.3h6.8v9.1h-6.8c-1.3,0-2.3,1-2.3,2.3s1,2.3,2.3,2.3h6.8v2.3c0,5,4.1,9.1,9.1,9.1h2.3v6.8
					c0,1.3,1,2.3,2.3,2.3c1.3,0,2.3-1,2.3-2.3v-6.8h9.1v6.8c0,1.3,1,2.3,2.3,2.3s2.3-1,2.3-2.3v-6.8h9.1v6.8c0,1.3,1,2.3,2.3,2.3
					s2.3-1,2.3-2.3v-6.8H77v6.8c0,1.3,1,2.3,2.3,2.3s2.3-1,2.3-2.3v-6.8h9.1v6.8c0,1.3,1,2.3,2.3,2.3s2.3-1,2.3-2.3v-6.8h2.3
					c5,0,9.1-4.1,9.1-9.1v-2.3h6.8c1.3,0,2.3-1,2.3-2.3s-1-2.3-2.3-2.3h-6.8v-9.1h6.8c1.3,0,2.3-1,2.3-2.3c0-1.3-1-2.3-2.3-2.3h-6.8
					v-9.1h6.8c1.3,0,2.3-1,2.3-2.3c0-1.3-1-2.3-2.3-2.3h-6.8v-9.1L113.4,52.3L113.4,52.3z M102,95.5c0,2.5-2,4.5-4.5,4.5H33.8
					c-2.5,0-4.5-2-4.5-4.5V31.8c0-2.5,2-4.5,4.5-4.5h63.6c2.5,0,4.5,2,4.5,4.5V95.5z"/>
				<path d="M95.2,31.8H36.1c-1.3,0-2.3,1-2.3,2.3v59.1c0,1.3,1,2.3,2.3,2.3h59.1c1.3,0,2.3-1,2.3-2.3V34.1
					C97.5,32.9,96.5,31.8,95.2,31.8z M92.9,90.9H38.4V36.4h54.5V90.9z"/>
			</g>
		</g>
	</g>
</g>
</svg>
