<?xml version="1.0" encoding="utf-8"?>
<!-- Generator: Adobe Illustrator 21.1.0, SVG Export Plug-In . SVG Version: 6.00 Build 0)  -->
<svg version="1.1" xmlns="http://www.w3.org/2000/svg" xmlns:xlink="http://www.w3.org/1999/xlink" x="0px" y="0px" width="130px"
	 height="130px" viewBox="0 0 130 130" style="enable-background:new 0 0 130 130;" xml:space="preserve">
<g id="Layer_1">
	<g>
		<g>
			<path d="M79.5,82.4c0-0.1-0.1-0.2-0.1-0.4s-0.1-0.2-0.2-0.3c-0.1-0.1-0.2-0.2-0.2-0.3c-0.1-0.1-0.2-0.2-0.3-0.2
				c-0.1-0.1-0.2-0.1-0.3-0.2c-0.1,0-0.2-0.1-0.4-0.1c-0.3-0.1-0.5-0.1-0.8,0c-0.1,0-0.2,0.1-0.4,0.1c-0.1,0-0.2,0.1-0.3,0.2
				c-0.1,0.1-0.2,0.2-0.3,0.2s-0.2,0.2-0.2,0.3c-0.1,0.1-0.1,0.2-0.2,0.3s-0.1,0.2-0.1,0.4c0,0.1,0,0.3,0,0.4c0,0.1,0,0.3,0,0.4
				c0,0.1,0.1,0.2,0.1,0.4s0.1,0.2,0.2,0.3c0.1,0.1,0.2,0.2,0.2,0.3c0.1,0.1,0.2,0.2,0.3,0.2c0.1,0.1,0.2,0.1,0.3,0.2
				c0.1,0,0.2,0.1,0.4,0.1s0.3,0,0.4,0s0.3,0,0.4,0c0.1,0,0.2-0.1,0.4-0.1c0.1,0,0.2-0.1,0.3-0.2c0.1-0.1,0.2-0.2,0.3-0.2
				c0.1-0.1,0.2-0.2,0.2-0.3c0.1-0.1,0.1-0.2,0.2-0.3s0.1-0.2,0.1-0.4c0-0.1,0-0.3,0-0.4C79.6,82.7,79.6,82.5,79.5,82.4z"/>
		</g>
	</g>
	<g>
		<g>
			<path d="M77.6,88.2c-1.1,0-2,0.9-2,2v6.6c0,7.4-6,13.4-13.4,13.4s-13.4-6-13.4-13.4v-3.8H51c1.1,0,2-0.9,2-2V73.2
				c14.3-2.8,25-15.4,25-30.4v-1.5c0-1.1-0.9-2-2-2h-2V22.7c0-1.1-0.9-2-2-2h-4.7v-0.5c0-3.4-2.8-6.2-6.2-6.2
				c-3.4,0-6.2,2.8-6.2,6.2v5c0,3.4,2.8,6.2,6.2,6.2s6.2-2.8,6.2-6.2v-0.5h2.8v14.7h-2c-1.1,0-2,0.9-2,2v1.5
				c0,10.6-8.7,19.3-19.3,19.3s-19.3-8.7-19.3-19.3v-1.5c0-1.1-0.9-2-2-2h-2V24.6h2.8v0.5c0,3.4,2.8,6.2,6.2,6.2s6.2-2.8,6.2-6.2v-5
				c0-3.4-2.8-6.2-6.2-6.2s-6.2,2.8-6.2,6.2v0.5h-4.7c-1.1,0-2,0.9-2,2v16.7h-2c-1.1,0-2,0.9-2,2v1.5c0,15.1,10.8,27.6,25,30.4V91
				c0,1.1,0.9,2,2,2h2v3.8c0,9.5,7.8,17.3,17.3,17.3s17.3-7.8,17.3-17.3v-6.6C79.6,89.1,78.7,88.2,77.6,88.2z M63.5,25.2
				c0,1.3-1,2.3-2.3,2.3c-1.3,0-2.3-1-2.3-2.3v-5c0-1.3,1-2.3,2.3-2.3c1.3,0,2.3,1,2.3,2.3V25.2z M30.5,20.2c0-1.3,1-2.3,2.3-2.3
				s2.3,1,2.3,2.3v5c0,1.3-1,2.3-2.3,2.3s-2.3-1-2.3-2.3V20.2z M44.1,69.7c-0.3,0-0.5-0.1-0.8-0.1c-13.1-1.8-23.2-12.9-23.5-26.4
				h3.9C24.1,55.8,34.4,66,47,66s23-10.2,23.2-22.7h3.9c-0.2,13.5-10.4,24.6-23.5,26.4c-0.2,0-0.5,0.1-0.7,0.1c0,0-0.1,0-0.1,0
				c-0.3,0-0.6,0.1-0.9,0.1c0,0-0.1,0-0.1,0c-0.3,0-0.5,0-0.8,0c0,0-0.1,0-0.1,0c-0.6,0-1.2,0-1.8,0c0,0-0.1,0-0.1,0
				c-0.3,0-0.5,0-0.8,0c0,0-0.1,0-0.1,0C44.8,69.8,44.5,69.8,44.1,69.7C44.2,69.8,44.2,69.7,44.1,69.7z M44.9,89V73.7
				c0,0,0.1,0,0.1,0c0.2,0,0.5,0,0.7,0c0.1,0,0.2,0,0.2,0c0.3,0,0.6,0,1,0c0.3,0,0.6,0,0.9,0c0.1,0,0.2,0,0.2,0c0.2,0,0.5,0,0.7,0
				c0,0,0.1,0,0.1,0V89H44.9z"/>
		</g>
	</g>
	<g>
		<g>
			<path d="M103.2,84.8V67.1c0-7.6-6.2-13.8-13.8-13.8c-7.6,0-13.8,6.2-13.8,13.8v8.6c0,1.1,0.9,2,2,2s2-0.9,2-2v-8.6
				c0-5.4,4.4-9.9,9.9-9.9s9.9,4.4,9.9,9.9v17.7c-7.1,1-12.6,7.1-12.6,14.5c0,8.1,6.6,14.6,14.6,14.6s14.6-6.6,14.6-14.6
				C116,91.8,110.4,85.7,103.2,84.8z M101.4,110c-5.9,0-10.7-4.8-10.7-10.7c0-5.9,4.8-10.7,10.7-10.7s10.7,4.8,10.7,10.7
				C112.1,105.2,107.3,110,101.4,110z"/>
		</g>
	</g>
	<g>
		<g>
			<path d="M101.4,91.9c-4.1,0-7.4,3.3-7.4,7.4c0,4.1,3.3,7.4,7.4,7.4c4.1,0,7.4-3.3,7.4-7.4C108.7,95.2,105.4,91.9,101.4,91.9z
				 M101.4,102.8c-1.9,0-3.5-1.6-3.5-3.5c0-1.9,1.6-3.5,3.5-3.5s3.5,1.6,3.5,3.5C104.8,101.2,103.3,102.8,101.4,102.8z"/>
		</g>
	</g>
</g>
<g id="Layer_2">
</g>
</svg>
