<?xml version="1.0" encoding="iso-8859-1"?>
<!-- Generator: Adobe Illustrator 19.0.0, SVG Export Plug-In . SVG Version: 6.00 Build 0)  -->
<svg version="1.1" id="Capa_1" xmlns="http://www.w3.org/2000/svg" xmlns:xlink="http://www.w3.org/1999/xlink" x="0px" y="0px"
	 viewBox="0 0 512 512" style="enable-background:new 0 0 512 512;" xml:space="preserve">
<g>
	<g>
		<path d="M325.31,350.22c-0.13-0.64-0.32-1.27-0.57-1.87c-0.25-0.6-0.56-1.18-0.92-1.73c-0.37-0.539-0.79-1.06-1.25-1.52
			c-0.46-0.461-0.97-0.88-1.52-1.24c-0.54-0.36-1.12-0.67-1.72-0.92c-0.61-0.25-1.24-0.44-1.87-0.57c-1.29-0.26-2.62-0.26-3.91,0
			c-0.64,0.13-1.27,0.32-1.87,0.57c-0.61,0.25-1.19,0.56-1.73,0.92c-0.55,0.36-1.06,0.78-1.52,1.24c-0.46,0.46-0.88,0.98-1.24,1.52
			c-0.36,0.55-0.67,1.13-0.92,1.73c-0.25,0.6-0.44,1.23-0.57,1.87c-0.13,0.65-0.2,1.3-0.2,1.95c0,0.66,0.07,1.31,0.2,1.96
			c0.13,0.64,0.32,1.27,0.57,1.87c0.25,0.6,0.56,1.18,0.92,1.73c0.36,0.54,0.78,1.05,1.24,1.52c0.46,0.46,0.97,0.87,1.52,1.24
			c0.54,0.36,1.12,0.67,1.73,0.92c0.6,0.25,1.23,0.44,1.87,0.57c0.64,0.13,1.3,0.2,1.95,0.2s1.31-0.07,1.96-0.2
			c0.63-0.13,1.26-0.32,1.87-0.57c0.6-0.25,1.18-0.56,1.72-0.92c0.55-0.37,1.06-0.78,1.52-1.24c0.46-0.47,0.88-0.98,1.25-1.52
			c0.36-0.55,0.67-1.13,0.92-1.73c0.25-0.6,0.44-1.23,0.57-1.87c0.13-0.65,0.19-1.3,0.19-1.96
			C325.5,351.52,325.44,350.87,325.31,350.22z"/>
	</g>
</g>
<g>
	<g>
		<path d="M315.502,379.829c-5.523,0-10,4.477-10,10v33.662c0,37.776-30.733,68.51-68.51,68.51c-37.777,0-68.51-30.733-68.51-68.51
			v-19.336h10.921c5.523,0,10-4.477,10-10V303.24c72.976-14.302,128.211-78.736,128.211-155.838v-7.616c0-5.523-4.477-10-10-10h-10
			v-85.27c0-5.523-4.477-10-10-10H263.32v-2.784C263.32,14.235,249.085,0,231.588,0c-17.498,0-31.732,14.235-31.732,31.732V57.3
			c0,17.497,14.235,31.732,31.732,31.732S263.32,74.797,263.32,57.3v-2.784h14.295v75.269h-10c-5.523,0-10,4.477-10,10v7.616
			c0,54.483-44.325,98.808-98.808,98.808c-54.483,0-98.807-44.325-98.807-98.808v-7.616c0-5.523-4.477-10-10-10H40V54.516h14.295
			V57.3c0,17.497,14.235,31.732,31.732,31.732c17.497,0,31.732-14.235,31.732-31.732V31.732C117.759,14.235,103.524,0,86.027,0
			C68.53,0,54.295,14.235,54.295,31.732v2.784H30c-5.523,0-10,4.477-10,10v85.269H10c-5.523,0-10,4.477-10,10v7.616
			c0,77.103,55.235,141.537,128.211,155.838v90.915c0,5.523,4.477,10,10,10h10.271v19.336c0,48.805,39.705,88.51,88.51,88.51
			s88.51-39.705,88.51-88.51v-33.662C325.502,384.306,321.025,379.829,315.502,379.829z M243.32,57.3
			c0,6.469-5.263,11.732-11.732,11.732s-11.732-5.263-11.732-11.732V31.732c0-6.469,5.263-11.732,11.732-11.732
			s11.732,5.263,11.732,11.732V57.3z M74.295,31.732C74.295,25.263,79.558,20,86.027,20c6.469,0,11.732,5.263,11.732,11.732V57.3
			c0,6.469-5.263,11.732-11.732,11.732c-6.469,0-11.732-5.263-11.732-11.732V31.732z M144.083,285.426
			c-1.325-0.14-2.646-0.302-3.963-0.48c-66.966-9.051-118.933-66.026-120.1-135.161h20.003
			c1.273,64.416,54.069,116.423,118.784,116.423s117.511-52.007,118.784-116.423h20.003
			c-1.168,69.163-53.177,126.157-120.184,135.172c-1.226,0.165-2.455,0.315-3.688,0.447c-0.196,0.021-0.391,0.046-0.588,0.067
			c-1.48,0.152-2.966,0.279-4.454,0.383c-0.212,0.015-0.424,0.026-0.636,0.04c-1.337,0.088-2.675,0.157-4.016,0.206
			c-0.21,0.008-0.42,0.017-0.63,0.024c-3.062,0.099-6.13,0.1-9.193,0c-0.185-0.006-0.369-0.014-0.554-0.021
			c-1.383-0.051-2.764-0.121-4.143-0.213c-0.173-0.012-0.347-0.021-0.52-0.033c-1.52-0.106-3.038-0.236-4.551-0.391
			C144.319,285.454,144.201,285.438,144.083,285.426z M148.212,384.154v-78.298c0.237,0.016,0.472,0.021,0.709,0.035
			c1.265,0.078,2.533,0.141,3.806,0.189c0.401,0.015,0.801,0.034,1.202,0.046c1.621,0.049,3.246,0.082,4.879,0.082
			c1.626,0,3.245-0.033,4.859-0.081c0.424-0.013,0.847-0.032,1.271-0.048c1.244-0.047,2.484-0.109,3.72-0.185
			c0.248-0.015,0.497-0.021,0.746-0.037v78.297H148.212z"/>
	</g>
</g>
<g>
	<g>
		<path d="M446.454,362.3v-90.458c0-38.86-31.615-70.476-70.476-70.476c-38.861,0-70.476,31.615-70.476,70.476v43.832
			c0,5.523,4.477,10,10,10s10-4.477,10-10v-43.832c0-27.833,22.643-50.476,50.476-50.476s50.476,22.643,50.476,50.476v90.598
			c-36.374,5.146-64.446,36.468-64.446,74.239c0,41.353,33.643,74.996,74.996,74.996c41.353,0,74.996-33.643,74.996-74.996
			C512,398.529,483.359,366.963,446.454,362.3z M437.004,491.675c-30.325,0-54.996-24.671-54.996-54.996
			s24.671-54.996,54.996-54.996S492,406.354,492,436.679C492,467.004,467.329,491.675,437.004,491.675z"/>
	</g>
</g>
<g>
	<g>
		<path d="M437.004,398.95c-20.804,0-37.729,16.925-37.729,37.729s16.925,37.729,37.729,37.729
			c20.804,0,37.729-16.925,37.729-37.729S457.808,398.95,437.004,398.95z M437.004,454.408c-9.776,0-17.729-7.954-17.729-17.729
			c0-9.776,7.954-17.729,17.729-17.729c9.775,0,17.729,7.953,17.729,17.729S446.78,454.408,437.004,454.408z"/>
	</g>
</g>
<g>
</g>
<g>
</g>
<g>
</g>
<g>
</g>
<g>
</g>
<g>
</g>
<g>
</g>
<g>
</g>
<g>
</g>
<g>
</g>
<g>
</g>
<g>
</g>
<g>
</g>
<g>
</g>
<g>
</g>
</svg>
