<?xml version="1.0" encoding="iso-8859-1"?>
<!-- Generator: Adobe Illustrator 19.0.0, SVG Export Plug-In . SVG Version: 6.00 Build 0)  -->
<svg version="1.1" id="Capa_1" xmlns="http://www.w3.org/2000/svg" xmlns:xlink="http://www.w3.org/1999/xlink" x="0px" y="0px"
	 viewBox="0 0 512 512" style="enable-background:new 0 0 512 512;" xml:space="preserve">
<g>
	<g>
		<path d="M451.754,341.54L331,220.787V87.43c17.461-6.191,30-22.873,30-42.43c0-24.813-20.187-45-45-45H196
			c-24.813,0-45,20.187-45,45c0,19.556,12.539,36.239,30,42.43v133.357L60.246,341.541C41.387,360.4,31,385.476,31,412.147
			C31,467.206,75.794,512,130.853,512h250.294C436.206,512,481,467.206,481,412.147C481,385.476,470.613,360.401,451.754,341.54z
			 M196,30h120c8.271,0,15,6.729,15,15s-6.729,15-15,15c-8.284,0-15,6.716-15,15v152c0,3.978,1.58,7.794,4.394,10.607l44.038,44.038
			C340.277,284.477,328.593,287,316,287c-28.575,0-52.487-12.987-52.687-13.097c-0.001-0.001-0.003-0.001-0.004-0.002
			C262.036,273.191,232.596,257,196,257c-3.099,0-6.141,0.124-9.124,0.337l19.731-19.731C209.419,234.794,211,230.978,211,227V75
			c0-8.284-6.716-15-15-15c-8.271,0-15-6.729-15-15S187.729,30,196,30z M381.147,482H130.853C92.336,482,61,450.664,61,412.147
			c0-18.658,7.266-36.2,20.459-49.393l63.493-63.493C150.866,296.349,171.75,287,196,287c28.547,0,52.437,12.959,52.684,13.095
			c0.001,0,0.002,0.001,0.003,0.002C249.923,300.787,279.38,317,316,317c23.995,0,44.913-6.961,56.833-11.955l57.708,57.708
			C443.734,375.948,451,393.489,451,412.147C451,450.664,419.664,482,381.147,482z"/>
	</g>
</g>
<g>
	<g>
		<circle cx="256" cy="407" r="15"/>
	</g>
</g>
<g>
	<g>
		<circle cx="346" cy="347" r="15"/>
	</g>
</g>
<g>
	<g>
		<circle cx="376" cy="437" r="15"/>
	</g>
</g>
<g>
	<g>
		<path d="M166,362c-24.813,0-45,20.187-45,45s20.187,45,45,45s45-20.187,45-45S190.813,362,166,362z M166,422
			c-8.271,0-15-6.729-15-15s6.729-15,15-15s15,6.729,15,15S174.271,422,166,422z"/>
	</g>
</g>
<g>
</g>
<g>
</g>
<g>
</g>
<g>
</g>
<g>
</g>
<g>
</g>
<g>
</g>
<g>
</g>
<g>
</g>
<g>
</g>
<g>
</g>
<g>
</g>
<g>
</g>
<g>
</g>
<g>
</g>
</svg>
