<?xml version="1.0" encoding="utf-8"?>
<!-- Generator: Adobe Illustrator 21.1.0, SVG Export Plug-In . SVG Version: 6.00 Build 0)  -->
<svg version="1.1" xmlns="http://www.w3.org/2000/svg" xmlns:xlink="http://www.w3.org/1999/xlink" x="0px" y="0px" width="130px"
	 height="130px" viewBox="0 0 130 130" style="enable-background:new 0 0 130 130;" xml:space="preserve">
<g id="Layer_1">
	<path d="M97.6,100.7c0.8-2,0.8-4.1,0-6.1l-2.7-6.4c0.1-0.1,0.1-0.2,0.1-0.3c0.7-1.7,0.7-3.6,0-5.3c-0.8-1.8-2.3-3.2-4.1-3.9
		L83.7,61h5.1c0.2,0.6,0.8,1.1,1.5,1.1c0.9,0,1.6-0.7,1.6-1.6v-2.1c0-0.9-0.7-1.6-1.6-1.6c-0.7,0-1.3,0.4-1.5,1.1h-6.4L71.2,31
		l0.5-4.4c0.1-1.3-0.3-2.5-1.1-3.5c-0.8-0.9-2-1.5-3.3-1.5h-2.7v-9c0-0.9-0.7-1.6-1.6-1.6c-0.9,0-1.6,0.7-1.6,1.6v9h-2.7
		c-1.3,0-2.5,0.5-3.3,1.5c-0.8,0.9-1.2,2.2-1.1,3.5l0.5,4.4L43.7,57.8h-6.4c-0.2-0.6-0.8-1.1-1.5-1.1c-0.9,0-1.6,0.7-1.6,1.6v2.1
		c0,0.9,0.7,1.6,1.6,1.6c0.7,0,1.3-0.4,1.5-1.1h5.1L35,78.7c-1.8,0.6-3.3,2-4.1,3.9c-0.8,1.9-0.7,3.9,0.1,5.6l-2.7,6.4
		c-0.8,2-0.8,4.1,0,6.1c0.6,1.5,1.6,2.7,2.9,3.6l-1.9,4.6c-0.3,0.8,0,1.7,0.9,2.1c0.2,0.1,0.4,0.1,0.6,0.1c0.6,0,1.2-0.4,1.5-1
		L40,91.5c1.6-0.7,3-2,3.7-3.7c0.7-1.7,0.7-3.6,0-5.2L52.7,61h8.7v2.7c0,0.9,0.7,1.6,1.6,1.6c0.9,0,1.6-0.7,1.6-1.6V61h8.7l2.7,6.5
		c0.3,0.6,0.8,1,1.5,1c0.2,0,0.4,0,0.6-0.1c0.8-0.3,1.2-1.3,0.9-2.1l-3.1-7.5c0,0,0,0,0,0l-6-14.5l0.7-6.6L79.8,60c0,0,0,0,0,0
		l7.6,18.3c-0.5,0.1-0.9,0.2-1.4,0.4c-0.6,0.2-1.1,0.5-1.5,0.9l-3.1-7.5c-0.3-0.8-1.3-1.2-2.1-0.9c-0.8,0.3-1.2,1.3-0.9,2.1l3.8,9.2
		c-0.6,1.6-0.7,3.5,0,5.2c0.7,1.7,2,3,3.7,3.7l5.2,12.6c0,0,2.4,5.9,2.4,5.9c0.3,0.6,0.8,1,1.5,1c0.2,0,0.4,0,0.6-0.1
		c0.8-0.3,1.2-1.3,0.9-2.1l-1.9-4.6C96,103.4,97,102.1,97.6,100.7z M57.8,25.2c0.2-0.3,0.6-0.4,1-0.4h8.5c0.4,0,0.7,0.1,1,0.4
		c0.2,0.3,0.3,0.6,0.3,1L68,31c0,0-1.3,11.9-1.3,11.9h-7.5L58,31.1c0,0-0.5-4.8-0.5-4.8C57.4,25.9,57.5,25.5,57.8,25.2z M56.2,44.3
		l-6,14.5c0,0,0,0,0,0l-8.6,20.9c-0.5-0.3-1-0.6-1.5-0.9c-0.5-0.2-0.9-0.3-1.4-0.4L46.2,60c0,0,0,0,0,0l9.3-22.4L56.2,44.3z
		 M31.4,99.4c-0.5-1.2-0.5-2.5,0-3.7l2-4.9c0.4,0.3,0.8,0.5,1.3,0.7c0.6,0.2,1.1,0.4,1.7,0.5l-3.8,9.1
		C32.1,100.7,31.7,100.1,31.4,99.4z M40.8,86.6c-0.4,1-1.3,1.8-2.3,2.1c0,0-0.1,0-0.1,0c-0.3,0.1-0.7,0.1-1,0.1
		c-0.5,0-1-0.1-1.4-0.3c-1.9-0.8-2.8-3-2-4.9c0.6-1.4,1.9-2.3,3.4-2.3c0.5,0,1,0.1,1.4,0.3C40.7,82.5,41.6,84.7,40.8,86.6z
		 M64.6,57.8v-2.7c0-0.9-0.7-1.6-1.6-1.6c-0.9,0-1.6,0.7-1.6,1.6v2.7H54l4.8-11.7h8.3L72,57.8H64.6z M87.2,81.7
		c0.5-0.2,0.9-0.3,1.4-0.3c1.5,0,2.9,0.9,3.4,2.3c0.4,0.9,0.4,1.9,0,2.8c-0.4,0.9-1.1,1.6-2,2c-0.5,0.2-0.9,0.3-1.4,0.3
		c-0.4,0-0.7-0.1-1-0.1c0,0-0.1,0-0.1,0c-1-0.3-1.9-1.1-2.3-2.1C84.4,84.7,85.3,82.5,87.2,81.7z M94.6,99.4
		c-0.3,0.7-0.7,1.3-1.2,1.7L89.6,92c0.6-0.1,1.2-0.2,1.7-0.5c0.5-0.2,0.9-0.4,1.3-0.7l2,4.9C95.1,97,95.1,98.3,94.6,99.4z"/>
</g>
<g id="Layer_2">
</g>
</svg>
