<?xml version="1.0" encoding="utf-8"?>
<!-- Generator: Adobe Illustrator 21.1.0, SVG Export Plug-In . SVG Version: 6.00 Build 0)  -->
<svg version="1.1" xmlns="http://www.w3.org/2000/svg" xmlns:xlink="http://www.w3.org/1999/xlink" x="0px" y="0px" width="130px"
	 height="130px" viewBox="0 0 130 130" style="enable-background:new 0 0 130 130;" xml:space="preserve">
<g id="Layer_1">
</g>
<g id="Layer_2">
	<g>
		<g>
			<path d="M101.4,78.3L78.3,55.3V29.8c3.3-1.2,5.7-4.4,5.7-8.1c0-4.7-3.9-8.6-8.6-8.6H52.5c-4.7,0-8.6,3.9-8.6,8.6
				c0,3.7,2.4,6.9,5.7,8.1v25.5L26.6,78.3C23,82,21,86.7,21,91.8c0,10.5,8.6,19.1,19.1,19.1h47.8c10.5,0,19.1-8.6,19.1-19.1
				C107,86.7,105,82,101.4,78.3z M52.5,18.8h22.9c1.6,0,2.9,1.3,2.9,2.9c0,1.6-1.3,2.9-2.9,2.9c-1.6,0-2.9,1.3-2.9,2.9v29
				c0,0.8,0.3,1.5,0.8,2l8.4,8.4c-1.7,0.5-4,1-6.4,1c-5.5,0-10-2.5-10.1-2.5c0,0,0,0,0,0c-0.2-0.1-5.9-3.2-12.9-3.2
				c-0.6,0-1.2,0-1.7,0.1l3.8-3.8c0.5-0.5,0.8-1.3,0.8-2v-29c0-1.6-1.3-2.9-2.9-2.9c-1.6,0-2.9-1.3-2.9-2.9
				C49.7,20.1,51,18.8,52.5,18.8z M87.9,105.2H40.1c-7.4,0-13.3-6-13.3-13.3c0-3.6,1.4-6.9,3.9-9.4l12.1-12.1
				c1.1-0.6,5.1-2.3,9.8-2.3c5.5,0,10,2.5,10.1,2.5c0,0,0,0,0,0c0.2,0.1,5.9,3.2,12.9,3.2c4.6,0,8.6-1.3,10.9-2.3l11,11
				c2.5,2.5,3.9,5.9,3.9,9.4C101.3,99.2,95.3,105.2,87.9,105.2z"/>
		</g>
	</g>
	<g>
		<g>
			<circle cx="64" cy="90.9" r="2.9"/>
		</g>
	</g>
	<g>
		<g>
			<circle cx="81.2" cy="79.4" r="2.9"/>
		</g>
	</g>
	<g>
		<g>
			<circle cx="86.9" cy="96.6" r="2.9"/>
		</g>
	</g>
	<g>
		<g>
			<path d="M46.8,82.3c-4.7,0-8.6,3.9-8.6,8.6c0,4.7,3.9,8.6,8.6,8.6s8.6-3.9,8.6-8.6C55.4,86.1,51.5,82.3,46.8,82.3z M46.8,93.7
				c-1.6,0-2.9-1.3-2.9-2.9c0-1.6,1.3-2.9,2.9-2.9c1.6,0,2.9,1.3,2.9,2.9C49.7,92.4,48.4,93.7,46.8,93.7z"/>
		</g>
	</g>
</g>
</svg>
