<?xml version="1.0" encoding="utf-8"?>
<!-- Generator: Adobe Illustrator 21.1.0, SVG Export Plug-In . SVG Version: 6.00 Build 0)  -->
<svg version="1.1" xmlns="http://www.w3.org/2000/svg" xmlns:xlink="http://www.w3.org/1999/xlink" x="0px" y="0px" width="130px"
	 height="130px" viewBox="0 0 130 130" style="enable-background:new 0 0 130 130;" xml:space="preserve">
<g id="Layer_1">
	<g>
		<g>
			<path d="M112.6,53.7c-1.2-4.8-5.2-8.7-10.1-9.7c-0.4-0.1-0.8-0.1-1.2-0.1C97.7,28.2,84,17,67.7,17h-5.3
				c-16.3,0-30,11.2-33.7,26.8c-2.6,0.3-5,1.3-7,3c-3,2.5-4.7,6.2-4.7,10.2c0,4.2,2,8.1,5.3,10.6v24.1c0,3.9,2.2,7.3,5.3,9.2v4.2
				c0,4.4,3.6,8,8,8s8-3.6,8-8v-2.7h42.7v2.7c0,4.4,3.6,8,8,8s8-3.6,8-8v-4.2c3.2-1.8,5.3-5.3,5.3-9.2V67.6
				C111.9,64.4,113.9,59,112.6,53.7z M62.3,22.3h5.3c13.5,0,24.9,9.1,28.3,21.9c-1.7,0.5-3.3,1.3-4.7,2.4c-3.1,2.5-4.9,6.3-4.9,10.4
				v13.3H43.7V57.6c0-6.2-4-11.7-9.6-13.3C37.4,31.4,48.8,22.3,62.3,22.3z M91.7,78.3c0,1.5-1.2,2.7-2.7,2.7H41
				c-1.5,0-2.7-1.2-2.7-2.7c0-1.5,1.2-2.7,2.7-2.7h48C90.5,75.7,91.7,76.9,91.7,78.3z M38.3,105c0,1.5-1.2,2.7-2.7,2.7
				c-1.5,0-2.7-1.2-2.7-2.7v-2.7h5.3V105z M97,105c0,1.5-1.2,2.7-2.7,2.7c-1.5,0-2.7-1.2-2.7-2.7v-2.7H97V105z M103.7,63.9
				c-0.8,0.5-1.3,1.4-1.3,2.3v25.5c0,2.9-2.4,5.3-5.3,5.3H33c-2.9,0-5.3-2.4-5.3-5.3V66.2c0-0.9-0.5-1.8-1.3-2.3c-2.5-1.5-4-4-4-6.9
				c0-2.3,1-4.6,2.8-6.1c1.8-1.5,4.1-2.2,6.5-1.8c3.8,0.6,6.6,4.3,6.6,8.5v13.3c-3.1,1.1-5.3,4-5.3,7.5c0,4.4,3.6,8,8,8h48
				c4.4,0,8-3.6,8-8c0-3.5-2.2-6.4-5.3-7.5V57c0-2.4,1.1-4.7,3-6.2c1.9-1.5,4.3-2.1,6.8-1.6c2.9,0.6,5.3,2.9,6,5.8
				C108.3,58.5,106.8,62,103.7,63.9z"/>
		</g>
	</g>
</g>
<g id="Layer_2">
</g>
</svg>
