<?xml version="1.0" encoding="iso-8859-1"?>
<!-- Generator: Adobe Illustrator 19.0.0, SVG Export Plug-In . SVG Version: 6.00 Build 0)  -->
<svg version="1.1" id="Layer_1" xmlns="http://www.w3.org/2000/svg" xmlns:xlink="http://www.w3.org/1999/xlink" x="0px" y="0px"
	 viewBox="0 0 395.448 395.448" style="enable-background:new 0 0 395.448 395.448;" xml:space="preserve">
<g>
	<g>
		<g>
			<path d="M197.724,0C88.698,0,0,88.698,0,197.724s88.698,197.724,197.724,197.724s197.724-88.698,197.724-197.724
				S306.749,0,197.724,0z M311.08,54.516c9.832,7.799,18.842,16.588,26.886,26.213c-4.268-0.746-8.262-0.667-12.005,0.249
				c-7.242,1.771-13.015,6.614-16.693,14.002c-0.87,1.747-2.663,2.755-4.591,2.545c-2.277-0.239-4.038-2.072-4.096-4.263
				C300.19,78.42,306.652,63.162,311.08,54.516z M71.829,65.411c15.759-15.001,34.185-27.221,54.484-35.873
				c8.375,5.728,31.504,22.647,48.593,45.583c2.097,2.814,2.801,6.374,1.932,9.768c-0.869,3.397-3.201,6.185-6.397,7.647
				c-17.979,8.228-41.804,20.989-53.2,35.062c-2.64,3.262-6.904,4.719-10.87,3.713c-15.208-3.858-27.427,0.746-34.407,12.961
				c-8.816,15.425,3.474,30.436,14.318,43.681c1.234,1.507,2.473,3.022,3.689,4.54c-11.385-6.76-20.088-15.504-25.925-26.114
				C53.974,148.066,47.239,115.723,71.829,65.411z M15,197.724c0-35.864,10.393-69.342,28.315-97.596
				c-7.704,33.718-1.022,57.825,7.588,73.481c9.185,16.694,23.906,29.502,43.756,38.069c4.085,1.763,7.141,5.343,8.176,9.583
				c0,0,0.43,1.848,0.614,2.764c1.376,6.834,2.418,17.008,0.905,30.005c-2.225,19.197,6.309,38.036,22.269,49.164l14.934,10.42
				c-0.932,10.643-2.225,37.514,5.501,59.682C70.873,351.276,15,280.905,15,197.724z M375.291,228.283
				c-0.445-7.875-4.219-15.238-10.354-20.201c-6.064-4.906-13.942-7.035-21.613-5.844l-0.65,0.098
				c-5.855,0.855-11.691-0.644-16.425-4.221c-4.816-3.641-7.907-8.961-8.702-14.98c-0.874-6.623-1.183-12.962-0.919-18.842
				c0.187-4.138-3.018-7.643-7.155-7.829c-4.139-0.189-7.644,3.017-7.829,7.155c-0.304,6.757,0.043,13.983,1.032,21.479
				c1.325,10.031,6.484,18.903,14.528,24.983c7.959,6.017,17.773,8.536,27.64,7.097l0.787-0.119c3.548-0.55,7.053,0.403,9.873,2.685
				c2.852,2.306,4.605,5.727,4.812,9.384c0.73,12.922,3.499,24.15,8.229,33.453c-26.223,68.83-92.898,117.866-170.821,117.866
				c-7.15,0-14.201-0.427-21.139-1.23c2.492-2.537,5.47-5.597,8.994-9.257c2.873-2.984,2.782-7.732-0.202-10.604
				s-7.733-2.782-10.604,0.202c-5.206,5.408-9.213,9.493-12.181,12.481c-10.291-24.143-5.732-60.667-5.68-61.074
				c0.363-2.775-0.85-5.521-3.145-7.123l-18.562-12.952c-11.427-7.967-17.539-21.43-15.95-35.131
				c1.244-10.699,1.077-21.176-0.423-30.754c13.196-3.554,26.006-5.429,34.947-6.395c6.573-0.706,13.053,1.476,17.763,5.994
				c10.872,10.434,27.706,22.6,50.033,36.16c6.625,4.024,11.177,10.718,12.486,18.367c1.305,7.623-0.749,15.42-5.636,21.391
				c-6.662,8.139-14.81,17.499-24.216,27.82c-2.79,3.062-2.57,7.805,0.491,10.595c1.438,1.311,3.246,1.957,5.05,1.957
				c2.036,0,4.065-0.824,5.545-2.448c9.585-10.517,17.907-20.08,24.737-28.424c7.64-9.334,10.852-21.516,8.813-33.422
				c-2.043-11.932-9.146-22.377-19.485-28.656c-21.091-12.809-37.492-24.622-47.435-34.163c-7.917-7.593-18.76-11.268-29.757-10.084
				c-9.05,0.978-21.85,2.836-35.262,6.302c-2.716-11.629-11.266-22.078-19.019-31.547c-10.025-12.245-16.34-20.721-12.902-26.737
				c2.219-3.882,6.467-8.714,17.696-5.863c9.614,2.438,19.906-1.021,26.215-8.814c7.464-9.216,24.434-20.176,47.785-30.862
				c7.335-3.356,12.688-9.759,14.687-17.566c1.998-7.803,0.382-15.986-4.434-22.45c-14.279-19.165-31.997-34.142-43.613-42.889
				c17.191-5.372,35.464-8.27,54.401-8.27c37.351,0,72.114,11.273,101.083,30.584c-5.147,9.593-13.732,28.625-13.219,48.073
				c0.254,9.685,7.786,17.762,17.52,18.786c0.676,0.071,1.35,0.106,2.021,0.106c7.35,0,14.239-4.197,17.568-10.883
				c2.521-5.063,5.764-5.857,6.83-6.118c3.346-0.818,10.996-0.624,25.231,9.304c-3.058,0.053-6.609-0.068-10.463-0.543
				c-5.72-0.705-11.393,0.726-15.979,4.023c-3.006,2.159-5.86,4.692-8.486,7.527c-2.814,3.04-2.632,7.785,0.407,10.599
				c1.443,1.336,3.271,1.997,5.094,1.997c2.017,0,4.027-0.808,5.505-2.404c1.944-2.1,4.042-3.963,6.234-5.539
				c1.517-1.091,3.436-1.559,5.392-1.316c8.365,1.031,15.568,0.69,20.318,0.185c11.322,23.756,17.669,50.321,17.669,78.342
				c0,13.48-1.48,26.62-4.264,39.276C375.76,234.222,375.462,231.316,375.291,228.283z"/>
			<path d="M202.296,346.013c-0.18-0.45-0.409-0.89-0.68-1.29c-0.28-0.42-0.59-0.8-0.939-1.14c-0.341-0.35-0.721-0.66-1.141-0.94
				c-0.399-0.27-0.84-0.5-1.29-0.69c-0.45-0.18-0.93-0.33-1.399-0.42c-0.971-0.2-1.971-0.2-2.94,0c-0.47,0.09-0.95,0.24-1.399,0.42
				c-0.45,0.19-0.891,0.42-1.29,0.69c-0.41,0.28-0.801,0.59-1.141,0.94c-0.35,0.34-0.66,0.72-0.939,1.14
				c-0.271,0.4-0.5,0.84-0.69,1.29c-0.18,0.45-0.33,0.93-0.42,1.4c-0.1,0.49-0.15,0.98-0.15,1.47s0.051,0.98,0.15,1.46
				c0.09,0.48,0.24,0.95,0.42,1.41c0.19,0.45,0.42,0.88,0.69,1.29c0.279,0.41,0.59,0.8,0.939,1.14c0.34,0.35,0.73,0.66,1.141,0.93
				c0.399,0.27,0.84,0.51,1.29,0.69c0.449,0.19,0.93,0.33,1.399,0.43c0.49,0.1,0.98,0.15,1.47,0.15s0.98-0.05,1.471-0.15
				c0.47-0.1,0.949-0.24,1.399-0.43c0.45-0.18,0.891-0.42,1.29-0.69c0.42-0.27,0.8-0.58,1.141-0.93c0.35-0.34,0.659-0.73,0.939-1.14
				c0.271-0.41,0.5-0.84,0.68-1.29c0.19-0.46,0.341-0.93,0.431-1.41c0.1-0.48,0.149-0.97,0.149-1.46s-0.05-0.98-0.149-1.47
				C202.637,346.942,202.486,346.462,202.296,346.013z"/>
			<path d="M233.492,33.418c-1.216-1.094-12.959-10.78-50.395-13.899c-5.521-0.462-7.855,3.223-8.44,4.362
				c-2.737,5.327,0.681,9.345,5.854,15.428c5.976,7.026,15.978,18.786,17.526,30.654c0.393,3.01,2.561,5.487,5.492,6.273
				c0.645,0.173,1.298,0.257,1.944,0.257c2.296,0,4.511-1.058,5.952-2.937l23-30C236.808,40.45,236.4,36.036,233.492,33.418z
				 M208.268,53.023c-3.014-6.288-6.982-11.919-10.698-16.626c9.178,1.545,15.466,3.461,19.563,5.064L208.268,53.023z"/>
			<path d="M317.318,135.493c-0.411-0.27-0.84-0.5-1.3-0.69c-0.45-0.19-0.92-0.33-1.4-0.43c-0.97-0.19-1.96-0.19-2.93,0
				c-0.48,0.1-0.95,0.24-1.4,0.43c-0.46,0.19-0.89,0.42-1.3,0.69c-0.41,0.27-0.79,0.59-1.14,0.93c-0.34,0.35-0.66,0.73-0.931,1.14
				c-0.27,0.41-0.5,0.85-0.689,1.3c-0.19,0.45-0.33,0.92-0.431,1.4c-0.09,0.49-0.14,0.98-0.14,1.47c0,0.49,0.05,0.98,0.14,1.46
				c0.099,0.479,0.239,0.95,0.43,1.41c0.189,0.45,0.42,0.88,0.689,1.29c0.271,0.41,0.591,0.79,0.931,1.14
				c1.399,1.4,3.33,2.2,5.31,2.2c0.48,0,0.98-0.05,1.46-0.15c0.48-0.1,0.95-0.24,1.4-0.43c0.46-0.18,0.89-0.42,1.3-0.69
				c0.41-0.27,0.79-0.58,1.14-0.93c0.34-0.35,0.66-0.73,0.931-1.14c0.27-0.41,0.5-0.84,0.689-1.29c0.19-0.46,0.33-0.93,0.431-1.41
				c0.1-0.48,0.14-0.97,0.14-1.46c0-1.98-0.8-3.91-2.19-5.31C318.108,136.083,317.729,135.763,317.318,135.493z"/>
		</g>
	</g>
</g>
<g>
</g>
<g>
</g>
<g>
</g>
<g>
</g>
<g>
</g>
<g>
</g>
<g>
</g>
<g>
</g>
<g>
</g>
<g>
</g>
<g>
</g>
<g>
</g>
<g>
</g>
<g>
</g>
<g>
</g>
</svg>
