<?xml version="1.0" encoding="utf-8"?>
<!-- Generator: Adobe Illustrator 21.1.0, SVG Export Plug-In . SVG Version: 6.00 Build 0)  -->
<svg version="1.1" xmlns="http://www.w3.org/2000/svg" xmlns:xlink="http://www.w3.org/1999/xlink" x="0px" y="0px" width="130px"
	 height="130px" viewBox="0 0 130 130" style="enable-background:new 0 0 130 130;" xml:space="preserve">
<g id="Layer_1">
	<g>
		<g>
			<rect x="64.2" y="96.6" width="3.6" height="3.6"/>
		</g>
	</g>
	<g>
		<g>
			<path d="M109.9,66.3L97,39.1c2.7-1,4.6-3.6,4.6-6.6c0-3.9-3.2-7.1-7.1-7.1c-3.3,0-6.1,2.3-6.9,5.3H73.1c1.1-1.5,1.8-3.4,1.8-5.3
				c0-4.9-4-8.9-8.9-8.9s-8.9,4-8.9,8.9c0,2,0.7,3.8,1.8,5.3H44.4c-0.8-3.1-3.6-5.3-6.9-5.3c-3.9,0-7.1,3.2-7.1,7.1
				c0,3,1.9,5.6,4.5,6.6L22.1,66.3h-0.6v1.8c0,8.8,7.2,16,16,16s16-7.2,16-16v-1.8h-0.6L40.1,39.1c2.1-0.8,3.7-2.6,4.3-4.8h16.3v57
				h-6.1l-14.2,14.2h51.3L77.4,91.3h-6.1v-57h16.3c0.6,2.2,2.2,4,4.3,4.8L79.1,66.3h-0.6v1.8c0,8.8,7.2,16,16,16s16-7.2,16-16v-1.8
				H109.9z M37.5,80.6c-6.3,0-11.5-4.6-12.3-10.7h24.7C49,75.9,43.8,80.6,37.5,80.6z M49,66.3H26.1L37.5,42L49,66.3z M37.5,36.1
				c-2,0-3.6-1.6-3.6-3.6s1.6-3.6,3.6-3.6s3.6,1.6,3.6,3.6S39.5,36.1,37.5,36.1z M75.9,94.8l7.1,7.1H48.9l1.8-1.8h9.9v-3.6h-6.4
				l1.8-1.8h4.6h10.7H75.9z M64.2,91.3v-57h3.6v57H64.2z M68.7,30c-1.3,0.7-2.7,0.9-4,0.5c-0.4-0.1-0.9-0.3-1.3-0.5
				c-1.6-0.9-2.7-2.7-2.7-4.6c0-2.9,2.4-5.3,5.3-5.3c2.9,0,5.3,2.4,5.3,5.3C71.3,27.3,70.3,29.1,68.7,30z M90.9,32.5
				c0-2,1.6-3.6,3.6-3.6s3.6,1.6,3.6,3.6s-1.6,3.6-3.6,3.6S90.9,34.5,90.9,32.5z M94.5,42l11.4,24.3H83L94.5,42z M94.5,80.6
				c-6.3,0-11.5-4.6-12.3-10.7h24.7C105.9,75.9,100.7,80.6,94.5,80.6z"/>
		</g>
	</g>
</g>
<g id="Layer_2">
</g>
</svg>
