<?xml version="1.0" encoding="iso-8859-1"?>
<!-- Generator: Adobe Illustrator 19.0.0, SVG Export Plug-In . SVG Version: 6.00 Build 0)  -->
<svg version="1.1" id="Capa_1" xmlns="http://www.w3.org/2000/svg" xmlns:xlink="http://www.w3.org/1999/xlink" x="0px" y="0px"
	 viewBox="0 0 400 400" style="enable-background:new 0 0 400 400;" xml:space="preserve">
<g>
	<g>
		<rect x="192" y="360" width="16" height="16"/>
	</g>
</g>
<g>
	<g>
		<path d="M397.08,224l-57.552-122.232C351.48,97.12,360,85.576,360,72c0-17.648-14.352-32-32-32c-14.872,0-27.288,10.24-30.864,24
			h-65.184c5.12-6.824,8.048-15.216,8.048-24c0-22.056-17.944-40-40-40c-22.056,0-40,17.944-40,40c0,8.784,2.928,17.176,8.056,24
			h-65.192c-3.576-13.76-16-24-30.864-24c-17.648,0-32,14.352-32,32c0,13.56,8.512,25.104,20.448,29.76L2.92,224H0v8
			c0,39.704,32.304,72,72,72s72-32.296,72-72v-8h-2.92L83.552,101.76c9.488-3.696,16.72-11.776,19.312-21.76H176v256h-27.312l-64,64
			h230.624l-64-64H224V80h73.136c2.592,9.984,9.824,18.064,19.312,21.76L258.92,224H256v8c0,39.704,32.296,72,72,72
			c39.704,0,72-32.296,72-72v-8H397.08z M72,288c-28.168,0-51.536-20.896-55.432-48h110.856C123.536,267.104,100.168,288,72,288z
			 M123.392,224H20.608L72,114.784L123.392,224z M72,88c-8.824,0-16-7.176-16-16c0-8.824,7.176-16,16-16c8.824,0,16,7.176,16,16
			S80.824,88,72,88z M244.688,352l32,32H123.312l8-8H176v-16h-28.688l8-8H176h48H244.688z M192,336V80h16v256H192z M212.008,60.752
			c-5.624,3.232-12.104,4.04-18.16,2.424c-2.016-0.544-3.984-1.352-5.864-2.432C180.592,56.496,176,48.536,176,40
			c0-13.232,10.768-24,24-24s24,10.768,24,24C224,48.536,219.408,56.496,212.008,60.752z M312,72c0-8.824,7.176-16,16-16
			c8.824,0,16,7.176,16,16s-7.176,16-16,16C319.176,88,312,80.824,312,72z M327.984,114.768L379.392,224H276.608L327.984,114.768z
			 M328,288c-28.168,0-51.536-20.896-55.432-48h110.856C379.536,267.104,356.168,288,328,288z"/>
	</g>
</g>
<g>
</g>
<g>
</g>
<g>
</g>
<g>
</g>
<g>
</g>
<g>
</g>
<g>
</g>
<g>
</g>
<g>
</g>
<g>
</g>
<g>
</g>
<g>
</g>
<g>
</g>
<g>
</g>
<g>
</g>
</svg>
