<?xml version="1.0" encoding="utf-8"?>
<!-- Generator: Adobe Illustrator 21.1.0, SVG Export Plug-In . SVG Version: 6.00 Build 0)  -->
<svg version="1.1" xmlns="http://www.w3.org/2000/svg" xmlns:xlink="http://www.w3.org/1999/xlink" x="0px" y="0px" width="130px"
	 height="130px" viewBox="0 0 130 130" style="enable-background:new 0 0 130 130;" xml:space="preserve">
<g id="Layer_1">
</g>
<g id="Layer_2">
	<g>
		<g>
			<g>
				<path d="M71.2,61.7c0.3,0.5,0.8,0.8,1.4,0.8c0.2,0,0.5-0.1,0.7-0.2c0.1,0,9-4.6,13.4-6c0.8-0.3,1.2-1.1,1-1.9
					c-0.3-0.8-1.1-1.2-1.9-1c-4.6,1.5-13.5,6-13.9,6.2C71.2,60,70.9,60.9,71.2,61.7z"/>
				<path d="M72.6,44.3c0.2,0,0.5-0.1,0.7-0.2c0.1,0,9-4.6,13.4-6c0.8-0.3,1.2-1.1,1-1.9c-0.3-0.8-1.1-1.2-1.9-1
					c-4.6,1.5-13.5,6-13.9,6.2c-0.7,0.4-1,1.3-0.7,2C71.5,44,72,44.3,72.6,44.3z"/>
				<path d="M109,41.3c-0.8,0-1.5,0.7-1.5,1.5v59.1c0,2.5-2,4.5-4.5,4.5H66.5V103c2.2-0.8,8-2.6,13.6-2.6c13.2,0,22.2,2.9,22.3,3
					c0.5,0.2,1,0.1,1.4-0.2c0.4-0.3,0.6-0.7,0.6-1.2V35.2c0-0.7-0.5-1.3-1.2-1.5c0,0-1.2-0.3-3.2-0.6c-0.8-0.2-1.6,0.4-1.8,1.2
					c-0.2,0.8,0.4,1.6,1.2,1.8c0.8,0.1,1.4,0.3,1.9,0.4v63.5C98,99,90.3,97.4,80.2,97.4c-6.6,0-13.1,2.2-15.1,2.9
					c-1.8-0.8-7.2-2.9-13.7-2.9c-10.4,0-19.1,1.7-22.7,2.6V36.4c3-0.7,12-2.7,22.7-2.7c5.5,0,10.3,1.7,12.1,2.5v59.7
					c0,0.5,0.3,1.1,0.8,1.3c0.5,0.3,1.1,0.3,1.5,0c0.2-0.1,15.2-9.1,28.5-13.5c0.6-0.2,1-0.8,1-1.4V20c0-0.5-0.2-1-0.7-1.2
					c-0.4-0.3-0.9-0.3-1.4-0.2c-12.1,4.6-24.4,12.2-24.5,12.3c-0.7,0.4-0.9,1.4-0.5,2.1c0.4,0.7,1.4,0.9,2.1,0.5
					c0.1-0.1,10.8-6.7,21.9-11.2v58.9c-10.4,3.6-21.2,9.5-25.8,12.1v-58c0-0.6-0.3-1.1-0.8-1.4c-0.3-0.1-6.5-3.2-14.3-3.2
					c-13.7,0-24.2,3-24.7,3.1c-0.7,0.2-1.1,0.8-1.1,1.5v66.7c0,0.5,0.2,0.9,0.6,1.2c0.3,0.2,0.6,0.3,0.9,0.3c0.1,0,0.3,0,0.4-0.1
					c0.1,0,10.6-3,23.9-3c5.5,0,10.3,1.7,12.1,2.5v3.6H27.1c-2.5,0-4.5-2-4.5-4.5V42.8c0-0.8-0.7-1.5-1.5-1.5s-1.5,0.7-1.5,1.5v59.1
					c0,4.2,3.4,7.6,7.6,7.6h75.8c4.2,0,7.6-3.4,7.6-7.6V42.8C110.5,41.9,109.8,41.3,109,41.3z"/>
				<path d="M71.2,52.6c0.3,0.5,0.8,0.8,1.4,0.8c0.2,0,0.5-0.1,0.7-0.2c0.1,0,9-4.6,13.4-6c0.8-0.3,1.2-1.1,1-1.9
					c-0.3-0.8-1.1-1.2-1.9-1c-4.6,1.5-13.5,6-13.9,6.2C71.2,50.9,70.9,51.8,71.2,52.6z"/>
				<path d="M71.2,70.8c0.3,0.5,0.8,0.8,1.4,0.8c0.2,0,0.5-0.1,0.7-0.2c0.1,0,9-4.6,13.4-6c0.8-0.3,1.2-1.1,1-1.9
					c-0.3-0.8-1.1-1.2-1.9-1c-4.6,1.5-13.5,6-13.9,6.2C71.2,69.1,70.9,70,71.2,70.8z"/>
				<path d="M56.2,46.6c-9.4-2.2-20,0.6-20.5,0.7c-0.8,0.2-1.3,1-1.1,1.9c0.2,0.7,0.8,1.1,1.5,1.1c0.1,0,0.3,0,0.4-0.1
					c0.1,0,10.3-2.7,19-0.7c0.8,0.2,1.6-0.3,1.8-1.1C57.6,47.7,57.1,46.8,56.2,46.6z"/>
				<path d="M56.2,55.7c-9.4-2.2-20,0.6-20.5,0.7c-0.8,0.2-1.3,1-1.1,1.9c0.2,0.7,0.8,1.1,1.5,1.1c0.1,0,0.3,0,0.4-0.1
					c0.1,0,10.3-2.7,19-0.7c0.8,0.2,1.6-0.3,1.8-1.1C57.6,56.8,57.1,55.9,56.2,55.7z"/>
				<path d="M71.2,79.9c0.3,0.5,0.8,0.8,1.4,0.8c0.2,0,0.5-0.1,0.7-0.2c0.1,0,9-4.6,13.4-6c0.8-0.3,1.2-1.1,1-1.9
					c-0.3-0.8-1.1-1.2-1.9-1c-4.6,1.5-13.5,6-13.9,6.2C71.2,78.2,70.9,79.1,71.2,79.9z"/>
				<path d="M56.2,64.8c-9.4-2.2-20,0.6-20.5,0.7c-0.8,0.2-1.3,1-1.1,1.9c0.2,0.7,0.8,1.1,1.5,1.1c0.1,0,0.3,0,0.4-0.1
					c0.1,0,10.3-2.7,19-0.7c0.8,0.2,1.6-0.3,1.8-1.1C57.6,65.9,57.1,65,56.2,64.8z"/>
				<path d="M56.2,83c-9.4-2.2-20,0.6-20.5,0.7c-0.8,0.2-1.3,1-1.1,1.9c0.2,0.7,0.8,1.1,1.5,1.1c0.1,0,0.3,0,0.4-0.1
					c0.1,0,10.3-2.7,19-0.7c0.8,0.2,1.6-0.3,1.8-1.1C57.6,84.1,57.1,83.2,56.2,83z"/>
				<path d="M56.2,73.9c-9.4-2.2-20,0.6-20.5,0.7c-0.8,0.2-1.3,1-1.1,1.9c0.2,0.7,0.8,1.1,1.5,1.1c0.1,0,0.3,0,0.4-0.1
					c0.1,0,10.3-2.7,19-0.7c0.8,0.2,1.6-0.3,1.8-1.1C57.6,75,57.1,74.1,56.2,73.9z"/>
			</g>
		</g>
	</g>
</g>
</svg>
