<?xml version="1.0" encoding="iso-8859-1"?>
<!-- Generator: Adobe Illustrator 19.1.0, SVG Export Plug-In . SVG Version: 6.00 Build 0)  -->
<svg version="1.1" id="Capa_1" xmlns="http://www.w3.org/2000/svg" xmlns:xlink="http://www.w3.org/1999/xlink" x="0px" y="0px"
	 viewBox="0 0 333.662 333.662" style="enable-background:new 0 0 333.662 333.662;" xml:space="preserve">
<g>
	<path d="M288.681,5.733H44.988C20.18,5.733,0,25.913,0,50.721v164.418c0,24.801,20.18,44.988,44.988,44.988h5.219l-0.488,67.803
		l98.138-67.803h140.818c24.801,0,44.988-20.187,44.988-44.988V50.721C333.668,25.913,313.482,5.733,288.681,5.733z
		 M320.815,215.138c0,17.719-14.415,32.134-32.134,32.134H143.852l-81.1,56.023l0.405-56.029H44.988
		c-17.719,0-32.134-14.415-32.134-32.134V50.721c0-17.719,14.415-32.134,32.134-32.134h243.686
		c17.719,0,32.134,14.415,32.134,32.134v164.418H320.815z M120.773,129.057c0,10.649-8.631,19.281-19.281,19.281
		s-19.281-8.631-19.281-19.281s8.631-19.28,19.281-19.28S120.773,118.408,120.773,129.057z M186.115,129.057
		c0,10.649-8.625,19.281-19.281,19.281c-10.643,0-19.281-8.631-19.281-19.281s8.638-19.28,19.281-19.28
		C177.49,109.777,186.115,118.408,186.115,129.057z M251.45,131.197c0,10.649-8.625,19.281-19.281,19.281
		c-10.643,0-19.281-8.631-19.281-19.281s8.638-19.28,19.281-19.28C242.825,111.917,251.45,120.548,251.45,131.197z"/>
</g>
<g>
</g>
<g>
</g>
<g>
</g>
<g>
</g>
<g>
</g>
<g>
</g>
<g>
</g>
<g>
</g>
<g>
</g>
<g>
</g>
<g>
</g>
<g>
</g>
<g>
</g>
<g>
</g>
<g>
</g>
</svg>
