<svg id="Layer_5" enable-background="new 0 0 64 64" height="512" viewBox="0 0 64 64" width="512" xmlns="http://www.w3.org/2000/svg"><path d="m14 52h2v2h-2z"/><path d="m14 56h2v2h-2z"/><path d="m63 1h-54v30.726c-1.241 1.41-2 3.253-2 5.274 0 2.805 1.455 5.274 3.646 6.702-5.593 1.836-9.646 7.099-9.646 13.298v5h28v-5c0-6.199-4.053-11.462-9.646-13.298 1.651-1.076 2.876-2.745 3.383-4.702h6.263v11c0 1.654 1.346 3 3 3h24c1.654 0 3-1.346 3-3v-11h4zm-2 2v6h-50v-6zm-46 47c2.396 0 4.401-1.697 4.885-3.95.584.261 1.144.566 1.674.914-1.007 1.483-1.559 3.233-1.559 5.036v8h-10v-8c0-1.803-.552-3.553-1.559-5.037.53-.348 1.09-.652 1.674-.914.484 2.254 2.489 3.951 4.885 3.951zm-12 7c0-3.477 1.495-6.603 3.866-8.797.733 1.128 1.134 2.444 1.134 3.797v8h-5zm24 0v3h-5v-8c0-1.353.401-2.669 1.134-3.797 2.371 2.194 3.866 5.32 3.866 8.797zm-9.039-11.615c-.191 1.471-1.438 2.615-2.961 2.615s-2.77-1.144-2.961-2.615c.949-.242 1.938-.385 2.961-.385s2.012.143 2.961.385zm-2.961-2.385c-3.309 0-6-2.691-6-6s2.691-6 6-6 6 2.691 6 6-2.691 6-6 6zm42 7c0 .552-.448 1-1 1h-24c-.552 0-1-.448-1-1v-16c0-.552.448-1 1-1h24c.552 0 1 .448 1 1zm2-13v-3c0-1.654-1.346-3-3-3h-24c-1.654 0-3 1.346-3 3v3h-6c0-4.411-3.589-8-8-8-1.458 0-2.822.398-4 1.082v-19.082h50v26z"/><path d="m13 5h2v2h-2z"/><path d="m17 5h2v2h-2z"/><path d="m21 5h2v2h-2z"/><path d="m49 47h-2v-8h-6v8h-2v-6h-6v8h22v-14h-6zm-12 0h-2v-4h2zm6-6h2v6h-2zm8-4h2v10h-2z"/><path d="m13 27h20v-14h-20zm2-12h16v10h-16z"/><path d="m35 13h2v2h-2z"/><path d="m39 13h20v2h-20z"/><path d="m35 17h24v2h-24z"/><path d="m35 21h6v2h-6z"/><path d="m43 21h16v2h-16z"/><path d="m57 25h2v2h-2z"/><path d="m53 25h2v2h-2z"/><path d="m35 25h16v2h-16z"/></svg>