<?xml version="1.0" encoding="utf-8"?>
<!-- Generator: Adobe Illustrator 21.1.0, SVG Export Plug-In . SVG Version: 6.00 Build 0)  -->
<svg version="1.1" xmlns="http://www.w3.org/2000/svg" xmlns:xlink="http://www.w3.org/1999/xlink" x="0px" y="0px" width="130px"
	 height="130px" viewBox="0 0 130 130" style="enable-background:new 0 0 130 130;" xml:space="preserve">
<g id="Layer_1">
</g>
<g id="Layer_2">
	<g>
		<g>
			<path d="M77.7,15.7c-0.3-0.3-0.8-0.4-1.2-0.3L30,25.7c-0.7,0.1-1.1,0.7-1.1,1.4v16.3v8.3c0,0.8,0.7,1.5,1.5,1.5s1.5-0.7,1.5-1.5
				v-7.2l2.5-0.5v37.3c0,1.5-1.5,7-8.9,7c-3.6,0-6.5-2.1-6.5-4.8c0-2.6,2.9-4.8,6.5-4.8c1.3,0,2.9,0.3,4.4,1c0.5,0.2,1,0.1,1.4-0.1
				c0.4-0.3,0.6-0.7,0.6-1.2v-20c0-0.8-0.7-1.5-1.5-1.5s-1.5,0.7-1.5,1.5v18c-1.2-0.3-2.4-0.5-3.5-0.5c-5.2,0-9.4,3.5-9.4,7.7
				c0,4.3,4.2,7.7,9.4,7.7c4.9,0,7.8-2.1,9.3-3.8c1.9-2.1,2.5-4.6,2.5-6.1V43.4l32.7-7.3v29.5c-1.2-0.3-2.4-0.5-3.5-0.5
				c-5.2,0-9.4,3.5-9.4,7.7c0,4.3,4.2,7.7,9.4,7.7c8.1,0,11.8-6.1,11.8-10.2V33.1c0,0,0,0,0,0V16.8C78.3,16.4,78.1,15.9,77.7,15.7z
				 M75.3,70.4c0,1.2-0.6,3-2.1,4.6c-1.2,1.2-3.3,2.6-6.8,2.6c-3.6,0-6.5-2.1-6.5-4.8c0-2.6,2.9-4.8,6.5-4.8c1.3,0,2.9,0.3,4.4,1
				c0.5,0.2,1,0.1,1.4-0.1c0.4-0.3,0.6-0.7,0.6-1.2V35.5l2.5-0.5L75.3,70.4L75.3,70.4z M75.3,31.9l-43.5,9.6V28.3l43.5-9.6V31.9z"/>
		</g>
	</g>
	<g>
		<g>
			<path d="M114.8,62.6c-1.5-6.3-4.1-10.3-7.9-11.8c-3.5-1.4-7.6-5.5-11.9-11.6c-0.2-0.3-0.3-0.5-0.5-0.8c-1.7-2.4-3-4.6-3.8-6.1
				c-0.4-0.7-1.3-1.1-2.1-0.9c-0.8,0.2-1.4,1-1.4,1.8v32.1c0,0.8,0.7,1.5,1.5,1.5c0.8,0,1.5-0.7,1.5-1.5V37c0.6,1,1.3,2,2,3.1
				c0,0.1,0.1,0.1,0.1,0.2c0.1,0.1,0.1,0.2,0.2,0.3c0,0.1,0.1,0.1,0.1,0.2c4.7,6.8,9.2,11,13.2,12.7c3.5,1.5,5.3,6.1,6.1,9.8
				c0.6,2.5,0.9,5,1,7.1c-3.2-4.1-9.2-10.3-18.4-13.7c-0.4-0.2-1-0.1-1.3,0.2c-0.4,0.3-0.6,0.7-0.6,1.2v40c0,3.4-3.9,9.7-10.4,9.7
				c-4.2,0-7.7-2.6-7.7-5.7s3.4-5.7,7.7-5.7c1.8,0,3.9,0.5,5.8,1.4c0.5,0.2,1,0.2,1.4-0.1c0.4-0.3,0.7-0.7,0.7-1.2V72.2
				c0-0.8-0.7-1.5-1.5-1.5c-0.8,0-1.5,0.7-1.5,1.5v22.1c-1.7-0.6-3.4-0.9-5-0.9c-5.8,0-10.6,3.9-10.6,8.6s4.8,8.6,10.6,8.6
				c3.8,0,7.3-1.6,9.9-4.6c2.1-2.4,3.5-5.5,3.5-8V60.2c10.2,4.5,15.8,12.5,17.3,15c0.4,0.7,1.2,1,1.9,0.8c0.8-0.2,1.3-0.9,1.3-1.7
				C116,72.4,115.9,67.4,114.8,62.6z"/>
		</g>
	</g>
	<g>
		<g>
			<path d="M114.5,98c-0.5-0.6-1.4-0.8-2-0.3c0,0-4,2.9-12.9,3.7c-0.8,0.1-1.4,0.8-1.3,1.6c0.1,0.8,0.7,1.3,1.5,1.3c0,0,0.1,0,0.1,0
				c9.8-0.9,14.2-4.1,14.3-4.2C114.9,99.5,115,98.6,114.5,98z"/>
		</g>
	</g>
	<g>
		<g>
			<path d="M66.3,98.2c-17.2-3.4-30.8-4.7-40.5-3.9c-3.8,0.3-6.6,1-8.2,1.7c-0.9,0.4-1.2,1.5-0.6,2.3c0,0,0,0,0,0
				c0.4,0.5,1.1,0.7,1.7,0.4c1.2-0.5,3.7-1.2,8.2-1.5c11.6-0.8,27.5,1.7,38.9,3.9c0.1,0,0.2,0,0.3,0c0.7,0,1.3-0.5,1.4-1.2
				C67.6,99.1,67.1,98.4,66.3,98.2z"/>
		</g>
	</g>
	<g>
		<g>
			<path d="M113.2,84.7c-0.5-0.5-1.2-0.6-1.7-0.3c-1.6,0.9-5,2.1-10.6,2.6c-0.8,0.1-1.4,0.7-1.4,1.5c0,0.8,0.7,1.4,1.5,1.4
				c0,0,0.1,0,0.1,0c6.4-0.6,10-2,11.8-3C113.7,86.5,113.9,85.4,113.2,84.7z"/>
		</g>
	</g>
	<g>
		<g>
			<path d="M82,86.6c-4.2-0.5-9.9-1.5-17.8-3c-8.6-1.7-16-2.9-21.2-3.5c-0.8-0.1-1.5,0.5-1.6,1.3c-0.1,0.8,0.5,1.5,1.3,1.6
				c5.2,0.5,12.4,1.7,21,3.4c8,1.6,13.8,2.6,18,3.1c0.1,0,0.1,0,0.2,0c0.7,0,1.4-0.5,1.5-1.3C83.4,87.4,82.8,86.6,82,86.6z"/>
		</g>
	</g>
</g>
</svg>
