<?xml version="1.0" encoding="iso-8859-1"?>
<!-- Generator: Adobe Illustrator 19.0.0, SVG Export Plug-In . SVG Version: 6.00 Build 0)  -->
<svg version="1.1" id="Capa_1" xmlns="http://www.w3.org/2000/svg" xmlns:xlink="http://www.w3.org/1999/xlink" x="0px" y="0px"
	 viewBox="0 0 512 512" style="enable-background:new 0 0 512 512;" xml:space="preserve">
<g>
	<g>
		<path d="M315.936,13.588c-1.771-1.42-4.092-1.96-6.307-1.47L71.932,64.835c-3.427,0.76-5.865,3.799-5.865,7.309v83.583v42.71
			c0,4.135,3.352,7.486,7.486,7.486c4.134,0,7.486-3.351,7.486-7.486v-36.711l12.638-2.803v190.852
			c0,7.587-7.714,35.919-45.45,35.919c-18.337,0-33.256-10.991-33.256-24.5c0-13.509,14.918-24.5,33.256-24.5
			c6.833,0,14.814,1.738,22.473,4.894c2.308,0.95,4.94,0.688,7.017-0.701c2.076-1.39,3.322-3.723,3.322-6.221V232.043
			c0-4.135-3.352-7.486-7.486-7.486c-4.134,0-7.486,3.351-7.486,7.486v92.2c-6.141-1.645-12.248-2.52-17.838-2.52
			C21.635,321.723,0,339.43,0,361.195c0,21.766,21.635,39.473,48.229,39.473c25.221,0,39.798-10.705,47.585-19.685
			c9.476-10.927,12.838-23.641,12.838-31.207V155.603l167.5-37.148v151.02c-6.142-1.646-12.248-2.521-17.838-2.521
			c-26.594,0-48.229,17.707-48.229,39.473c0,21.765,21.636,39.473,48.229,39.473c41.219,0,60.423-31.098,60.423-52.115V103.014
			c0-0.004,0-0.007,0-0.011V19.427C318.737,17.157,317.707,15.009,315.936,13.588z M303.762,293.784
			c0.001,6.116-2.829,15.558-10.769,23.718c-5.959,6.124-16.813,13.424-34.68,13.424c-18.337,0-33.256-10.991-33.256-24.5
			c0-13.509,14.919-24.5,33.256-24.5c6.831,0,14.812,1.738,22.472,4.895c2.308,0.95,4.94,0.688,7.017-0.701
			c2.076-1.39,3.322-3.723,3.322-6.221V115.134l12.638-2.803V293.784z M303.763,96.994L81.04,146.389V78.151l222.723-49.395V96.994z
			"/>
	</g>
</g>
<g>
	<g>
		<path d="M505.697,253.753c-7.498-32.27-21.028-52.65-40.215-60.576c-17.842-7.37-38.89-27.934-60.888-59.48
			c-0.769-1.451-1.702-2.806-2.783-4.043c-8.481-12.48-15.16-23.754-19.284-31.045c-2.153-3.808-6.613-5.689-10.841-4.575
			c-4.233,1.114-7.189,4.948-7.189,9.324v164.288c0,4.135,3.352,7.486,7.486,7.486c4.134,0,7.486-3.351,7.486-7.486V122.76
			c3.034,4.871,6.47,10.191,10.247,15.735c0.21,0.309,0.443,0.6,0.697,0.874c0.417,0.45,0.766,0.957,1.037,1.507
			c0.165,0.334,0.354,0.655,0.567,0.961c24.082,34.627,46.875,56.556,67.747,65.177c18.011,7.441,26.988,31.366,31.347,50.126
			c2.952,12.705,4.45,25.64,5.199,36.28c-16.431-21.024-47.225-52.486-94.107-69.919c-2.296-0.854-4.868-0.53-6.882,0.87
			c-2.013,1.399-3.214,3.695-3.214,6.147V435.3c0,17.551-20.21,49.784-53.232,49.784c-21.64,0-39.245-13.1-39.245-29.202
			s17.605-29.202,39.245-29.202c9.15,0,20.052,2.671,29.909,7.33c2.319,1.095,5.038,0.928,7.205-0.445
			c2.167-1.372,3.48-3.76,3.48-6.324V302.915c0-4.135-3.352-7.486-7.486-7.486c-4.134,0-7.486,3.351-7.486,7.486v113.283
			c-8.715-2.896-17.653-4.489-25.621-4.489c-29.896,0-54.218,19.817-54.218,44.175c0,24.358,24.322,44.175,54.218,44.175
			c19.226,0,37.163-8.376,50.507-23.586c10.751-12.253,17.698-28.414,17.698-41.171V241.63c52.323,23.02,80.732,64.15,88.516,76.81
			c2.095,3.41,6.092,4.972,9.943,3.888c3.851-1.084,6.447-4.501,6.459-8.503C512.026,304.034,511.465,278.578,505.697,253.753z"/>
	</g>
</g>
<g>
	<g>
		<path d="M504.556,435.172c-2.452-3.308-7.133-4-10.455-1.567c-0.2,0.146-20.479,14.672-65.832,18.738
			c-4.119,0.368-7.157,4.006-6.789,8.125c0.349,3.89,3.615,6.818,7.448,6.818c0.224,0,0.45-0.01,0.677-0.03
			c50.081-4.489,72.52-20.951,73.45-21.65C506.348,443.134,507.01,438.479,504.556,435.172z"/>
	</g>
</g>
<g>
	<g>
		<path d="M257.454,436.317c-88.235-17.468-157.928-24.206-207.148-20.03c-19.579,1.662-33.541,5.049-42.189,8.47
			c-4.648,1.838-6.218,7.623-3.094,11.525c0.046,0.058,0.092,0.115,0.138,0.172c2.033,2.541,5.483,3.462,8.503,2.251
			c6.166-2.472,18.858-6.187,41.864-7.806c59.432-4.178,141.03,8.625,199.019,20.106c0.491,0.096,0.98,0.143,1.462,0.143
			c3.501,0,6.63-2.468,7.336-6.033C264.147,441.059,261.51,437.12,257.454,436.317z"/>
	</g>
</g>
<g>
	<g>
		<path d="M497.726,367.116c-2.347-2.374-6.001-2.932-8.907-1.289c-8.235,4.657-25.597,10.942-54.018,13.454
			c-3.974,0.351-7.203,3.654-7.11,7.642c0.096,4.14,3.476,7.327,7.477,7.327c0.218,0,0.439-0.009,0.66-0.028
			c32.882-2.871,51.128-10.184,60.294-15.38C500.389,376.423,501.175,370.604,497.726,367.116z"/>
	</g>
</g>
<g>
	<g>
		<path d="M337.871,376.585c-21.445-2.573-50.439-7.535-91.247-15.615c-44.205-8.75-81.766-14.875-108.623-17.712
			c-4.108-0.439-7.797,2.547-8.231,6.659c-0.434,4.113,2.547,7.797,6.659,8.232c26.418,2.789,63.517,8.844,107.287,17.509
			c41.189,8.155,70.54,13.173,92.371,15.793c0.303,0.037,0.603,0.055,0.901,0.055c3.736,0,6.967-2.794,7.424-6.596
			C344.904,380.805,341.976,377.077,337.871,376.585z"/>
	</g>
</g>
<g>
</g>
<g>
</g>
<g>
</g>
<g>
</g>
<g>
</g>
<g>
</g>
<g>
</g>
<g>
</g>
<g>
</g>
<g>
</g>
<g>
</g>
<g>
</g>
<g>
</g>
<g>
</g>
<g>
</g>
</svg>
