<?xml version="1.0" encoding="utf-8"?>
<!-- Generator: Adobe Illustrator 21.1.0, SVG Export Plug-In . SVG Version: 6.00 Build 0)  -->
<svg version="1.1" id="Layer_1" xmlns="http://www.w3.org/2000/svg" xmlns:xlink="http://www.w3.org/1999/xlink" x="0px" y="0px"
	 width="130px" height="130px" viewBox="0 0 130 130" style="enable-background:new 0 0 130 130;" xml:space="preserve">
<g>
	<g>
		<path d="M88.5,12C73.3,12,61,24.3,61,39.5S73.3,67,88.5,67S116,54.7,116,39.5S103.7,12,88.5,12z M88.5,63.7
			c-13.3,0-24.2-10.8-24.2-24.2s10.8-24.2,24.2-24.2s24.2,10.8,24.2,24.2S101.8,63.7,88.5,63.7z"/>
	</g>
</g>
<g>
	<g>
		<path d="M81,25.3h-6.7c-0.9,0-1.7,0.7-1.7,1.7v3.3h-10v3.3h11.7c0.9,0,1.7-0.7,1.7-1.7v-3.3h3.3v9.4l-5.8,7.3H70l-6.2-6.2
			l-2.4,2.4l6.7,6.7c0.3,0.3,0.7,0.5,1.2,0.5h5c0.5,0,1-0.2,1.3-0.6l6.7-8.3c0.2-0.3,0.4-0.7,0.4-1V27C82.7,26.1,81.9,25.3,81,25.3z
			"/>
	</g>
</g>
<g>
	<g>
		<path d="M87.7,45.3H76c-0.9,0-1.7,0.7-1.7,1.7v6.7c0,0.4,0.2,0.9,0.5,1.2l6.7,6.7c0.3,0.3,0.7,0.5,1.2,0.5h5
			c0.9,0,1.7-0.7,1.7-1.7V47C89.3,46.1,88.6,45.3,87.7,45.3z M86,58.7h-2.6L77.7,53v-4.3H86V58.7z"/>
	</g>
</g>
<g>
	<g>
		<path d="M106,35.3h8.3V32h-6.7v-3.3c0-0.9-0.7-1.7-1.7-1.7h-8.3c-0.6,0-1.2,0.4-1.5,0.9l-5,10c-0.3,0.5-0.2,1.1,0.1,1.6
			c0.3,0.5,0.8,0.8,1.4,0.8h5v13.3c0,0.9,0.7,1.7,1.7,1.7h8.3c0.4,0,0.9-0.2,1.2-0.5l5-5l-2.4-2.4L107,52h-6V38.7
			c0-0.9-0.7-1.7-1.7-1.7h-4l3.3-6.7h5.6v3.3C104.3,34.6,105.1,35.3,106,35.3z"/>
	</g>
</g>
<g>
	<g>
		<path d="M100,15.7l-6.2,4.7h-4.4v-5H86V22c0,0.9,0.7,1.7,1.7,1.7h6.7c0.4,0,0.7-0.1,1-0.3l6.7-5L100,15.7z"/>
	</g>
</g>
<g>
	<g>
		<path d="M59.3,62H22.7C19,62,16,65,16,68.7v25c0,3.7,3,6.7,6.7,6.7h36.7c3.7,0,6.7-3,6.7-6.7v-25C66,65,63,62,59.3,62z M62.7,93.7
			c0,1.8-1.5,3.3-3.3,3.3H22.7c-1.8,0-3.3-1.5-3.3-3.3v-25c0-1.8,1.5-3.3,3.3-3.3h36.7c1.8,0,3.3,1.5,3.3,3.3V93.7z"/>
	</g>
</g>
<g>
	<g>
		<path d="M50.9,109.9l-3.3-11.7C47.4,97.5,46.7,97,46,97H36c-0.7,0-1.4,0.5-1.6,1.2l-3.3,11.7c-0.1,0.5,0,1,0.3,1.5
			c0.3,0.4,0.8,0.7,1.3,0.7h16.7c0.5,0,1-0.2,1.3-0.7C51,110.9,51.1,110.4,50.9,109.9z M34.9,108.7l2.4-8.3h7.5l2.4,8.3H34.9z"/>
	</g>
</g>
<g>
	<g>
		<rect x="17.7" y="87" width="46.7" height="3.3"/>
	</g>
</g>
<g>
	<g>
		<rect x="27.7" y="108.7" width="26.7" height="3.3"/>
	</g>
</g>
<g>
	<g>
		<rect x="54.3" y="28.7" width="3.3" height="3.3"/>
	</g>
</g>
<g>
	<g>
		<rect x="47.7" y="28.7" width="3.3" height="3.3"/>
	</g>
</g>
<g>
	<g>
		<rect x="41" y="28.7" width="3.3" height="3.3"/>
	</g>
</g>
<g>
	<g>
		<rect x="34.3" y="28.7" width="3.3" height="3.3"/>
	</g>
</g>
<g>
	<g>
		<rect x="34.3" y="35.3" width="3.3" height="3.3"/>
	</g>
</g>
<g>
	<g>
		<rect x="34.3" y="42" width="3.3" height="3.3"/>
	</g>
</g>
<g>
	<g>
		<rect x="34.3" y="48.7" width="3.3" height="3.3"/>
	</g>
</g>
<g>
	<g>
		<rect x="34.3" y="55.3" width="3.3" height="3.3"/>
	</g>
</g>
<g>
	<g>
		<rect x="82.7" y="90.3" width="3.3" height="3.3"/>
	</g>
</g>
<g>
	<g>
		<rect x="89.3" y="90.3" width="3.3" height="3.3"/>
	</g>
</g>
<g>
	<g>
		<rect x="96" y="90.3" width="3.3" height="3.3"/>
	</g>
</g>
<g>
	<g>
		<rect x="96" y="83.7" width="3.3" height="3.3"/>
	</g>
</g>
<g>
	<g>
		<rect x="96" y="77" width="3.3" height="3.3"/>
	</g>
</g>
<g>
	<g>
		<rect x="96" y="70.3" width="3.3" height="3.3"/>
	</g>
</g>
<g>
	<g>
		<rect x="76" y="90.3" width="3.3" height="3.3"/>
	</g>
</g>
<g>
	<g>
		<rect x="69.3" y="90.3" width="3.3" height="3.3"/>
	</g>
</g>
</svg>
