<?xml version="1.0" encoding="iso-8859-1"?>
<!-- Generator: Adobe Illustrator 19.0.0, SVG Export Plug-In . SVG Version: 6.00 Build 0)  -->
<svg version="1.1" id="Capa_1" xmlns="http://www.w3.org/2000/svg" xmlns:xlink="http://www.w3.org/1999/xlink" x="0px" y="0px"
	 viewBox="0 0 512 512" style="enable-background:new 0 0 512 512;" xml:space="preserve">
<g>
	<g>
		<path d="M371.2,0c-77.636,0-140.8,63.164-140.8,140.8s63.164,140.8,140.8,140.8S512,218.436,512,140.8S448.836,0,371.2,0z
			 M371.2,264.533c-68.224,0-123.733-55.509-123.733-123.733S302.976,17.067,371.2,17.067S494.933,72.576,494.933,140.8
			S439.424,264.533,371.2,264.533z"/>
	</g>
</g>
<g>
	<g>
		<path d="M332.8,68.267h-34.133c-4.719,0-8.533,3.823-8.533,8.533v17.067h-51.2v17.067h59.733c4.719,0,8.533-3.823,8.533-8.533
			V85.333h17.067v48.205l-29.705,37.129h-17.963l-31.633-31.633L232.9,151.1l34.133,34.133c1.596,1.604,3.763,2.5,6.033,2.5h25.6
			c2.594,0,5.043-1.178,6.664-3.2l34.133-42.667c1.212-1.519,1.869-3.396,1.869-5.333V76.8
			C341.333,72.09,337.519,68.267,332.8,68.267z"/>
	</g>
</g>
<g>
	<g>
		<path d="M366.933,170.667H307.2c-4.719,0-8.533,3.823-8.533,8.533v34.133c0,2.261,0.896,4.437,2.5,6.033L335.3,253.5
			c1.596,1.604,3.763,2.5,6.033,2.5h25.6c4.719,0,8.533-3.823,8.533-8.533V179.2C375.467,174.49,371.652,170.667,366.933,170.667z
			 M358.4,238.933h-13.534l-29.133-29.133v-22.067H358.4V238.933z"/>
	</g>
</g>
<g>
	<g>
		<path d="M460.8,119.467h42.667V102.4h-34.133V85.333c0-4.71-3.814-8.533-8.533-8.533h-42.667c-3.234,0-6.187,1.826-7.637,4.719
			l-25.6,51.2c-1.323,2.645-1.186,5.786,0.375,8.303c1.562,2.509,4.301,4.045,7.262,4.045h25.6v68.267
			c0,4.71,3.814,8.533,8.533,8.533h42.667c2.27,0,4.437-0.896,6.033-2.5l25.6-25.6L488.9,181.7l-23.1,23.1H435.2v-68.267
			c0-4.71-3.814-8.533-8.533-8.533H406.34l17.067-34.133h28.86v17.067C452.267,115.644,456.081,119.467,460.8,119.467z"/>
	</g>
</g>
<g>
	<g>
		<path d="M430.08,18.773l-31.855,23.893h-22.758v-25.6H358.4V51.2c0,4.71,3.814,8.533,8.533,8.533h34.133
			c1.852,0,3.644-0.597,5.12-1.707l34.133-25.6L430.08,18.773z"/>
	</g>
</g>
<g>
	<g>
		<path d="M221.867,256H34.133C15.309,256,0,271.309,0,290.133v128c0,18.825,15.309,34.133,34.133,34.133h187.733
			c18.825,0,34.133-15.309,34.133-34.133v-128C256,271.309,240.691,256,221.867,256z M238.933,418.133
			c0,9.412-7.654,17.067-17.067,17.067H34.133c-9.412,0-17.067-7.654-17.067-17.067v-128c0-9.412,7.654-17.067,17.067-17.067
			h187.733c9.412,0,17.067,7.654,17.067,17.067V418.133z"/>
	</g>
</g>
<g>
	<g>
		<path d="M178.867,501.129l-17.067-59.733c-1.041-3.669-4.395-6.195-8.201-6.195h-51.2c-3.806,0-7.159,2.526-8.201,6.195
			l-17.067,59.733c-0.742,2.577-0.222,5.342,1.391,7.484c1.613,2.133,4.13,3.388,6.81,3.388h85.333c2.679,0,5.197-1.254,6.81-3.388
			C179.089,506.47,179.601,503.706,178.867,501.129z M96.649,494.933l12.194-42.667h38.323l12.194,42.667H96.649z"/>
	</g>
</g>
<g>
	<g>
		<rect x="8.533" y="384" width="238.933" height="17.067"/>
	</g>
</g>
<g>
	<g>
		<rect x="59.733" y="494.933" width="136.533" height="17.067"/>
	</g>
</g>
<g>
	<g>
		<rect x="196.267" y="85.333" width="17.067" height="17.067"/>
	</g>
</g>
<g>
	<g>
		<rect x="162.133" y="85.333" width="17.067" height="17.067"/>
	</g>
</g>
<g>
	<g>
		<rect x="128" y="85.333" width="17.067" height="17.067"/>
	</g>
</g>
<g>
	<g>
		<rect x="93.867" y="85.333" width="17.067" height="17.067"/>
	</g>
</g>
<g>
	<g>
		<rect x="93.867" y="119.467" width="17.067" height="17.067"/>
	</g>
</g>
<g>
	<g>
		<rect x="93.867" y="153.6" width="17.067" height="17.067"/>
	</g>
</g>
<g>
	<g>
		<rect x="93.867" y="187.733" width="17.067" height="17.067"/>
	</g>
</g>
<g>
	<g>
		<rect x="93.867" y="221.867" width="17.067" height="17.067"/>
	</g>
</g>
<g>
	<g>
		<rect x="341.333" y="401.067" width="17.067" height="17.067"/>
	</g>
</g>
<g>
	<g>
		<rect x="375.467" y="401.067" width="17.067" height="17.067"/>
	</g>
</g>
<g>
	<g>
		<rect x="409.6" y="401.067" width="17.067" height="17.067"/>
	</g>
</g>
<g>
	<g>
		<rect x="409.6" y="366.933" width="17.067" height="17.067"/>
	</g>
</g>
<g>
	<g>
		<rect x="409.6" y="332.8" width="17.067" height="17.067"/>
	</g>
</g>
<g>
	<g>
		<rect x="409.6" y="298.667" width="17.067" height="17.067"/>
	</g>
</g>
<g>
	<g>
		<rect x="307.2" y="401.067" width="17.067" height="17.067"/>
	</g>
</g>
<g>
	<g>
		<rect x="273.067" y="401.067" width="17.067" height="17.067"/>
	</g>
</g>
<g>
</g>
<g>
</g>
<g>
</g>
<g>
</g>
<g>
</g>
<g>
</g>
<g>
</g>
<g>
</g>
<g>
</g>
<g>
</g>
<g>
</g>
<g>
</g>
<g>
</g>
<g>
</g>
<g>
</g>
</svg>
