<?xml version="1.0" encoding="utf-8"?>
<!-- Generator: Adobe Illustrator 21.1.0, SVG Export Plug-In . SVG Version: 6.00 Build 0)  -->
<svg version="1.1" xmlns="http://www.w3.org/2000/svg" xmlns:xlink="http://www.w3.org/1999/xlink" x="0px" y="0px" width="130px"
	 height="130px" viewBox="0 0 130 130" style="enable-background:new 0 0 130 130;" xml:space="preserve">
<g id="Layer_1">
	<g>
		<g>
			<path d="M66,24.2C44,24.2,26.2,42,26.2,64S44,103.8,66,103.8S105.8,86,105.8,64S88,24.2,66,24.2z M100.9,52.5h-2.4
				c-0.8,0-1.5,0.2-2.2,0.5l-0.9,0.4c-0.6,0.3-1.2,0.2-1.8-0.1L90.2,51c-0.3-0.2-0.6-0.3-0.9-0.3h-0.4l1.2-1.7
				c0.1-0.1,0.2-0.1,0.3-0.1h2.4v0.7c0,0.9,0.7,1.6,1.6,1.6c0.8,0,1.4-0.6,1.5-1.3l0.6,0.3c0.6,0.3,1.2,0.4,1.8,0.4h2
				C100.4,51.2,100.6,51.8,100.9,52.5z M89.2,38.1C89.2,38,89.2,38,89.2,38.1l1.2-1.3c0,0,0.1-0.1,0.1-0.1c0.7,0.6,1.4,1.3,2,1.9
				l-1,1c-0.6,0.6-0.6,1.6,0,2.2c0.3,0.3,0.7,0.5,1.1,0.5c0.4,0,0.8-0.2,1.1-0.5l0.8-0.8c1.6,2,3,4.2,4.2,6.5h-0.6
				c-0.1,0-0.3,0-0.4-0.1l-2.4-1.2c-0.5-0.2-1-0.4-1.5-0.4h-3.5c-1.2,0-2.2,0.6-2.9,1.5l-2.3,3.5h-1.5c-0.6,0-1.1-0.5-1.1-1.1v-2.8
				c0,0,0-0.1,0.1-0.1l3-1c0.8-0.3,1.5-0.7,2-1.3c1-1,1.5-2.3,1.5-3.7L89.2,38.1L89.2,38.1z M41.5,36.7c0,0,0.1,0.1,0.1,0.1l1.7,1.7
				c0.3,0.3,0.7,0.5,1.1,0.5c0.4,0,0.8-0.2,1.1-0.5l2.4-2.4c0.3-0.3,0.8-0.5,1.3-0.5h2.1v0.1c0,0.5,0.3,1,0.7,1.3
				c0.5,0.3,1,0.3,1.5,0.1l2.7-1.4c0.2-0.1,0.4-0.1,0.6-0.1h5.6c-0.6,0.4-1,1-1.2,1.8c-0.2,1.1,0.3,2.1,1.2,2.7l2.1,1.4
				c0,0,0,0.1,0,0.1v0.8c0,0.1,0,0.1-0.1,0.1h-0.7c-1,0-2,0.4-2.7,1.1L50.4,54.1c0,0,0,0-0.1,0h-2.6c-2.7,0-4.9,2.2-4.9,4.9v0.8
				l-1.7-0.3c-0.4-0.1-0.8-0.3-0.9-0.7l-1-2.1c-0.3-0.5-0.8-0.9-1.4-0.9h-0.9c-0.8,0-1.4-0.5-1.7-1.2l-2.2-6.5
				C35,43.7,37.9,39.9,41.5,36.7z M66,100.7c-20.2,0-36.7-16.5-36.7-36.7c0-4,0.6-7.9,1.8-11.5l1,3c0.7,2,2.5,3.3,4.6,3.3l0.6,1.2
				c0.6,1.2,1.8,2.1,3.1,2.4l6,1.2c0.3,0.1,0.6,0.2,0.9,0.5c0.5,0.5,1.1,0.9,1.7,1.1l-1.1,3.3c-0.1,0.2-0.1,0.3-0.1,0.5v3.3
				c0,1.5,0.7,3,2,3.9l4,3c0.4,0.3,0.7,0.9,0.7,1.4v9c0,1,0.3,1.9,0.8,2.7l2.4,3.6c0.5,0.8,1.4,1.3,2.3,1.3h0.6c1.1,0,2-0.9,2-2
				v-2.9c0-0.7,0.3-1.3,0.8-1.8l3.1-3.1c0.6-0.6,1.1-1.4,1.4-2.2l1-2.9c0,0,0.1-0.1,0.1-0.1h0.8c1.5,0,2.8-1,3.1-2.4l1.1-4.5
				c0.3-1.1-0.1-2.3-0.8-3.1L70.9,70c-0.6-0.6-1.4-0.9-2.3-0.9h-2l-5.7-5.7c-0.6-0.6-1.4-0.9-2.3-0.9h-7.6c0,0,0,0-0.1,0h-0.3
				c-0.5,0-0.9-0.2-1.2-0.5c-0.7-0.7-1.5-1.1-2.5-1.3l-1.1-0.2V59c0-1,0.8-1.8,1.8-1.8h1.8v0.1c0,0.9,0.7,1.6,1.6,1.6
				c0.9,0,1.6-0.7,1.6-1.6v-1c0,0,0,0,0,0l10.5-10.5c0.1-0.1,0.3-0.2,0.5-0.2h0.7c1.8,0,3.2-1.4,3.2-3.2v-0.8c0-1.1-0.5-2.1-1.4-2.7
				L64.8,38l2.5-0.6c1.1-0.3,1.9-1.3,1.9-2.4c0-1.4-1.1-2.5-2.5-2.5h-10c-0.7,0-1.4,0.2-2,0.5l-1,0.5c-0.5-0.6-1.2-1-2-1h-2.6
				c-1.3,0-2.5,0.5-3.5,1.4l-1.3,1.3l-0.5-0.5C50,30,57.7,27.3,66,27.3s15.9,2.8,22.1,7.4L87,35.8c-0.6,0.6-0.9,1.4-0.9,2.3v2.8
				c0,0.6-0.2,1.1-0.6,1.5c-0.2,0.2-0.5,0.4-0.8,0.5l-3,1c-1.3,0.4-2.2,1.7-2.2,3.1v2.8c0,0.8,0.2,1.5,0.6,2.2
				c-0.6,0.4-1.2,1-1.6,1.6l-1.5,2.2c-0.5,0.8-0.8,1.7-0.8,2.7v3c0,1,0.3,1.9,0.8,2.7l1.8,2.7c0.9,1.4,2.4,2.2,4.1,2.2h4.1
				c0.8,0,1.4,0.5,1.7,1.2l0.4,1.1c0.3,0.9,0.5,1.8,0.5,2.8v1.2c0,1.6,0.2,3.1,0.6,4.6l2.7,9.4C86,96.3,76.5,100.7,66,100.7z
				 M55.6,76.7l-4-3c-0.4-0.3-0.7-0.9-0.7-1.4v-3.1l1.2-3.7h6.5c0,0,0.1,0,0.1,0l6.2,6.2c0.3,0.3,0.7,0.5,1.1,0.5h2.6
				c0,0,0.1,0,0.1,0l2.2,2.2c0,0,0,0.1,0,0.1L69.8,79c0,0-0.1,0.1-0.1,0.1h-0.8c-1.4,0-2.6,0.9-3.1,2.2l-1,2.9
				c-0.1,0.4-0.3,0.7-0.6,1l-3.1,3.1c-1.1,1.1-1.7,2.5-1.7,4V93l-1.6-2.4c-0.2-0.3-0.3-0.6-0.3-1v-9C57.6,79.1,56.8,77.6,55.6,76.7z
				 M93,78.9c-0.3-1.2-0.5-2.5-0.5-3.7V74c0-1.3-0.2-2.6-0.6-3.8l-0.4-1.1c-0.7-2-2.5-3.3-4.6-3.3h-4.1c-0.6,0-1.1-0.3-1.5-0.8
				l-1.8-2.7c-0.2-0.3-0.3-0.6-0.3-1v-3c0-0.4,0.1-0.7,0.3-1l1.5-2.2c0.5-0.8,1.4-1.3,2.3-1.3h5.5l3,2c1.5,1,3.3,1.1,4.9,0.3
				l0.9-0.4c0.2-0.1,0.5-0.2,0.8-0.2h3.3c0.6,2.7,1,5.5,1,8.4c0,8.4-2.8,16.1-7.6,22.3L93,78.9z"/>
		</g>
	</g>
	<g>
		<g>
			<path d="M35.5,31.3C35.5,31.3,35.5,31.3,35.5,31.3c-0.6-0.6-1.6-0.6-2.2,0c-0.6,0.6-0.6,1.6,0,2.2c0,0,0,0,0,0
				c0.3,0.3,0.7,0.4,1.1,0.4c0.4,0,0.8-0.1,1.1-0.4c0,0,0,0,0,0C36.1,32.9,36.1,31.9,35.5,31.3z"/>
		</g>
	</g>
	<g>
		<g>
			<path d="M34.4,24.2c-4.5,0-8.2,3.7-8.2,8.2c0,0.9,0.7,1.6,1.6,1.6c0.9,0,1.6-0.7,1.6-1.6c0-2.8,2.3-5.1,5.1-5.1
				c0.9,0,1.6-0.7,1.6-1.6C35.9,24.9,35.2,24.2,34.4,24.2z"/>
		</g>
	</g>
	<g>
		<g>
			<path d="M34.4,17.5c-8.2,0-14.9,6.7-14.9,14.9c0,0.9,0.7,1.6,1.6,1.6c0.9,0,1.6-0.7,1.6-1.6c0-6.5,5.3-11.8,11.8-11.8
				c0.9,0,1.6-0.7,1.6-1.6C35.9,18.2,35.2,17.5,34.4,17.5z"/>
		</g>
	</g>
	<g>
		<g>
			<path d="M98.7,94.5C98.7,94.5,98.7,94.5,98.7,94.5c-0.6-0.6-1.6-0.6-2.2,0c0,0,0,0,0,0c-0.6,0.6-0.6,1.6,0,2.2c0,0,0,0,0,0
				c0.3,0.3,0.7,0.5,1.1,0.5c0.4,0,0.8-0.2,1.1-0.5C99.3,96.1,99.3,95.1,98.7,94.5z"/>
		</g>
	</g>
	<g>
		<g>
			<path d="M104.3,94.1c-0.9,0-1.6,0.7-1.6,1.6c0,2.8-2.3,5.1-5.1,5.1c-0.9,0-1.6,0.7-1.6,1.6s0.7,1.6,1.6,1.6
				c4.5,0,8.2-3.7,8.2-8.2C105.8,94.8,105.1,94.1,104.3,94.1z"/>
		</g>
	</g>
	<g>
		<g>
			<path d="M110.9,94.1c-0.9,0-1.6,0.7-1.6,1.6c0,6.5-5.3,11.8-11.8,11.8c-0.9,0-1.6,0.7-1.6,1.6s0.7,1.6,1.6,1.6
				c8.2,0,14.9-6.7,14.9-14.9C112.5,94.8,111.8,94.1,110.9,94.1z"/>
		</g>
	</g>
	<g>
		<g>
			<path d="M59.1,38.3c-0.4-0.8-1.3-1.1-2.1-0.7l-3.3,1.7c-0.8,0.4-1.1,1.3-0.7,2.1c0.3,0.5,0.8,0.9,1.4,0.9c0.2,0,0.5-0.1,0.7-0.2
				l3.3-1.7C59.1,40,59.5,39.1,59.1,38.3z"/>
		</g>
	</g>
	<g>
		<g>
			<path d="M82.6,35.8c-0.9,0-1.6,0.7-1.6,1.6V39c0,0.9,0.7,1.6,1.6,1.6c0.9,0,1.6-0.7,1.6-1.6v-1.7C84.2,36.5,83.5,35.8,82.6,35.8z
				"/>
		</g>
	</g>
</g>
<g id="Layer_2">
</g>
</svg>
