<?xml version="1.0" encoding="iso-8859-1"?>
<!-- Generator: Adobe Illustrator 19.0.0, SVG Export Plug-In . SVG Version: 6.00 Build 0)  -->
<svg version="1.1" id="Layer_1" xmlns="http://www.w3.org/2000/svg" xmlns:xlink="http://www.w3.org/1999/xlink" x="0px" y="0px"
	 viewBox="0 0 509.287 509.287" style="enable-background:new 0 0 509.287 509.287;" xml:space="preserve">
<circle style="fill:#71D456;" cx="254.644" cy="254.644" r="254.644"/>
<polygon style="fill:#F1F3F7;" points="344.159,63.407 113.25,63.407 113.25,453.34 420.789,453.34 420.789,140.376 "/>
<g>
	<rect x="150.209" y="112.572" style="fill:#DEDEDF;" width="132.238" height="15.597"/>
	<rect x="150.209" y="159.364" style="fill:#DEDEDF;" width="233.621" height="15.597"/>
	<rect x="150.209" y="206.495" style="fill:#DEDEDF;" width="233.621" height="15.597"/>
	<rect x="150.209" y="253.626" style="fill:#DEDEDF;" width="233.621" height="15.597"/>
	<rect x="150.209" y="300.758" style="fill:#DEDEDF;" width="233.621" height="15.597"/>
	<rect x="150.209" y="347.55" style="fill:#DEDEDF;" width="233.621" height="15.597"/>
</g>
<polygon style="fill:#D54232;" points="396.037,473.007 384.509,450.967 361.791,460.8 391.29,377.049 425.536,388.917 "/>
<polygon style="fill:#F0582F;" points="445.881,473.007 457.409,450.967 480.127,460.8 450.628,377.049 416.381,388.917 "/>
<circle style="fill:#FBD303;" cx="420.789" cy="349.245" r="63.407"/>
<circle style="fill:#F8B517;" cx="420.789" cy="349.245" r="39.672"/>
<polygon style="fill:#DEDEDF;" points="344.159,140.376 420.789,140.376 344.159,63.407 "/>
<g>
</g>
<g>
</g>
<g>
</g>
<g>
</g>
<g>
</g>
<g>
</g>
<g>
</g>
<g>
</g>
<g>
</g>
<g>
</g>
<g>
</g>
<g>
</g>
<g>
</g>
<g>
</g>
<g>
</g>
</svg>
