<?xml version="1.0" encoding="utf-8"?>
<!-- Generator: Adobe Illustrator 21.1.0, SVG Export Plug-In . SVG Version: 6.00 Build 0)  -->
<svg version="1.1" xmlns="http://www.w3.org/2000/svg" xmlns:xlink="http://www.w3.org/1999/xlink" x="0px" y="0px" width="130px"
	 height="130px" viewBox="0 0 130 130" style="enable-background:new 0 0 130 130;" xml:space="preserve">
<g id="Layer_1">
</g>
<g id="Layer_2">
	<g>
		<g>
			<path d="M115.2,60.7c-0.4-8.1-6.7-14.6-9-16.7c0.8-9.6-7.5-14.4-13.1-16.1c-1.3-7.1-4.2-11.9-9-14.4c-8.3-4.4-19,0.6-19.4,0.8
				L63.5,15v91.4l1,0.6c0.4,0.2,7.7,4.4,15.9,4.4c2.7,0,5.2-0.4,7.5-1.7c5.6-2.5,9.4-8.1,11.3-16.3L95,92.6
				c-1.5,6.9-4.4,11.5-8.8,13.3c-6.9,3.1-15.6-0.6-18.6-2.1V17.5c2.5-1,9.2-3.1,14.4-0.4c3.8,2.1,6.3,6.3,7.1,12.7l0.2,1.5l1.5,0.2
				c0.4,0.2,12.5,2.7,11.1,12.9l-0.2,1.3l0.8,0.8c0,0,7.9,6.5,8.3,14.4c0.2,3.8-1.3,7.3-4.4,10.6c-2.7,3.1-5.4,4.4-7.5,3.8
				c-4.2-1-7.1-8.8-7.7-11.7l-4,1c0.4,1.3,3.5,12.7,10.8,14.6c3.8,1,7.7-0.6,11.7-4.8C113.8,70.3,115.7,65.7,115.2,60.7z"/>
		</g>
	</g>
	<g>
		<g>
			<path d="M110.4,72.3l-4.2,0.8c2.1,11.7-3.8,17.5-6.9,19.8l-0.8-1.9c-1.9-5.4-4.8-8.8-8.8-9.6c-7.1-1.7-14.4,5.6-14.6,5.8l2.9,2.9
				c1.7-1.7,6.9-5.6,10.8-4.8c2.5,0.6,4.4,2.9,5.8,7.1l2.7,6.3l1.9-1C99.6,97.8,114,90.9,110.4,72.3z"/>
		</g>
	</g>
	<g>
		<g>
			<path d="M93.1,40.2l-3.3-2.7c-8.3,10.2-5.2,20.9-5,21.3l4.2-1C88.7,57.5,86,48.8,93.1,40.2z"/>
		</g>
	</g>
	<g>
		<g>
			<path d="M65,48.8l1.7,4c5.8-2.5,15.4-5.2,18.4-2.9l2.5-3.3C81.9,42.1,67.7,47.5,65,48.8z"/>
		</g>
	</g>
	<g>
		<g>
			<path d="M44.1,45l-1,4c0.4,0.2,11.7,3.3,10.2,15.9l4.2,0.4C58.9,52.5,49.3,46.3,44.1,45z"/>
		</g>
	</g>
	<g>
		<g>
			<path d="M55.4,79.4l-2.3-3.5c-0.2,0.2-6.5,4.4-7.1,10.6c-0.2,3.3,1.3,6.7,4.4,9.8l2.9-2.9c-2.3-2.1-3.3-4.4-3.1-6.5
				C50.6,82.8,55.4,79.4,55.4,79.4z"/>
		</g>
	</g>
	<g>
		<g>
			<path d="M52,11.9c-5.8,1.7-10.4,6.9-13.8,15.2l-1,1.7l1.7,0.8c2.1,1,7.5,5,6.9,8.6l4.2,0.8c1-5.4-4.4-10-7.3-12.1
				c2.7-6,6.3-9.8,10.4-11.1c5.8-1.7,11.5,2.1,11.5,2.1l2.5-3.3C66.6,14.4,60,9.6,52,11.9z"/>
		</g>
	</g>
	<g>
		<g>
			<path d="M39.9,27.5c0,0-13.8,0.8-14.4,16.9c-2.5,1.5-8.8,6-10,12.9c-1,5,1.5,11.3,6,16.5l2.5-3.8c-3.8-4.2-5.2-8.3-4.6-12.1
				c1.3-6.5,9-10.6,9-10.6l1-0.6v-1C29.5,32.7,40.8,31,41.8,31L39.9,27.5z"/>
		</g>
	</g>
	<g>
		<g>
			<path d="M26.4,74c2.5-7.7,12.9-11.5,12.9-11.5l-1.5-4c-0.6,0.2-12.3,4.4-15.6,14c-1.9,5.2-0.8,11.1,3.3,17.3l8.3,9l2.3-4
				l-6.9-7.3C26,82.6,24.9,78,26.4,74z"/>
		</g>
	</g>
	<g>
		<g>
			<path d="M64.8,103.2c-0.2,0.2-14.8,8.3-23.2,0c-8.1-8.1-3.1-15.6-2.9-15.9l-3.3-2.5c-2.5,3.8-5.2,12.7,3.3,21.3
				c3.8,3.8,8.3,5,12.7,5c7.7,0,14.8-4,15.4-4.4L64.8,103.2z"/>
		</g>
	</g>
</g>
</svg>
