<?xml version="1.0" encoding="iso-8859-1"?>
<!-- Generator: Adobe Illustrator 19.0.0, SVG Export Plug-In . SVG Version: 6.00 Build 0)  -->
<svg version="1.1" id="Capa_1" xmlns="http://www.w3.org/2000/svg" xmlns:xlink="http://www.w3.org/1999/xlink" x="0px" y="0px"
	 viewBox="0 0 472.588 472.588" style="enable-background:new 0 0 472.588 472.588;" xml:space="preserve">
<g>
	<g>
		<path d="M472.037,233.327c-1.969-38.4-31.508-68.923-42.339-78.769c3.938-45.292-35.446-67.939-62.031-75.815
			c-5.908-33.477-19.692-56.123-42.339-67.938c-39.385-20.677-89.6,2.954-91.569,3.938l-5.908,2.954v431.261l4.923,2.954
			c1.969,0.985,36.431,20.677,74.831,20.677c12.8,0,24.615-1.969,35.446-7.877c26.585-11.815,44.308-38.4,53.169-76.8l-19.692-3.938
			c-6.892,32.492-20.677,54.154-41.354,63.015c-32.492,14.769-73.846-2.954-87.631-9.846V29.511
			c11.815-4.923,43.323-14.769,67.938-1.969c17.723,9.846,29.538,29.538,33.477,60.062l0.985,6.892l6.892,0.985
			c1.969,0.985,59.077,12.8,52.185,61.046l-0.985,5.908l3.938,3.938c0,0,37.415,30.523,39.385,67.938
			c0.985,17.723-5.908,34.462-20.677,50.215c-12.8,14.769-25.6,20.677-35.446,17.723c-19.692-4.923-33.477-41.354-36.431-55.139
			l-18.708,4.923c1.969,5.908,16.738,60.062,51.2,68.923c17.723,4.923,36.431-2.954,55.139-22.646
			C465.145,278.619,474.006,256.958,472.037,233.327z"/>
	</g>
</g>
<g>
	<g>
		<path d="M449.391,288.465l-19.692,3.938c9.846,55.139-17.723,82.708-32.492,93.539l-3.938-8.862
			c-8.861-25.6-22.646-41.354-41.354-45.292c-33.477-7.877-67.938,26.584-68.923,27.569l13.785,13.785
			c7.877-7.877,32.492-26.584,51.2-22.646c11.815,2.954,20.677,13.785,27.569,33.477l12.8,29.538l8.861-4.923
			C398.191,408.588,466.129,376.096,449.391,288.465z"/>
	</g>
</g>
<g>
	<g>
		<path d="M367.668,136.834l-15.754-12.8c-39.385,48.246-24.615,98.462-23.631,100.431l19.692-4.923
			C346.991,218.557,334.191,177.203,367.668,136.834z"/>
	</g>
</g>
<g>
	<g>
		<path d="M234.745,177.203l7.877,18.708c27.569-11.815,72.861-24.615,86.646-13.785l11.815-15.754
			C314.498,145.695,247.545,171.296,234.745,177.203z"/>
	</g>
</g>
<g>
	<g>
		<path d="M136.283,159.48l-4.923,18.708c1.969,0.985,55.138,15.754,48.246,74.831l19.692,1.969
			C206.191,194.926,160.898,165.388,136.283,159.48z"/>
	</g>
</g>
<g>
	<g>
		<path d="M189.452,321.942l-10.831-16.739c-0.985,0.985-30.523,20.677-33.477,50.215c-0.985,15.754,5.908,31.508,20.677,46.277
			l13.785-13.785c-10.831-9.846-15.754-20.677-14.769-30.523C166.806,337.695,189.452,321.942,189.452,321.942z"/>
	</g>
</g>
<g>
	<g>
		<path d="M173.699,2.927c-27.569,7.877-49.231,32.492-64.985,71.877l-4.923,7.877l7.877,3.938
			c9.846,4.923,35.446,23.631,32.492,40.369l19.692,3.938c4.923-25.6-20.677-47.261-34.461-57.108
			c12.8-28.554,29.538-46.277,49.231-52.185c27.569-7.877,54.154,9.846,54.154,9.846l11.815-15.754
			C242.622,14.742,211.114-7.904,173.699,2.927z"/>
	</g>
</g>
<g>
	<g>
		<path d="M116.591,76.772c0,0-64.985,3.938-67.938,79.754c-11.815,6.892-41.354,28.554-47.261,61.046
			c-4.923,23.631,6.892,53.169,28.554,77.785l11.815-17.723c-17.723-19.692-24.615-39.385-21.662-57.108
			c5.907-30.523,42.338-50.215,42.338-50.215l4.923-2.954v-4.923c0-61.046,53.169-68.923,58.092-68.923L116.591,76.772z"/>
	</g>
</g>
<g>
	<g>
		<path d="M52.591,296.342c11.815-36.431,61.046-54.154,61.046-54.154l-6.892-18.708c-2.954,0.985-58.092,20.677-73.846,65.969
			c-8.861,24.615-3.938,52.185,15.754,81.723l39.385,42.338l10.831-18.708l-32.492-34.462
			C50.621,336.711,45.698,315.049,52.591,296.342z"/>
	</g>
</g>
<g>
	<g>
		<path d="M233.76,434.188c-0.985,0.985-69.908,39.385-109.292,0c-38.4-38.4-14.769-73.846-13.785-74.831l-15.754-11.815
			c-11.815,17.723-24.615,60.062,15.754,100.431c17.723,17.723,39.385,23.631,60.062,23.631c36.431,0,69.908-18.708,72.861-20.677
			L233.76,434.188z"/>
	</g>
</g>
<g>
</g>
<g>
</g>
<g>
</g>
<g>
</g>
<g>
</g>
<g>
</g>
<g>
</g>
<g>
</g>
<g>
</g>
<g>
</g>
<g>
</g>
<g>
</g>
<g>
</g>
<g>
</g>
<g>
</g>
</svg>
