<?xml version="1.0" encoding="utf-8"?>
<!-- Generator: Adobe Illustrator 16.0.0, SVG Export Plug-In . SVG Version: 6.00 Build 0)  -->
<!DOCTYPE svg PUBLIC "-//W3C//DTD SVG 1.1//EN" "http://www.w3.org/Graphics/SVG/1.1/DTD/svg11.dtd">
<svg version="1.1" id="Layer_1" xmlns="http://www.w3.org/2000/svg" xmlns:xlink="http://www.w3.org/1999/xlink" x="0px" y="0px"
	 width="141.73px" height="141.73px" viewBox="0 0 141.73 141.73" enable-background="new 0 0 141.73 141.73" xml:space="preserve">
<g>
	<path fill-rule="evenodd" clip-rule="evenodd" fill="#FBAA19" d="M67.261,13.094c-10.692,0.631-20.726,4.003-29.484,9.92
		c-13.419,9.06-22.506,23.231-25.051,39.067c-0.517,3.217-0.739,6.039-0.739,9.369c0,5.514,0.712,10.699,2.189,15.917
		c6.125,21.641,24.366,37.981,46.557,41.708c2.021,0.336,4.044,0.572,6.326,0.727l0.706,0.047l0.544,5.93
		c0.296,3.258,0.558,5.938,0.571,5.951c0.014,0.02,6.508-4.124,14.433-9.209c7.926-5.084,14.755-9.436,15.18-9.678
		c3.578-2.021,6.036-3.666,8.73-5.822c8.805-7.053,15.379-16.488,18.939-27.167c2.949-8.839,3.713-18.443,2.217-27.772
		c-1.492-9.268-5.254-18.1-10.935-25.655c-7.481-9.954-17.987-17.315-29.793-20.888c-4.594-1.39-9.014-2.163-13.977-2.451
		C72.359,13.014,68.597,13.014,67.261,13.094z M73.541,15.942c1.571,0.108,2.478,0.182,2.92,0.235
		c2.372,0.282,2.922,0.369,4.924,0.739c1.088,0.201,3.316,0.739,4.479,1.082c0.39,0.114,0.8,0.228,0.906,0.255
		c0.981,0.255,4.589,1.579,5.796,2.129c0.195,0.087,0.363,0.161,0.377,0.161c0.135,0,3.205,1.511,4.305,2.116
		c6.059,3.325,11.345,7.65,15.851,12.956c4.171,4.923,7.575,10.786,9.759,16.831c0.571,1.585,1,2.915,1.289,3.996
		c0.752,2.794,1.249,5.205,1.545,7.489c0.04,0.316,0.102,0.779,0.134,1.041c0.055,0.437,0.102,0.934,0.271,3.036
		c0.086,1.055,0.086,5.836,0,6.891c-0.169,2.103-0.216,2.6-0.271,3.037c-0.032,0.255-0.094,0.724-0.134,1.041
		c-0.088,0.67-0.314,2.107-0.41,2.584c-0.034,0.182-0.094,0.504-0.134,0.707c-0.067,0.355-0.094,0.482-0.263,1.242
		c-0.2,0.934-0.791,3.209-1.021,3.928c-0.913,2.936-1.538,4.58-2.727,7.221c-0.343,0.771-1.531,3.096-2.04,3.996
		c-1.713,3.029-3.877,6.146-5.999,8.637c-2.384,2.795-4.372,4.748-7.557,7.408c-0.167,0.142-0.873,0.686-1.57,1.209
		c-3.204,2.41-6.857,4.58-10.284,6.119c-0.59,0.262-1.16,0.516-1.275,0.57c-0.301,0.135-2.256,0.914-2.451,0.973
		c-0.094,0.035-0.516,0.182-0.94,0.336c-0.737,0.27-1.819,0.625-2.25,0.74c-0.106,0.033-0.517,0.147-0.906,0.26
		c-0.719,0.217-2.619,0.7-3.157,0.808c-0.166,0.033-0.691,0.135-1.174,0.234c-1.814,0.364-2.896,0.531-5.038,0.772
		c-0.578,0.068-1.519,0.148-3.091,0.256c-0.951,0.067-4.62,0.067-5.573,0c-1.572-0.107-2.512-0.188-3.09-0.256
		c-2.142-0.241-3.224-0.408-5.036-0.772c-0.478-0.1-1.008-0.201-1.176-0.234c-0.537-0.107-2.438-0.591-3.157-0.808
		c-0.39-0.112-0.792-0.227-0.907-0.26c-0.43-0.115-1.511-0.471-2.249-0.74c-0.423-0.154-0.847-0.301-0.94-0.336
		c-0.208-0.066-2.156-0.846-2.519-1.006c-0.148-0.067-0.403-0.176-0.571-0.249c-3.768-1.651-7.529-3.862-10.921-6.407
		c-0.698-0.523-1.403-1.067-1.571-1.209c-0.168-0.141-0.544-0.457-0.839-0.705c-2.324-1.947-4.668-4.285-6.716-6.703
		c-4.675-5.508-8.422-12.305-10.511-19.046c-0.154-0.498-0.309-0.981-0.335-1.075c-0.108-0.289-0.766-2.869-0.94-3.66
		c-0.168-0.76-0.195-0.887-0.262-1.242c-0.041-0.203-0.101-0.525-0.135-0.707c-0.094-0.469-0.322-1.906-0.402-2.571
		c-0.215-1.653-0.282-2.317-0.41-4.036c-0.087-1.162-0.087-5.837,0-6.999c0.128-1.72,0.195-2.385,0.41-4.037
		c0.167-1.336,0.463-3.002,0.799-4.54c0.208-0.941,0.799-3.211,1.021-3.909c0.907-2.888,1.612-4.762,2.727-7.22
		c0.362-0.799,1.544-3.116,2.042-3.996c1.726-3.056,3.801-6.052,5.997-8.637c2.243-2.639,4.843-5.191,7.428-7.293
		c3.653-2.969,7.905-5.608,12.022-7.462c0.128-0.06,0.443-0.201,0.705-0.315c1.471-0.672,5.118-2.015,6.172-2.29
		c0.115-0.027,0.517-0.141,0.907-0.255c1.162-0.343,3.392-0.88,4.487-1.082c1.383-0.255,1.773-0.323,2.565-0.437
		c2.083-0.295,4.083-0.497,5.005-0.51c0.295,0,0.691-0.027,0.872-0.061C68.637,15.854,72.641,15.875,73.541,15.942z"/>
	<path fill-rule="evenodd" clip-rule="evenodd" fill="#FBAA19" d="M67.764,17.258c-1.155,0.088-2.371,0.195-2.888,0.262
		c-0.255,0.034-0.726,0.095-1.042,0.135c-0.759,0.101-1.444,0.202-1.813,0.269c-0.168,0.034-0.483,0.088-0.705,0.127
		c-3.036,0.538-6.313,1.431-9.269,2.525c-0.954,0.349-2.566,1.008-3.224,1.303c-0.221,0.101-0.598,0.275-0.839,0.376
		c-1.531,0.671-4.218,2.122-6.011,3.243c-6.058,3.782-11.062,8.43-15.118,14.051c-1.216,1.685-2.646,3.922-3.418,5.339
		c-0.135,0.255-0.275,0.497-0.302,0.537c-0.115,0.148-1.471,2.875-1.827,3.661c-0.577,1.276-0.618,1.383-0.98,2.283
		c-0.646,1.611-1.155,3.076-1.659,4.735c-0.315,1.041-0.772,2.734-0.914,3.425c-0.04,0.181-0.101,0.443-0.128,0.571
		c-0.309,1.397-0.685,3.546-0.866,5.003c-0.309,2.452-0.376,3.533-0.376,6.347c0,2.814,0.067,3.896,0.376,6.347
		c0.181,1.458,0.557,3.606,0.866,5.005c0.027,0.127,0.088,0.383,0.128,0.57c0.141,0.691,0.598,2.383,0.914,3.425
		c0.598,1.968,1.491,4.433,2.129,5.876c1.035,2.345,2.364,4.971,3.278,6.449c2.492,4.063,4.439,6.641,7.34,9.745
		c3.312,3.532,8.046,7.192,12.64,9.765c1.344,0.753,3.022,1.611,3.929,2.016c0.241,0.102,0.658,0.289,0.926,0.416
		c0.263,0.121,0.498,0.221,0.518,0.221c0.02,0,0.161,0.054,0.322,0.129c1.169,0.517,1.625,0.686,3.607,1.369
		c2.331,0.793,4.634,1.424,6.884,1.867c0.907,0.182,2.834,0.498,3.593,0.592c0.35,0.045,0.833,0.107,1.075,0.141
		c0.477,0.066,1.619,0.167,3.015,0.269c1.156,0.088,4.231,0.088,5.385,0c1.398-0.102,2.541-0.202,3.018-0.269
		c0.24-0.033,0.725-0.096,1.073-0.141c0.76-0.094,2.687-0.41,3.595-0.592c2.249-0.443,4.553-1.074,6.883-1.867
		c1.982-0.684,2.438-0.853,3.607-1.369c0.16-0.075,0.301-0.129,0.322-0.129c0.014,0,0.234-0.094,0.482-0.207
		c0.256-0.108,0.639-0.283,0.861-0.383c0.643-0.289,2.564-1.25,3.188-1.592c1.854-1.027,2.722-1.553,4.253-2.566
		c5.553-3.68,9.994-7.925,13.787-13.184c0.941-1.297,1.605-2.311,2.781-4.23c0.913-1.479,2.243-4.104,3.277-6.449
		c0.645-1.449,1.537-3.922,2.129-5.87c0.316-1.053,0.772-2.739,0.913-3.431c0.041-0.188,0.101-0.443,0.128-0.57
		c0.31-1.398,0.685-3.547,0.867-5.005c0.302-2.417,0.375-3.571,0.375-6.347c0-2.773-0.073-3.929-0.375-6.347
		c-0.183-1.457-0.558-3.606-0.867-5.003c-0.027-0.127-0.087-0.39-0.128-0.571c-0.456-2.156-1.505-5.474-2.571-8.16
		c-0.363-0.9-0.404-1.007-0.982-2.283c-0.354-0.786-1.711-3.513-1.826-3.661c-0.026-0.04-0.168-0.282-0.301-0.537
		c-0.491-0.9-1.438-2.445-2.271-3.694c-1.961-2.942-4.204-5.675-6.663-8.126c-3.297-3.292-7.422-6.401-11.686-8.799
		c-1.297-0.731-3.03-1.618-3.93-2.014c-0.241-0.101-0.584-0.256-0.771-0.343c-3.452-1.605-8.396-3.123-12.561-3.862
		c-0.22-0.04-0.537-0.094-0.704-0.127c-0.511-0.094-1.263-0.201-2.869-0.403c-0.651-0.08-1.778-0.181-3.007-0.268
		C72.244,17.171,68.846,17.178,67.764,17.258z M72.15,22.295c6.245,0.679,11.457,5.219,12.928,11.277
		c0.303,1.243,0.41,2.143,0.41,3.526c0.007,2.458-0.443,4.426-1.498,6.582c-2.215,4.526-6.521,7.609-11.512,8.261
		c-1.645,0.208-3.773,0.101-5.386-0.282c-3.149-0.746-5.971-2.499-8.08-5.024c-1.747-2.089-2.902-4.735-3.312-7.59
		c-0.134-0.893-0.114-3.055,0.027-3.996c0.497-3.21,1.84-5.971,4.043-8.254c2.404-2.491,5.682-4.117,9.101-4.5
		C69.611,22.215,71.398,22.208,72.15,22.295z M101.433,38.683c5.064,0.544,9.489,3.58,11.761,8.053
		c0.502,0.994,0.84,1.84,1.114,2.854c0.41,1.497,0.471,2.021,0.471,3.962c-0.008,1.888-0.047,2.277-0.438,3.768
		c-1.323,5.131-5.359,9.195-10.538,10.611c-1.262,0.342-2.438,0.497-3.867,0.497c-1.868,0-3.063-0.188-4.769-0.746
		c-5.589-1.833-9.571-6.79-10.183-12.66c-0.106-1.094-0.047-2.921,0.141-3.989c0.727-4.137,2.989-7.604,6.502-9.96
		c0.813-0.544,2.579-1.404,3.553-1.719c0.867-0.289,2.13-0.571,3.008-0.665C98.955,38.603,100.667,38.596,101.433,38.683z
		 M42.679,39.919c3.633,0.544,6.979,2.397,9.281,5.131c1.787,2.122,2.949,4.688,3.392,7.496c0.162,1.041,0.162,3.277,0,4.325
		c-1.081,6.871-6.541,12.021-13.439,12.693c-4.728,0.463-9.591-1.498-12.694-5.104c-3.156-3.674-4.358-8.624-3.223-13.285
		c0.638-2.606,2.055-5.131,3.956-7.025c2.424-2.432,5.762-3.997,9.208-4.326C40.04,39.738,41.799,39.785,42.679,39.919z
		 M71.525,58.697c4.553,0.39,8.422,3.291,10.068,7.556c1.953,5.057,0.094,10.899-4.447,13.949c-1.961,1.324-4.197,1.996-6.601,1.996
		c-4.03-0.007-7.61-1.929-9.84-5.272c-4.278-6.428-1.249-15.206,6.099-17.664C68.375,58.738,69.9,58.557,71.525,58.697z
		 M101.957,73.339c3.976,0.383,7.75,2.397,10.221,5.446c1.499,1.848,2.613,4.225,3.063,6.543c0.632,3.25,0.217,6.42-1.228,9.395
		c-2.224,4.562-6.448,7.59-11.593,8.309c-0.9,0.12-2.995,0.107-3.928-0.033c-3.701-0.559-7.033-2.391-9.35-5.145
		c-3.372-4.01-4.42-9.431-2.768-14.373c0.753-2.25,2.115-4.406,3.794-6.018C93.32,74.447,97.68,72.922,101.957,73.339z
		 M42.948,74.541c2.276,0.275,4.728,1.174,6.562,2.398c3.109,2.082,5.313,5.191,6.232,8.816c0.336,1.317,0.396,1.883,0.396,3.594
		c0.007,1.398-0.013,1.727-0.147,2.473c-0.887,4.916-3.809,8.805-8.241,10.968c-2.096,1.021-4.185,1.505-6.515,1.505
		c-6.756,0-12.667-4.494-14.44-10.981c-0.409-1.498-0.47-2.021-0.47-3.964c0.007-1.888,0.047-2.276,0.437-3.768
		c1.478-5.722,6.333-10.081,12.229-10.967C39.946,74.467,42.028,74.434,42.948,74.541z M72.299,90.928
		c5.097,0.633,9.449,3.722,11.691,8.297c0.732,1.489,1.189,3,1.411,4.666c0.127,0.934,0.114,3.021-0.034,3.962
		c-0.484,3.198-1.84,5.972-4.036,8.255c-3.842,3.989-9.57,5.527-14.917,4.003c-5.118-1.464-9.141-5.636-10.39-10.779
		c-0.309-1.257-0.41-2.143-0.41-3.56c0-2.432,0.45-4.398,1.498-6.547c2.23-4.549,6.555-7.638,11.599-8.289
		C69.376,90.854,71.626,90.848,72.299,90.928z"/>
</g>
</svg>
