<?xml version="1.0" encoding="utf-8"?>
<!-- Generator: Adobe Illustrator 16.0.0, SVG Export Plug-In . SVG Version: 6.00 Build 0)  -->
<!DOCTYPE svg PUBLIC "-//W3C//DTD SVG 1.1//EN" "http://www.w3.org/Graphics/SVG/1.1/DTD/svg11.dtd">
<svg version="1.1" id="Layer_1" xmlns="http://www.w3.org/2000/svg" xmlns:xlink="http://www.w3.org/1999/xlink" x="0px" y="0px"
	 width="55px" height="55px" viewBox="0 0 55 55" enable-background="new 0 0 55 55" xml:space="preserve">
<g>
	<path fill-rule="evenodd" clip-rule="evenodd" fill="#FBAA19" d="M26.237,3.546c-4.277,0.252-8.29,1.602-11.794,3.968
		c-5.367,3.624-9.002,9.293-10.021,15.627c-0.207,1.287-0.295,2.416-0.295,3.748c0,2.205,0.284,4.279,0.875,6.367
		c2.45,8.656,9.747,15.192,18.623,16.683c0.809,0.135,1.618,0.229,2.53,0.291l0.282,0.019l0.218,2.372
		c0.118,1.303,0.223,2.375,0.229,2.38c0.006,0.008,2.604-1.649,5.773-3.684c3.17-2.033,5.902-3.773,6.072-3.871
		c1.431-0.809,2.414-1.466,3.492-2.328c3.521-2.821,6.151-6.596,7.575-10.867c1.18-3.535,1.485-7.377,0.887-11.109
		c-0.597-3.707-2.102-7.24-4.374-10.262c-2.992-3.981-7.194-6.926-11.917-8.355c-1.837-0.556-3.605-0.865-5.591-0.98
		C28.277,3.514,26.772,3.514,26.237,3.546z M28.75,4.685c0.628,0.043,0.99,0.073,1.168,0.095c0.948,0.112,1.168,0.147,1.969,0.295
		c0.436,0.081,1.327,0.296,1.792,0.433c0.156,0.046,0.32,0.092,0.362,0.103c0.393,0.102,1.836,0.631,2.318,0.852
		c0.078,0.035,0.146,0.064,0.151,0.064c0.054,0,1.282,0.604,1.722,0.846c2.424,1.33,4.538,3.061,6.34,5.183
		c1.669,1.969,3.03,4.314,3.904,6.732c0.229,0.634,0.399,1.166,0.516,1.599c0.301,1.117,0.499,2.082,0.617,2.995
		c0.017,0.126,0.041,0.312,0.054,0.416c0.022,0.175,0.041,0.374,0.108,1.215c0.034,0.422,0.034,2.334,0,2.756
		c-0.067,0.841-0.086,1.04-0.108,1.215c-0.013,0.103-0.037,0.29-0.054,0.417c-0.035,0.268-0.125,0.843-0.164,1.033
		c-0.014,0.072-0.037,0.201-0.053,0.283c-0.027,0.142-0.038,0.192-0.105,0.496c-0.08,0.374-0.316,1.284-0.408,1.571
		c-0.365,1.175-0.615,1.832-1.091,2.889c-0.137,0.309-0.612,1.238-0.815,1.599c-0.686,1.211-1.551,2.458-2.4,3.454
		c-0.953,1.118-1.748,1.899-3.022,2.964c-0.066,0.057-0.349,0.273-0.628,0.483c-1.281,0.964-2.743,1.832-4.113,2.447
		c-0.236,0.104-0.465,0.206-0.511,0.229c-0.12,0.054-0.902,0.365-0.98,0.389c-0.037,0.015-0.206,0.073-0.376,0.135
		c-0.295,0.107-0.728,0.25-0.9,0.296c-0.042,0.014-0.206,0.059-0.362,0.104c-0.287,0.087-1.048,0.28-1.263,0.323
		c-0.066,0.014-0.276,0.054-0.47,0.094c-0.726,0.146-1.158,0.213-2.015,0.31c-0.231,0.027-0.607,0.059-1.236,0.102
		c-0.381,0.027-1.849,0.027-2.229,0c-0.629-0.043-1.005-0.074-1.236-0.102c-0.856-0.097-1.289-0.164-2.014-0.31
		c-0.191-0.04-0.403-0.08-0.47-0.094c-0.215-0.043-0.976-0.236-1.263-0.323c-0.156-0.045-0.317-0.09-0.363-0.104
		c-0.172-0.046-0.604-0.188-0.899-0.296c-0.169-0.062-0.339-0.12-0.376-0.135c-0.083-0.026-0.862-0.338-1.008-0.402
		c-0.059-0.026-0.161-0.07-0.229-0.1c-1.507-0.66-3.011-1.545-4.368-2.563c-0.279-0.21-0.562-0.427-0.628-0.483
		s-0.218-0.184-0.335-0.282c-0.93-0.779-1.867-1.714-2.687-2.682c-1.87-2.203-3.369-4.922-4.205-7.618
		c-0.062-0.199-0.123-0.393-0.134-0.43c-0.043-0.116-0.307-1.148-0.376-1.465c-0.067-0.304-0.078-0.354-0.105-0.496
		c-0.016-0.082-0.041-0.211-0.054-0.283c-0.037-0.188-0.128-0.763-0.161-1.028c-0.086-0.661-0.113-0.927-0.164-1.614
		c-0.035-0.465-0.035-2.335,0-2.8c0.051-0.688,0.078-0.954,0.164-1.615c0.067-0.535,0.185-1.201,0.32-1.816
		c0.083-0.376,0.319-1.284,0.408-1.563c0.362-1.155,0.645-1.905,1.091-2.888c0.145-0.32,0.617-1.247,0.816-1.598
		c0.69-1.223,1.521-2.421,2.399-3.455c0.897-1.056,1.937-2.077,2.971-2.917c1.462-1.188,3.162-2.244,4.809-2.985
		c0.051-0.024,0.177-0.08,0.282-0.126c0.589-0.269,2.048-0.806,2.469-0.916c0.046-0.011,0.207-0.057,0.363-0.103
		c0.465-0.137,1.356-0.352,1.794-0.433c0.553-0.102,0.709-0.129,1.026-0.174c0.833-0.118,1.634-0.199,2.002-0.204
		c0.118,0,0.276-0.011,0.349-0.024C26.788,4.65,28.39,4.658,28.75,4.685z"/>
	<path fill-rule="evenodd" clip-rule="evenodd" fill="#FBAA19" d="M26.438,5.211c-0.462,0.035-0.948,0.078-1.155,0.105
		c-0.102,0.013-0.291,0.038-0.417,0.054c-0.304,0.04-0.578,0.081-0.726,0.107c-0.067,0.014-0.193,0.035-0.282,0.051
		c-1.214,0.215-2.525,0.572-3.708,1.01c-0.381,0.14-1.026,0.403-1.29,0.521C18.774,7.1,18.624,7.17,18.527,7.21
		c-0.612,0.268-1.688,0.849-2.404,1.297c-2.423,1.513-4.425,3.372-6.048,5.62c-0.486,0.674-1.059,1.569-1.367,2.136
		c-0.054,0.103-0.11,0.199-0.121,0.215c-0.046,0.06-0.588,1.15-0.73,1.464c-0.231,0.51-0.247,0.553-0.393,0.914
		c-0.258,0.645-0.462,1.23-0.663,1.894c-0.126,0.416-0.309,1.094-0.365,1.37c-0.017,0.072-0.041,0.178-0.052,0.229
		c-0.123,0.559-0.273,1.418-0.346,2.001c-0.124,0.981-0.151,1.414-0.151,2.539c0,1.126,0.027,1.559,0.151,2.539
		c0.072,0.583,0.223,1.442,0.346,2.002c0.011,0.051,0.035,0.152,0.052,0.228c0.056,0.276,0.239,0.953,0.365,1.37
		c0.239,0.787,0.596,1.773,0.852,2.351c0.414,0.938,0.945,1.988,1.311,2.579c0.997,1.625,1.776,2.656,2.936,3.898
		c1.325,1.413,3.219,2.877,5.056,3.906c0.538,0.301,1.208,0.645,1.572,0.806c0.097,0.041,0.263,0.116,0.37,0.167
		c0.105,0.048,0.199,0.088,0.207,0.088s0.064,0.021,0.129,0.052c0.468,0.206,0.65,0.274,1.443,0.548
		c0.932,0.316,1.854,0.569,2.753,0.746c0.363,0.073,1.134,0.199,1.438,0.237c0.14,0.018,0.333,0.043,0.43,0.056
		c0.191,0.027,0.647,0.067,1.206,0.107c0.463,0.035,1.692,0.035,2.154,0c0.56-0.04,1.017-0.08,1.207-0.107
		c0.097-0.013,0.29-0.038,0.43-0.056c0.304-0.038,1.074-0.164,1.438-0.237c0.899-0.177,1.821-0.43,2.753-0.746
		c0.793-0.273,0.976-0.342,1.443-0.548c0.064-0.03,0.12-0.052,0.129-0.052c0.006,0,0.094-0.037,0.193-0.083
		c0.102-0.043,0.255-0.113,0.344-0.153c0.258-0.115,1.026-0.5,1.275-0.637c0.742-0.41,1.089-0.621,1.701-1.026
		c2.222-1.472,3.998-3.17,5.516-5.273c0.376-0.519,0.642-0.924,1.112-1.692c0.365-0.591,0.897-1.642,1.311-2.579
		c0.258-0.58,0.615-1.569,0.852-2.349c0.127-0.421,0.31-1.096,0.365-1.372c0.017-0.075,0.04-0.177,0.052-0.228
		c0.123-0.56,0.273-1.419,0.347-2.002c0.12-0.967,0.149-1.429,0.149-2.539c0-1.109-0.029-1.571-0.149-2.539
		c-0.073-0.583-0.224-1.442-0.347-2.001c-0.012-0.051-0.035-0.156-0.052-0.229c-0.183-0.862-0.602-2.189-1.028-3.264
		c-0.146-0.36-0.162-0.403-0.393-0.914c-0.142-0.314-0.685-1.405-0.73-1.464c-0.011-0.016-0.067-0.112-0.121-0.215
		c-0.196-0.36-0.575-0.978-0.908-1.478c-0.784-1.177-1.682-2.27-2.665-3.25c-1.318-1.317-2.969-2.56-4.674-3.52
		c-0.519-0.292-1.212-0.646-1.572-0.805C36.537,7.17,36.4,7.108,36.325,7.073c-1.381-0.642-3.358-1.249-5.024-1.545
		c-0.088-0.016-0.215-0.037-0.281-0.051c-0.204-0.038-0.505-0.081-1.147-0.161c-0.261-0.032-0.712-0.072-1.203-0.107
		C28.23,5.177,26.871,5.18,26.438,5.211z M28.193,7.227c2.498,0.271,4.583,2.087,5.171,4.511c0.121,0.497,0.164,0.856,0.164,1.41
		c0.003,0.983-0.177,1.771-0.599,2.633c-0.887,1.811-2.609,3.044-4.605,3.304c-0.658,0.083-1.509,0.041-2.154-0.113
		c-1.26-0.298-2.388-0.999-3.231-2.01c-0.699-0.835-1.161-1.894-1.325-3.036c-0.053-0.357-0.045-1.222,0.011-1.598
		c0.198-1.284,0.736-2.389,1.617-3.302c0.961-0.997,2.272-1.647,3.64-1.8C27.178,7.194,27.893,7.191,28.193,7.227z M39.906,13.781
		c2.025,0.218,3.796,1.432,4.704,3.221c0.201,0.398,0.336,0.736,0.446,1.142c0.164,0.599,0.188,0.809,0.188,1.585
		c-0.003,0.755-0.019,0.91-0.175,1.507c-0.529,2.053-2.144,3.678-4.215,4.245c-0.505,0.137-0.976,0.199-1.547,0.199
		c-0.747,0-1.226-0.075-1.907-0.298c-2.236-0.733-3.829-2.716-4.073-5.064c-0.043-0.438-0.019-1.168,0.056-1.596
		c0.291-1.654,1.196-3.041,2.602-3.984c0.324-0.217,1.031-0.562,1.421-0.688c0.347-0.115,0.852-0.228,1.203-0.266
		C38.915,13.749,39.6,13.747,39.906,13.781z M16.405,14.275c1.454,0.218,2.792,0.959,3.712,2.053
		c0.715,0.849,1.18,1.875,1.357,2.998c0.065,0.417,0.065,1.312,0,1.73c-0.432,2.748-2.617,4.809-5.375,5.077
		c-1.892,0.186-3.836-0.599-5.078-2.042c-1.262-1.47-1.744-3.45-1.29-5.314c0.255-1.042,0.822-2.053,1.583-2.81
		c0.97-0.973,2.305-1.599,3.683-1.73C15.349,14.203,16.053,14.222,16.405,14.275z M27.943,21.787
		c1.821,0.156,3.369,1.316,4.027,3.022c0.781,2.022,0.037,4.359-1.779,5.579c-0.784,0.53-1.679,0.799-2.64,0.799
		c-1.612-0.003-3.044-0.771-3.936-2.109c-1.711-2.57-0.5-6.082,2.439-7.065C26.684,21.803,27.293,21.73,27.943,21.787z
		 M40.116,27.644c1.59,0.153,3.1,0.959,4.088,2.179c0.6,0.739,1.046,1.689,1.226,2.617c0.252,1.3,0.086,2.568-0.491,3.758
		c-0.89,1.824-2.579,3.036-4.638,3.323c-0.359,0.048-1.197,0.043-1.57-0.013c-1.48-0.224-2.813-0.957-3.74-2.059
		c-1.349-1.604-1.768-3.771-1.107-5.749c0.302-0.899,0.847-1.763,1.518-2.407C36.661,28.087,38.405,27.477,40.116,27.644z
		 M16.513,28.125c0.91,0.109,1.891,0.469,2.624,0.959c1.244,0.833,2.125,2.076,2.493,3.526c0.135,0.527,0.158,0.753,0.158,1.438
		c0.003,0.56-0.005,0.69-0.059,0.989c-0.354,1.967-1.523,3.521-3.296,4.387c-0.838,0.408-1.674,0.603-2.606,0.603
		c-2.702,0-5.066-1.798-5.776-4.393c-0.163-0.6-0.188-0.809-0.188-1.586c0.003-0.755,0.019-0.91,0.175-1.507
		c0.591-2.289,2.533-4.032,4.892-4.387C15.312,28.095,16.145,28.082,16.513,28.125z M28.253,34.68
		c2.038,0.253,3.779,1.488,4.677,3.318c0.293,0.596,0.476,1.2,0.564,1.866c0.051,0.374,0.045,1.209-0.014,1.585
		c-0.194,1.279-0.736,2.389-1.615,3.302c-1.536,1.596-3.828,2.211-5.967,1.602c-2.047-0.586-3.656-2.255-4.155-4.312
		c-0.124-0.503-0.164-0.857-0.164-1.424c0-0.973,0.18-1.76,0.599-2.619c0.893-1.819,2.622-3.055,4.64-3.315
		C27.083,34.65,27.983,34.647,28.253,34.68z"/>
</g>
</svg>
