<?xml version="1.0" encoding="utf-8"?>
<!-- Generator: Adobe Illustrator 21.1.0, SVG Export Plug-In . SVG Version: 6.00 Build 0)  -->
<svg version="1.1" xmlns="http://www.w3.org/2000/svg" xmlns:xlink="http://www.w3.org/1999/xlink" x="0px" y="0px" width="130px"
	 height="130px" viewBox="0 0 130 130" style="enable-background:new 0 0 130 130;" xml:space="preserve">
<g id="Layer_1">
	<g>
		<g>
			<path d="M86.9,57.6c-0.4-1.1-1.7-1.6-2.8-1.2c-1.1,0.4-1.6,1.7-1.2,2.8c1.1,2.7,1.6,5.6,1.6,8.6C84.6,80.6,74.1,91,61.3,91
				C48.4,91,38,80.6,38,67.7s10.5-23.3,23.3-23.3c3,0,5.9,0.6,8.6,1.6c1.1,0.4,2.3-0.1,2.8-1.2c0.4-1.1-0.1-2.3-1.2-2.8
				c-3.2-1.3-6.6-1.9-10.2-1.9c-15.2,0-27.6,12.4-27.6,27.6s12.4,27.6,27.6,27.6c15.2,0,27.6-12.4,27.6-27.6
				C88.8,64.2,88.2,60.8,86.9,57.6z"/>
		</g>
	</g>
	<g>
		<g>
			<path d="M100,56.6c-0.3-1.1-1.5-1.8-2.6-1.5c-1.1,0.3-1.8,1.5-1.5,2.6c0.9,3.2,1.4,6.6,1.4,9.9c0,19.9-16.2,36-36,36
				c-19.9,0-36-16.2-36-36s16.2-36,36-36c3.4,0,6.7,0.5,10,1.4c1.1,0.3,2.3-0.3,2.6-1.5c0.3-1.1-0.3-2.3-1.5-2.6
				c-3.6-1-7.3-1.6-11.1-1.6C39.1,27.4,21,45.5,21,67.7S39.1,108,61.3,108c22.2,0,40.3-18.1,40.3-40.3C101.6,63.9,101,60.2,100,56.6
				z"/>
		</g>
	</g>
	<g>
		<g>
			<path d="M76.1,66.4c-0.1-1.2-1.1-2-2.3-1.9c-1.2,0.1-2,1.1-1.9,2.3c0,0.3,0,0.6,0,0.9c0,5.8-4.8,10.6-10.6,10.6
				c-5.8,0-10.6-4.8-10.6-10.6c0-5.8,4.8-10.6,10.6-10.6c0.3,0,0.6,0,1,0c1.2,0.1,2.2-0.8,2.3-1.9c0.1-1.2-0.8-2.2-1.9-2.3
				c-0.4,0-0.9-0.1-1.3-0.1c-8.2,0-14.8,6.7-14.8,14.8c0,8.2,6.7,14.8,14.8,14.8c8.2,0,14.8-6.7,14.8-14.8
				C76.1,67.3,76.1,66.8,76.1,66.4z"/>
		</g>
	</g>
	<g>
		<g>
			<path d="M110.7,32.3c-0.7-1.6-2.2-2.6-3.9-2.6h-7.4v-7.4c0-1.7-1-3.3-2.6-3.9c-1.6-0.7-3.4-0.3-4.6,0.9L79.7,31.6
				c-1.2,1.2-1.9,2.8-1.9,4.5v12L60.6,65.4c-0.8,0.8-0.8,2.2,0,3c0.4,0.4,1,0.6,1.5,0.6c0.5,0,1.1-0.2,1.5-0.6l17.3-17.3h12
				c1.7,0,3.3-0.7,4.5-1.9l12.4-12.4C111,35.7,111.3,33.9,110.7,32.3z M82.1,36.1c0-0.6,0.2-1.1,0.6-1.5l12.4-12.4v8.6l-13,13
				L82.1,36.1L82.1,36.1z M94.4,46.3c-0.4,0.4-0.9,0.6-1.5,0.6h-7.8l13-13l8.6,0L94.4,46.3z"/>
		</g>
	</g>
</g>
<g id="Layer_2">
</g>
</svg>
