<?xml version="1.0" encoding="utf-8"?>
<!-- Generator: Adobe Illustrator 21.1.0, SVG Export Plug-In . SVG Version: 6.00 Build 0)  -->
<svg version="1.1" xmlns="http://www.w3.org/2000/svg" xmlns:xlink="http://www.w3.org/1999/xlink" x="0px" y="0px" width="130px"
	 height="130px" viewBox="0 0 130 130" style="enable-background:new 0 0 130 130;" xml:space="preserve">
<g id="Layer_1">
</g>
<g id="Layer_2">
	<g>
		<path d="M94.2,39c0,0-0.6-19.7-0.6-19.9c0-0.4-0.1-0.7-0.3-1.1c-0.4-0.9-1.1-1.6-2-1.9l-5.8-2.3c-0.9-0.3-1.9-0.3-2.8,0.1
			c-0.9,0.4-1.6,1.1-1.9,2l-4,10.3c-0.6-0.1-1.2-0.3-1.9-0.4V22c0-5.4-4.4-9.8-9.8-9.8s-9.8,4.4-9.8,9.8v3.9
			c-0.6,0.1-1.2,0.2-1.9,0.4l-4-10.3c-0.3-0.9-1-1.6-1.9-2c-0.9-0.4-1.9-0.4-2.8-0.1l-5.8,2.3c-0.9,0.3-1.6,1-2,1.9
			c-0.1,0.3-0.2,0.7-0.3,1c0,0.2-0.6,20-0.6,20c-2.5,4.1-3.9,9-3.9,14.2v52.9c0,3.3,2.7,6.1,6.1,6.1H92c3.3,0,6.1-2.7,6.1-6.1V53.2
			C98.1,48,96.7,43.2,94.2,39z M90.8,34.5c-0.6-0.7-1.3-1.4-2-2l1.8-4.7L90.8,34.5z M83.8,17.1c0.1-0.2,0.3-0.3,0.5-0.2l5.8,2.3
			c0.1,0,0.2,0.1,0.2,0.2c0,0.1,0.1,0.2,0,0.3l-4.2,10.8c-1.9-1.3-4-2.5-6.3-3.3L83.8,17.1z M65.2,15.4c3.3,0,6,2.4,6.5,5.5
			c-1.7-1.5-4-2.5-6.5-2.5c-2.4,0-4.7,0.9-6.5,2.5C59.2,17.8,62,15.4,65.2,15.4z M71.2,25.5c-0.3,0-11.7,0-12,0
			c0.3-0.7,0.8-1.4,1.3-1.9c1.2-1.2,2.9-1.9,4.7-1.9C67.8,21.7,70.1,23.2,71.2,25.5z M40,19.4c0-0.1,0.1-0.2,0.2-0.2l5.8-2.3
			c0.2-0.1,0.4,0,0.5,0.2l3.9,10.1c-2.2,0.8-4.4,1.9-6.3,3.3L40,19.7C40,19.5,40,19.4,40,19.4z M39.8,27.9l1.8,4.7
			c-0.7,0.6-1.4,1.3-2,2L39.8,27.9z M94.9,106.2c0,1.6-1.3,2.9-2.9,2.9H38.4c-1.6,0-2.9-1.3-2.9-2.9V53.2c0-13.5,11-24.5,24.5-24.5
			h10.3c13.5,0,24.5,11,24.5,24.5L94.9,106.2L94.9,106.2z"/>
		<path d="M43.5,66.4c-2.6,0-4.7,2.1-4.7,4.7v30.2c0,2.6,2.1,4.7,4.7,4.7h43.4c2.6,0,4.7-2.1,4.7-4.7V71.1c0-2.6-2.1-4.7-4.7-4.7
			H43.5z M86.9,102.7H43.5c-0.8,0-1.5-0.7-1.5-1.5V81.1h40.3v3.6h3.2v-3.6h2.9v20.1C88.4,102.1,87.8,102.7,86.9,102.7z M88.4,71.1
			v6.8H42v-6.8c0-0.8,0.7-1.5,1.5-1.5h43.4C87.8,69.6,88.4,70.3,88.4,71.1z"/>
		<path d="M75.4,35.3H55.1v9.1h20.3V35.3z M72.2,41.2H58.3v-2.7h13.9V41.2z"/>
	</g>
</g>
</svg>
