<?xml version="1.0" encoding="iso-8859-1"?>
<!-- Generator: Adobe Illustrator 19.0.0, SVG Export Plug-In . SVG Version: 6.00 Build 0)  -->
<svg xmlns="http://www.w3.org/2000/svg" xmlns:xlink="http://www.w3.org/1999/xlink" version="1.1" id="Capa_1" x="0px" y="0px" viewBox="0 0 503.066 503.066" style="enable-background:new 0 0 503.066 503.066;" xml:space="preserve" width="512px" height="512px">
<g>
	<g>
		<path d="M486.806,353.606L359.213,226.825l39.01-39.01c26.819,2.438,52.013-6.502,71.517-25.194    c43.073-43.073,19.505-99.149,19.505-99.149l-50.387,50.387l-37.384-9.752l-8.94-36.571l50.387-50.387    c0,0-56.076-24.381-99.149,19.505c-18.692,18.692-28.444,44.698-25.194,71.517l-39.01,38.197l-34.133-34.133l51.2-51.2    l-42.26-42.26h-75.581L56.076,141.492l17.879,17.067l-11.378,11.378L45.511,152.87L0,198.381l80.457,80.457l45.511-45.511    l-17.879-17.879l11.378-11.378l17.067,17.067l28.444-28.444l34.133,34.133l-89.397,89.397    c-26.819-2.438-52.013,6.502-71.517,25.194c-21.943,21.943-34.133,58.514-19.505,99.149l50.387-50.387l36.571,8.94l8.94,36.571    l-50.387,50.387c47.949,17.067,82.895-2.438,99.149-19.505c18.692-18.692,28.444-44.698,25.194-71.517l89.397-89.397    l126.781,126.781c25.194,25.194,60.952,18.692,80.457,0C508.749,412.12,508.749,375.549,486.806,353.606z M334.832,113.86    c0,0-8.94-36.571,20.317-65.829c14.629-14.629,34.946-21.943,55.263-21.13L374.654,62.66l13.816,55.263l55.263,13.816    l35.759-35.759c0.813,20.317-6.502,40.635-21.13,55.263c-29.257,29.257-65.829,20.318-65.829,20.318l-44.698,43.886    l-56.889-56.889L334.832,113.86z M79.644,255.27l-56.889-56.889l22.756-22.756l56.889,56.889L79.644,255.27z M96.711,204.07    l-22.756-22.755l11.378-11.378l22.756,22.756L96.711,204.07z M136.533,198.381l-56.889-56.889L185.295,35.028h61.765    l26.819,26.006L136.533,198.381z M173.105,390.178c0,0,8.94,38.197-20.317,65.829c-14.629,14.629-34.946,21.943-55.263,21.13    l35.759-35.759l-13.816-55.263l-55.264-13.816l-35.759,35.759c-0.813-19.505,6.502-40.635,21.13-54.451    c30.07-29.257,65.829-20.318,65.829-20.318l95.086-95.086l56.889,56.889L173.105,390.178z M475.429,422.686    c-15.441,15.441-41.448,15.441-56.889,0L176.356,181.314l56.889-56.889l241.371,241.371    C490.87,381.238,490.87,406.432,475.429,422.686z" fill="#591451"/>
	</g>
</g>
<g>
	<g>
		
			<rect x="147.398" y="113.77" transform="matrix(0.7071 -0.7071 0.7071 0.7071 -40.6421 145.6759)" width="16.254" height="16.254" fill="#591451"/>
	</g>
</g>
<g>
	<g>
		
			<rect x="170.726" y="91.329" transform="matrix(0.7071 -0.7071 0.7071 0.7071 -17.9414 155.5976)" width="16.254" height="16.254" fill="#591451"/>
	</g>
</g>
<g>
	<g>
		<rect x="192.911" y="67.367" transform="matrix(0.7071 -0.7071 0.7071 0.7071 5.5 164.2669)" width="16.254" height="16.254" fill="#591451"/>
	</g>
</g>
<g>
</g>
<g>
</g>
<g>
</g>
<g>
</g>
<g>
</g>
<g>
</g>
<g>
</g>
<g>
</g>
<g>
</g>
<g>
</g>
<g>
</g>
<g>
</g>
<g>
</g>
<g>
</g>
<g>
</g>
</svg>
