<?xml version="1.0" encoding="utf-8"?>
<!-- Generator: Adobe Illustrator 21.1.0, SVG Export Plug-In . SVG Version: 6.00 Build 0)  -->
<svg version="1.1" xmlns="http://www.w3.org/2000/svg" xmlns:xlink="http://www.w3.org/1999/xlink" x="0px" y="0px" width="130px"
	 height="130px" viewBox="0 0 130 130" style="enable-background:new 0 0 130 130;" xml:space="preserve">
<g id="Layer_1">
</g>
<g id="Layer_2">
	<g>
		<g>
			<g>
				<path d="M89.1,62.4l5.1-5.1L83.4,46.5l-5.1,5.1c-1.8-1-3.7-1.8-5.6-2.3v-7.1c4.9-2.7,7.7-7,7.7-12.4c0-6.5-4.1-12.3-10.2-14.4
					l-2-0.7v12.5l-3.1,1l-3.1-1V14.6l-2,0.7c-6.1,2.2-10.2,8-10.2,14.4c0,5.4,2.7,9.7,7.7,12.4v7.1c-2,0.6-3.9,1.3-5.6,2.3l-5.1-5.1
					L35.7,57.3l5.1,5.1c-1,1.8-1.8,3.7-2.3,5.6h-7.2v15.3h7.2c0.6,2,1.3,3.8,2.3,5.6l-5.1,5.1L46.6,105l5.1-5.1
					c1.8,1,3.7,1.8,5.6,2.3v7.2h15.3v-7.2c2-0.6,3.8-1.3,5.6-2.3l5.1,5.1l10.8-10.8L89.1,89c1-1.8,1.8-3.7,2.3-5.6h7.2V68h-7.2
					C90.9,66.1,90.1,64.2,89.1,62.4z M52.7,29.7c0-4.4,2.4-8.4,6.1-10.6v10.2l6.1,2l6.1-2V19.1c3.7,2.2,6.1,6.2,6.1,10.6
					c0,4.5-2.3,8-6.8,10.1l-0.9,0.4V65h3.1v-2.6c4.7,2.7,7.7,7.7,7.7,13.3c0,5.7-3.1,10.6-7.7,13.2V68h-3.1v22.3
					c-1.5,0.5-3,0.7-4.6,0.7c-1.6,0-3.1-0.2-4.6-0.7V40.2l-0.9-0.4C55.1,37.7,52.7,34.2,52.7,29.7z M95.6,80.3h-6.6l-0.3,1.2
					c-0.6,2.5-1.6,4.8-2.9,7l-0.6,1l4.6,4.6l-6.5,6.5L78.8,96l-1,0.6c-2.2,1.3-4.5,2.3-7,2.9l-1.2,0.3v6.6h-9.2v-6.6l-1.2-0.3
					c-2.5-0.6-4.8-1.6-7-2.9l-1-0.6l-4.6,4.6l-6.5-6.5l4.6-4.6l-0.6-1c-1.3-2.2-2.3-4.5-2.9-7l-0.3-1.2h-6.6v-9.2h6.6l0.3-1.2
					c0.6-2.5,1.6-4.8,2.9-7l0.6-1l-4.6-4.6l6.5-6.5l4.6,4.6l1-0.6c1.6-1,3.3-1.8,5.1-2.4V59c-6.5,3-10.7,9.4-10.7,16.7
					c0,10.1,8.2,18.4,18.4,18.4s18.4-8.2,18.4-18.4c0-7.3-4.2-13.7-10.7-16.7v-6.6c1.8,0.6,3.5,1.4,5.1,2.4l1,0.6l4.6-4.6l6.5,6.5
					l-4.6,4.6l0.6,1c1.3,2.2,2.3,4.5,2.9,7l0.3,1.2h6.6V80.3z M57.3,62.4V89c-4.6-2.7-7.7-7.6-7.7-13.2
					C49.7,70.1,52.6,65.1,57.3,62.4z"/>
				<path d="M23.6,89.8V34.3c0-0.8,0.7-1.5,1.5-1.5h12.5c0.6,1.8,2.3,3.1,4.3,3.1c2.5,0,4.6-2.1,4.6-4.6s-2.1-4.6-4.6-4.6
					c-2,0-3.7,1.3-4.3,3.1H25.2c-2.5,0-4.6,2.1-4.6,4.6v55.4c-1.8,0.6-3.1,2.3-3.1,4.3c0,2.5,2.1,4.6,4.6,4.6s4.6-2.1,4.6-4.6
					C26.7,92.1,25.4,90.4,23.6,89.8z M42,29.7c0.8,0,1.5,0.7,1.5,1.5c0,0.8-0.7,1.5-1.5,1.5s-1.5-0.7-1.5-1.5
					C40.5,30.4,41.2,29.7,42,29.7z M22.1,95.6c-0.8,0-1.5-0.7-1.5-1.5s0.7-1.5,1.5-1.5c0.8,0,1.5,0.7,1.5,1.5
					C23.6,94.9,22.9,95.6,22.1,95.6z"/>
				<rect x="26.7" y="35.9" width="3.1" height="3.1"/>
				<rect x="26.7" y="42" width="3.1" height="3.1"/>
				<rect x="26.7" y="48.1" width="3.1" height="3.1"/>
				<path d="M109.4,89.8V34.3c0-2.5-2.1-4.6-4.6-4.6H92.3C91.7,28,90,26.7,88,26.7c-2.5,0-4.6,2.1-4.6,4.6s2.1,4.6,4.6,4.6
					c2,0,3.7-1.3,4.3-3.1h12.5c0.8,0,1.5,0.7,1.5,1.5v55.4c-1.8,0.6-3.1,2.3-3.1,4.3c0,2.5,2.1,4.6,4.6,4.6c2.5,0,4.6-2.1,4.6-4.6
					C112.5,92.1,111.2,90.4,109.4,89.8z M88,32.8c-0.8,0-1.5-0.7-1.5-1.5c0-0.8,0.7-1.5,1.5-1.5c0.8,0,1.5,0.7,1.5,1.5
					C89.5,32.1,88.8,32.8,88,32.8z M107.9,95.6c-0.8,0-1.5-0.7-1.5-1.5s0.7-1.5,1.5-1.5c0.8,0,1.5,0.7,1.5,1.5
					C109.4,94.9,108.7,95.6,107.9,95.6z"/>
				<rect x="100.2" y="35.9" width="3.1" height="3.1"/>
				<rect x="100.2" y="42" width="3.1" height="3.1"/>
				<rect x="100.2" y="48.1" width="3.1" height="3.1"/>
				<rect x="63.5" y="84.9" width="3.1" height="3.1"/>
				<rect x="63.5" y="78.8" width="3.1" height="3.1"/>
				<rect x="63.5" y="72.6" width="3.1" height="3.1"/>
			</g>
		</g>
	</g>
</g>
</svg>
