<?xml version="1.0" encoding="iso-8859-1"?>
<!-- Generator: Adobe Illustrator 19.0.0, SVG Export Plug-In . SVG Version: 6.00 Build 0)  -->
<svg version="1.1" id="Capa_1" xmlns="http://www.w3.org/2000/svg" xmlns:xlink="http://www.w3.org/1999/xlink" x="0px" y="0px"
	 viewBox="0 0 512 512" style="enable-background:new 0 0 512 512;" xml:space="preserve">
<g>
	<g>
		<path d="M415,265c-16.752,0-31.124,10.357-37.071,25H264v30h113.929c5.947,14.643,20.318,25,37.071,25c22.056,0,40-17.944,40-40
			C455,282.944,437.056,265,415,265z M415,315c-5.514,0-10-4.486-10-10c0-5.514,4.486-10,10-10c5.514,0,10,4.486,10,10
			C425,310.514,420.514,315,415,315z"/>
	</g>
</g>
<g>
	<g>
		<path d="M467,0H45C20.187,0,0,20.187,0,45v422c0,24.813,20.187,45,45,45h422c24.813,0,45-20.187,45-45V45
			C512,20.187,491.813,0,467,0z M482,467c0,8.271-6.729,15-15,15H45c-8.271,0-15-6.729-15-15V130h452V467z M482,100H30V45
			c0-8.271,6.729-15,15-15h422c8.271,0,15,6.729,15,15V100z"/>
	</g>
</g>
<g>
	<g>
		<circle cx="175" cy="65" r="15"/>
	</g>
</g>
<g>
	<g>
		<circle cx="125" cy="65" r="15"/>
	</g>
</g>
<g>
	<g>
		<circle cx="75" cy="65" r="15"/>
	</g>
</g>
<g>
	<g>
		<path d="M147,194.125l-91,46.907v106.819l91,45.234l91-45.234V241.032L147,194.125z M132,352.127l-46-22.866v-42.054l46,22.866
			V352.127z M91.545,256.461L147,227.875l55.455,28.586L147,284.027L91.545,256.461z M208,329.261l-46,22.866v-42.054l46-22.866
			V329.261z"/>
	</g>
</g>
<g>
	<g>
		<path d="M341.071,190c-5.947-14.643-20.319-25-37.071-25c-22.056,0-40,17.944-40,40c0,22.056,17.944,40,40,40
			c16.752,0,31.124-10.357,37.071-25H455v-30H341.071z M304,215c-5.514,0-10-4.486-10-10c0-5.514,4.486-10,10-10
			c5.514,0,10,4.486,10,10C314,210.514,309.514,215,304,215z"/>
	</g>
</g>
<g>
	<g>
		<path d="M401.071,390c-5.947-14.643-20.319-25-37.071-25s-31.124,10.357-37.071,25H264v30h62.929
			c5.947,14.643,20.318,25,37.071,25s31.124-10.357,37.071-25H455v-30H401.071z M364,415c-5.514,0-10-4.486-10-10
			c0-5.514,4.486-10,10-10c5.514,0,10,4.486,10,10C374,410.514,369.514,415,364,415z"/>
	</g>
</g>
<g>
</g>
<g>
</g>
<g>
</g>
<g>
</g>
<g>
</g>
<g>
</g>
<g>
</g>
<g>
</g>
<g>
</g>
<g>
</g>
<g>
</g>
<g>
</g>
<g>
</g>
<g>
</g>
<g>
</g>
</svg>
