<?xml version="1.0" encoding="utf-8"?>
<!-- Generator: Adobe Illustrator 21.1.0, SVG Export Plug-In . SVG Version: 6.00 Build 0)  -->
<svg version="1.1" xmlns="http://www.w3.org/2000/svg" xmlns:xlink="http://www.w3.org/1999/xlink" x="0px" y="0px" width="130px"
	 height="130px" viewBox="0 0 130 130" style="enable-background:new 0 0 130 130;" xml:space="preserve">
<g id="Layer_1">
	<g>
		<g>
			<path d="M95.5,65.7c-3.1,0-5.8,1.9-6.9,4.6H67.5v5.6h21.1c1.1,2.7,3.8,4.6,6.9,4.6c4.1,0,7.4-3.3,7.4-7.4S99.6,65.7,95.5,65.7z
				 M95.5,74.9c-1,0-1.9-0.8-1.9-1.9s0.8-1.9,1.9-1.9s1.9,0.8,1.9,1.9S96.5,74.9,95.5,74.9z"/>
		</g>
	</g>
	<g>
		<g>
			<path d="M105.2,16.5H26.8c-4.6,0-8.3,3.7-8.3,8.3v78.3c0,4.6,3.7,8.3,8.3,8.3h78.3c4.6,0,8.3-3.7,8.3-8.3V24.8
				C113.5,20.2,109.8,16.5,105.2,16.5z M107.9,103.2c0,1.5-1.2,2.8-2.8,2.8H26.8c-1.5,0-2.8-1.2-2.8-2.8V40.6h83.9V103.2z
				 M107.9,35.1H24.1V24.8c0-1.5,1.2-2.8,2.8-2.8h78.3c1.5,0,2.8,1.2,2.8,2.8V35.1z"/>
		</g>
	</g>
	<g>
		<g>
			<circle cx="51" cy="28.6" r="2.8"/>
		</g>
	</g>
	<g>
		<g>
			<circle cx="41.7" cy="28.6" r="2.8"/>
		</g>
	</g>
	<g>
		<g>
			<circle cx="32.4" cy="28.6" r="2.8"/>
		</g>
	</g>
	<g>
		<g>
			<path d="M45.8,52.5l-16.9,8.7V81l16.9,8.4L62.7,81V61.2L45.8,52.5z M43,81.8l-8.5-4.2v-7.8L43,74V81.8z M35.5,64.1l10.3-5.3
				l10.3,5.3l-10.3,5.1L35.5,64.1z M57.1,77.6l-8.5,4.2V74l8.5-4.2V77.6z"/>
		</g>
	</g>
	<g>
		<g>
			<path d="M81.8,51.8c-1.1-2.7-3.8-4.6-6.9-4.6c-4.1,0-7.4,3.3-7.4,7.4s3.3,7.4,7.4,7.4c3.1,0,5.8-1.9,6.9-4.6h21.1v-5.6H81.8z
				 M74.9,56.4c-1,0-1.9-0.8-1.9-1.9s0.8-1.9,1.9-1.9s1.9,0.8,1.9,1.9S75.9,56.4,74.9,56.4z"/>
		</g>
	</g>
	<g>
		<g>
			<path d="M92.9,88.9c-1.1-2.7-3.8-4.6-6.9-4.6s-5.8,1.9-6.9,4.6H67.5v5.6h11.7c1.1,2.7,3.8,4.6,6.9,4.6s5.8-1.9,6.9-4.6h10v-5.6
				H92.9z M86,93.5c-1,0-1.9-0.8-1.9-1.9s0.8-1.9,1.9-1.9s1.9,0.8,1.9,1.9S87.1,93.5,86,93.5z"/>
		</g>
	</g>
</g>
<g id="Layer_2">
</g>
</svg>
