<?xml version="1.0" encoding="utf-8"?>
<!-- Generator: Adobe Illustrator 21.1.0, SVG Export Plug-In . SVG Version: 6.00 Build 0)  -->
<svg version="1.1" xmlns="http://www.w3.org/2000/svg" xmlns:xlink="http://www.w3.org/1999/xlink" x="0px" y="0px" width="130px"
	 height="130px" viewBox="0 0 130 130" style="enable-background:new 0 0 130 130;" xml:space="preserve">
<g id="Layer_1">
</g>
<g id="Layer_2">
	<g>
		<g>
			<g>
				<rect x="25.3" y="65.3" transform="matrix(0.9762 -0.2167 0.2167 0.9762 -13.8504 7.419)" width="3.3" height="3.2"/>
				<path d="M104.3,61v-8.3H93v2.2l-17.7-9.6V32.7c0-0.7-0.1-1.5-0.2-2.2l-1.8-8.9C72.4,17.2,68.5,14,64,14s-8.4,3.2-9.3,7.6
					l-1.8,8.9c-0.1,0.7-0.2,1.5-0.2,2.2v12.6L35,54.9v-2.2H23.7V61L14,66.3v9h3.4l35.3-6.1v12.8c0,3.9,0.6,7.8,1.7,11.6l-16.3,11.6
					v8.9h3.4l18.1-4.5l1.5,4.5h5.6l1.5-4.5l17.9,4.5l3.6,0v-8.9L73.6,93.5c1.1-3.8,1.7-7.6,1.7-11.6V69.1l35.2,6.1l3.5,0v-9
					L104.3,61z M26.9,55.9h4.8v0.7l-4.8,2.6V55.9z M52.7,59.5l-21.3,4.7l0.7,3.2l20.6-4.6v3.1L17.2,72v-3.9L52.7,49V59.5z
					 M41.4,110.7v-4l14.1-10l3.2,9.7L41.4,110.7z M64.4,110.8h-0.9l-5.7-17.1c-1.3-3.8-1.9-7.7-1.9-11.7V32.7c0-0.5,0.1-1.1,0.2-1.6
					l1.8-8.9c0.6-2.9,3.2-5,6.1-5c3,0,5.6,2.1,6.1,5l1.8,8.9c0.1,0.5,0.2,1.1,0.2,1.6v49.2c0,4-0.6,7.9-1.9,11.7L64.4,110.8z
					 M86.6,106.8v4l-17.3-4.3l3.2-9.7L86.6,106.8z M96.3,55.9h4.8v3.3l-4.8-2.6V55.9z M110.8,72l-35.5-6.2v-3.1l20.6,4.6l0.7-3.2
					l-21.3-4.7V49l35.5,19.2V72z"/>
				<rect x="99.5" y="65.2" transform="matrix(0.2169 -0.9762 0.9762 0.2169 13.9011 151.0567)" width="3.2" height="3.3"/>
			</g>
		</g>
	</g>
</g>
</svg>
