<?xml version="1.0" encoding="utf-8"?>
<!-- Generator: Adobe Illustrator 21.1.0, SVG Export Plug-In . SVG Version: 6.00 Build 0)  -->
<svg version="1.1" xmlns="http://www.w3.org/2000/svg" xmlns:xlink="http://www.w3.org/1999/xlink" x="0px" y="0px" width="130px"
	 height="130px" viewBox="0 0 130 130" style="enable-background:new 0 0 130 130;" xml:space="preserve">
<g id="Layer_1">
	<g>
		<g>
			<path d="M73.6,45.2H43.5c-0.9,0-1.6,0.7-1.6,1.6s0.7,1.6,1.6,1.6h30.1c0.9,0,1.6-0.7,1.6-1.6C75.2,45.9,74.5,45.2,73.6,45.2z"/>
		</g>
	</g>
	<g>
		<g>
			<path d="M60.7,55.9H43.5c-0.9,0-1.6,0.7-1.6,1.6c0,0.9,0.7,1.6,1.6,1.6h17.2c0.9,0,1.6-0.7,1.6-1.6
				C62.3,56.6,61.6,55.9,60.7,55.9z"/>
		</g>
	</g>
	<g>
		<g>
			<path d="M76.8,67.7c-3.9,0-7,3.1-7,7c0,3.8,3.1,7,7,7s7-3.1,7-7C83.8,70.8,80.7,67.7,76.8,67.7z M76.8,78.4
				c-2.1,0-3.8-1.7-3.8-3.7c0-2.1,1.7-3.7,3.8-3.7c2.1,0,3.8,1.7,3.8,3.7C80.6,76.7,78.9,78.4,76.8,78.4z"/>
		</g>
	</g>
	<g>
		<g>
			<path d="M104.2,25.8H25.8c-2.4,0-4.3,1.9-4.3,4.3v57c0,2.4,1.9,4.3,4.3,4.3h37.4l-2.5,6.5l0,0c-0.1,0.3-0.2,0.6-0.2,0.9
				c0,0.5,0.2,1.1,0.7,1.5c0.5,0.4,1,0.6,1.5,0.6c0.2,0,0.3,0,0.5,0l4-0.7l0.2,0l0.1,0l2.5,3.2c0.2,0.2,0.4,0.5,0.7,0.6
				c0.3,0.2,0.7,0.3,1.1,0.3c0.5,0,1-0.2,1.4-0.5c0.3-0.3,0.6-0.6,0.7-1l3.4-8.8l3.4,8.8c0.1,0.3,0.3,0.7,0.7,1
				c0.3,0.3,0.8,0.5,1.4,0.5c0.4,0,0.8-0.1,1.1-0.3c0.3-0.2,0.5-0.4,0.7-0.6l0,0l2.5-3.2l0.1-0.1l0.1,0l4,0.7c0.2,0,0.3,0,0.5,0
				c0.5,0,1-0.1,1.5-0.6c0.5-0.4,0.7-1,0.7-1.5c0-0.3-0.1-0.6-0.2-0.9l0,0l-2.5-6.5h13.1c2.4,0,4.3-1.9,4.3-4.3v-57
				C108.5,27.7,106.6,25.8,104.2,25.8z M71.4,99.9l-1.5-1.8l0,0c-0.4-0.5-0.8-0.7-1.3-1c-0.5-0.2-0.9-0.3-1.5-0.3
				c-0.2,0-0.3,0-0.5,0l-2.3,0.4l3.7-9.8c2.1,1.4,4.5,2.3,7.1,2.6L71.4,99.9z M76.8,86.9c-6.8,0-12.4-5.5-12.4-12.3
				c0-6.8,5.5-12.3,12.4-12.3s12.4,5.5,12.4,12.3C89.2,81.4,83.6,86.9,76.8,86.9z M61.7,78.4H34.4V37.6h61.2v40.9h-3.7
				c0.3-1.2,0.5-2.5,0.5-3.8c0-8.6-7-15.5-15.6-15.5s-15.6,7-15.6,15.5C61.2,75.9,61.4,77.2,61.7,78.4z M87.6,96.8
				c-0.2,0-0.4,0-0.5,0c-0.5,0-1,0.1-1.5,0.3c-0.5,0.2-0.9,0.5-1.3,1l0,0l-1.4,1.8l-3.8-10c2.6-0.4,5-1.4,7-2.8l3.9,10.1L87.6,96.8z
				 M105.3,87c0,0.6-0.5,1.1-1.1,1.1H89.8l-1.3-3.3c0.8-0.9,1.5-2,2.1-3.1h7.1c0.6,0,1.1-0.5,1.1-1.1V35.4c0-0.6-0.5-1.1-1.1-1.1
				H32.2c-0.6,0-1.1,0.5-1.1,1.1v45.1c0,0.6,0.5,1.1,1.1,1.1H63c0.7,1.3,1.5,2.5,2.5,3.6l-1.1,2.9H25.8c-0.6,0-1.1-0.5-1.1-1.1v-57
				c0-0.6,0.5-1.1,1.1-1.1h78.4c0.6,0,1.1,0.5,1.1,1.1L105.3,87L105.3,87z"/>
		</g>
	</g>
</g>
<g id="Layer_2">
</g>
</svg>
