<svg height="511pt" viewBox="0 0 511.99963 511" width="511pt" xmlns="http://www.w3.org/2000/svg"><path d="m438.230469 76.433594c-48.519531-49.148438 47.644531 48.253906 0 0-63.933594-64.761719-161.9375-91.101563-249.746094-67.292969-81.855469 22.195313-149.210937 87.246094-175.605469 167.65625-16.042968 48.867187-17.25 102.644531-2.765625 152.039063 23.230469 79.230468 87.023438 144.480468 165.148438 170.738281 83.34375 28.011719 178.621093 9.085937 245.800781-47.363281 18.6875-15.703126 35.265625-34.390626 48.714844-54.738282 1.105468-1.675781 2.199218-3.367187 3.246094-5.035156 2.996093-4.769531 1.554687-11.066406-3.21875-14.0625-4.769532-3-11.066407-1.558594-14.066407 3.214844-.976562 1.558594-1.972656 3.105468-2.984375 4.636718-7.410156 11.207032-15.800781 21.808594-25.023437 31.621094l-37.765625-37.761718c10.902344-11.785157 20.257812-24.996094 27.707031-39.21875 7.664063-14.644532 13.292969-30.339844 16.699219-46.511719 1.707031-8.105469 2.867187-16.332031 3.453125-24.59375h53.488281c-.796875 14.195312-2.859375 28.277343-6.160156 41.992187-1.316406 5.480469 2.054687 10.988282 7.535156 12.308594 5.472656 1.316406 10.984375-2.054688 12.304688-7.535156 20.585937-85.609375-4.929688-177.46875-66.761719-240.09375zm-59.570313 45.050781c-12.097656-11.042969-25.675781-20.460937-40.277344-27.882813-15.058593-7.65625-31.195312-13.152343-47.785156-16.324218-8.375-1.601563-16.863281-2.613282-25.382812-3.035156v-53.441407c56.675781 2.175781 109.730468 24.25 151.226562 62.902344zm-133.851562-47.128906c-6.96875.421875-13.910156 1.238281-20.734375 2.441406-5.546875.976563-9.253907 6.269531-8.277344 11.816406.980469 5.550781 6.273437 9.253907 11.820313 8.277344 21.9375-3.871094 45.027343-3.464844 66.691406 1.832031 18.640625 4.554688 36.347656 12.667969 52.101562 23.609375 15.652344 10.878907 29.367188 24.507813 40.421875 40.03125 11.140625 15.644531 19.570313 33.210938 24.679688 51.726563 3.675781 13.324218 5.621093 27.121094 5.726562 40.941406.34375 43.921875-17.054687 87.183594-48.710937 117.800781-57.765625 55.871094-154.074219 59.761719-215.816406 8.121094-47.917969-40.078125-69.160157-108.425781-52.15625-168.566406 9.523437-33.683594 29.773437-64.070313 57.730468-85.230469 4.492188-3.402344 5.378906-9.800781 1.976563-14.292969-3.398438-4.492187-9.800781-5.378906-14.292969-1.976562-4.742188 3.589843-9.332031 7.429687-13.71875 11.480469l-37.773438-37.773438c41.164063-38.769531 93.882813-61.105469 150.335938-63.707031v53.46875zm0 417.550781c-54.828125-2.539062-106.371094-23.800781-147.042969-60.667969l37.808594-37.8125c12.703125 11.179688 26.949219 20.59375 42.234375 27.847657 13.175781 6.253906 27.113281 10.902343 41.40625 13.8125 8.4375 1.71875 17 2.839843 25.597656 3.355468v53.464844zm-164.585938-392.707031 37.820313 37.820312c-10.292969 11.867188-19.058594 25.050781-25.976563 39.15625-7.164062 14.605469-12.335937 30.171875-15.351562 46.15625-1.679688 8.917969-2.691406 17.957031-3.035156 27.023438h-53.421876c1.636719-55.871094 22.714844-108.59375 59.964844-150.15625zm-6.183594 170.5625c1.097657 15.277343 4.117188 30.417969 9 44.9375 5.296876 15.757812 12.789063 30.761719 22.179688 44.480469 4.796875 7.003906 10.082031 13.671874 15.800781 19.945312l-37.78125 37.78125c-37.644531-40.433594-59.625-92.019531-62.691406-147.144531zm191.175782 168.789062c15.910156-.792969 31.707031-3.667969 46.867187-8.558593 15.15625-4.890626 29.652344-11.796876 43.003907-20.476563 7.082031-4.601563 13.84375-9.695313 20.222656-15.230469l37.820312 37.820313c-41.003906 36.753906-92.875 57.761719-147.914062 59.886719zm172.96875-189.191406c-.59375-15.738281-3.210938-31.398437-7.8125-46.460937-4.929688-16.125-12.132813-31.539063-21.324219-45.675782-4.835937-7.4375-10.222656-14.523437-16.085937-21.183594l37.8125-37.808593c37.796874 41.699219 59.183593 94.777343 60.832031 151.125h-53.421875zm0 0"/><path d="m246.492188 195.21875c0-4.769531-5.625-6.058594-9.445313-6.058594-3.820313-.003906-9.441406 1.292969-9.441406 6.058594v85.523438c0 8.316406-2.46875 17.121093-10.605469 20.855468-7.785156 3.578125-20.101562 3.167969-26.613281-2.820312-6.117188-5.625-6.53125-14.96875-6.515625-23.273438.042968-26.003906.082031-52.007812.125-78.007812.003906-1.664063-.015625-3.414063-.832032-4.863282-1.679687-2.976562-5.753906-3.335937-9.171874-3.253906-3.320313.078125-7.351563.714844-8.566407 3.808594-.398437 1.011719-.402343 2.125-.398437 3.210938.03125 26.167968.066406 52.335937.101562 78.503906.015625 11.078125.308594 23.019531 6.980469 31.859375 10.082031 13.355469 31.003906 15.828125 46.246094 12.40625 7.761719-1.746094 15.390625-5.609375 20.457031-11.890625 5.972656-7.40625 7.679688-17.257813 7.679688-26.535156zm0 0"/><path d="m292.816406 254.195312s-30.710937 52.546876-30.824218 52.738282c-5.484376 9.382812 11.863281 17.707031 17.105468 8.734375l26.011719-47.398438s26.210937 47.105469 26.371094 47.394531c5.191406 9.332032 22.46875.746094 16.929687-8.730468 0 0-30.824218-52.738282-30.824218-52.738282s29.882812-52.300781 29.933593-52.386718c6.050781-10.589844-11.796875-18.199219-17.464843-7.839844 0 0-24.945313 45.613281-24.945313 45.613281s-24.515625-45.480469-24.585937-45.613281c-5.523438-10.246094-23.882813-3.050781-17.640626 7.839844zm0 0"/><path d="m177.539062 101.847656c2.085938 5.160156 8.296876 7.722656 13.425782 5.570313 5.269531-2.210938 7.476562-8.394531 5.351562-13.558594-2.121094-5.253906-8.507812-7.8125-13.667968-5.464844-5.101563 2.316407-7.195313 8.375-5.109376 13.453125zm0 0"/><path d="m491.984375 347.894531c-2.085937-5.152343-8.128906-7.714843-13.285156-5.632812-5.15625 2.085937-7.71875 8.128906-5.632813 13.285156l.136719.339844c2.207031 5.457031 8.792969 7.933593 14.058594 5.28125 4.679687-2.359375 6.820312-8.082031 4.859375-12.933594zm0 0"/></svg>