<?xml version="1.0" encoding="iso-8859-1"?>
<!-- Generator: Adobe Illustrator 19.0.0, SVG Export Plug-In . SVG Version: 6.00 Build 0)  -->
<svg xmlns="http://www.w3.org/2000/svg" xmlns:xlink="http://www.w3.org/1999/xlink" version="1.1" id="Capa_1" x="0px" y="0px" viewBox="0 0 512 512" style="enable-background:new 0 0 512 512;" xml:space="preserve" width="512px" height="512px">
<g>
	<g>
		<path d="M415.24,343.948c-8.928-6.149-14.258-16.294-14.258-27.135v-24.483h-15.208v24.483c0,15.845,7.789,30.67,20.838,39.658    c15.52,10.693,24.786,28.327,24.786,47.173v18.122h-93.229H140.373H51.2v-18.121c0-18.846,9.266-36.48,24.786-47.172    c13.048-8.989,20.838-23.815,20.838-39.659V192.127c0-71.15,52.997-132.593,123.276-142.924l6.498-0.954V27.881    c0-6.989,5.685-12.673,12.673-12.673c6.989,0,12.673,5.685,12.673,12.673V47.89l6.701,0.802    c29.458,3.523,56.762,15.884,78.962,35.749l10.141-11.333c-22.846-20.443-50.588-33.698-80.596-38.572v-6.654    C267.152,12.508,254.645,0,239.271,0S211.39,12.508,211.39,27.881v7.371c-35.004,6.645-66.955,24.963-90.548,52.05    c-25.296,29.04-39.226,66.268-39.226,104.825v124.687c0,10.84-5.33,20.985-14.258,27.136    c-19.641,13.531-31.366,35.847-31.366,59.696v33.329h107.343C154.144,480.809,193.5,512,239.271,512s85.127-31.191,95.937-75.026    h111.398v-33.329C446.606,379.797,434.881,357.48,415.24,343.948z M239.271,496.792c-37.449,0-69.841-24.664-80.211-59.818    h160.421C309.112,472.128,276.72,496.792,239.271,496.792z" fill="#5e5e5e"/>
	</g>
</g>
<g>
	<g>
		<path d="M387.295,92.261c-48.917,0-88.713,39.796-88.713,88.713c0,48.917,39.796,88.713,88.713,88.713    c48.917,0,88.713-39.796,88.713-88.713C476.008,132.057,436.212,92.261,387.295,92.261z M387.295,254.479    c-40.531,0-73.505-32.974-73.505-73.505c0-40.531,32.974-73.505,73.505-73.505s73.505,32.974,73.505,73.505    C460.8,221.505,427.826,254.479,387.295,254.479z" fill="#5e5e5e"/>
	</g>
</g>
<g>
	<g>
		<rect x="382.733" y="140.42" width="15.208" height="58.804" fill="#5e5e5e"/>
	</g>
</g>
<g>
	<g>
		<rect x="382.733" y="209.362" width="15.208" height="15.208" fill="#5e5e5e"/>
	</g>
</g>
<g>
	<g>
		<rect x="260.562" y="173.37" width="15.208" height="15.208" fill="#5e5e5e"/>
	</g>
</g>
<g>
	<g>
		<rect x="199.731" y="173.37" width="15.208" height="15.208" fill="#5e5e5e"/>
	</g>
</g>
<g>
	<g>
		<rect x="230.147" y="173.37" width="15.208" height="15.208" fill="#5e5e5e"/>
	</g>
</g>
<g>
</g>
<g>
</g>
<g>
</g>
<g>
</g>
<g>
</g>
<g>
</g>
<g>
</g>
<g>
</g>
<g>
</g>
<g>
</g>
<g>
</g>
<g>
</g>
<g>
</g>
<g>
</g>
<g>
</g>
</svg>
