<?xml version="1.0" encoding="utf-8"?>
<!-- Generator: Adobe Illustrator 21.1.0, SVG Export Plug-In . SVG Version: 6.00 Build 0)  -->
<svg version="1.1" id="Layer_1" xmlns="http://www.w3.org/2000/svg" xmlns:xlink="http://www.w3.org/1999/xlink" x="0px" y="0px"
	 viewBox="0 0 504.1 504.1" style="enable-background:new 0 0 504.1 504.1;" xml:space="preserve">
<style type="text/css">
	.st0{fill:#324A5E;}
	.st1{fill:#FFFFFF;}
	.st2{fill:#E6E9EE;}
	.st3{fill:#F1543F;}
	.st4{fill:#4CDBC4;}
	.st5{fill:#ACB3BA;}
</style>
<circle class="st0" cx="252.1" cy="252.1" r="252.1"/>
<path class="st1" d="M413,365.7H45.6v-93.6h367.9c26.1,0,46.8,20.7,46.8,46.8l0,0C459.7,345,439,365.7,413,365.7z"/>
<g>
	<path class="st2" d="M237,289.2h212.1c-0.5-1.1-1.6-1.6-2.7-2.7H237h209.5c-1.1-1.1-1.6-1.6-2.7-2.7H237V289.2z"/>
	<path class="st2" d="M237,299.8h218.5c-0.5-1.1-1.1-1.6-1.1-2.7H237h217.5c-0.5-1.1-1.1-1.6-1.6-2.7H237V299.8z"/>
	<path class="st2" d="M237,311h222.2c0-1.1-0.5-1.6-0.5-2.7H237h221.2c0-1.1-0.5-1.6-0.5-2.7H237V311z"/>
	<path class="st2" d="M237,321.6h222.8c0-1.1,0-1.6,0-2.7l0,0H237h222.8c0-1.1,0-1.6,0-2.7H237V321.6z"/>
	<path class="st2" d="M237,332.2h220.7c0-1.1,0.5-1.6,0.5-2.7H237h221.2c0-1.1,0.5-1.6,0.5-2.7H237V332.2z"/>
	<path class="st2" d="M237,343.4h215.9c0.5-1.1,1.1-1.6,1.6-2.7H237h217.5c0.5-1.1,1.1-1.6,1.1-2.7H237V343.4z"/>
	<path class="st2" d="M237,354h206.8c1.1-1.1,2.1-1.6,2.7-2.7H237h209.5c1.1-1.1,1.6-1.6,2.7-2.7H237V354z"/>
</g>
<path class="st3" d="M39.7,359.9H413c22.9,0,41.5-18.6,41.5-40.9c0-22.3-18.6-40.9-41.5-40.9H39.7v-10.6H413
	c28.7,0,52.1,22.9,52.1,51.6c0,28.7-23.4,51.6-52.1,51.6H39.7V359.9z"/>
<path class="st2" d="M465.1,162.6c-0.5-2.1-1.6-3.7,0-5.3H90.8c-25.5,0-46.3,20.7-46.3,46.3s20.7,46.3,46.3,46.3h374.8
	c-1.6-1.6-1.1-2.7,0-5.3C447.5,220,447.5,187.1,465.1,162.6z"/>
<path class="st4" d="M465.1,244.5H92.3c-22.9,0-41.5-18.6-41.5-40.9c0-22.3,18.6-40.9,41.5-40.9h373.2V152H92.3
	c-28.7,0-52.1,22.9-52.1,51.6s23.4,51.6,52.1,51.6h373.2v-10.6H465.1z"/>
<g>
	<path class="st5" d="M229,173.8v12.8h225.4c1.1-4.3,2.7-8.5,4.8-12.8L229,173.8L229,173.8z"/>
	<path class="st5" d="M274.2,209.9h178.1c-0.5-4.3-0.5-8.5,0-12.8H274.2V209.9z"/>
	<path class="st5" d="M189.6,233.3h269.6c-2.1-4.3-3.2-8.5-4.8-12.8H189.6V233.3z"/>
</g>
</svg>
