<?xml version="1.0" encoding="iso-8859-1"?>
<!-- Generator: Adobe Illustrator 19.0.0, SVG Export Plug-In . SVG Version: 6.00 Build 0)  -->
<svg version="1.1" id="Layer_1" xmlns="http://www.w3.org/2000/svg" xmlns:xlink="http://www.w3.org/1999/xlink" x="0px" y="0px"
	 viewBox="0 0 509.287 509.287" style="enable-background:new 0 0 509.287 509.287;" xml:space="preserve">
<circle style="fill:#4B5AA7;" cx="254.644" cy="254.644" r="254.644"/>
<path style="fill:#0090FF;" d="M36.62,120.71c0-29.838,24.074-53.913,53.913-53.913h395.02V53.913H90.532
	c-36.959-0.339-66.797,29.499-66.797,66.797c0,36.959,30.177,67.136,67.136,67.136h395.02v-12.885H90.532
	C61.033,174.623,36.62,150.209,36.62,120.71z"/>
<path style="fill:#F1F3F7;" d="M90.532,66.458c-30.177,0-54.252,24.074-53.913,53.913c-0.339,29.838,23.735,53.913,53.913,53.913
	c131.56,0,254.644,0,386.204,0c-21.023-32.89-21.023-74.935,0-108.164C345.176,66.458,222.432,66.458,90.532,66.458z"/>
<g>
	<path style="fill:#DEDEDF;" d="M475.041,174.623c0.678,0,1.356,0,2.034,0c-2.373-3.73-4.408-7.46-6.103-11.528
		C471.989,166.824,473.346,170.893,475.041,174.623z"/>
	<path style="fill:#DEDEDF;" d="M41.706,133.595c-0.339-29.838,23.735-53.913,53.913-53.913c127.491,0,247.184,0,374.336,0
		c2.034-4.408,4.408-8.816,7.121-12.885c-131.56,0-254.644,0-386.204,0c-30.177,0-54.252,24.074-53.913,53.913
		c0,9.494,2.374,18.31,6.442,26.109C42.384,142.411,41.706,138.003,41.706,133.595z"/>
</g>
<path style="fill:#73D658;" d="M472.668,254.644c0,29.838-24.074,53.913-53.913,53.913H23.735v12.885h395.02
	c36.959,0,67.136-30.177,67.136-67.136s-30.177-67.136-67.136-67.136H23.735v12.885h395.02
	C448.254,200.731,472.668,224.805,472.668,254.644z"/>
<path style="fill:#F1F3F7;" d="M418.755,308.556c30.177,0,54.252-24.074,53.913-53.913c0.339-29.838-23.735-53.913-53.913-53.913
	c-131.56,0-254.644,0-386.204,0c21.023,32.89,21.023,74.935,0,108.164C164.111,308.556,286.856,308.556,418.755,308.556z"/>
<path style="fill:#DEDEDF;" d="M409.939,213.616c30.177,0,54.252,24.074,53.913,53.913c0,8.477-1.695,16.276-5.086,23.057
	c8.816-9.494,13.902-22.379,13.902-36.281c0.339-29.838-23.735-53.913-53.913-53.913c-131.56,0-254.644,0-386.204,0
	c2.713,4.069,5.086,8.477,7.121,12.885C165.128,213.616,283.465,213.616,409.939,213.616z"/>
<path style="fill:#F0582F;" d="M36.62,388.577c0-29.838,24.074-53.913,53.913-53.913h395.02V321.78H90.532
	c-36.959,0-67.136,30.177-67.136,67.136s30.177,67.136,67.136,67.136h395.02v-12.885H90.532
	C61.033,442.829,36.62,418.416,36.62,388.577z"/>
<path style="fill:#F1F3F7;" d="M90.532,334.665c-30.177,0-54.252,24.074-53.913,53.913c-0.339,29.838,23.735,53.913,53.913,53.913
	c131.56,0,254.644,0,386.204,0c-21.023-32.89-21.023-74.935,0-108.164C345.176,334.665,222.432,334.665,90.532,334.665z"/>
<path style="fill:#DEDEDF;" d="M45.436,401.801c-0.339-29.838,23.735-53.913,53.913-53.913c126.474,0,244.811,0,370.607,0
	c2.034-4.408,4.408-8.816,7.121-12.885c-131.56,0-254.644,0-386.204,0c-30.177,0-54.252,24.074-53.913,53.913
	c0,13.902,5.086,26.787,13.902,36.281C47.131,418.077,45.436,409.939,45.436,401.801z"/>
<g>
</g>
<g>
</g>
<g>
</g>
<g>
</g>
<g>
</g>
<g>
</g>
<g>
</g>
<g>
</g>
<g>
</g>
<g>
</g>
<g>
</g>
<g>
</g>
<g>
</g>
<g>
</g>
<g>
</g>
</svg>
