<?xml version="1.0" encoding="utf-8"?>
<!-- Generator: Adobe Illustrator 21.1.0, SVG Export Plug-In . SVG Version: 6.00 Build 0)  -->
<svg version="1.1" id="Capa_1" xmlns="http://www.w3.org/2000/svg" xmlns:xlink="http://www.w3.org/1999/xlink" x="0px" y="0px"
	 viewBox="0 0 512 512" style="enable-background:new 0 0 512 512;" xml:space="preserve">
<style type="text/css">
	.st0{fill:#050577;}
	.st1{fill:#D388BD;}
	.st2{fill:#C476B2;}
	.st3{fill:#AD609F;}
	.st4{fill:#EF6E4B;}
	.st5{fill:#DB5B3E;}
	.st6{fill:#BC432F;}
	.st7{fill:#46BEE8;}
	.st8{fill:#35B2D3;}
	.st9{fill:#047FA0;}
	.st10{fill:#EFD873;}
	.st11{fill:#E0C865;}
	.st12{fill:#CCB65C;}
	.st13{fill:#BA7052;}
	.st14{fill:#A35D45;}
</style>
<circle class="st0" cx="256" cy="256" r="256"/>
<path class="st1" d="M391.1,132.7H466c12.4,0,22.5,10.1,22.5,22.5v215.7c0,12.4-10.1,22.5-22.5,22.5h-74.9
	c-12.4,0-22.5-10.1-22.5-22.5V155.2C368.6,142.8,378.6,132.7,391.1,132.7z"/>
<path class="st2" d="M387.7,370.9V155.2c0-12.4,10.1-22.5,22.5-22.5h-19.2c-12.4,0-22.5,10.1-22.5,22.5v215.7
	c0,12.4,10.1,22.5,22.5,22.5h19.2C397.8,393.4,387.7,383.4,387.7,370.9z"/>
<g>
	<rect x="368.6" y="164.7" class="st3" width="120" height="15.7"/>
	<rect x="368.6" y="345.7" class="st3" width="120" height="15.7"/>
	<path class="st3" d="M454.7,217.8h-52.2c-4.3,0-7.8-3.5-7.8-7.8s3.5-7.8,7.8-7.8h52.2c4.3,0,7.8,3.5,7.8,7.8S459,217.8,454.7,217.8
		z"/>
</g>
<path class="st4" d="M61.2,133.7h41.6c12.4,0,22.5,10.1,22.5,22.5v214.7c0,12.4-10.1,22.5-22.5,22.5H61.2
	c-12.4,0-22.5-10.1-22.5-22.5V156.2C38.7,143.8,48.8,133.7,61.2,133.7z"/>
<path class="st5" d="M62,369.2V157.9c0-13.4,10.8-24.2,24.2-24.2H62.9c-13.4,0-24.2,10.8-24.2,24.2v211.3
	c0,13.4,10.8,24.2,24.2,24.2h23.3C72.8,393.4,62,382.6,62,369.2z"/>
<path class="st6" d="M82,325c-4.7,0-8.4-3.8-8.4-8.4V210.5c0-4.7,3.8-8.4,8.4-8.4s8.4,3.8,8.4,8.4v106.1C90.5,321.3,86.7,325,82,325
	z"/>
<path class="st7" d="M159.1,1.5h35.6c12.4,0,22.5,10.1,22.5,22.5v346.4c0,12.4-10.1,22.5-22.5,22.5h-35.6
	c-12.4,0-22.5-10.1-22.5-22.5V24.1C136.6,11.6,146.7,1.5,159.1,1.5z"/>
<path class="st8" d="M155.8,370.4V24.1c0-12.4,10.1-22.5,22.5-22.5h-19.2c-12.4,0-22.5,10.1-22.5,22.5v346.4
	c0,12.4,10.1,22.5,22.5,22.5h19.2C165.9,393,155.8,382.9,155.8,370.4z"/>
<g>
	<path class="st9" d="M190.3,53h-26.8c-4.3,0-7.8-3.5-7.8-7.8s3.5-7.8,7.8-7.8h26.8c4.3,0,7.8,3.5,7.8,7.8S194.6,53,190.3,53z"/>
	<path class="st9" d="M190.3,80.1h-26.8c-4.3,0-7.8-3.5-7.8-7.8s3.5-7.8,7.8-7.8h26.8c4.3,0,7.8,3.5,7.8,7.8S194.6,80.1,190.3,80.1z
		"/>
	<path class="st9" d="M190.3,107.1h-26.8c-4.3,0-7.8-3.5-7.8-7.8s3.5-7.8,7.8-7.8h26.8c4.3,0,7.8,3.5,7.8,7.8
		S194.6,107.1,190.3,107.1z"/>
</g>
<path class="st10" d="M334.3,54.8l34.4,9.1c12,3.2,19.2,15.5,16,27.5l-75.2,285.3c-3.2,12-15.5,19.2-27.5,16l-34.4-9.1
	c-12-3.2-19.2-15.5-16-27.5l75.2-285.3C309.9,58.8,322.3,51.6,334.3,54.8z"/>
<path class="st11" d="M250.1,361l75.2-285.3c3.2-12,15.5-19.2,27.5-16l-18.5-4.9c-12-3.2-24.4,4-27.5,16l-75.2,285.3
	c-3.2,12,4,24.4,16,27.5l18.5,4.9C254.1,385.3,246.9,373,250.1,361z"/>
<g>
	<path class="st12" d="M353.3,112.8c-0.7,0-1.3-0.1-2-0.3l-25.9-6.8c-4.2-1.1-6.7-5.4-5.6-9.6c1.1-4.2,5.4-6.7,9.6-5.6l25.9,6.8
		c4.2,1.1,6.7,5.4,5.6,9.6C360,110.5,356.8,112.8,353.3,112.8z"/>
	<path class="st12" d="M346.4,138.9c-0.7,0-1.3-0.1-2-0.3l-25.9-6.8c-4.2-1.1-6.7-5.4-5.6-9.6c1.1-4.2,5.4-6.7,9.6-5.6l25.9,6.8
		c4.2,1.1,6.7,5.4,5.6,9.6C353.1,136.6,349.9,138.9,346.4,138.9z"/>
</g>
<g>
	<path class="st13" d="M94.5,442.5v52.3c0,8.6-7,15.6-15.6,15.6H66.3c-8.6,0-15.6-7-15.6-15.6v-52.3H94.5z"/>
	<path class="st13" d="M463.4,442.5v52.3c0,8.6-7,15.6-15.6,15.6h-12.6c-8.6,0-15.6-7-15.6-15.6v-52.3H463.4z"/>
</g>
<g>
	<rect x="50.6" y="442.5" class="st14" width="43.9" height="23.1"/>
	<rect x="419.5" y="442.5" class="st14" width="43.9" height="23.1"/>
</g>
<path class="st13" d="M496.7,443.1H17.3c-9,0-16.3-7.3-16.3-16.3v-18.6c0-9,7.3-16.3,16.3-16.3h479.4c9,0,16.3,7.3,16.3,16.3v18.6
	C513,435.8,505.7,443.1,496.7,443.1z"/>
</svg>
