<?xml version="1.0" encoding="utf-8"?>
<!-- Generator: Adobe Illustrator 21.1.0, SVG Export Plug-In . SVG Version: 6.00 Build 0)  -->
<svg version="1.1" id="Capa_1" xmlns="http://www.w3.org/2000/svg" xmlns:xlink="http://www.w3.org/1999/xlink" x="0px" y="0px"
	 viewBox="0 0 512 512" style="enable-background:new 0 0 512 512;" xml:space="preserve">
<style type="text/css">
	.st0{fill:#669900;}
	.st1{fill:#FFD15C;}
	.st2{fill:#FDC794;}
	.st3{fill:#48A0DC;}
	.st4{fill:#E64C3C;}
	.st5{fill:#F9A671;}
</style>
<circle class="st0" cx="256" cy="256" r="256"/>
<path class="st1" d="M100.9,459.6c-7.8-5.9-15.2-12.3-22.2-19l6.2-95.3h8.6L100.9,459.6z"/>
<path class="st2" d="M464.4,338.9c5.6-4.2,6.4-12.7,2.1-18.4c-9.2-12-16.2-15.5-46.6,0.7l-61.4,37.4c-19.1,9.9-67.8,7.1-89,7.1
	c0,0,50.1,3.5,30.4-26.1c-9.9-14.8-26.8-23.3-45.2-23.3h-27.5c-16.2,0-31.8-4.9-44.5-14.1c-30.4-23.3-87.6,21.2-87.6,21.2v127.1
	h98.9c14.1,0,28.2-1.4,42.4-3.5l91.8-14.1c2.8,0,6.4-0.7,9.2-0.7l0,0c7.8-0.7,14.1-4.9,19.8-9.9L464.4,338.9z"/>
<polygon class="st3" points="59.8,471.6 95.1,471.6 95.1,302.2 59.8,302.2 "/>
<path class="st4" d="M278,107.2C288.6,83.9,311.9,62,339.4,62c37.4,0,65.7,29,69.2,65c0,0,2.1,9.2-2.1,25.4
	c-5.6,21.9-18.4,41.7-36,56.5l-89,77c-0.7,0.7-2.1,0.7-2.8,0l-89.7-77c-17.7-14.8-30.4-34.6-36-56.5c-4.2-16.2-2.1-25.4-2.1-25.4
	c3.5-36,29-65,66.4-65C244.8,62,268.1,83.9,278,107.2"/>
<g>
	<path class="st5" d="M269.5,372.8H201c-3.8,0-6.9-3-7.1-6.7c-0.2-4.4,2.7-7.4,7.1-7.4h68.5c3.8,0,6.9,3,7.1,6.7
		C276.7,369.8,273.9,372.8,269.5,372.8z"/>
	<path class="st5" d="M172.8,394c-3.9,0-7.1-3.3-7.1-7.2c0.1-17.5,13.3-28,35-28.1c4,0,7.4,3.1,7.4,7c0,4.3-2.8,7.1-7.1,7.1
		c-21.2,0-21.2,10.6-21.2,14.1C179.8,391.1,177,394,172.8,394z"/>
</g>
</svg>
