<?xml version="1.0" encoding="utf-8"?>
<!-- Generator: Adobe Illustrator 21.1.0, SVG Export Plug-In . SVG Version: 6.00 Build 0)  -->
<svg version="1.1" id="Capa_1" xmlns="http://www.w3.org/2000/svg" xmlns:xlink="http://www.w3.org/1999/xlink" x="0px" y="0px"
	 viewBox="0 0 512 512" style="enable-background:new 0 0 512 512;" xml:space="preserve">
<style type="text/css">
	.st0{fill:#CCCC33;}
	.st1{fill:#BAD8E8;}
	.st2{fill:#9EC6D8;}
	.st3{fill:#DD2234;}
	.st4{fill:#EF2235;}
	.st5{fill:#FC3842;}
	.st6{fill:#C6122C;}
</style>
<circle class="st0" cx="256" cy="256" r="256"/>
<g>
	<path class="st1" d="M293,503.3c-23.5-20.2-6.3-40.4,5.6-55c16.1-19.6,31.3-38.2,3.9-67.8c-22.3-24.1-25.8-45.8-24.8-59.8
		c1.1-15.4,7.5-24.9,8.2-25.9c2.5-3.5,7.4-4.4,10.9-1.9c3.5,2.5,4.4,7.3,1.9,10.8c-0.9,1.3-19,29.1,15.3,66.2
		c16.1,17.5,22.1,34.3,18.2,51.5c-3.3,14.5-13,26.3-21.5,36.8c-15.2,18.6-18,24.3-7.5,33.3c3.3,2.8,3.6,7.7,0.8,11
		C301.2,505.8,296.3,506.1,293,503.3z"/>
	<path class="st1" d="M210.4,505.2c-1.8,0-3.7-0.6-5.2-2c-47.3-41.7-26.9-78.4-4.1-109.6c18.6-25.4-2.8-50.5-3.7-51.6
		c-2.8-3.2-2.5-8.2,0.7-11c3.2-2.8,8.1-2.5,11,0.7c10.7,12.1,25.5,42.6,4.6,71.1c-22,29.9-35.8,55.5,1.8,88.6
		c3.2,2.9,3.5,7.8,0.7,11C214.8,504.3,212.6,505.2,210.4,505.2z"/>
</g>
<g>
	<path class="st2" d="M322,297.7c-1.8,5.6-7.8,8.6-13.4,6.8l-29.5-9.6c-5.6-1.8-8.6-7.8-6.8-13.4l1.9-5.9c1.8-5.6,7.8-8.6,13.4-6.8
		l29.5,9.6c5.6,1.8,8.6,7.8,6.8,13.4L322,297.7z"/>
	<path class="st2" d="M177.6,335.2c1.7,5.1,7.1,7.8,12.2,6.2l26.8-8.7c5.1-1.7,7.8-7.1,6.2-12.2l-1.7-5.4c-1.7-5.1-7.1-7.8-12.2-6.2
		l-26.8,8.7c-5.1,1.7-7.8,7.1-6.2,12.2L177.6,335.2z"/>
</g>
<path class="st3" d="M243.4,244.6l15.9-29c-4.7-8.6-13.8-57.9-18.1-65.6c-9.9-18.1-35.8-48.9-31.7-67.6
	c-26.7-0.6-52.9,13.3-66.6,38.3l-6.4,11.7l-12.1-5.7c-36.9-17.4-80.8-1.6-98.2,35.3c-17.4,36.9-1.6,80.8,35.3,98.2
	c6.1,2.9,115.7,54.5,121.3,57.1l25.2-8.2l23.9-43.7"/>
<path class="st4" d="M401.8,237.8c8.5-4,42.7-20.1,48.3-22.7c40.7-19.2,58.1-67.6,39-108.3c-19.2-40.7-67.7-58.1-108.3-39l-13.3,6.3
	l-7.1-12.9c-21.6-39.4-71-53.9-110.5-32.4c-39.4,21.6-53.9,71-32.3,110.5c3.6,6.6,67.7,123.8,71,129.8l27.8,9l62.1-29.2"/>
<path class="st5" d="M380.7,67.8l-13.3,6.3c-7.8-14.2-19.3-40.8-54.5-51.6c-62.7,74.9-39.1,190.3,50.5,233.5
	c8.2-3.8,78.5-37,86.7-40.8c40.7-19.2,58.1-67.6,39-108.3C469.9,66.1,421.4,48.6,380.7,67.8z"/>
<path class="st6" d="M61.2,127c-55.8,26.6-56,106.7,0.4,133.3c6.1,2.9,115.7,54.5,121.3,57.1l25.2-8.2c2.4-4.4,23.5-42.9,26-47.5
	C147.2,274.6,69.4,211.7,61.2,127z"/>
</svg>
