<?xml version="1.0" encoding="utf-8"?>
<!-- Generator: Adobe Illustrator 21.1.0, SVG Export Plug-In . SVG Version: 6.00 Build 0)  -->
<svg version="1.1" id="Capa_1" xmlns="http://www.w3.org/2000/svg" xmlns:xlink="http://www.w3.org/1999/xlink" x="0px" y="0px"
	 viewBox="0 0 512 512" style="enable-background:new 0 0 512 512;" xml:space="preserve">
<style type="text/css">
	.st0{fill:#CCCC66;}
	.st1{fill:#F2DFCE;}
	.st2{fill:#754C24;}
	.st3{fill:#D9415D;}
	.st4{fill:#E88D9E;}
	.st5{fill:#689BA6;}
</style>
<circle class="st0" cx="256" cy="256" r="256"/>
<path class="st1" d="M369.8,149.5h-8.7V97.5H152.9v52.1h-8.7c-14.4,0-26,11.7-26,26s11.7,26,26,26h10.1
	c7.5,43.6,41.7,77.8,85.3,85.3v18.9H283V285c39.7-10.3,69.7-43,76.7-83.4h10.1c14.4,0,26-11.7,26-26
	C395.8,161.2,384.2,149.5,369.8,149.5z"/>
<g>
	<path class="st2" d="M239.6,184.2h-17.4v-8.7c0-4.8-3.9-8.7-8.7-8.7s-8.7,3.9-8.7,8.7v8.7h-17.4v-8.7c0-14.4,11.7-26,26-26
		s26,11.7,26,26V184.2z"/>
	<path class="st2" d="M326.4,184.2h-17.4v-8.7c0-4.8-3.9-8.7-8.7-8.7s-8.7,3.9-8.7,8.7v8.7h-17.4v-8.7c0-14.4,11.7-26,26-26
		c14.4,0,26,11.7,26,26V184.2z"/>
</g>
<path class="st3" d="M231,210.3H283v8.7c0,14.4-11.7,26-26,26l0,0c-14.4,0-26-11.7-26-26V210.3z"/>
<path class="st2" d="M361.1,62.7c0-14.4-11.7-26-26-26c0-14.4-11.7-26-26-26h-8.7c-5.6,0-11.1,1.8-15.6,5.2
	c-11.5-15.3-33.3-18.4-48.6-6.9c-2.6,2-5,4.3-6.9,6.9c-4.5-3.4-10-5.2-15.6-5.2h-8.7c-14.4,0-26,11.7-26,26c-14.4,0-26,11.7-26,26
	c-14.4,0-26,11.7-26,26s11.7,26,26,26h208.3c14.4,0,26-11.7,26-26S375.5,62.7,361.1,62.7z"/>
<rect x="170.2" y="453.3" class="st4" width="173.6" height="60.7"/>
<g>
	<path class="st5" d="M505.1,310.8c-3.3-3.3-7.7-5.1-12.3-5.1H403c-4.6,0-9,1.8-12.3,5.1l-47,47v52.1h114.3
		c9.6,0,17.4-7.8,17.4-17.4s-7.8-17.4-17.4-17.4h17.4c9.6,0,17.4-7.8,17.4-17.4s-7.8-17.4-17.4-17.4h17.4c9.6,0,17.4-7.8,17.4-17.4
		C510.2,318.5,508.3,314.1,505.1,310.8z"/>
	<path class="st5" d="M111,305.7H21.2c-9.6,0-17.4,7.8-17.4,17.4s7.8,17.4,17.4,17.4h17.4c-9.6,0-17.4,7.8-17.4,17.4
		s7.8,17.4,17.4,17.4h17.4c-9.6,0-17.4,7.8-17.4,17.4s7.8,17.4,17.4,17.4h114.3v-52.1l-47-47C120,307.6,115.6,305.7,111,305.7z"/>
</g>
<path class="st3" d="M325.8,262.3h-8.7c-18.6-0.1-36.4,7.3-49.5,20.5L257,293.5l-10.6-10.6c-13.1-13.2-30.9-20.6-49.5-20.5h-8.7
	c-38.7,0-70,31.4-70,70c0,18.6,7.4,36.4,20.5,49.5L257,500.2l118.3-118.3c27.4-27.4,27.4-71.7,0-99.1
	C362.2,269.7,344.4,262.3,325.8,262.3z"/>
<g>
	<path class="st1" d="M109.5,409.9h104.1c14.4,0,26,11.7,26,26l0,0c0,14.4-11.7,26-26,26H109.5c-14.4,0-26-11.7-26-26l0,0
		C83.4,421.5,95.1,409.9,109.5,409.9z"/>
	<path class="st1" d="M300.4,409.9h104.1c14.4,0,26,11.7,26,26l0,0c0,14.4-11.7,26-26,26H300.4c-14.4,0-26-11.7-26-26l0,0
		C274.4,421.5,286,409.9,300.4,409.9z"/>
</g>
</svg>
