<svg height="512pt" viewBox="-20 0 512 512.001" width="512pt" xmlns="http://www.w3.org/2000/svg"><path d="m448.523438 153.800781c-13.648438-14.652343-31.921876-19.757812-48.523438-21.699219 1.035156-3.066406 1.601562-6.347656 1.601562-9.765624 0-16.664063-13.347656-30.226563-29.753906-30.226563-3.363281 0-9.632812.890625-25.859375 7.621094v-30.539063c0-7.488281-6.089843-13.574218-13.574219-13.574218h-25.511718c6.726562-16.226563 7.617187-22.496094 7.617187-25.863282 0-16.40625-13.558593-29.753906-30.226562-29.753906s-30.226563 13.347656-30.226563 29.753906c0 3.367188.890625 9.636719 7.617188 25.863282h-25.511719c-7.484375 0-13.574219 6.085937-13.574219 13.574218v27c0 4.359375 2.113282 8.484375 5.648438 11.039063 3.519531 2.542969 8.074218 3.246093 12.183594 1.882812 5.710937-1.890625 7.894531-2.039062 8.429687-2.039062 8.152344 0 14.789063 6.847656 14.789063 15.265625 0 8.414062-6.636719 15.257812-14.789063 15.257812-.535156 0-2.722656-.144531-8.429687-2.039062-4.109376-1.359375-8.664063-.65625-12.183594 1.886718-3.535156 2.550782-5.648438 6.679688-5.648438 11.039063v27c0 7.484375 6.089844 13.574219 13.574219 13.574219h25.511719c-6.726563 16.226562-7.617188 22.496094-7.617188 25.863281 0 16.40625 13.558594 29.753906 30.226563 29.753906s30.226562-13.351562 30.226562-29.753906c0-3.371094-.890625-9.636719-7.617187-25.863281h25.511718c7.484376 0 13.574219-6.089844 13.574219-13.574219v-30.539063c16.226563 6.730469 22.492188 7.617188 25.859375 7.617188 6.84375 0 13.148438-2.363281 18.179688-6.324219 36.066406 2.160157 67.828125 12.5625 67.828125 96.738281 0 50.328126-11.472657 108.605469-29.941407 152.085938-1.613281 3.800781.160157 8.195312 3.964844 9.808594.953125.40625 1.945313.597656 2.921875.597656 2.910157 0 5.679688-1.707031 6.890625-4.558594 19.199219-45.207031 31.128906-105.726562 31.128906-157.933594-.003906-42.464843-7.949218-71.636718-24.296874-89.175781zm-106.945313-27.082031c-2.316406-1.046875-5-.839844-7.132813.535156-2.136718 1.378906-3.421874 3.746094-3.421874 6.285156v40.554688h-35.527344c-2.539063 0-4.90625 1.289062-6.285156 3.421875-1.378907 2.132813-1.578126 4.820313-.535157 7.132813 10.355469 22.964843 10.878907 29.246093 10.878907 30.269531 0 8.15625-6.847657 14.792969-15.261719 14.792969-8.414063 0-15.261719-6.636719-15.261719-14.792969 0-1.023438.523438-7.300781 10.878906-30.269531 1.042969-2.3125.84375-5-.535156-7.132813-1.378906-2.136719-3.746094-3.421875-6.285156-3.421875h-35.527344v-23.738281c4.824219 1.5 8.445312 2.207031 11.296875 2.207031 16.40625 0 29.753906-13.558594 29.753906-30.226562 0-16.664063-13.347656-30.226563-29.753906-30.226563-2.847656 0-6.46875.707031-11.296875 2.210937v-23.738281h35.527344c2.539062 0 4.90625-1.289062 6.285156-3.421875 1.378906-2.132812 1.578125-4.820312.535156-7.136718-10.355468-22.964844-10.878906-29.242188-10.878906-30.269532 0-8.152344 6.847656-14.789062 15.261719-14.789062 8.414062 0 15.261719 6.636718 15.261719 14.789062 0 1.027344-.523438 7.304688-10.878907 30.269532-1.042969 2.316406-.84375 5.003906.535157 7.136718 1.378906 2.132813 3.746093 3.421875 6.285156 3.421875h35.527344v40.550781c0 2.542969 1.285156 4.90625 3.421874 6.285157 2.132813 1.378906 4.816407 1.582031 7.132813.535156 22.96875-10.351563 29.246094-10.878906 30.269531-10.878906 8.15625 0 14.792969 6.847656 14.792969 15.265625 0 8.414062-6.636719 15.257812-14.792969 15.257812-1.023437 0-7.304687-.523437-30.269531-10.878906zm0 0"/><path d="m422.671875 422.972656c-3.488281-2.21875-8.109375-1.191406-10.328125 2.296875-9.203125 14.46875-23.703125 31.71875-40.507812 31.71875-30.457032 0-63.558594-58.554687-78.710938-139.230469-.664062-3.535156-3.753906-6.101562-7.351562-6.101562h-98.730469c-3.597657 0-6.6875 2.566406-7.351563 6.101562-2.65625 14.136719-5.953125 27.894532-9.8125 41.035157l-33.75-14.089844c-5.101562-2.128906-10.921875-.976563-14.828125 2.929687-3.90625 3.910157-5.054687 9.726563-2.925781 14.828126l24.96875 59.808593c-10 16.53125-24.957031 34.71875-42.367188 34.71875-20.296874 0-41.855468-25.316406-59.144531-69.453125-16.824219-42.949218-26.867187-96.992187-26.867187-144.558594 0-42.203124 8.070312-69.390624 24.667968-83.121093 14.1875-11.730469 33.992188-14.085938 61.34375-14.085938 40.585938 0 72.433594 4.109375 82.582032 55.832031.6875 3.507813 3.765625 6.039063 7.34375 6.039063h33.777344c4.136718 0 7.484374-3.347656 7.484374-7.480469 0-4.132812-3.347656-7.480468-7.484374-7.480468h-27.753907c-6.054687-25.0625-17.75-41.910157-35.640625-51.40625-16.375-8.6875-35.949218-10.46875-60.304687-10.46875-53.214844 0-100.980469 8.578124-100.980469 112.171874 0 49.335938 10.429688 105.417969 27.902344 150.015626 19.941406 50.917968 45.894531 78.960937 73.074218 78.960937 17.28125 0 34.164063-11.34375 49.339844-32.980469l27 64.683594c2.070313 4.957031 6.691406 8.152344 12.058594 8.335938.164062.003906.328125.007812.492188.007812 5.167968 0 9.78125-2.835938 12.109374-7.492188l13.148438-26.238281 23.144531 23.144531c2.613281 2.609376 6.042969 3.917969 9.476563 3.917969 3.429687-.003906 6.863281-1.308593 9.476562-3.921875l17.855469-17.855468c2.535156-2.53125 3.929687-5.898438 3.929687-9.476563 0-3.582031-1.394531-6.945313-3.925781-9.480469l-23.144531-23.140625 26.238281-13.148437c4.800781-2.402344 7.667969-7.234375 7.484375-12.601563-.183594-5.367187-3.378906-9.988281-8.335937-12.058593l-93.550781-39.054688c3.636718-12.199219 6.800781-24.917969 9.433593-37.972656h86.402344c7.558594 37.453125 19.371094 71.792968 33.5 97.25 17.457031 31.453125 37.765625 48.082031 58.726563 48.082031 18.675781 0 37.050781-13.367187 53.132812-38.652344 2.222656-3.488281 1.191406-8.113281-2.296875-10.328125zm-159.273437 51.101563-15.652344 15.652343-25.554688-25.554687 5.222656-10.425781 10.425782-5.226563zm-27.550782-41.292969c-.003906.003906-.011718.007812-.019531.007812l-17.339844 8.691407c-1.445312.722656-2.617187 1.894531-3.339843 3.339843l-25.191407 50.273438-56.472656-135.277344 135.277344 56.472656zm0 0"/><path d="m371.835938 202.707031c-14.117188 0-25.601563 11.484375-25.601563 25.605469 0 14.117188 11.484375 25.601562 25.601563 25.601562 14.121093 0 25.605468-11.484374 25.605468-25.601562 0-14.121094-11.484375-25.605469-25.605468-25.605469zm0 36.242188c-5.867188 0-10.636719-4.773438-10.636719-10.636719 0-5.867188 4.773437-10.640625 10.636719-10.640625 5.867187 0 10.640624 4.773437 10.640624 10.640625s-4.773437 10.636719-10.640624 10.636719zm0 0"/><path d="m371.835938 285.933594c-14.117188 0-25.601563 11.488281-25.601563 25.605468 0 14.117188 11.484375 25.601563 25.601563 25.601563 14.121093 0 25.605468-11.484375 25.605468-25.601563 0-14.117187-11.484375-25.605468-25.605468-25.605468zm0 36.246094c-5.867188 0-10.636719-4.777344-10.636719-10.640626 0-5.867187 4.773437-10.640624 10.636719-10.640624 5.867187 0 10.640624 4.773437 10.640624 10.640624 0 5.863282-4.773437 10.640626-10.640624 10.640626zm0 0"/><path d="m439.054688 269.925781c0-14.121093-11.484376-25.605469-25.605469-25.605469-14.117188 0-25.601563 11.484376-25.601563 25.605469 0 14.117188 11.484375 25.601563 25.601563 25.601563 14.121093 0 25.605469-11.484375 25.605469-25.601563zm-36.246094 0c0-5.867187 4.777344-10.640625 10.640625-10.640625 5.867187 0 10.640625 4.773438 10.640625 10.640625 0 5.863281-4.773438 10.636719-10.640625 10.636719-5.863281.003906-10.640625-4.773438-10.640625-10.636719zm0 0"/><path d="m304.621094 269.925781c0 14.117188 11.484375 25.601563 25.601562 25.601563 14.117188 0 25.605469-11.484375 25.605469-25.601563 0-14.121093-11.488281-25.605469-25.605469-25.605469-14.117187 0-25.601562 11.484376-25.601562 25.605469zm36.242187 0c0 5.863281-4.773437 10.636719-10.640625 10.636719-5.863281 0-10.636718-4.773438-10.636718-10.636719 0-5.867187 4.773437-10.640625 10.636718-10.640625 5.867188 0 10.640625 4.773438 10.640625 10.640625zm0 0"/><path d="m148.070312 277.25c-3.804687 1.609375-5.585937 6-3.976562 9.804688 1.609375 3.808593 6.003906 5.585937 9.804688 3.980468 8.574218-3.628906 14.113281-11.984375 14.113281-21.296875 0-12.742187-10.371094-23.109375-23.113281-23.109375h-20.804688v-20.808594c0-12.746093-10.371094-23.113281-23.113281-23.113281-12.746094 0-23.113281 10.367188-23.113281 23.113281v20.808594h-20.808594c-12.746094 0-23.113282 10.367188-23.113282 23.109375 0 12.746094 10.371094 23.113281 23.113282 23.113281h20.808594v20.808594c0 12.746094 10.367187 23.113282 23.113281 23.113282 12.742187 0 23.113281-10.367188 23.113281-23.113282v-28.289062c0-4.132813-3.351562-7.480469-7.484375-7.480469s-7.480469 3.347656-7.480469 7.480469v28.289062c0 4.492188-3.65625 8.148438-8.148437 8.148438-4.492188 0-8.148438-3.65625-8.148438-8.148438v-28.289062c0-4.132813-3.351562-7.480469-7.484375-7.480469h-28.289062c-4.492188 0-8.148438-3.65625-8.148438-8.152344 0-4.492187 3.65625-8.144531 8.148438-8.144531h28.289062c4.132813 0 7.484375-3.351562 7.484375-7.484375v-28.289063c0-4.492187 3.65625-8.148437 8.148438-8.148437 4.492187 0 8.148437 3.65625 8.148437 8.148437v28.289063c0 4.132813 3.347656 7.484375 7.480469 7.484375h28.289063c4.492187 0 8.148437 3.652344 8.148437 8.144531 0 3.285157-1.953125 6.234375-4.976563 7.511719zm0 0"/></svg>