<?xml version="1.0" encoding="iso-8859-1"?>
<!-- Generator: Adobe Illustrator 16.0.0, SVG Export Plug-In . SVG Version: 6.00 Build 0)  -->
<!DOCTYPE svg PUBLIC "-//W3C//DTD SVG 1.1//EN" "http://www.w3.org/Graphics/SVG/1.1/DTD/svg11.dtd">
<svg version="1.1" id="Capa_1" xmlns="http://www.w3.org/2000/svg" xmlns:xlink="http://www.w3.org/1999/xlink" x="0px" y="0px"
	 width="31.999px" height="31.999px" viewBox="0 0 31.999 31.999" style="enable-background:new 0 0 31.999 31.999;"
	 xml:space="preserve">
<g>
	<g>
		<path d="M31.109,7.231c0,0,0.022,0.076,0.066,0.221c0.023,0.071,0.042,0.162,0.069,0.267c0.014,0.052,0.021,0.11,0.033,0.171
			c0.011,0.061,0.023,0.124,0.03,0.193c0.038,0.272,0.051,0.608,0,0.98c-0.008,0.047-0.014,0.094-0.021,0.142
			c-0.01,0.047-0.021,0.095-0.031,0.144c-0.018,0.098-0.052,0.194-0.077,0.296c-0.069,0.197-0.146,0.402-0.254,0.604
			c-0.212,0.404-0.516,0.801-0.892,1.166c-0.19,0.181-0.395,0.357-0.617,0.521c-0.225,0.162-0.459,0.32-0.71,0.463
			c-0.252,0.141-0.512,0.277-0.785,0.398c-0.136,0.06-0.273,0.118-0.415,0.173c-0.068,0.026-0.141,0.054-0.211,0.081
			c-0.069,0.025-0.141,0.05-0.212,0.075c-0.135,0.05-0.304,0.097-0.44,0.142c-0.154,0.047-0.31,0.094-0.462,0.145
			c-0.309,0.098-0.613,0.203-0.919,0.311c-0.609,0.221-1.214,0.457-1.799,0.712c-0.146,0.064-0.291,0.128-0.435,0.192
			c-0.145,0.066-0.286,0.133-0.428,0.199c-0.282,0.135-0.561,0.271-0.829,0.412c-0.539,0.28-1.051,0.573-1.522,0.87
			c-0.474,0.297-0.904,0.603-1.29,0.904c-0.387,0.3-0.72,0.601-0.997,0.886c-0.278,0.283-0.501,0.551-0.664,0.785
			c-0.083,0.114-0.149,0.224-0.207,0.317c-0.053,0.099-0.101,0.179-0.133,0.246c-0.063,0.138-0.096,0.211-0.096,0.211
			s0.046-0.065,0.132-0.19c0.043-0.062,0.104-0.133,0.168-0.218c0.033-0.042,0.075-0.084,0.115-0.131
			c0.041-0.046,0.081-0.099,0.131-0.146c0.188-0.205,0.441-0.43,0.738-0.672c0.3-0.242,0.654-0.494,1.053-0.752
			s0.844-0.515,1.323-0.772c0.479-0.258,0.994-0.513,1.532-0.764s1.103-0.496,1.682-0.732c0.578-0.234,1.17-0.464,1.768-0.677
			c0.301-0.106,0.599-0.212,0.898-0.31c0.149-0.049,0.3-0.098,0.449-0.146c0.163-0.056,0.299-0.097,0.46-0.158
			c0.62-0.225,1.195-0.508,1.728-0.842c0.265-0.169,0.515-0.35,0.746-0.542c0.232-0.193,0.447-0.399,0.642-0.613
			c0.193-0.215,0.364-0.44,0.513-0.67c0.147-0.229,0.266-0.467,0.364-0.7c0.097-0.233,0.163-0.468,0.214-0.692
			c0.017-0.113,0.041-0.223,0.048-0.331c0.006-0.055,0.011-0.107,0.016-0.16c0.002-0.052,0.003-0.104,0.004-0.155
			c0.012-0.407-0.056-0.756-0.135-1.03c-0.076-0.276-0.171-0.479-0.234-0.616C31.146,7.302,31.109,7.231,31.109,7.231z"/>
		<path d="M30.734,12.833c-0.246,0.327-0.562,0.641-0.934,0.92c-0.372,0.277-0.803,0.518-1.274,0.706
			c-0.237,0.096-0.483,0.176-0.737,0.248c-0.25,0.072-0.51,0.125-0.791,0.188c-0.552,0.122-1.11,0.258-1.666,0.412
			c-0.276,0.075-0.555,0.155-0.828,0.242c-0.137,0.043-0.272,0.085-0.409,0.128c-0.137,0.047-0.271,0.093-0.404,0.14
			c-0.538,0.182-1.06,0.391-1.559,0.604c-0.248,0.108-0.488,0.222-0.726,0.331c-0.233,0.12-0.463,0.229-0.682,0.35
			c-0.438,0.235-0.842,0.476-1.202,0.713c-0.366,0.231-0.688,0.463-0.968,0.674c-0.14,0.107-0.271,0.205-0.39,0.301
			c-0.117,0.097-0.224,0.188-0.319,0.268c-0.099,0.079-0.183,0.151-0.254,0.219c-0.072,0.064-0.134,0.121-0.185,0.166
			c-0.099,0.091-0.151,0.14-0.151,0.14s0.062-0.037,0.179-0.104c0.113-0.068,0.281-0.176,0.497-0.301
			c0.106-0.062,0.227-0.133,0.354-0.209c0.131-0.074,0.271-0.154,0.422-0.24c0.148-0.086,0.313-0.17,0.484-0.262
			c0.168-0.095,0.35-0.188,0.539-0.281c0.188-0.101,0.389-0.191,0.594-0.289c0.204-0.104,0.422-0.193,0.643-0.295
			c0.221-0.1,0.451-0.191,0.685-0.291c0.237-0.094,0.477-0.191,0.725-0.285c0.494-0.184,1.008-0.365,1.536-0.533
			c0.132-0.043,0.266-0.086,0.397-0.127c0.134-0.041,0.269-0.081,0.402-0.122c0.269-0.084,0.54-0.156,0.813-0.234
			c0.271-0.081,0.544-0.148,0.815-0.222c0.271-0.076,0.546-0.141,0.814-0.209c0.266-0.068,0.55-0.138,0.825-0.228
			c0.272-0.087,0.538-0.191,0.793-0.309c0.51-0.233,0.972-0.532,1.359-0.872c0.392-0.34,0.699-0.726,0.934-1.105
			c0.233-0.381,0.385-0.763,0.487-1.105c0.102-0.342,0.146-0.651,0.171-0.903c0.022-0.253,0.017-0.452,0.011-0.586
			c-0.008-0.135-0.021-0.206-0.021-0.206s-0.004,0.072-0.021,0.204c-0.016,0.133-0.05,0.325-0.108,0.565
			c-0.058,0.239-0.149,0.524-0.283,0.835C31.169,12.173,30.979,12.504,30.734,12.833z"/>
		<path d="M31.986,13.842l-0.134-1.472l-0.552,1.37c-0.119,0.297-0.298,0.578-0.521,0.83c-0.222,0.253-0.481,0.481-0.764,0.685
			c-0.143,0.102-0.287,0.198-0.438,0.287c-0.149,0.092-0.306,0.177-0.464,0.257c-0.315,0.161-0.646,0.297-0.979,0.421
			c-0.337,0.122-0.682,0.226-1.028,0.31c-0.175,0.041-0.352,0.08-0.527,0.111l-0.272,0.051l-0.28,0.056
			c-0.368,0.077-0.729,0.17-1.087,0.269c-0.359,0.1-0.716,0.203-1.07,0.313c-0.354,0.11-0.707,0.228-1.058,0.348
			c-0.352,0.122-0.7,0.245-1.046,0.38c-0.693,0.264-1.378,0.551-2.052,0.859c-0.337,0.156-0.67,0.318-0.998,0.49
			s-0.651,0.354-0.97,0.546c-0.317,0.188-0.627,0.397-0.923,0.62c-0.287,0.216-0.564,0.447-0.811,0.709
			c0.011-0.149,0.018-0.299,0.019-0.449c0.039-0.355,0.101-0.706,0.187-1.051c0.125-0.496,0.295-0.979,0.504-1.44
			c0.207-0.464,0.447-0.911,0.721-1.339c0.273-0.426,0.565-0.841,0.883-1.237s0.652-0.777,1.002-1.146
			c0.352-0.368,0.709-0.728,1.082-1.075c0.372-0.348,0.755-0.685,1.146-1.014c0.391-0.328,0.785-0.651,1.188-0.969
			c0.805-0.635,1.626-1.25,2.455-1.867c0.413-0.312,0.826-0.624,1.238-0.949c0.206-0.162,0.412-0.328,0.614-0.502
			c0.102-0.088,0.201-0.178,0.303-0.271c0.098-0.091,0.204-0.196,0.291-0.284c0.362-0.368,0.729-0.736,1.091-1.125
			c0.356-0.39,0.722-0.801,1.014-1.313c0.146-0.254,0.266-0.535,0.347-0.821c0.054-0.188,0.09-0.377,0.115-0.562
			c0.026,0.086,0.053,0.172,0.073,0.259c0.081,0.327,0.119,0.662,0.109,0.997c-0.012,0.334-0.072,0.668-0.173,0.994
			c-0.201,0.656-0.574,1.271-1.019,1.839c-0.446,0.57-0.97,1.093-1.526,1.582c-0.277,0.246-0.568,0.48-0.858,0.715
			c-0.292,0.233-0.591,0.461-0.895,0.685c-0.302,0.223-0.607,0.441-0.918,0.658l-0.931,0.648c-0.622,0.433-1.252,0.856-1.86,1.316
			c-0.304,0.23-0.605,0.464-0.891,0.721c-0.142,0.129-0.279,0.262-0.407,0.403s-0.248,0.293-0.34,0.46
			c0.229-0.305,0.527-0.539,0.83-0.761c0.307-0.22,0.623-0.425,0.945-0.621c0.32-0.197,0.647-0.387,0.975-0.579l0.982-0.572
			c0.327-0.191,0.655-0.381,0.979-0.581c0.325-0.198,0.648-0.399,0.97-0.607c0.321-0.207,0.641-0.42,0.954-0.641
			c0.314-0.22,0.622-0.453,0.925-0.694c0.603-0.484,1.182-1.01,1.697-1.612c0.26-0.3,0.499-0.622,0.709-0.969
			c0.211-0.346,0.395-0.717,0.528-1.109c0.136-0.394,0.221-0.811,0.244-1.233c0.022-0.422-0.017-0.849-0.108-1.258
			c-0.094-0.41-0.24-0.802-0.422-1.17c-0.181-0.369-0.396-0.715-0.63-1.041l-0.943-1.318l0.057,1.625
			c0.017,0.508,0.031,1.014-0.012,1.484c-0.021,0.235-0.057,0.46-0.116,0.67c-0.062,0.21-0.145,0.408-0.257,0.602
			c-0.223,0.387-0.542,0.761-0.881,1.13c-0.342,0.37-0.702,0.736-1.063,1.104c-0.094,0.096-0.17,0.172-0.262,0.257
			c-0.089,0.084-0.181,0.166-0.273,0.248c-0.188,0.164-0.381,0.325-0.578,0.485c-0.395,0.321-0.801,0.636-1.208,0.952l-1.221,0.961
			c-0.407,0.322-0.81,0.653-1.206,0.989c-0.398,0.336-0.793,0.679-1.176,1.035c-0.384,0.354-0.761,0.718-1.126,1.093
			c-0.364,0.376-0.723,0.76-1.061,1.163c-0.337,0.403-0.657,0.819-0.959,1.251c-0.301,0.432-0.58,0.88-0.824,1.348
			c-0.247,0.465-0.458,0.948-0.634,1.444c-0.173,0.496-0.295,1.011-0.373,1.526c-0.017,0.115-0.029,0.232-0.04,0.35
			c-0.011-0.115-0.023-0.232-0.04-0.35c-0.079-0.518-0.2-1.03-0.374-1.526c-0.175-0.496-0.387-0.979-0.633-1.444
			c-0.244-0.467-0.524-0.916-0.824-1.348c-0.302-0.432-0.623-0.848-0.96-1.251c-0.337-0.403-0.695-0.787-1.06-1.163
			c-0.365-0.375-0.742-0.738-1.126-1.093c-0.383-0.356-0.776-0.699-1.175-1.035s-0.8-0.667-1.207-0.989l-1.22-0.961
			c-0.407-0.316-0.813-0.63-1.208-0.952c-0.196-0.16-0.391-0.321-0.577-0.485C5.502,7.415,5.41,7.333,5.321,7.249
			C5.23,7.164,5.154,7.088,5.06,6.992C4.698,6.624,4.338,6.258,3.996,5.888c-0.34-0.369-0.659-0.743-0.881-1.13
			C3.003,4.565,2.92,4.366,2.859,4.156c-0.062-0.21-0.096-0.435-0.118-0.67c-0.042-0.471-0.027-0.977-0.01-1.483l0.056-1.626
			L1.844,1.692c-0.233,0.326-0.45,0.672-0.63,1.041c-0.182,0.368-0.329,0.76-0.422,1.17C0.698,4.313,0.66,4.739,0.684,5.161
			c0.022,0.423,0.108,0.84,0.243,1.233c0.136,0.393,0.317,0.764,0.529,1.11c0.21,0.347,0.449,0.669,0.708,0.969
			c0.517,0.603,1.097,1.128,1.699,1.612c0.302,0.241,0.608,0.475,0.924,0.694C5.101,11,5.42,11.213,5.74,11.42
			c0.322,0.208,0.646,0.409,0.97,0.607c0.325,0.2,0.654,0.39,0.981,0.581l0.982,0.572C9,13.373,9.327,13.563,9.648,13.76
			c0.322,0.196,0.639,0.401,0.944,0.621c0.304,0.222,0.602,0.456,0.83,0.761c-0.092-0.167-0.211-0.318-0.339-0.46
			s-0.267-0.274-0.408-0.403c-0.283-0.257-0.586-0.49-0.89-0.721c-0.608-0.46-1.238-0.884-1.86-1.316l-0.931-0.648
			c-0.31-0.217-0.616-0.436-0.919-0.658c-0.303-0.224-0.601-0.451-0.893-0.685c-0.289-0.235-0.579-0.47-0.858-0.716
			C3.768,9.046,3.243,8.523,2.798,7.953C2.354,7.385,1.98,6.771,1.78,6.114c-0.1-0.326-0.163-0.66-0.173-0.994
			C1.596,4.785,1.634,4.45,1.716,4.123C1.738,4.036,1.764,3.95,1.79,3.864c0.026,0.187,0.062,0.375,0.116,0.563
			c0.081,0.286,0.199,0.567,0.346,0.821C2.544,5.76,2.908,6.171,3.266,6.561c0.361,0.389,0.728,0.757,1.09,1.125
			C4.444,7.774,4.549,7.879,4.648,7.97c0.1,0.093,0.2,0.183,0.302,0.271c0.203,0.174,0.408,0.34,0.615,0.502
			C5.976,9.068,6.39,9.381,6.803,9.692c0.829,0.617,1.65,1.232,2.454,1.867c0.402,0.317,0.798,0.641,1.188,0.969
			c0.391,0.329,0.774,0.666,1.146,1.014c0.372,0.348,0.731,0.707,1.081,1.075c0.351,0.369,0.687,0.75,1.003,1.146
			c0.316,0.396,0.607,0.812,0.883,1.237c0.272,0.428,0.514,0.875,0.722,1.339c0.208,0.463,0.378,0.944,0.503,1.44
			c0.085,0.345,0.146,0.695,0.187,1.051c0.002,0.15,0.007,0.3,0.019,0.449c-0.246-0.262-0.523-0.493-0.811-0.709
			c-0.297-0.224-0.604-0.432-0.924-0.62c-0.316-0.191-0.64-0.374-0.969-0.546c-0.328-0.172-0.662-0.334-0.999-0.49
			c-0.673-0.311-1.357-0.596-2.051-0.86c-0.346-0.134-0.695-0.257-1.046-0.379c-0.351-0.121-0.703-0.235-1.057-0.348
			c-0.355-0.11-0.711-0.216-1.069-0.313c-0.359-0.099-0.721-0.191-1.089-0.269l-0.279-0.056l-0.273-0.051
			c-0.178-0.031-0.353-0.07-0.527-0.111c-0.349-0.084-0.693-0.188-1.029-0.31c-0.335-0.124-0.665-0.26-0.98-0.421
			c-0.158-0.08-0.313-0.165-0.463-0.257c-0.152-0.089-0.297-0.186-0.439-0.287c-0.281-0.203-0.541-0.432-0.764-0.685
			c-0.223-0.252-0.4-0.533-0.521-0.83l-0.552-1.37L0.013,13.84c-0.057,0.62,0.076,1.238,0.322,1.786
			c0.246,0.551,0.609,1.038,1.04,1.444c0.431,0.408,0.931,0.738,1.473,0.975c0.271,0.118,0.551,0.214,0.837,0.284
			c0.144,0.037,0.288,0.063,0.435,0.089l0.227,0.029l0.206,0.019l0.413,0.026c0.135,0.007,0.271,0.021,0.406,0.031
			c0.27,0.021,0.541,0.056,0.813,0.084C6.456,18.638,6.728,18.666,7,18.7l0.816,0.102c0.272,0.033,0.545,0.067,0.817,0.104
			l0.818,0.104l0.41,0.054l0.411,0.052c0.273,0.034,0.548,0.067,0.822,0.1c-0.261-0.09-0.525-0.174-0.79-0.252
			c-0.266-0.08-0.53-0.157-0.798-0.228c-0.267-0.072-0.533-0.146-0.802-0.211c-0.269-0.065-0.538-0.129-0.808-0.191
			c-0.135-0.033-0.271-0.061-0.405-0.088c-0.136-0.029-0.271-0.057-0.408-0.083c-0.271-0.056-0.544-0.106-0.816-0.156
			c-0.138-0.024-0.275-0.043-0.412-0.063C5.717,17.922,5.58,17.9,5.441,17.883c-0.138-0.017-0.276-0.039-0.416-0.053l-0.409-0.045
			l-0.205-0.022l-0.183-0.028c-0.124-0.021-0.251-0.047-0.374-0.08c-0.246-0.063-0.487-0.148-0.721-0.254
			c-0.465-0.211-0.896-0.496-1.264-0.849c-0.367-0.351-0.672-0.766-0.878-1.22c-0.002-0.003-0.004-0.007-0.005-0.011
			c0.192,0.178,0.396,0.338,0.609,0.484c0.321,0.22,0.659,0.409,1.008,0.569c0.35,0.161,0.705,0.3,1.069,0.412
			c0.364,0.112,0.733,0.202,1.105,0.274c0.187,0.035,0.372,0.067,0.561,0.092l0.136,0.021l0.137,0.021l0.264,0.047
			c0.714,0.133,1.428,0.309,2.136,0.501c0.706,0.194,1.409,0.409,2.105,0.644c0.698,0.231,1.388,0.484,2.068,0.764
			c0.679,0.278,1.353,0.576,2,0.924c0.324,0.173,0.642,0.357,0.949,0.56c0.299,0.197,0.587,0.41,0.853,0.653
			c0,0.002,0,0.005,0,0.007c-0.023-0.015-0.064-0.036-0.129-0.065c-0.052-0.021-0.114-0.053-0.191-0.078
			c-0.039-0.014-0.08-0.027-0.124-0.043c-0.046-0.013-0.093-0.024-0.144-0.039c-0.203-0.056-0.457-0.099-0.753-0.115
			c-0.074-0.01-0.15-0.004-0.229-0.006c-0.079,0.002-0.159,0.002-0.243,0.002c-0.165,0.012-0.339,0.033-0.521,0.055
			c-0.179,0.037-0.367,0.068-0.559,0.116c-0.095,0.026-0.19,0.057-0.287,0.087c-0.049,0.015-0.099,0.029-0.147,0.045
			c-0.048,0.016-0.099,0.029-0.147,0.052c-0.192,0.08-0.394,0.156-0.595,0.246c-0.195,0.099-0.394,0.204-0.596,0.31
			c-0.193,0.119-0.387,0.244-0.585,0.371c-0.101,0.06-0.192,0.131-0.287,0.203c-0.093,0.07-0.188,0.144-0.282,0.215
			c-0.094,0.072-0.191,0.144-0.282,0.22c-0.09,0.079-0.179,0.159-0.27,0.237l-0.268,0.24l-0.134,0.121l-0.128,0.116l-0.258,0.241
			l-0.256,0.223c-0.084,0.074-0.174,0.145-0.262,0.216c-0.089,0.07-0.175,0.146-0.266,0.21c-0.358,0.272-0.728,0.516-1.1,0.723
			c-0.372,0.205-0.747,0.379-1.114,0.507C5.46,25.826,5.1,25.915,4.764,25.966c-0.338,0.05-0.654,0.066-0.934,0.058
			c-0.28-0.013-0.525-0.041-0.726-0.08c-0.199-0.041-0.355-0.082-0.46-0.116s-0.16-0.058-0.16-0.058s0.048,0.035,0.146,0.09
			c0.097,0.056,0.243,0.133,0.44,0.205c0.196,0.073,0.442,0.149,0.734,0.199c0.29,0.053,0.625,0.081,0.991,0.065
			c0.366-0.015,0.763-0.067,1.17-0.177c0.406-0.106,0.826-0.26,1.236-0.461c0.411-0.2,0.819-0.442,1.205-0.727
			c0.1-0.066,0.192-0.143,0.288-0.215c0.096-0.072,0.19-0.146,0.282-0.229c0.093-0.078,0.186-0.158,0.278-0.237l0.26-0.239
			l0.133-0.123l0.128-0.117l0.255-0.23c0.085-0.078,0.169-0.155,0.253-0.232c0.086-0.074,0.176-0.145,0.264-0.215
			s0.176-0.143,0.264-0.212c0.086-0.071,0.172-0.144,0.264-0.203c0.182-0.127,0.359-0.252,0.535-0.375
			c0.184-0.108,0.365-0.216,0.541-0.324c0.181-0.1,0.362-0.184,0.537-0.272c0.179-0.083,0.358-0.145,0.528-0.219
			c0.172-0.062,0.345-0.109,0.508-0.164c0.165-0.039,0.326-0.072,0.48-0.105c0.076-0.011,0.152-0.021,0.226-0.032
			c0.073-0.009,0.146-0.024,0.215-0.024c0.279-0.02,0.526-0.022,0.729-0.002c0.051,0.004,0.098,0.01,0.144,0.014
			c0.045,0.007,0.087,0.013,0.126,0.02c0.079,0.01,0.145,0.026,0.199,0.037c0.067,0.018,0.116,0.03,0.142,0.038
			c0,0.002,0,0.005,0,0.007c0-0.002,0-0.004,0-0.007c0.002,0.001,0.004,0.001,0.005,0.002c-0.001,0.003-0.004,0.003-0.005,0.005
			c0.002-0.002,0.004-0.002,0.006-0.005c0.001,0,0.001,0,0.002,0.001c-0.004,0.002-0.008,0.004-0.008,0.004s0.004,0,0.011-0.002
			c0.007,0.002,0.011,0.002,0.011,0.002s-0.004-0.002-0.008-0.004C16,21.304,16,21.304,16.001,21.304
			c0.002,0.003,0.004,0.003,0.006,0.005c-0.002-0.002-0.004-0.002-0.005-0.005c0.001-0.001,0.002-0.001,0.004-0.002
			c0,0.003,0,0.005,0.001,0.007c0-0.002,0-0.005,0-0.007c0.025-0.008,0.073-0.021,0.142-0.038c0.054-0.011,0.12-0.027,0.199-0.037
			c0.039-0.007,0.081-0.013,0.126-0.02c0.045-0.004,0.093-0.01,0.144-0.014c0.202-0.021,0.449-0.018,0.729,0.002
			c0.069,0,0.142,0.017,0.216,0.024c0.072,0.011,0.147,0.021,0.226,0.032c0.153,0.033,0.314,0.066,0.48,0.105
			c0.164,0.055,0.335,0.102,0.508,0.164c0.17,0.074,0.351,0.136,0.527,0.219c0.175,0.09,0.356,0.174,0.537,0.272
			c0.176,0.108,0.356,0.216,0.54,0.324c0.177,0.123,0.354,0.248,0.535,0.375c0.093,0.06,0.18,0.132,0.266,0.203
			c0.088,0.069,0.176,0.142,0.264,0.212c0.087,0.07,0.178,0.141,0.264,0.215c0.084,0.077,0.168,0.154,0.253,0.232l0.255,0.23
			l0.128,0.117l0.134,0.123l0.26,0.239c0.092,0.079,0.185,0.159,0.277,0.237c0.093,0.082,0.188,0.155,0.282,0.229
			c0.096,0.072,0.188,0.148,0.288,0.215c0.386,0.283,0.793,0.525,1.204,0.727s0.83,0.354,1.237,0.461
			c0.406,0.108,0.804,0.162,1.169,0.177c0.366,0.016,0.702-0.015,0.993-0.065c0.29-0.05,0.536-0.126,0.732-0.199
			c0.197-0.072,0.344-0.149,0.44-0.205c0.097-0.055,0.145-0.09,0.145-0.09s-0.054,0.022-0.158,0.058
			c-0.104,0.034-0.262,0.075-0.461,0.116c-0.199,0.039-0.444,0.067-0.726,0.08c-0.28,0.01-0.596-0.008-0.934-0.058
			c-0.338-0.051-0.696-0.14-1.065-0.266c-0.368-0.128-0.742-0.302-1.114-0.507c-0.372-0.207-0.741-0.449-1.1-0.723
			c-0.092-0.064-0.178-0.14-0.267-0.21c-0.088-0.071-0.179-0.142-0.262-0.216l-0.257-0.223l-0.258-0.241l-0.127-0.116l-0.135-0.121
			l-0.269-0.24c-0.09-0.078-0.18-0.158-0.269-0.237c-0.092-0.076-0.189-0.146-0.282-0.22c-0.095-0.071-0.188-0.145-0.283-0.215
			c-0.094-0.072-0.187-0.145-0.287-0.203c-0.196-0.127-0.391-0.252-0.584-0.371c-0.203-0.104-0.399-0.211-0.597-0.31
			c-0.2-0.09-0.402-0.166-0.595-0.246c-0.047-0.021-0.098-0.036-0.146-0.052s-0.099-0.03-0.146-0.045
			c-0.099-0.03-0.193-0.061-0.288-0.087c-0.19-0.048-0.38-0.079-0.559-0.116c-0.182-0.021-0.354-0.043-0.521-0.055
			c-0.083,0-0.164,0-0.242-0.002c-0.079,0.002-0.154-0.004-0.229,0.006c-0.295,0.018-0.55,0.061-0.752,0.115
			c-0.051,0.015-0.099,0.026-0.144,0.039c-0.045,0.016-0.086,0.029-0.124,0.043c-0.077,0.025-0.141,0.057-0.191,0.078
			c-0.064,0.029-0.105,0.053-0.129,0.065c0-0.002,0-0.005,0-0.007c0.265-0.243,0.554-0.456,0.853-0.653
			c0.308-0.2,0.625-0.387,0.95-0.56c0.646-0.348,1.32-0.646,2-0.924s1.371-0.531,2.066-0.764c0.697-0.232,1.399-0.449,2.107-0.644
			c0.706-0.192,1.42-0.368,2.134-0.501l0.265-0.047l0.138-0.021l0.136-0.021c0.188-0.023,0.374-0.057,0.561-0.092
			c0.372-0.072,0.741-0.162,1.104-0.274c0.364-0.112,0.721-0.251,1.069-0.412c0.349-0.16,0.688-0.35,1.009-0.569
			c0.212-0.146,0.416-0.307,0.608-0.484c-0.002,0.004-0.003,0.008-0.005,0.011c-0.206,0.454-0.511,0.869-0.878,1.22
			c-0.368,0.353-0.799,0.638-1.265,0.849c-0.232,0.104-0.474,0.189-0.721,0.254c-0.123,0.033-0.25,0.059-0.373,0.08l-0.184,0.028
			l-0.206,0.022l-0.409,0.045c-0.14,0.014-0.276,0.036-0.416,0.053c-0.139,0.018-0.274,0.038-0.412,0.061
			c-0.139,0.021-0.275,0.039-0.412,0.063c-0.272,0.05-0.546,0.101-0.817,0.156c-0.137,0.026-0.271,0.054-0.407,0.083
			c-0.135,0.027-0.271,0.055-0.404,0.088c-0.271,0.062-0.539,0.126-0.809,0.191c-0.269,0.063-0.535,0.139-0.802,0.211
			c-0.268,0.07-0.533,0.146-0.798,0.228c-0.266,0.078-0.529,0.162-0.791,0.252c0.273-0.032,0.549-0.063,0.823-0.1l0.41-0.052
			l0.409-0.054l0.818-0.104c0.272-0.036,0.546-0.07,0.818-0.104L25,18.7c0.272-0.034,0.544-0.063,0.816-0.091
			c0.271-0.028,0.542-0.062,0.812-0.084c0.137-0.01,0.271-0.024,0.406-0.031l0.413-0.026l0.206-0.018l0.226-0.03
			c0.147-0.025,0.292-0.052,0.436-0.089c0.287-0.07,0.566-0.166,0.838-0.284c0.542-0.234,1.042-0.566,1.473-0.975
			c0.432-0.407,0.793-0.895,1.039-1.444C31.911,15.08,32.043,14.462,31.986,13.842z M16,21.166c0.002,0.039,0.007,0.078,0.009,0.117
			c-0.003,0.003-0.006,0.006-0.009,0.009c-0.003-0.003-0.007-0.006-0.01-0.009C15.993,21.244,15.997,21.205,16,21.166z
			 M15.99,21.291c0-0.002,0-0.004,0-0.006c0.003,0.003,0.006,0.005,0.009,0.008c-0.001,0.001-0.002,0.001-0.002,0.002
			C15.995,21.294,15.992,21.292,15.99,21.291z M16,21.297c0-0.001-0.002-0.001-0.002-0.002c0,0,0.001-0.001,0.002-0.001
			s0.001,0.001,0.002,0.001C16.002,21.296,16.001,21.296,16,21.297z M16.01,21.291c-0.003,0.001-0.006,0.003-0.008,0.004
			c0-0.001-0.001-0.001-0.001-0.002c0.003-0.003,0.005-0.005,0.009-0.008C16.01,21.287,16.01,21.289,16.01,21.291z"/>
		<path d="M30.298,17.577c-0.029,0.043-0.061,0.098-0.107,0.153c-0.051,0.057-0.101,0.125-0.17,0.188
			c-0.034,0.033-0.068,0.069-0.106,0.104c-0.04,0.033-0.082,0.068-0.126,0.105c-0.043,0.037-0.09,0.073-0.14,0.109
			c-0.05,0.035-0.102,0.074-0.153,0.111c-0.056,0.035-0.113,0.071-0.172,0.108c-0.029,0.019-0.059,0.037-0.09,0.058
			c-0.031,0.016-0.063,0.033-0.096,0.051c-0.065,0.033-0.132,0.07-0.197,0.107c-0.07,0.033-0.143,0.066-0.214,0.1
			c-0.036,0.019-0.073,0.035-0.11,0.053c-0.038,0.015-0.076,0.029-0.115,0.045c-0.078,0.029-0.156,0.061-0.236,0.091
			c-0.082,0.026-0.166,0.054-0.251,0.08s-0.171,0.058-0.261,0.076c-0.089,0.022-0.179,0.045-0.271,0.067
			c-0.09,0.023-0.186,0.036-0.279,0.056c-0.095,0.016-0.188,0.038-0.286,0.051c-0.098,0.013-0.194,0.024-0.295,0.037
			c-0.05,0.007-0.1,0.013-0.148,0.021c-0.05,0.002-0.1,0.006-0.148,0.008c-0.1,0.008-0.199,0.016-0.3,0.021l-0.076,0.005
			l-0.079,0.001l-0.162,0.001c-0.107,0.001-0.218,0.003-0.327,0.005c-0.215-0.004-0.431-0.008-0.647-0.011
			c-0.221-0.002-0.442-0.005-0.664-0.007c-0.446,0.002-0.89-0.003-1.332,0.016c-0.222,0.008-0.439,0.012-0.656,0.025
			c-0.218,0.018-0.432,0.031-0.643,0.051c-0.21,0.014-0.417,0.044-0.619,0.073c-0.201,0.03-0.398,0.055-0.59,0.088
			c-0.381,0.081-0.739,0.153-1.066,0.24c-0.326,0.091-0.622,0.183-0.884,0.263c-0.258,0.084-0.479,0.176-0.66,0.244
			s-0.324,0.129-0.422,0.167c-0.097,0.041-0.148,0.063-0.148,0.063s0.057-0.009,0.159-0.022c0.104-0.017,0.256-0.035,0.449-0.068
			c0.191-0.032,0.426-0.071,0.693-0.116c0.268-0.033,0.567-0.071,0.893-0.123c0.081-0.014,0.165-0.021,0.25-0.027
			c0.086-0.008,0.173-0.016,0.262-0.023c0.177-0.017,0.358-0.037,0.545-0.056c0.188-0.013,0.381-0.022,0.577-0.033
			c0.196-0.01,0.396-0.028,0.604-0.028c0.205-0.002,0.414-0.008,0.625-0.014c0.211-0.004,0.426,0.002,0.643,0
			c0.433-0.002,0.876,0.005,1.318,0.008c0.222,0,0.442,0,0.665,0c0.11,0,0.221,0,0.332,0c0.112-0.003,0.227-0.004,0.34-0.005
			c0.221-0.012,0.431-0.014,0.653-0.036c0.112-0.015,0.225-0.027,0.336-0.039c0.056-0.008,0.11-0.015,0.166-0.021
			c0.055-0.012,0.106-0.021,0.159-0.031c0.107-0.021,0.213-0.041,0.316-0.062c0.104-0.021,0.206-0.053,0.307-0.078
			c0.102-0.03,0.201-0.053,0.298-0.088c0.097-0.033,0.19-0.066,0.284-0.101c0.096-0.03,0.185-0.071,0.272-0.11
			c0.089-0.041,0.176-0.076,0.26-0.117c0.083-0.045,0.163-0.09,0.242-0.133c0.04-0.021,0.079-0.043,0.118-0.063
			c0.037-0.024,0.074-0.048,0.109-0.071c0.301-0.175,0.541-0.388,0.747-0.574c0.198-0.199,0.357-0.385,0.462-0.559
			c0.113-0.166,0.171-0.316,0.204-0.416c0.018-0.051,0.021-0.092,0.026-0.117c0.005-0.026,0.008-0.041,0.008-0.041
			s-0.006,0.014-0.019,0.037C30.339,17.496,30.324,17.533,30.298,17.577z"/>
		<path d="M28.158,20.363c-0.152,0.134-0.34,0.262-0.561,0.365c-0.438,0.215-1.011,0.306-1.62,0.25
			c-0.076-0.01-0.153-0.019-0.23-0.026c-0.075-0.013-0.15-0.024-0.228-0.036c-0.082-0.018-0.164-0.033-0.247-0.051
			c-0.08-0.019-0.161-0.035-0.242-0.053c-0.335-0.074-0.676-0.141-1.019-0.201c-0.344-0.06-0.688-0.114-1.026-0.157
			c-0.341-0.046-0.677-0.08-1.003-0.104c-0.652-0.052-1.269-0.058-1.793-0.021c-0.525,0.035-0.96,0.113-1.256,0.195
			c-0.148,0.039-0.263,0.082-0.338,0.108c-0.076,0.031-0.116,0.048-0.116,0.048s0.043-0.006,0.124-0.018
			c0.08-0.012,0.197-0.021,0.348-0.032c0.301-0.021,0.729-0.021,1.239,0.013c0.511,0.032,1.104,0.098,1.74,0.187
			c0.316,0.044,0.646,0.095,0.979,0.147c0.333,0.055,0.671,0.108,1.009,0.17c0.338,0.059,0.677,0.121,1.008,0.183
			c0.087,0.016,0.171,0.03,0.256,0.047c0.083,0.013,0.166,0.026,0.248,0.039c0.089,0.01,0.177,0.021,0.265,0.028
			c0.087,0.008,0.173,0.01,0.258,0.015c0.342,0.01,0.676-0.024,0.983-0.104c0.307-0.078,0.587-0.199,0.816-0.352
			c0.116-0.074,0.22-0.157,0.313-0.239c0.091-0.086,0.173-0.17,0.242-0.256c0.142-0.168,0.235-0.335,0.305-0.474
			s0.105-0.256,0.13-0.333c0.022-0.079,0.029-0.122,0.029-0.122s-0.02,0.04-0.059,0.109c-0.039,0.07-0.103,0.17-0.191,0.289
			C28.432,20.096,28.312,20.23,28.158,20.363z"/>
		<path d="M29.186,26.45c-0.112,0.167-0.266,0.358-0.45,0.562c-0.188,0.203-0.421,0.409-0.695,0.597
			c-0.139,0.091-0.287,0.179-0.449,0.248c-0.158,0.076-0.329,0.138-0.51,0.188c-0.358,0.092-0.753,0.13-1.158,0.094
			c-0.102-0.011-0.206-0.018-0.304-0.035c-0.05-0.009-0.1-0.017-0.148-0.023c-0.05-0.008-0.108-0.023-0.162-0.034
			c-0.056-0.013-0.109-0.024-0.165-0.037L25,27.965c-0.051-0.016-0.102-0.027-0.15-0.045l-0.146-0.059
			c-0.392-0.153-0.761-0.377-1.085-0.666c-0.329-0.284-0.621-0.62-0.89-0.975c-0.268-0.354-0.513-0.726-0.751-1.089
			c-0.237-0.364-0.475-0.719-0.711-1.05c-0.235-0.332-0.482-0.635-0.732-0.893c-0.249-0.263-0.508-0.474-0.752-0.637
			c-0.125-0.078-0.239-0.152-0.355-0.205c-0.11-0.061-0.221-0.099-0.316-0.139c-0.096-0.041-0.189-0.061-0.266-0.084
			c-0.077-0.023-0.145-0.033-0.198-0.044c-0.107-0.021-0.165-0.03-0.165-0.03s0.054,0.021,0.155,0.064
			c0.104,0.037,0.245,0.111,0.421,0.207c0.085,0.054,0.181,0.105,0.275,0.182c0.047,0.037,0.101,0.068,0.149,0.111
			c0.049,0.041,0.101,0.085,0.152,0.129c0.205,0.185,0.416,0.412,0.624,0.682c0.207,0.27,0.407,0.579,0.613,0.916
			c0.205,0.337,0.406,0.705,0.629,1.084c0.222,0.379,0.457,0.771,0.732,1.158c0.273,0.386,0.594,0.76,0.969,1.089
			c0.374,0.327,0.813,0.597,1.282,0.763l0.175,0.063c0.059,0.019,0.118,0.032,0.178,0.049l0.089,0.022l0.046,0.012l0.021,0.006
			l0.012,0.003l0.02,0.004c0.056,0.011,0.11,0.021,0.167,0.03c0.057,0.009,0.106,0.021,0.168,0.027
			c0.061,0.009,0.121,0.016,0.182,0.022c0.121,0.019,0.237,0.017,0.354,0.022c0.467,0.02,0.923-0.062,1.328-0.203
			c0.406-0.143,0.756-0.359,1.035-0.596c0.282-0.237,0.5-0.494,0.665-0.735c0.169-0.239,0.286-0.466,0.371-0.653
			c0.087-0.188,0.139-0.343,0.172-0.447c0.032-0.105,0.044-0.164,0.044-0.164s-0.023,0.055-0.077,0.149
			C29.381,26.146,29.297,26.282,29.186,26.45z"/>
		<path d="M25.218,29.248c-0.062,0.018-0.133,0.033-0.212,0.051c-0.157,0.03-0.353,0.055-0.567,0.043
			c-0.215-0.013-0.452-0.061-0.683-0.177c-0.059-0.026-0.114-0.062-0.172-0.095c-0.057-0.037-0.112-0.072-0.168-0.116
			c-0.109-0.084-0.218-0.183-0.317-0.292c-0.207-0.219-0.394-0.483-0.564-0.771c-0.085-0.146-0.166-0.298-0.246-0.453
			c-0.076-0.158-0.151-0.317-0.225-0.482c-0.073-0.166-0.14-0.333-0.207-0.503l-0.051-0.132l-0.026-0.065l-0.028-0.069
			c-0.038-0.096-0.081-0.188-0.125-0.277c-0.181-0.36-0.398-0.69-0.636-0.994c-0.235-0.305-0.487-0.583-0.742-0.84
			c-0.51-0.514-1.027-0.938-1.488-1.276c-0.46-0.339-0.861-0.594-1.148-0.762c-0.144-0.086-0.259-0.147-0.337-0.19
			c-0.078-0.042-0.121-0.062-0.121-0.062s0.139,0.128,0.383,0.354c0.242,0.227,0.586,0.547,0.988,0.939
			c0.399,0.394,0.858,0.857,1.312,1.38c0.229,0.262,0.451,0.537,0.661,0.826c0.209,0.29,0.406,0.592,0.561,0.907l0.058,0.117
			c0.019,0.04,0.034,0.08,0.052,0.119l0.025,0.061l0.027,0.064l0.053,0.131c0.071,0.18,0.149,0.356,0.231,0.528
			c0.161,0.347,0.349,0.678,0.557,0.983c0.209,0.306,0.442,0.586,0.708,0.813c0.262,0.229,0.556,0.406,0.853,0.5
			c0.295,0.099,0.585,0.109,0.827,0.08c0.244-0.028,0.441-0.103,0.597-0.168c0.078-0.034,0.146-0.065,0.203-0.101
			c0.058-0.031,0.104-0.059,0.143-0.084c0.074-0.049,0.114-0.074,0.114-0.074s-0.045,0.015-0.131,0.042
			C25.332,29.217,25.28,29.23,25.218,29.248z"/>
		<path d="M23.358,29.969c-0.06,0.006-0.123,0.018-0.197,0.018c-0.293,0.015-0.712-0.062-1.139-0.301
			c-0.213-0.121-0.43-0.273-0.629-0.467c-0.202-0.189-0.389-0.416-0.545-0.669c-0.078-0.127-0.146-0.261-0.207-0.399
			s-0.105-0.283-0.146-0.432l-0.024-0.111l-0.019-0.104c-0.013-0.065-0.02-0.172-0.03-0.243c-0.018-0.199-0.062-0.383-0.109-0.564
			c-0.107-0.357-0.249-0.691-0.407-1.008c-0.157-0.314-0.33-0.612-0.508-0.894c-0.354-0.56-0.726-1.051-1.058-1.457
			c-0.334-0.405-0.631-0.728-0.846-0.946c-0.104-0.111-0.194-0.193-0.253-0.25c-0.06-0.057-0.092-0.087-0.092-0.087
			s0.355,0.599,0.891,1.493c0.265,0.446,0.569,0.966,0.872,1.53c0.151,0.28,0.3,0.575,0.438,0.875
			c0.136,0.301,0.264,0.608,0.353,0.918c0.041,0.153,0.08,0.307,0.094,0.452c0.016,0.1,0.019,0.166,0.039,0.271
			c0.011,0.05,0.02,0.101,0.029,0.147l0.036,0.138c0.103,0.365,0.271,0.698,0.479,0.985s0.449,0.529,0.704,0.722
			c0.256,0.194,0.524,0.337,0.785,0.435c0.26,0.099,0.514,0.146,0.738,0.154c0.225,0.012,0.42-0.021,0.571-0.062
			c0.076-0.019,0.143-0.047,0.198-0.068c0.056-0.027,0.103-0.048,0.139-0.068c0.069-0.043,0.106-0.065,0.106-0.065
			s-0.042,0.011-0.121,0.032C23.465,29.95,23.415,29.958,23.358,29.969z"/>
		<path d="M21.026,30.266c-0.166-0.158-0.318-0.332-0.455-0.521c-0.137-0.188-0.259-0.391-0.371-0.602
			c-0.224-0.421-0.399-0.873-0.556-1.339c-0.153-0.466-0.287-0.942-0.417-1.426l-0.051-0.183l-0.024-0.09l-0.03-0.095
			c-0.044-0.125-0.078-0.255-0.129-0.375l-0.152-0.36l-0.171-0.347c-0.121-0.227-0.243-0.45-0.383-0.665
			c-0.131-0.219-0.274-0.427-0.418-0.637l-0.22-0.311c-0.075-0.103-0.152-0.2-0.229-0.301c-0.074-0.103-0.154-0.199-0.231-0.3
			c-0.078-0.099-0.157-0.196-0.238-0.294c-0.162-0.193-0.327-0.384-0.494-0.57c-0.104-0.115-0.21-0.229-0.317-0.343
			c-0.044-0.08-0.079-0.138-0.101-0.172c0.009-0.012,0.018-0.024,0.025-0.036c-0.01,0.01-0.02,0.021-0.029,0.03
			c-0.012-0.021-0.02-0.03-0.02-0.03s0.002,0.016,0.006,0.044c-0.006,0.009-0.014,0.015-0.02,0.021
			c-0.007-0.007-0.014-0.015-0.02-0.021c0.003-0.028,0.005-0.044,0.005-0.044s-0.007,0.012-0.02,0.03
			c-0.01-0.011-0.019-0.021-0.028-0.03c0.008,0.012,0.017,0.024,0.025,0.036c-0.021,0.034-0.057,0.092-0.102,0.172
			c-0.106,0.112-0.213,0.228-0.316,0.343c-0.168,0.188-0.332,0.377-0.494,0.57c-0.081,0.098-0.16,0.195-0.237,0.294
			c-0.079,0.101-0.158,0.197-0.234,0.3c-0.075,0.101-0.153,0.198-0.229,0.301l-0.22,0.311c-0.143,0.21-0.287,0.418-0.419,0.637
			c-0.139,0.215-0.262,0.438-0.382,0.665l-0.172,0.347l-0.151,0.36c-0.051,0.12-0.086,0.25-0.129,0.375l-0.03,0.095l-0.025,0.09
			l-0.05,0.183c-0.13,0.481-0.265,0.96-0.417,1.426c-0.157,0.466-0.332,0.918-0.557,1.339c-0.111,0.211-0.233,0.412-0.371,0.602
			c-0.137,0.189-0.288,0.363-0.454,0.521c-0.33,0.317-0.726,0.555-1.158,0.706l-1.067,0.374l1.101,0.223
			c0.202,0.041,0.411,0.061,0.62,0.051c0.209-0.01,0.417-0.049,0.615-0.114c0.396-0.131,0.743-0.36,1.029-0.631
			c0.287-0.271,0.526-0.575,0.73-0.896c0.204-0.322,0.379-0.653,0.533-0.992c0.156-0.34,0.284-0.688,0.402-1.037
			c0.118-0.35,0.222-0.704,0.309-1.062c0.044-0.178,0.086-0.355,0.125-0.535s0.072-0.359,0.105-0.541
			c0.03-0.181,0.063-0.359,0.087-0.541c0.024-0.183,0.048-0.363,0.063-0.545c-0.09,0.354-0.192,0.703-0.297,1.051
			c-0.054,0.175-0.111,0.348-0.166,0.521c-0.057,0.172-0.115,0.345-0.176,0.515c-0.062,0.17-0.126,0.34-0.191,0.508
			c-0.064,0.168-0.132,0.336-0.202,0.502c-0.14,0.33-0.298,0.654-0.462,0.97c-0.166,0.315-0.348,0.62-0.553,0.901
			c-0.103,0.144-0.212,0.277-0.324,0.406c-0.113,0.129-0.233,0.25-0.36,0.359c-0.081,0.07-0.167,0.135-0.254,0.193
			c0.36-0.359,0.644-0.78,0.869-1.219c0.239-0.471,0.42-0.957,0.566-1.449c0.149-0.489,0.265-0.984,0.375-1.475l0.041-0.186
			l0.021-0.092l0.022-0.084c0.033-0.115,0.056-0.229,0.097-0.344l0.121-0.341l0.144-0.336c0.047-0.112,0.104-0.222,0.157-0.333
			c0.051-0.111,0.107-0.221,0.165-0.33c0.111-0.221,0.236-0.436,0.358-0.65c0.128-0.213,0.253-0.429,0.386-0.641
			c0.064-0.105,0.133-0.211,0.2-0.316c0.066-0.104,0.135-0.209,0.205-0.312c0.137-0.21,0.275-0.418,0.419-0.623
			c0.028-0.041,0.058-0.081,0.085-0.121c-0.017,0.035-0.034,0.071-0.051,0.109c-0.058,0.129-0.118,0.275-0.178,0.438
			c-0.06,0.164-0.118,0.345-0.171,0.536c-0.053,0.193-0.103,0.398-0.141,0.614c-0.023,0.106-0.037,0.219-0.053,0.331
			c-0.017,0.111-0.027,0.226-0.036,0.342c-0.011,0.115-0.018,0.232-0.018,0.35c-0.005,0.118-0.003,0.236,0.001,0.355l0.007,0.159
			l0.002,0.17c-0.001,0.056,0.003,0.114,0.001,0.166c-0.005,0.047-0.009,0.094-0.013,0.14c-0.006,0.049-0.004,0.094-0.015,0.143
			c-0.009,0.049-0.017,0.098-0.025,0.146c-0.013,0.099-0.045,0.19-0.067,0.285c-0.053,0.187-0.124,0.362-0.2,0.528
			c-0.037,0.084-0.083,0.16-0.121,0.238c-0.044,0.076-0.087,0.149-0.128,0.221c-0.045,0.067-0.088,0.135-0.129,0.197
			c-0.044,0.062-0.086,0.119-0.125,0.174c-0.082,0.108-0.154,0.205-0.219,0.28c-0.064,0.075-0.114,0.138-0.151,0.177
			c-0.037,0.039-0.056,0.062-0.056,0.062s0.027-0.01,0.077-0.031c0.049-0.022,0.123-0.058,0.211-0.108
			c0.044-0.026,0.092-0.057,0.146-0.088c0.053-0.033,0.105-0.073,0.165-0.115c0.058-0.043,0.115-0.092,0.179-0.143
			c0.062-0.055,0.123-0.113,0.189-0.175c0.061-0.065,0.125-0.134,0.189-0.206c0.06-0.076,0.124-0.154,0.184-0.24
			c0.117-0.172,0.231-0.365,0.318-0.582c0.043-0.107,0.088-0.218,0.114-0.336c0.016-0.059,0.03-0.117,0.046-0.177
			c0.016-0.059,0.02-0.126,0.029-0.188c0.008-0.064,0.017-0.131,0.024-0.194c0.005-0.062,0.003-0.114,0.004-0.172l0.001-0.17
			l-0.005-0.181c-0.005-0.108-0.009-0.218-0.007-0.326c0.001-0.107-0.002-0.215,0.004-0.322c0.005-0.217,0.017-0.428,0.031-0.635
			c0.029-0.412,0.071-0.801,0.111-1.137c0.043-0.338,0.077-0.619,0.103-0.815c0.011-0.07,0.018-0.132,0.023-0.179
			c0.011-0.017,0.021-0.031,0.032-0.047c0.01,0.016,0.021,0.03,0.031,0.047c0.007,0.047,0.014,0.107,0.024,0.179
			c0.024,0.196,0.06,0.479,0.103,0.815c0.039,0.336,0.081,0.725,0.11,1.137c0.016,0.207,0.026,0.418,0.032,0.635
			c0.006,0.107,0.002,0.215,0.004,0.322c0.002,0.108-0.003,0.218-0.008,0.326l-0.004,0.181v0.17c0.001,0.058-0.001,0.11,0.005,0.172
			c0.008,0.063,0.016,0.13,0.023,0.194c0.01,0.062,0.015,0.131,0.029,0.188c0.016,0.06,0.031,0.118,0.047,0.177
			c0.025,0.118,0.071,0.229,0.114,0.336c0.087,0.217,0.2,0.41,0.317,0.582c0.06,0.086,0.124,0.164,0.185,0.24
			c0.064,0.072,0.13,0.141,0.189,0.206c0.065,0.062,0.128,0.12,0.188,0.175c0.063,0.051,0.122,0.1,0.181,0.143
			c0.06,0.042,0.111,0.082,0.165,0.115c0.053,0.031,0.102,0.062,0.145,0.088c0.089,0.052,0.162,0.086,0.212,0.108
			c0.051,0.021,0.077,0.031,0.077,0.031s-0.02-0.021-0.056-0.062c-0.037-0.039-0.087-0.102-0.151-0.177
			c-0.063-0.075-0.137-0.172-0.22-0.28c-0.038-0.055-0.08-0.112-0.125-0.174c-0.041-0.063-0.083-0.13-0.129-0.197
			c-0.041-0.07-0.083-0.145-0.128-0.221c-0.038-0.078-0.083-0.154-0.121-0.238c-0.075-0.166-0.146-0.342-0.199-0.528
			c-0.021-0.095-0.056-0.187-0.067-0.285c-0.009-0.048-0.018-0.097-0.026-0.146c-0.01-0.049-0.008-0.094-0.014-0.143
			c-0.004-0.046-0.009-0.093-0.014-0.14c-0.001-0.052,0.002-0.11,0.002-0.166l0.002-0.17l0.007-0.159
			c0.004-0.119,0.006-0.237,0.001-0.355c-0.001-0.117-0.008-0.233-0.018-0.35c-0.009-0.116-0.02-0.23-0.037-0.342
			c-0.016-0.112-0.029-0.225-0.052-0.331c-0.039-0.216-0.088-0.421-0.141-0.614c-0.054-0.191-0.112-0.372-0.171-0.536
			c-0.061-0.163-0.12-0.311-0.179-0.438c-0.017-0.038-0.033-0.074-0.05-0.109c0.028,0.04,0.057,0.08,0.084,0.121
			c0.144,0.205,0.283,0.413,0.42,0.623c0.069,0.104,0.138,0.208,0.205,0.312c0.066,0.105,0.135,0.211,0.2,0.316
			c0.133,0.212,0.259,0.428,0.387,0.641c0.122,0.215,0.247,0.431,0.358,0.65c0.057,0.109,0.113,0.219,0.165,0.33
			s0.108,0.221,0.156,0.333l0.145,0.336l0.121,0.341c0.041,0.113,0.062,0.229,0.097,0.344l0.022,0.084l0.02,0.092l0.041,0.186
			c0.111,0.489,0.227,0.984,0.375,1.475c0.147,0.492,0.328,0.979,0.567,1.449c0.225,0.438,0.509,0.858,0.867,1.219
			c-0.087-0.06-0.172-0.123-0.253-0.193c-0.127-0.109-0.247-0.23-0.359-0.359c-0.113-0.129-0.224-0.264-0.324-0.406
			c-0.205-0.281-0.387-0.586-0.554-0.901c-0.164-0.315-0.322-0.64-0.461-0.97c-0.071-0.166-0.139-0.334-0.203-0.502
			s-0.13-0.338-0.19-0.508s-0.119-0.343-0.176-0.515c-0.056-0.173-0.113-0.346-0.166-0.521c-0.105-0.348-0.206-0.697-0.297-1.051
			c0.015,0.182,0.038,0.362,0.062,0.545c0.023,0.182,0.057,0.36,0.087,0.541c0.032,0.182,0.065,0.361,0.105,0.541
			c0.039,0.18,0.081,0.357,0.124,0.535c0.089,0.357,0.189,0.713,0.31,1.062c0.118,0.35,0.246,0.697,0.401,1.037
			c0.155,0.339,0.329,0.672,0.534,0.992c0.204,0.319,0.442,0.625,0.729,0.896c0.286,0.271,0.633,0.5,1.029,0.631
			c0.197,0.065,0.406,0.104,0.615,0.114s0.418-0.01,0.62-0.051l1.101-0.223l-1.067-0.374C21.752,30.818,21.355,30.583,21.026,30.266
			z M15.974,21.396c0-0.004,0.001-0.008,0.001-0.011c0.002-0.01,0.002-0.017,0.003-0.024c0.004,0.007,0.008,0.012,0.012,0.018
			C15.984,21.384,15.979,21.391,15.974,21.396z M16.01,21.378c0.004-0.006,0.008-0.011,0.012-0.017
			c0.001,0.008,0.002,0.015,0.004,0.023c0,0.003,0.001,0.006,0.001,0.01C16.021,21.391,16.015,21.384,16.01,21.378z"/>
		<path d="M0.418,9.238c0.005,0.053,0.01,0.105,0.016,0.16C0.439,9.507,0.465,9.616,0.481,9.73c0.05,0.225,0.116,0.459,0.214,0.692
			c0.099,0.233,0.216,0.471,0.364,0.7c0.147,0.229,0.317,0.455,0.512,0.67c0.193,0.214,0.409,0.42,0.641,0.613
			c0.232,0.192,0.483,0.373,0.747,0.542c0.53,0.334,1.107,0.617,1.728,0.842c0.161,0.062,0.297,0.103,0.46,0.158
			c0.148,0.049,0.299,0.098,0.449,0.146c0.3,0.098,0.599,0.203,0.897,0.31c0.599,0.213,1.19,0.442,1.769,0.677
			c0.578,0.236,1.143,0.481,1.682,0.732c0.538,0.251,1.053,0.506,1.532,0.764c0.479,0.259,0.925,0.516,1.323,0.771
			c0.397,0.26,0.752,0.51,1.053,0.752c0.297,0.243,0.549,0.469,0.737,0.672c0.05,0.049,0.091,0.101,0.132,0.146
			c0.041,0.047,0.082,0.089,0.114,0.131c0.066,0.085,0.126,0.155,0.169,0.219c0.085,0.123,0.131,0.189,0.131,0.189
			s-0.033-0.073-0.096-0.211c-0.031-0.067-0.079-0.148-0.133-0.246c-0.057-0.096-0.123-0.203-0.206-0.318
			c-0.164-0.234-0.385-0.502-0.664-0.785c-0.277-0.283-0.61-0.586-0.997-0.885c-0.385-0.302-0.816-0.607-1.29-0.904
			c-0.473-0.297-0.983-0.59-1.522-0.87c-0.27-0.142-0.547-0.277-0.829-0.412c-0.142-0.066-0.284-0.133-0.427-0.199
			c-0.146-0.064-0.29-0.128-0.437-0.192c-0.585-0.255-1.188-0.491-1.797-0.712c-0.306-0.107-0.611-0.213-0.919-0.311
			c-0.154-0.051-0.309-0.098-0.463-0.145c-0.138-0.045-0.307-0.092-0.44-0.142c-0.071-0.025-0.142-0.05-0.212-0.075
			c-0.071-0.027-0.141-0.055-0.212-0.081c-0.141-0.055-0.278-0.113-0.415-0.173c-0.273-0.121-0.533-0.258-0.785-0.398
			c-0.25-0.143-0.485-0.301-0.71-0.463c-0.223-0.163-0.426-0.34-0.617-0.521c-0.375-0.365-0.679-0.762-0.892-1.166
			C0.965,10.046,0.889,9.841,0.82,9.644C0.794,9.542,0.759,9.445,0.741,9.348C0.73,9.299,0.721,9.251,0.71,9.204
			C0.703,9.156,0.696,9.109,0.689,9.063c-0.05-0.372-0.038-0.708,0-0.98C0.696,8.014,0.709,7.95,0.72,7.89
			c0.011-0.06,0.019-0.119,0.033-0.171C0.78,7.615,0.798,7.524,0.821,7.452C0.867,7.307,0.89,7.231,0.89,7.231
			S0.853,7.302,0.783,7.437c-0.064,0.137-0.158,0.34-0.235,0.616C0.47,8.327,0.402,8.676,0.414,9.083
			C0.415,9.135,0.416,9.187,0.418,9.238z"/>
		<path d="M0.444,11.953c0.103,0.343,0.253,0.725,0.487,1.105c0.233,0.38,0.541,0.766,0.932,1.105
			c0.389,0.34,0.851,0.639,1.36,0.872c0.255,0.117,0.521,0.222,0.794,0.309c0.275,0.09,0.56,0.159,0.825,0.228
			c0.27,0.068,0.543,0.133,0.813,0.209c0.272,0.073,0.547,0.141,0.817,0.222c0.271,0.078,0.545,0.15,0.813,0.234
			c0.135,0.041,0.269,0.081,0.402,0.122c0.134,0.042,0.266,0.084,0.397,0.127c0.529,0.168,1.043,0.351,1.537,0.533
			c0.248,0.094,0.487,0.191,0.724,0.284c0.233,0.101,0.465,0.192,0.685,0.292c0.221,0.102,0.438,0.191,0.642,0.295
			c0.206,0.098,0.407,0.188,0.595,0.288c0.188,0.097,0.37,0.188,0.539,0.282c0.17,0.092,0.335,0.175,0.483,0.262
			c0.151,0.086,0.292,0.166,0.423,0.24c0.129,0.076,0.247,0.146,0.355,0.209c0.215,0.125,0.382,0.23,0.497,0.3
			c0.115,0.069,0.178,0.105,0.178,0.105s-0.054-0.05-0.152-0.14c-0.05-0.045-0.111-0.102-0.184-0.166
			c-0.071-0.066-0.155-0.14-0.253-0.22c-0.097-0.08-0.204-0.17-0.32-0.267c-0.118-0.096-0.25-0.192-0.39-0.301
			c-0.279-0.211-0.601-0.441-0.967-0.674c-0.361-0.238-0.767-0.478-1.203-0.714c-0.219-0.118-0.448-0.229-0.681-0.349
			c-0.236-0.109-0.479-0.223-0.726-0.331c-0.499-0.213-1.02-0.422-1.558-0.604c-0.134-0.047-0.27-0.093-0.404-0.14
			c-0.137-0.043-0.273-0.085-0.41-0.128c-0.273-0.087-0.551-0.167-0.828-0.242c-0.555-0.154-1.114-0.29-1.667-0.412
			c-0.28-0.063-0.54-0.115-0.791-0.188c-0.253-0.072-0.5-0.152-0.736-0.248c-0.473-0.188-0.903-0.429-1.276-0.706
			c-0.37-0.279-0.686-0.593-0.933-0.92c-0.244-0.329-0.434-0.66-0.569-0.971c-0.131-0.306-0.225-0.591-0.284-0.831
			c-0.059-0.24-0.092-0.433-0.108-0.565c-0.017-0.132-0.019-0.204-0.019-0.204s-0.013,0.071-0.021,0.206
			c-0.007,0.134-0.013,0.333,0.011,0.586C0.298,11.302,0.342,11.61,0.444,11.953z"/>
		<path d="M3.188,19.214c0.039,0.021,0.077,0.042,0.117,0.063c0.08,0.043,0.16,0.088,0.243,0.133
			c0.083,0.041,0.171,0.076,0.259,0.117c0.089,0.039,0.179,0.08,0.273,0.11c0.093,0.033,0.188,0.066,0.284,0.101
			c0.097,0.035,0.197,0.058,0.297,0.088c0.102,0.025,0.203,0.059,0.308,0.078c0.104,0.021,0.209,0.041,0.315,0.062
			c0.054,0.012,0.106,0.021,0.16,0.031C5.5,20.005,5.555,20.012,5.61,20.02c0.111,0.013,0.224,0.024,0.336,0.039
			c0.224,0.022,0.433,0.024,0.653,0.036c0.114,0.001,0.227,0.002,0.342,0.005c0.109,0,0.22,0,0.331,0c0.221,0,0.442,0,0.665,0
			c0.441-0.003,0.886-0.01,1.318-0.008c0.216,0.002,0.432-0.004,0.643,0c0.211,0.006,0.419,0.012,0.624,0.014
			c0.206,0,0.406,0.02,0.604,0.028c0.196,0.011,0.39,0.021,0.577,0.033c0.187,0.019,0.369,0.039,0.545,0.056
			c0.089,0.008,0.176,0.016,0.262,0.023c0.085,0.007,0.169,0.015,0.25,0.027c0.324,0.052,0.625,0.09,0.893,0.123
			c0.268,0.045,0.502,0.084,0.693,0.116c0.192,0.033,0.346,0.054,0.448,0.068c0.104,0.015,0.16,0.022,0.16,0.022
			s-0.052-0.021-0.148-0.063c-0.098-0.038-0.239-0.099-0.423-0.167c-0.183-0.068-0.401-0.16-0.66-0.244
			c-0.262-0.08-0.558-0.172-0.884-0.263c-0.326-0.087-0.686-0.159-1.065-0.24c-0.191-0.033-0.389-0.058-0.591-0.088
			c-0.202-0.029-0.409-0.06-0.619-0.073c-0.211-0.02-0.425-0.033-0.642-0.051c-0.217-0.016-0.436-0.02-0.656-0.025
			c-0.443-0.017-0.886-0.012-1.332-0.014c-0.222,0.002-0.445,0.005-0.665,0.007c-0.217,0.003-0.434,0.007-0.647,0.011
			c-0.109-0.002-0.219-0.004-0.327-0.005l-0.163-0.001l-0.08-0.001l-0.075-0.005c-0.101-0.007-0.2-0.015-0.3-0.021
			c-0.05-0.002-0.1-0.006-0.149-0.008c-0.05-0.008-0.1-0.014-0.148-0.021c-0.099-0.013-0.198-0.024-0.295-0.037
			c-0.098-0.012-0.191-0.035-0.286-0.051c-0.095-0.019-0.19-0.031-0.28-0.056c-0.091-0.022-0.181-0.045-0.27-0.067
			c-0.09-0.021-0.176-0.05-0.26-0.076c-0.085-0.026-0.169-0.054-0.251-0.08c-0.081-0.03-0.16-0.062-0.237-0.091
			c-0.039-0.016-0.077-0.03-0.116-0.045c-0.036-0.018-0.073-0.034-0.109-0.053c-0.073-0.032-0.145-0.065-0.214-0.1
			c-0.067-0.037-0.133-0.074-0.197-0.107c-0.032-0.018-0.065-0.034-0.096-0.051c-0.031-0.021-0.061-0.039-0.09-0.058
			c-0.06-0.037-0.117-0.073-0.172-0.108c-0.054-0.037-0.104-0.076-0.153-0.111c-0.051-0.036-0.097-0.072-0.14-0.109
			c-0.044-0.037-0.086-0.072-0.127-0.105c-0.037-0.035-0.072-0.071-0.105-0.104c-0.07-0.063-0.12-0.133-0.171-0.188
			c-0.047-0.057-0.078-0.11-0.108-0.153c-0.025-0.044-0.041-0.081-0.054-0.104c-0.012-0.023-0.019-0.037-0.019-0.037
			s0.003,0.015,0.009,0.041c0.006,0.025,0.01,0.066,0.025,0.117c0.035,0.1,0.091,0.25,0.204,0.416
			c0.105,0.174,0.264,0.358,0.463,0.559c0.206,0.188,0.447,0.399,0.746,0.574C3.113,19.166,3.15,19.189,3.188,19.214z"/>
		<path d="M11.81,20.327c-0.524-0.035-1.14-0.029-1.792,0.021c-0.326,0.025-0.663,0.061-1.003,0.105
			c-0.341,0.043-0.684,0.099-1.026,0.156c-0.343,0.062-0.684,0.129-1.018,0.201c-0.082,0.019-0.163,0.035-0.244,0.053
			c-0.083,0.019-0.164,0.035-0.246,0.052c-0.076,0.012-0.152,0.024-0.229,0.036c-0.076,0.009-0.153,0.018-0.229,0.025
			c-0.61,0.057-1.183-0.035-1.621-0.248c-0.22-0.104-0.408-0.232-0.56-0.367C3.69,20.229,3.57,20.094,3.48,19.977
			c-0.09-0.119-0.153-0.22-0.192-0.289c-0.04-0.07-0.059-0.11-0.059-0.11s0.007,0.043,0.029,0.122
			c0.024,0.078,0.061,0.193,0.131,0.333c0.067,0.139,0.163,0.306,0.305,0.474c0.069,0.086,0.151,0.17,0.242,0.256
			c0.094,0.082,0.196,0.165,0.313,0.239c0.23,0.151,0.51,0.272,0.816,0.353c0.308,0.078,0.643,0.112,0.983,0.104
			c0.085-0.005,0.171-0.007,0.258-0.014c0.088-0.01,0.176-0.021,0.265-0.029c0.082-0.014,0.165-0.026,0.249-0.039
			c0.084-0.016,0.169-0.031,0.254-0.047c0.333-0.061,0.67-0.124,1.009-0.182c0.337-0.062,0.676-0.117,1.008-0.172
			c0.333-0.053,0.661-0.104,0.979-0.146c0.635-0.09,1.229-0.153,1.741-0.186c0.511-0.035,0.938-0.035,1.238-0.014
			c0.15,0.012,0.269,0.021,0.349,0.032c0.08,0.012,0.124,0.018,0.124,0.018s-0.04-0.017-0.116-0.048
			c-0.077-0.027-0.19-0.07-0.338-0.107C12.771,20.439,12.335,20.363,11.81,20.327z"/>
		<path d="M6.811,28.626c0.055-0.011,0.111-0.021,0.166-0.03l0.021-0.004l0.01-0.003l0.023-0.006l0.044-0.013l0.089-0.021
			c0.06-0.017,0.118-0.029,0.178-0.049l0.175-0.062c0.468-0.168,0.907-0.437,1.282-0.764c0.374-0.329,0.694-0.703,0.968-1.089
			c0.275-0.386,0.513-0.778,0.733-1.158c0.223-0.379,0.424-0.747,0.628-1.084c0.206-0.337,0.406-0.647,0.614-0.916
			s0.419-0.497,0.623-0.682c0.054-0.044,0.104-0.087,0.154-0.129c0.049-0.042,0.102-0.074,0.149-0.111
			c0.095-0.075,0.191-0.128,0.276-0.183c0.174-0.096,0.316-0.17,0.42-0.206c0.103-0.042,0.156-0.064,0.156-0.064
			s-0.058,0.011-0.166,0.03c-0.054,0.011-0.12,0.02-0.198,0.044c-0.075,0.022-0.17,0.043-0.265,0.084
			c-0.097,0.04-0.207,0.078-0.318,0.14c-0.116,0.051-0.23,0.125-0.354,0.204c-0.244,0.163-0.503,0.374-0.751,0.636
			c-0.251,0.26-0.498,0.562-0.733,0.894c-0.237,0.331-0.475,0.687-0.712,1.05c-0.239,0.363-0.484,0.734-0.751,1.089
			c-0.268,0.354-0.56,0.689-0.889,0.974c-0.325,0.289-0.693,0.514-1.085,0.668L7.15,27.92c-0.049,0.018-0.1,0.029-0.15,0.045
			l-0.143,0.043c-0.055,0.014-0.11,0.024-0.164,0.037c-0.055,0.012-0.112,0.025-0.162,0.034c-0.05,0.008-0.1,0.016-0.149,0.022
			c-0.099,0.02-0.202,0.025-0.304,0.036c-0.405,0.036-0.799-0.002-1.159-0.094c-0.179-0.05-0.35-0.11-0.509-0.187
			c-0.163-0.07-0.311-0.158-0.45-0.25c-0.273-0.187-0.507-0.393-0.694-0.596s-0.338-0.396-0.451-0.562
			c-0.112-0.168-0.195-0.305-0.247-0.4C2.515,25.953,2.49,25.9,2.49,25.9s0.013,0.058,0.045,0.162
			c0.033,0.105,0.084,0.26,0.171,0.448c0.086,0.188,0.203,0.414,0.371,0.653c0.166,0.242,0.384,0.498,0.665,0.734
			c0.281,0.236,0.63,0.455,1.036,0.597c0.406,0.141,0.862,0.223,1.329,0.204c0.116-0.008,0.232-0.006,0.354-0.023
			c0.062-0.008,0.121-0.015,0.183-0.021C6.703,28.648,6.754,28.635,6.811,28.626z"/>
		<path d="M9.232,29.007c0.265-0.229,0.498-0.509,0.707-0.813c0.209-0.306,0.395-0.639,0.558-0.983
			c0.081-0.172,0.16-0.351,0.231-0.528l0.053-0.131l0.027-0.064l0.025-0.061c0.017-0.039,0.032-0.079,0.051-0.119l0.059-0.117
			c0.152-0.315,0.35-0.617,0.559-0.907c0.211-0.289,0.436-0.564,0.662-0.826c0.453-0.521,0.912-0.986,1.313-1.38
			c0.401-0.393,0.746-0.715,0.987-0.939c0.244-0.226,0.383-0.354,0.383-0.354s-0.042,0.021-0.121,0.062
			c-0.078,0.043-0.193,0.104-0.336,0.19c-0.287,0.168-0.689,0.422-1.15,0.762c-0.459,0.34-0.978,0.765-1.487,1.276
			c-0.255,0.257-0.507,0.535-0.742,0.84c-0.236,0.304-0.455,0.634-0.636,0.994c-0.045,0.091-0.088,0.183-0.124,0.277l-0.029,0.069
			l-0.026,0.065l-0.052,0.132c-0.067,0.17-0.133,0.337-0.206,0.503c-0.072,0.165-0.148,0.324-0.225,0.482
			c-0.08,0.155-0.161,0.309-0.246,0.453c-0.173,0.288-0.358,0.555-0.564,0.771c-0.101,0.109-0.209,0.208-0.318,0.292
			c-0.055,0.044-0.112,0.079-0.168,0.116c-0.058,0.033-0.113,0.067-0.172,0.095c-0.229,0.116-0.467,0.164-0.682,0.177
			c-0.217,0.012-0.411-0.013-0.569-0.043c-0.079-0.018-0.15-0.033-0.212-0.051c-0.061-0.018-0.113-0.031-0.155-0.046
			c-0.085-0.027-0.13-0.042-0.13-0.042s0.04,0.025,0.114,0.074c0.037,0.025,0.085,0.053,0.143,0.084
			c0.057,0.033,0.124,0.065,0.202,0.101c0.155,0.065,0.354,0.14,0.598,0.168c0.241,0.029,0.532,0.019,0.827-0.08
			C8.677,29.413,8.971,29.236,9.232,29.007z"/>
		<path d="M9.391,30.173c0.224-0.01,0.478-0.057,0.738-0.153c0.26-0.099,0.529-0.24,0.784-0.436
			c0.256-0.191,0.498-0.436,0.705-0.723c0.205-0.286,0.376-0.619,0.479-0.984l0.036-0.139c0.011-0.047,0.02-0.098,0.029-0.146
			c0.021-0.104,0.023-0.171,0.038-0.27c0.014-0.146,0.054-0.301,0.095-0.453c0.089-0.309,0.217-0.617,0.353-0.918
			c0.138-0.301,0.287-0.594,0.438-0.875c0.303-0.564,0.608-1.084,0.872-1.53c0.535-0.896,0.891-1.493,0.891-1.493
			s-0.031,0.03-0.092,0.086c-0.059,0.059-0.146,0.141-0.252,0.252c-0.215,0.219-0.512,0.539-0.846,0.945
			c-0.333,0.406-0.702,0.896-1.057,1.457c-0.178,0.279-0.351,0.578-0.508,0.895c-0.158,0.314-0.301,0.648-0.407,1.008
			c-0.048,0.182-0.093,0.365-0.111,0.563c-0.011,0.071-0.018,0.179-0.03,0.243l-0.018,0.105l-0.025,0.11
			c-0.038,0.147-0.084,0.293-0.145,0.433c-0.061,0.139-0.129,0.271-0.206,0.398c-0.157,0.253-0.343,0.479-0.545,0.669
			c-0.2,0.192-0.417,0.347-0.63,0.466c-0.427,0.238-0.845,0.315-1.138,0.303c-0.074-0.002-0.14-0.014-0.198-0.019
			c-0.056-0.011-0.105-0.019-0.145-0.028c-0.079-0.021-0.121-0.032-0.121-0.032s0.037,0.022,0.107,0.065
			c0.036,0.021,0.082,0.041,0.138,0.068c0.057,0.021,0.122,0.051,0.198,0.068C8.972,30.152,9.166,30.184,9.391,30.173z"/>
		<path d="M7.529,6.358c0.235-0.049,0.524-0.081,0.854-0.076c0.165,0.005,0.341,0.016,0.523,0.047
			C8.997,6.34,9.09,6.362,9.184,6.379c0.095,0.023,0.191,0.043,0.288,0.073c0.388,0.113,0.793,0.285,1.193,0.519
			c0.4,0.234,0.795,0.526,1.179,0.858c0.098,0.081,0.188,0.173,0.283,0.26l0.065,0.061l0.069,0.072
			c0.046,0.048,0.091,0.096,0.138,0.146l0.069,0.072l0.061,0.074l0.122,0.147c0.084,0.095,0.16,0.206,0.24,0.311
			c0.311,0.428,0.582,0.899,0.822,1.387c0.243,0.486,0.457,0.989,0.643,1.495c0.183,0.507,0.354,1.011,0.498,1.505
			c0.146,0.494,0.275,0.977,0.388,1.437c0.11,0.46,0.212,0.897,0.296,1.303c0.083,0.405,0.158,0.778,0.221,1.109
			c0.059,0.332,0.111,0.621,0.151,0.859c0.033,0.209,0.062,0.377,0.082,0.502c-0.001,0.072-0.002,0.108-0.002,0.108
			s0.003-0.022,0.01-0.063c0.001,0.003,0.001,0.007,0.002,0.01c0.019,0.129,0.029,0.197,0.029,0.197s-0.002-0.069-0.005-0.199
			c-0.002-0.043-0.004-0.094-0.005-0.149c0.021-0.128,0.051-0.312,0.089-0.547c0.039-0.239,0.092-0.528,0.151-0.86
			c0.062-0.33,0.137-0.704,0.22-1.108c0.085-0.405,0.187-0.843,0.297-1.303c0.112-0.46,0.243-0.941,0.387-1.437
			c0.146-0.494,0.315-0.998,0.499-1.505c0.186-0.506,0.399-1.009,0.644-1.495c0.238-0.487,0.511-0.959,0.821-1.387
			c0.08-0.104,0.155-0.216,0.239-0.311l0.122-0.147l0.062-0.074l0.069-0.072c0.046-0.048,0.092-0.097,0.138-0.145l0.068-0.071
			l0.065-0.062c0.096-0.087,0.186-0.179,0.283-0.259c0.384-0.333,0.777-0.626,1.18-0.858c0.399-0.234,0.805-0.406,1.191-0.52
			c0.098-0.03,0.194-0.049,0.288-0.073c0.096-0.017,0.188-0.038,0.278-0.05c0.183-0.031,0.358-0.041,0.523-0.047
			c0.33-0.005,0.619,0.026,0.854,0.077c0.234,0.049,0.415,0.108,0.535,0.155c0.121,0.048,0.182,0.082,0.182,0.082
			S25.15,6.413,25.036,6.35c-0.115-0.062-0.288-0.148-0.522-0.221c-0.233-0.075-0.528-0.141-0.873-0.163
			c-0.345-0.021-0.739-0.003-1.156,0.093c-0.417,0.091-0.859,0.244-1.292,0.474c-0.435,0.226-0.866,0.511-1.274,0.851
			c-0.104,0.082-0.201,0.175-0.304,0.262L19.576,7.68l-0.019,0.017l-0.011,0.008L19.532,7.72l-0.07,0.069
			c-0.048,0.047-0.096,0.094-0.143,0.141L19.248,8l-0.069,0.079l-0.142,0.16c-0.098,0.105-0.175,0.22-0.262,0.331
			c-0.335,0.45-0.623,0.94-0.876,1.444c-0.249,0.507-0.463,1.027-0.649,1.548c-0.187,0.519-0.336,1.041-0.471,1.547
			c-0.137,0.506-0.242,1-0.333,1.471c-0.093,0.47-0.165,0.916-0.223,1.33c-0.118,0.826-0.175,1.52-0.205,2.005
			c-0.006,0.089-0.011,0.17-0.014,0.245c-0.002-0.033-0.004-0.067-0.006-0.104c-0.03-0.484-0.087-1.179-0.206-2.005
			c-0.057-0.414-0.129-0.86-0.222-1.33c-0.092-0.471-0.196-0.965-0.334-1.471c-0.135-0.506-0.283-1.028-0.471-1.547
			c-0.186-0.521-0.4-1.041-0.648-1.548c-0.253-0.504-0.542-0.994-0.877-1.444c-0.087-0.111-0.163-0.226-0.262-0.331l-0.14-0.16
			l-0.07-0.079l-0.072-0.07c-0.047-0.047-0.095-0.094-0.142-0.141l-0.071-0.07l-0.01-0.014l-0.01-0.008l-0.02-0.017l-0.037-0.034
			c-0.104-0.088-0.2-0.18-0.305-0.262c-0.408-0.34-0.84-0.625-1.274-0.851C10.394,6.446,9.953,6.292,9.535,6.2
			C9.118,6.106,8.724,6.089,8.379,6.109c-0.344,0.023-0.64,0.088-0.873,0.164c-0.235,0.072-0.408,0.159-0.524,0.22
			C6.868,6.556,6.813,6.597,6.813,6.597s0.06-0.034,0.181-0.082C7.114,6.468,7.294,6.407,7.529,6.358z"/>
	</g>
</g>
<g>
</g>
<g>
</g>
<g>
</g>
<g>
</g>
<g>
</g>
<g>
</g>
<g>
</g>
<g>
</g>
<g>
</g>
<g>
</g>
<g>
</g>
<g>
</g>
<g>
</g>
<g>
</g>
<g>
</g>
</svg>
