<?xml version="1.0" encoding="utf-8"?>
<!-- Generator: Adobe Illustrator 21.1.0, SVG Export Plug-In . SVG Version: 6.00 Build 0)  -->
<svg version="1.1" id="Capa_1" xmlns="http://www.w3.org/2000/svg" xmlns:xlink="http://www.w3.org/1999/xlink" x="0px" y="0px"
	 viewBox="0 0 512 512" style="enable-background:new 0 0 512 512;" xml:space="preserve">
<style type="text/css">
	.st0{fill:#057F5F;}
	.st1{fill:#F8B40E;}
	.st2{fill:#F2171C;}
	.st3{fill:#D8131E;}
	.st4{fill:#BF8104;}
	.st5{fill:#DD9B0A;}
	.st6{fill:#2C4046;}
	.st7{fill:#9AA7B8;}
	.st8{fill:#1D2C30;}
	.st9{fill:#A0D9F2;}
	.st10{fill:#84BED3;}
	.st11{fill:#444D56;}
	.st12{fill:#D3D3D3;}
	.st13{fill:#E6E6E6;}
</style>
<circle class="st0" cx="256" cy="256" r="256"/>
<path class="st1" d="M176.6,361.1l-51.2-24.3l-26-12.3L155.1,188l35.5-8.9C190.6,179.2,132.6,276.6,176.6,361.1z"/>
<path class="st2" d="M488.8,331.5v-62.4c0-4.9-4-8.9-8.9-8.9h-25.8c-4.9,0-8.9,4-8.9,8.9v22.5"/>
<path class="st3" d="M464.7,331.5v-71.3h-10.6c-4.9,0-8.9,4-8.9,8.9v22.5"/>
<path class="st4" d="M225.8,267.7c33.2,0,60.1,26.9,60.1,60.1s-26.9,60.1-60.1,60.1l42,22.5l141.3-15l14.6-127.7l-190.4-15"/>
<path class="st1" d="M130.2,108.4H175c22,0,39.8,17.8,39.8,39.8l0,0c0,22-17.8,39.8-39.8,39.8h-44.9c-4.5,0-8.1-3.6-8.1-8.1v-63.5
	C122.1,112,125.7,108.4,130.2,108.4z"/>
<path class="st5" d="M175,171.8h-53v8.1c0,4.5,3.6,8.1,8.1,8.1H175c22,0,39.8-17.8,39.8-39.8l0,0c0-2.8-0.3-5.5-0.8-8.1
	C210.3,158.2,194.3,171.8,175,171.8z"/>
<polyline class="st1" points="356.5,424 343.6,424 143.1,424 143.1,387.9 326.9,387.9 "/>
<circle class="st6" cx="415.1" cy="424" r="78.2"/>
<polygon class="st5" points="167.5,188 102.6,361.8 99.5,324.5 155.1,188 "/>
<circle class="st7" cx="415.1" cy="424" r="42.8"/>
<circle class="st6" cx="99.5" cy="424" r="78.2"/>
<circle class="st7" cx="99.5" cy="424" r="42.8"/>
<path class="st8" d="M99.5,474.6c-27.9,0-50.6-22.7-50.6-50.6h15.7c0,19.2,15.7,34.9,34.9,34.9s34.9-15.7,34.9-34.9h15.7
	C150.1,451.9,127.4,474.6,99.5,474.6z"/>
<path class="st1" d="M343.6,424c-24.7-13.3-41.5-39.4-41.5-69.5c0-43.6,35.4-78.9,78.9-78.9c42.1,0,125,22.2,131,135.2
	c0.4,7.2-5.3,13.2-12.4,13.2L343.6,424L343.6,424z"/>
<path class="st5" d="M327.6,366.6c0-43.6,35.4-78.9,78.9-78.9c12.5,0,28.7,2,45.3,7.7c-24.7-15.2-52-19.7-70.9-19.7
	c-43.5,0-78.9,35.2-78.9,78.9c0,30.1,16.8,56.2,41.5,69.5h8.9C337.2,409.6,327.6,389.2,327.6,366.6z"/>
<path class="st1" d="M199,424c0-55-44.6-99.5-99.5-99.5S0,369,0,424H199z"/>
<path class="st5" d="M116,325.9c-5.4-0.9-10.9-1.4-16.5-1.4C44.6,324.5,0,369,0,424h33.1C33.1,374.7,68.9,333.7,116,325.9z"/>
<path class="st8" d="M415.1,474.6c-27.9,0-50.6-22.7-50.6-50.6h15.7c0,19.2,15.7,34.9,34.9,34.9S450,443.3,450,424h15.7
	C465.8,451.9,443,474.6,415.1,474.6z"/>
<path class="st9" d="M146.1,108.4h-15.9c-4.5,0-8.1,3.6-8.1,8.1v63.5c0,4.5,3.6,8.1,8.1,8.1h15.9V108.4z"/>
<path class="st10" d="M146.1,171.8h-24v8.1c0,4.5,3.6,8.1,8.1,8.1h15.9V171.8z"/>
<path class="st11" d="M394.9,223.4l-152.9,10.8c-17.6,1.2-31.2,15.9-31.2,33.5l0,0h213v-17.4C423.7,234.7,410.5,222.3,394.9,223.4z"
	/>
<rect x="183.9" y="66.5" class="st12" width="15.7" height="77.2"/>
<g>
	<path class="st5" d="M452.2,338.4h-76.6c-4.3,0-7.9-3.5-7.9-7.9c0-4.3,3.5-7.9,7.9-7.9h76.6c4.3,0,7.9,3.5,7.9,7.9
		C460.1,334.8,456.5,338.4,452.2,338.4z"/>
	<path class="st5" d="M432.2,363.7h-56.6c-4.3,0-7.9-3.5-7.9-7.9s3.5-7.9,7.9-7.9h56.6c4.3,0,7.9,3.5,7.9,7.9
		S436.5,363.7,432.2,363.7z"/>
	<path class="st5" d="M412.1,388.8h-36.6c-4.3,0-7.9-3.5-7.9-7.9c0-4.3,3.5-7.9,7.9-7.9h36.6c4.3,0,7.9,3.5,7.9,7.9
		C420,385.3,416.5,388.8,412.1,388.8z"/>
</g>
<circle class="st11" cx="191.8" cy="148.2" r="23.1"/>
<path class="st13" d="M191.8,85L191.8,85c-7.9,0-14.3-6.4-14.3-14.3V26.1c0-7.9,6.4-14.3,14.3-14.3l0,0c7.9,0,14.3,6.4,14.3,14.3
	v44.6C206,78.6,199.6,85,191.8,85z"/>
</svg>
