<?xml version="1.0" encoding="iso-8859-1"?>
<!-- Generator: Adobe Illustrator 19.0.0, SVG Export Plug-In . SVG Version: 6.00 Build 0)  -->
<svg version="1.1" id="Capa_1" xmlns="http://www.w3.org/2000/svg" xmlns:xlink="http://www.w3.org/1999/xlink" x="0px" y="0px"
	 viewBox="0 0 512 512" style="enable-background:new 0 0 512 512;" xml:space="preserve">
<path style="fill:#E6FAFF;" d="M512,256c0,141.385-114.615,256-256,256S0,397.385,0,256S114.615,0,256,0S512,114.615,512,256z"/>
<path style="fill:#FF4682;" d="M0,107.619V10.935C0,4.896,4.896,0,10.935,0h44.557c19.051,0,35.91,12.33,41.684,30.485
	l15.963,50.196L0,107.619z M169.158,214.646c-10.288-5.334-18.038-14.532-21.55-25.576l-11.458-36.03L0,159.524V241
	c0,21.539,17.461,39,39,39h256.207L169.158,214.646z"/>
<path style="fill:#D72D73;" d="M0,105.238V10.935C0,4.896,4.896,0,10.935,0h44.557c0.056,0,0.112,0.003,0.169,0.003
	C49.653,0.04,44.793,4.919,44.793,10.935v83.638L0,105.238z M44.793,241v-84.085L0,159.048V241c0,21.539,17.461,39,39,39h44.793
	C62.254,280,44.793,262.539,44.793,241z"/>
<path style="fill:#4BB9E1;" d="M0.477,240.557h511.046C511.827,245.667,512,250.813,512,256c0,72.522-30.164,137.994-78.621,184.574
	c-119.214-17.091-236.756-45.385-351.035-84.653l0,0C35.07,339.677,2.72,296.343,0.181,246.839
	C0.255,244.739,0.353,242.644,0.477,240.557z"/>
<path style="fill:#46A5CD;" d="M469.242,397.668c-10.378,15.587-22.412,29.977-35.862,42.906
	c-119.214-17.091-236.756-45.385-351.035-84.653l0,0C35.07,339.677,2.72,296.343,0.181,246.839c0.074-2.101,0.172-4.195,0.296-6.283
	h1.315c17.615,27.203,44.07,48.558,76.21,59.601l0,0C205.568,343.992,336.482,376.56,469.242,397.668z"/>
<path style="fill:#D72D73;" d="M167.748,303.225V330L9.95,314.22c-5.574-0.557-9.837-5.194-9.948-10.771
	c-0.112-5.622,4.693-10.224,10.315-10.224h147.43C163.271,293.225,167.748,297.702,167.748,303.225z"/>
<path style="fill:#FFE13C;" d="M137.438,157.091C128.008,187.729,99.482,210,65.75,210C37.415,210,12.757,194.282,0,171.094V98.906
	C12.757,75.718,37.415,60,65.75,60c17.24,0,33.109,5.831,45.776,15.609L137.438,157.091z"/>
<path style="fill:#FFF573;" d="M25.403,102.429c-0.022-0.831-0.031-1.659-0.026-2.483c0.123-21.941,18.079-39.843,40.02-39.945
	C65.514,60,65.632,60,65.75,60c17.24,0,33.109,5.831,45.776,15.609l25.908,81.47c-0.011,0.037-0.023,0.074-0.034,0.111
	c-2.188,7.064-7.764,12.652-14.828,14.84c-7.633,2.365-15.787,3.544-24.249,3.317C58.726,174.287,26.463,142.026,25.403,102.429z"/>
<path style="fill:#B4EBFF;" d="M451.114,421.712C431.18,445.16,407.098,464.966,379.997,480H320h-30c-5.523,0-10-4.477-10-10v-10
	c0-16.569,13.431-30,30-30h4.172c7.717-17.656,25.326-30,45.828-30l0,0c16.487,0,31.106,7.983,40.214,20.291
	C406.55,413.934,415.315,410,425,410l0,0C435.384,410,444.705,414.529,451.114,421.712z M350,140c5.523,0,10-4.477,10-10l0,0
	c0-16.569-13.431-30-30-30h-1.714C324.167,88.349,313.061,80,300,80h-10c-13.061,0-24.167,8.349-28.286,20H260
	c-16.568,0-30,13.431-30,30l0,0c0,5.523,4.477,10,10,10h30h50H350z"/>
<path style="fill:#2D5A5F;" d="M370,290v10c0,11.046-8.954,20-20,20s-20-8.954-20-20v-10c0-11.046,8.954-20,20-20
	S370,278.954,370,290z M420,270c-11.046,0-20,8.954-20,20v10c0,11.046,8.954,20,20,20s20-8.954,20-20v-10
	C440,278.954,431.046,270,420,270z M492,270c-11.046,0-20,8.954-20,20v10c0,11.046,8.954,20,20,20c5.037,0,9.627-1.876,13.143-4.95
	c2.489-10.539,4.331-21.327,5.472-32.324C507.703,275.281,500.476,270,492,270z"/>
<g>
</g>
<g>
</g>
<g>
</g>
<g>
</g>
<g>
</g>
<g>
</g>
<g>
</g>
<g>
</g>
<g>
</g>
<g>
</g>
<g>
</g>
<g>
</g>
<g>
</g>
<g>
</g>
<g>
</g>
</svg>
