<?xml version="1.0" encoding="iso-8859-1"?>
<!-- Generator: Adobe Illustrator 19.0.0, SVG Export Plug-In . SVG Version: 6.00 Build 0)  -->
<svg xmlns="http://www.w3.org/2000/svg" xmlns:xlink="http://www.w3.org/1999/xlink" version="1.1" id="Layer_1" x="0px" y="0px" viewBox="0 0 512 512" style="enable-background:new 0 0 512 512;" xml:space="preserve" width="512px" height="512px">
<g>
	<g>
		<path d="M473.98,167.293h-13.673L130.3,28.341c-9.359-3.941-19.693-4.002-29.099-0.169c-9.406,3.831-16.755,11.096-20.696,20.456    L30.197,168.106C12.973,171.724,0,187.03,0,205.313V448.64c0,20.965,17.055,38.02,38.02,38.02h435.96    c20.965,0,38.02-17.055,38.02-38.02V205.313C512,184.35,494.945,167.293,473.98,167.293z M94.521,54.529    c2.365-5.616,6.775-9.974,12.418-12.274c5.643-2.298,11.844-2.262,17.459,0.102l296.721,124.937H313.705L87.198,71.92    L94.521,54.529z M81.297,85.937l193.219,81.357H131.118l-71.415-30.071L81.297,85.937z M53.8,151.239l38.128,16.055H47.04    L53.8,151.239z M496.792,448.64c0,12.579-10.234,22.812-22.812,22.812H38.02c-12.579,0-22.812-10.233-22.812-22.812V205.313    c0-12.579,10.233-22.812,22.812-22.812h90.027h221.776H473.98c12.578,0,22.812,10.233,22.812,22.812V448.64z" fill="#5e5e5e"/>
	</g>
</g>
<g>
	<g>
		<rect x="89.727" y="336.612" width="15.208" height="15.208" fill="#5e5e5e"/>
	</g>
</g>
<g>
	<g>
		<rect x="120.143" y="336.612" width="15.208" height="15.208" fill="#5e5e5e"/>
	</g>
</g>
<g>
	<g>
		<rect x="59.311" y="336.612" width="15.208" height="15.208" fill="#5e5e5e"/>
	</g>
</g>
<g>
	<g>
		<rect x="226.263" y="336.612" width="15.208" height="15.208" fill="#5e5e5e"/>
	</g>
</g>
<g>
	<g>
		<rect x="165.432" y="336.612" width="15.208" height="15.208" fill="#5e5e5e"/>
	</g>
</g>
<g>
	<g>
		<rect x="195.848" y="336.612" width="15.208" height="15.208" fill="#5e5e5e"/>
	</g>
</g>
<g>
	<g>
		<rect x="332.374" y="336.612" width="15.208" height="15.208" fill="#5e5e5e"/>
	</g>
</g>
<g>
	<g>
		<rect x="301.958" y="336.612" width="15.208" height="15.208" fill="#5e5e5e"/>
	</g>
</g>
<g>
	<g>
		<rect x="271.542" y="336.612" width="15.208" height="15.208" fill="#5e5e5e"/>
	</g>
</g>
<g>
	<g>
		<rect x="377.663" y="336.612" width="15.208" height="15.208" fill="#5e5e5e"/>
	</g>
</g>
<g>
	<g>
		<rect x="438.495" y="336.612" width="15.208" height="15.208" fill="#5e5e5e"/>
	</g>
</g>
<g>
	<g>
		<rect x="408.079" y="336.612" width="15.208" height="15.208" fill="#5e5e5e"/>
	</g>
</g>
<g>
	<g>
		<path d="M134.337,227.111H73.505c-15.374,0-27.881,12.507-27.881,27.881v30.416c0,15.374,12.507,27.881,27.881,27.881h60.832    c15.374,0,27.881-12.507,27.881-27.881v-30.416C162.218,239.619,149.711,227.111,134.337,227.111z M101.386,242.319h15.208v32.444    h-15.208V242.319z M86.178,298.081H73.505c-6.989,0-12.673-5.685-12.673-12.673v-11.659h25.347V298.081z M86.178,258.541H60.832    v-3.549c0-6.988,5.685-12.673,12.673-12.673h12.673V258.541z M134.337,298.081h-32.95v-8.111h44.76    C144.31,294.708,139.715,298.081,134.337,298.081z M147.01,274.763h-15.208v-32.444h2.535c6.989,0,12.673,5.686,12.673,12.673    V274.763z" fill="#5e5e5e"/>
	</g>
</g>
<g>
	<g>
		<path d="M434.44,372.093c-7.235,0-14.021,1.938-19.885,5.307c-5.864-3.37-12.65-5.307-19.885-5.307    c-22.082,0-40.047,17.966-40.047,40.047s17.966,40.048,40.047,40.048c7.235,0,14.021-1.938,19.885-5.308    c5.864,3.37,12.65,5.308,19.885,5.308c22.082,0,40.047-17.966,40.047-40.048S456.522,372.093,434.44,372.093z M402.169,435.821    c-2.367,0.751-4.886,1.16-7.5,1.16c-13.696,0-24.84-11.142-24.84-24.84c0-13.696,11.142-24.84,24.84-24.84    c2.613,0,5.132,0.409,7.5,1.16c-4.884,6.638-7.777,14.826-7.777,23.68S397.286,429.183,402.169,435.821z M414.555,427.011    c-3.111-4.149-4.955-9.298-4.955-14.87c0-5.572,1.845-10.722,4.955-14.87c3.111,4.149,4.955,9.298,4.955,14.87    C419.509,417.713,417.665,422.862,414.555,427.011z M434.44,436.98c-2.613,0-5.132-0.409-7.5-1.16    c4.884-6.638,7.777-14.826,7.777-23.68s-2.894-17.042-7.777-23.68c2.367-0.751,4.886-1.16,7.5-1.16    c13.697,0,24.84,11.143,24.84,24.84C459.279,425.837,448.137,436.98,434.44,436.98z" fill="#5e5e5e"/>
	</g>
</g>
<g>
</g>
<g>
</g>
<g>
</g>
<g>
</g>
<g>
</g>
<g>
</g>
<g>
</g>
<g>
</g>
<g>
</g>
<g>
</g>
<g>
</g>
<g>
</g>
<g>
</g>
<g>
</g>
<g>
</g>
</svg>
