<?xml version="1.0" encoding="iso-8859-1"?>
<!-- Generator: Adobe Illustrator 19.0.0, SVG Export Plug-In . SVG Version: 6.00 Build 0)  -->
<svg xmlns="http://www.w3.org/2000/svg" xmlns:xlink="http://www.w3.org/1999/xlink" version="1.1" id="Layer_1" x="0px" y="0px" viewBox="0 0 503.699 503.699" style="enable-background:new 0 0 503.699 503.699;" xml:space="preserve" width="512px" height="512px">
<g transform="translate(1 1)">
	<g>
		<g>
			<path d="M493.374,182.862c-8.393-10.072-20.144-15.948-32.734-15.948c0-18.466-15.108-33.574-33.574-33.574h-17.599     c-3.797-19.358-20.536-33.574-41.155-33.574H263.393l-39.449-47.003c-1.679-2.518-4.197-3.357-6.715-3.357H66.148     c-18.466,0-33.574,15.108-33.574,33.574v50.361C14.108,133.341-1,148.449-1,166.915v251.803     c0,18.466,15.108,33.574,33.574,33.574h394.492c18.466,0,33.574-15.108,33.574-33.574v-6.715l41.128-193.889     C504.285,205.525,501.767,192.935,493.374,182.862z M49.361,82.981c0-9.233,7.554-16.787,16.787-16.787h146.885l39.449,47.003     c1.679,2.518,4.197,3.357,6.715,3.357h109.954c10.911,0,20.144,6.715,23.502,16.787H49.361V82.981z M443.852,418.718     c0,9.233-7.554,16.787-16.787,16.787H32.574c-9.233,0-16.787-7.554-16.787-16.787V166.915c0-9.233,7.554-16.787,16.787-16.787     h8.393h360.918h25.18c9.233,0,16.787,7.554,16.787,16.787v8.393v235.016V418.718z M485.82,213.918l-25.18,116.669V183.702     c8.393,0,15.108,3.357,20.144,9.233C485.82,198.81,487.498,206.364,485.82,213.918z" fill="#5e5e5e"/>
			<path d="M317.951,175.308H141.689c-14.269,0-25.18,10.911-25.18,25.18v184.656c0,14.269,10.911,25.18,25.18,25.18h176.262     c14.269,0,25.18-10.911,25.18-25.18V200.489C343.131,186.22,332.22,175.308,317.951,175.308z M326.344,385.144     c0,5.036-3.357,8.393-8.393,8.393H141.689c-5.036,0-8.393-3.357-8.393-8.393V200.489c0-5.036,3.357-8.393,8.393-8.393h176.262     c5.036,0,8.393,3.357,8.393,8.393V385.144z" fill="#5e5e5e"/>
			<path d="M275.984,208.882h-92.328c-9.233,0-16.787,7.554-16.787,16.787v134.295c0,9.233,7.554,16.787,16.787,16.787h92.328     c9.233,0,16.787-7.554,16.787-16.787V225.669C292.771,216.436,285.216,208.882,275.984,208.882z M275.984,225.669v58.754h-92.328     v-58.754H275.984z M183.656,359.964V301.21h92.328v58.754H183.656z" fill="#5e5e5e"/>
			<path d="M150.082,217.276c-5.036,0-8.393,3.357-8.393,8.393v8.393c0,5.036,3.357,8.393,8.393,8.393s8.393-3.357,8.393-8.393     v-8.393C158.475,220.633,155.118,217.276,150.082,217.276z" fill="#5e5e5e"/>
			<path d="M150.082,259.243c-5.036,0-8.393,3.357-8.393,8.393v8.393c0,5.036,3.357,8.393,8.393,8.393s8.393-3.357,8.393-8.393     v-8.393C158.475,262.6,155.118,259.243,150.082,259.243z" fill="#5e5e5e"/>
			<path d="M150.082,301.21c-5.036,0-8.393,3.357-8.393,8.393v8.393c0,5.036,3.357,8.393,8.393,8.393s8.393-3.357,8.393-8.393     v-8.393C158.475,304.567,155.118,301.21,150.082,301.21z" fill="#5e5e5e"/>
			<path d="M150.082,343.177c-5.036,0-8.393,3.357-8.393,8.393v8.393c0,5.036,3.357,8.393,8.393,8.393s8.393-3.357,8.393-8.393     v-8.393C158.475,346.535,155.118,343.177,150.082,343.177z" fill="#5e5e5e"/>
			<path d="M309.557,217.276c-5.036,0-8.393,3.357-8.393,8.393v8.393c0,5.036,3.357,8.393,8.393,8.393s8.393-3.357,8.393-8.393     v-8.393C317.951,220.633,314.593,217.276,309.557,217.276z" fill="#5e5e5e"/>
			<path d="M309.557,259.243c-5.036,0-8.393,3.357-8.393,8.393v8.393c0,5.036,3.357,8.393,8.393,8.393s8.393-3.357,8.393-8.393     v-8.393C317.951,262.6,314.593,259.243,309.557,259.243z" fill="#5e5e5e"/>
			<path d="M309.557,301.21c-5.036,0-8.393,3.357-8.393,8.393v8.393c0,5.036,3.357,8.393,8.393,8.393s8.393-3.357,8.393-8.393     v-8.393C317.951,304.567,314.593,301.21,309.557,301.21z" fill="#5e5e5e"/>
			<path d="M309.557,343.177c-5.036,0-8.393,3.357-8.393,8.393v8.393c0,5.036,3.357,8.393,8.393,8.393s8.393-3.357,8.393-8.393     v-8.393C317.951,346.535,314.593,343.177,309.557,343.177z" fill="#5e5e5e"/>
		</g>
	</g>
</g>
<g>
</g>
<g>
</g>
<g>
</g>
<g>
</g>
<g>
</g>
<g>
</g>
<g>
</g>
<g>
</g>
<g>
</g>
<g>
</g>
<g>
</g>
<g>
</g>
<g>
</g>
<g>
</g>
<g>
</g>
</svg>
