<?xml version="1.0" encoding="iso-8859-1"?>
<!-- Generator: Adobe Illustrator 19.0.0, SVG Export Plug-In . SVG Version: 6.00 Build 0)  -->
<svg xmlns="http://www.w3.org/2000/svg" xmlns:xlink="http://www.w3.org/1999/xlink" version="1.1" id="Layer_1" x="0px" y="0px" viewBox="0 0 503.699 503.699" style="enable-background:new 0 0 503.699 503.699;" xml:space="preserve" width="512px" height="512px">
<g transform="translate(1 1)">
	<g>
		<g>
			<path d="M493.374,182.862c-8.393-10.072-20.144-15.948-32.734-15.948c0-18.466-15.108-33.574-33.574-33.574h-17.599     c-3.797-19.358-20.536-33.574-41.155-33.574H263.393l-39.449-47.003c-1.679-2.518-4.197-3.357-6.715-3.357H66.148     c-18.466,0-33.574,15.108-33.574,33.574v50.361C14.108,133.341-1,148.449-1,166.915v251.803     c0,18.466,15.108,33.574,33.574,33.574h394.492c18.466,0,33.574-15.108,33.574-33.574v-6.715l41.128-193.889     C504.285,205.525,501.767,192.935,493.374,182.862z M49.361,82.981c0-9.233,7.554-16.787,16.787-16.787h146.885l39.449,47.003     c1.679,2.518,4.197,3.357,6.715,3.357h109.954c10.911,0,20.144,6.715,23.502,16.787H49.361V82.981z M443.852,418.718     c0,9.233-7.554,16.787-16.787,16.787H32.574c-9.233,0-16.787-7.554-16.787-16.787V166.915c0-9.233,7.554-16.787,16.787-16.787     h8.393h360.918h25.18c9.233,0,16.787,7.554,16.787,16.787v8.393v235.016V418.718z M485.82,213.918l-25.18,116.669V183.702     c8.393,0,15.108,3.357,20.144,9.233C485.82,198.81,487.498,206.364,485.82,213.918z" fill="#5e5e5e"/>
			<path d="M317.951,183.702H141.689c-23.502,0-41.967,18.466-41.967,41.967v134.295c0,23.502,18.466,41.967,41.967,41.967h176.262     c23.502,0,41.967-18.466,41.967-41.967V225.669C359.918,202.167,341.452,183.702,317.951,183.702z M343.131,359.964     c0,14.269-10.911,25.18-25.18,25.18H141.689c-14.269,0-25.18-10.911-25.18-25.18V225.669c0-14.269,10.911-25.18,25.18-25.18     h176.262c14.269,0,25.18,10.911,25.18,25.18V359.964z" fill="#5e5e5e"/>
			<path d="M288.574,285.262l-109.115-58.754c-2.518-1.679-5.875-1.679-8.393,0c-2.518,1.679-4.197,4.197-4.197,7.554v117.508     c0,3.357,1.679,5.875,4.197,7.554c0.839,0.839,2.518,0.839,4.197,0.839c1.679,0,2.518,0,4.197-0.839l109.115-58.754     c2.518-1.679,4.197-4.197,4.197-7.554S291.092,286.941,288.574,285.262z M183.656,338.141v-89.81l83.095,45.325L183.656,338.141z     " fill="#5e5e5e"/>
		</g>
	</g>
</g>
<g>
</g>
<g>
</g>
<g>
</g>
<g>
</g>
<g>
</g>
<g>
</g>
<g>
</g>
<g>
</g>
<g>
</g>
<g>
</g>
<g>
</g>
<g>
</g>
<g>
</g>
<g>
</g>
<g>
</g>
</svg>
