<?xml version="1.0" encoding="iso-8859-1"?>
<!-- Generator: Adobe Illustrator 19.0.0, SVG Export Plug-In . SVG Version: 6.00 Build 0)  -->
<svg xmlns="http://www.w3.org/2000/svg" xmlns:xlink="http://www.w3.org/1999/xlink" version="1.1" id="Layer_1" x="0px" y="0px" viewBox="0 0 512 512" style="enable-background:new 0 0 512 512;" xml:space="preserve" width="512px" height="512px">
<g transform="translate(1 1)">
	<g>
		<g>
			<path d="M75.8,97.133c5.12,0,8.533-3.413,8.533-8.533s-3.413-8.533-8.533-8.533H7.533C2.413,80.067-1,83.48-1,88.6v332.8     c0,5.12,3.413,8.533,8.533,8.533H75.8c5.12,0,8.533-3.413,8.533-8.533c0-5.12-3.413-8.533-8.533-8.533H16.067V97.133H75.8z" fill="#5e5e5e"/>
			<path d="M502.467,80.067H434.2c-5.12,0-8.533,3.413-8.533,8.533s3.413,8.533,8.533,8.533h59.733v315.733H434.2     c-5.12,0-8.533,3.413-8.533,8.533c0,5.12,3.413,8.533,8.533,8.533h68.267c5.12,0,8.533-3.413,8.533-8.533V88.6     C511,83.48,507.587,80.067,502.467,80.067z" fill="#5e5e5e"/>
			<path d="M255,242.2c0-14.507-11.093-25.6-25.6-25.6h-25.6c-5.12,0-8.533,3.413-8.533,8.533v34.133V293.4     c0,5.12,3.413,8.533,8.533,8.533c5.12,0,8.533-3.413,8.533-8.533v-16.384l29.013,23.211c1.707,0.853,3.413,1.707,5.12,1.707     c2.56,0,5.12-0.853,6.827-3.413c2.56-3.413,1.707-9.387-1.707-11.947L228.12,267.8h1.28C243.907,267.8,255,256.707,255,242.2z      M237.933,242.2c0,5.12-3.413,8.533-8.533,8.533h-17.067v-17.067H229.4C234.52,233.667,237.933,237.08,237.933,242.2z" fill="#5e5e5e"/>
			<path d="M314.733,233.667c5.12,0,8.533-3.413,8.533-8.533c0-5.12-3.413-8.533-8.533-8.533H280.6c-5.12,0-8.533,3.413-8.533,8.533     V293.4c0,5.12,3.413,8.533,8.533,8.533h34.133c5.12,0,8.533-3.413,8.533-8.533c0-5.12-3.413-8.533-8.533-8.533h-25.6V267.8h25.6     c5.12,0,8.533-3.413,8.533-8.533c0-5.12-3.413-8.533-8.533-8.533h-25.6v-17.067H314.733z" fill="#5e5e5e"/>
			<path d="M387.267,232.813c6.827,0,13.653,2.56,18.773,6.827c3.413,3.413,9.387,2.56,11.947-0.853     c3.413-3.413,2.56-9.387-0.853-11.947c-8.533-6.827-18.773-10.24-29.867-10.24c-25.6,0-46.933,21.333-46.933,46.933     s21.333,46.933,46.933,46.933c11.093,0,21.333-3.413,29.867-11.947c3.413-2.56,3.413-8.533,0.853-11.947     c-2.56-3.413-8.533-3.413-11.947-0.853c-5.12,4.267-11.947,6.827-18.773,6.827c-16.213,0-29.867-13.653-29.867-29.867     S371.053,232.813,387.267,232.813z" fill="#5e5e5e"/>
			<path d="M127,225.133c-18.773,0-34.133,15.36-34.133,34.133S108.227,293.4,127,293.4c18.773,0,34.133-15.36,34.133-34.133     S145.773,225.133,127,225.133z M127,276.333c-9.387,0-17.067-7.68-17.067-17.067c0-9.387,7.68-17.067,17.067-17.067     s17.067,7.68,17.067,17.067C144.067,268.653,136.387,276.333,127,276.333z" fill="#5e5e5e"/>
		</g>
	</g>
</g>
<g>
</g>
<g>
</g>
<g>
</g>
<g>
</g>
<g>
</g>
<g>
</g>
<g>
</g>
<g>
</g>
<g>
</g>
<g>
</g>
<g>
</g>
<g>
</g>
<g>
</g>
<g>
</g>
<g>
</g>
</svg>
