<?xml version="1.0" encoding="iso-8859-1"?>
<!-- Generator: Adobe Illustrator 19.0.0, SVG Export Plug-In . SVG Version: 6.00 Build 0)  -->
<svg version="1.1" id="Layer_1" xmlns="http://www.w3.org/2000/svg" xmlns:xlink="http://www.w3.org/1999/xlink" x="0px" y="0px"
	 viewBox="0 0 473.935 473.935" style="enable-background:new 0 0 473.935 473.935;" xml:space="preserve">
<g>
	<circle style="fill:#9F77AA;" cx="236.966" cy="236.966" r="236.966"/>
	<path style="fill:#9F77AA;" d="M416.106,192.207c-27.7,5.13-62.177,11.525-118.636,1.482c-13.964-2.481-28.595,2.746-42.735,7.809
		c-6.35,2.271-12.92,4.625-19.412,6.282l-6.084,1.549c-55.307,14.043-112.492,28.565-147.122,90.891
		c-11.876,21.377-24.595,32.198-37.81,32.198c-0.266,0-0.531,0-0.797-0.007c-18.357-0.602-30.664-21.919-33.608-27.569
		c29.197,97.783,119.777,169.09,227.057,169.09c130.879,0,236.977-106.098,236.977-236.977c0-16.52-1.703-32.639-4.917-48.205
		C450.934,185.76,435.271,188.656,416.106,192.207z"/>
	<path style="fill:#9F77AA;" d="M472.457,210.766c0.412,3.667,0.703,7.371,0.943,11.087
		C473.164,218.133,472.861,214.433,472.457,210.766z"/>
	<path style="fill:#9F77AA;" d="M473.557,223.941c0.239,4.307,0.37,8.643,0.37,13.01
		C473.931,232.588,473.793,228.251,473.557,223.941z"/>
	<path style="fill:#9F77AA;" d="M470.62,197.614c0.666,3.948,1.216,7.936,1.684,11.947
		C471.843,205.546,471.282,201.565,470.62,197.614z"/>
	<path style="fill:#9F77AA;" d="M214.388,472.835c-1.059-0.101-2.114-0.206-3.173-0.318
		C212.27,472.629,213.329,472.734,214.388,472.835z"/>
	<path style="fill:#9F77AA;" d="M201.722,471.308c-0.389-0.056-0.778-0.105-1.164-0.161
		C200.947,471.204,201.337,471.252,201.722,471.308z"/>
	<path style="fill:#9F77AA;" d="M470.575,197.363c-0.483-2.885-0.973-5.766-1.56-8.614c-0.045-0.007-0.09-0.007-0.138-0.019
		C469.471,191.597,470.081,194.459,470.575,197.363z"/>
	<path style="fill:#9F77AA;" d="M225.782,473.647c-1.096-0.049-2.185-0.131-3.278-0.198
		C223.596,473.516,224.685,473.598,225.782,473.647z"/>
</g>
<g>
	<path style="fill:#DFBFDB;" d="M469.015,188.749L469.015,188.749c-0.273-1.317-0.599-2.612-0.906-3.918
		c0,0.004,0,0.007,0.004,0.015C468.405,186.149,468.742,187.436,469.015,188.749z"/>
	<path style="fill:#DFBFDB;" d="M468.109,184.828c-0.303-1.298-0.587-2.604-0.902-3.903l0,0
		C467.522,182.224,467.817,183.526,468.109,184.828L468.109,184.828z"/>
	<path style="fill:#DFBFDB;" d="M468.876,188.731c0.045,0.007,0.09,0.011,0.138,0.019c-0.273-1.313-0.61-2.601-0.902-3.903
		C468.397,186.126,468.611,187.44,468.876,188.731z"/>
	<path style="fill:#DFBFDB;" d="M414.74,184.85c-27.105,5.025-60.845,11.278-115.961,1.474c-15.936-2.847-31.506,2.735-46.566,8.131
		c-6.473,2.316-12.587,4.505-18.739,6.077l-6.08,1.545c-56.845,14.432-115.624,29.362-151.822,94.509
		c-10.638,19.139-21.302,28.624-31.809,28.34c-12.28-0.389-26.091-12.61-32.059-18.552c8.554,12.958,36.598,46.985,67.138-7.974
		c36.684-66.02,97.072-79.322,155.552-94.244c20.931-5.343,42.304-17.964,63.726-14.148c93.084,16.557,124.694-11.891,169.984-5.175
		c-0.292-1.306-0.587-2.608-0.902-3.903C449.019,178.508,432.903,181.479,414.74,184.85z"/>
</g>
<g>
	<polygon style="fill:#C698C5;" points="468.109,184.828 468.109,184.828 468.109,184.832 	"/>
	<path style="fill:#C698C5;" d="M470.575,197.363c0.015,0.082,0.03,0.168,0.045,0.251
		C470.605,197.531,470.586,197.445,470.575,197.363z"/>
	<path style="fill:#C698C5;" d="M211.215,472.517c-3.18-0.344-6.35-0.737-9.493-1.209
		C204.869,471.772,208.034,472.176,211.215,472.517z"/>
	<path style="fill:#C698C5;" d="M222.504,473.452c-2.72-0.161-5.426-0.363-8.116-0.617
		C217.082,473.086,219.787,473.288,222.504,473.452z"/>
	<path style="fill:#C698C5;" d="M236.954,473.931c-3.745,0-7.469-0.109-11.169-0.284
		C229.49,473.819,233.213,473.931,236.954,473.931z"/>
	<path style="fill:#C698C5;" d="M472.304,209.561c0.049,0.4,0.109,0.801,0.153,1.205
		C472.412,210.362,472.352,209.965,472.304,209.561z"/>
	<path style="fill:#C698C5;" d="M473.4,221.853c0.045,0.7,0.12,1.388,0.157,2.092C473.52,223.241,473.445,222.549,473.4,221.853z"/>
	<path style="fill:#C698C5;" d="M473.557,223.941c-0.037-0.703-0.116-1.392-0.157-2.092c-0.239-3.716-0.531-7.42-0.943-11.087
		c-0.045-0.404-0.105-0.801-0.153-1.205c-0.468-4.011-1.018-8-1.684-11.947c-0.015-0.082-0.03-0.168-0.045-0.251
		c-0.49-2.904-1.1-5.766-1.699-8.632c-18.02-2.949-33.653-0.067-52.77,3.48c-27.7,5.13-62.177,11.525-118.636,1.482
		c-13.964-2.481-28.595,2.746-42.735,7.809c-6.35,2.271-12.92,4.625-19.412,6.282l-6.084,1.549
		c-55.307,14.043-112.492,28.565-147.122,90.891c-11.876,21.377-24.595,32.198-37.81,32.198c-0.266,0-0.531,0-0.797-0.007
		c-10.08-0.329-20.52-6.039-28.389-12.048c29.635,78.779,99.995,137.614,185.445,150.785c0.389,0.06,0.778,0.105,1.164,0.161
		c3.143,0.468,6.312,0.861,9.493,1.209c1.055,0.112,2.114,0.217,3.173,0.318c2.69,0.254,5.399,0.453,8.116,0.617
		c1.093,0.067,2.181,0.15,3.278,0.198c3.704,0.172,7.424,0.284,11.169,0.284c130.879,0,236.977-106.098,236.977-236.977
		C473.931,232.584,473.797,228.247,473.557,223.941z"/>
	<path style="fill:#C698C5;" d="M11.704,306.372c-1.384-2.103-2.275-3.663-2.563-4.187c0.21,0.733,0.408,1.467,0.625,2.196
		C10.26,304.909,10.911,305.578,11.704,306.372z"/>
	<path style="fill:#C698C5;" d="M468.109,184.828c-45.29-6.716-76.901,21.736-169.984,5.175
		c-21.425-3.817-42.798,8.808-63.726,14.148c-58.48,14.922-118.872,28.224-155.552,94.244c-30.54,54.963-58.588,20.939-67.142,7.977
		c-0.793-0.793-1.444-1.463-1.938-1.991c1.601,5.407,3.379,10.739,5.347,15.977c7.869,6.009,18.312,11.719,28.389,12.048
		c0.266,0.007,0.531,0.007,0.797,0.007c13.22,0,25.938-10.825,37.81-32.198c34.626-62.326,91.815-76.848,147.122-90.891l6.084-1.549
		c6.492-1.654,13.062-4.007,19.412-6.282c14.14-5.063,28.767-10.29,42.735-7.809c56.459,10.047,90.936,3.652,118.636-1.482
		c19.117-3.543,34.75-6.428,52.77-3.48c-0.266-1.291-0.475-2.601-0.763-3.884C468.109,184.839,468.109,184.835,468.109,184.828z"/>
</g>
<path style="fill:#DAC425;" d="M376.29,350.899c0,31.146-53.765,56.403-120.092,56.403c-66.323,0-120.088-25.257-120.088-56.403
	c0-31.154-12.007-56.411,120.088-56.411C389.936,294.488,376.29,319.745,376.29,350.899z"/>
<ellipse style="fill:#F4E028;" cx="256.198" cy="328.339" rx="120.073" ry="56.426"/>
<path style="fill:#F9F29A;" d="M200.888,378.554c0,0,23.289,5.826,47.307,6.189l0.367,22.559c0,0-28.385,0.722-47.49-6.372
	L200.888,378.554z"/>
<path style="fill:#DAC425;" d="M371.923,312.991c0,31.146-53.769,56.403-120.092,56.403c-66.326,0-120.088-25.257-120.088-56.403
	c0-31.154-12.007-56.411,120.088-56.411C385.566,256.584,371.923,281.837,371.923,312.991z"/>
<ellipse style="fill:#F4E028;" cx="251.82" cy="290.435" rx="120.073" ry="56.426"/>
<path style="fill:#F9F29A;" d="M196.517,340.646c0,0,23.296,5.818,47.315,6.189l0.363,22.559c0,0-28.385,0.73-47.49-6.365
	L196.517,340.646z"/>
<path style="fill:#DAC425;" d="M376.29,278.978c0,31.154-53.765,56.403-120.092,56.403c-66.323,0-120.088-25.249-120.088-56.403
	c0-31.146-12.007-56.403,120.088-56.403C389.936,222.579,376.29,247.835,376.29,278.978z"/>
<ellipse style="fill:#F4E028;" cx="256.198" cy="256.423" rx="120.073" ry="56.388"/>
<path style="fill:#F9F29A;" d="M200.888,306.641c0,0,23.289,5.826,47.307,6.181l0.367,22.559c0,0-28.385,0.73-47.49-6.365
	L200.888,306.641z"/>
<path style="fill:#DAC425;" d="M371.923,244.977c0,31.154-53.769,56.411-120.092,56.411c-66.326,0-120.088-25.257-120.088-56.411
	c0-31.146-12.007-56.403,120.088-56.403C385.566,188.573,371.923,213.83,371.923,244.977z"/>
<ellipse style="fill:#F4E028;" cx="251.82" cy="222.41" rx="120.073" ry="56.426"/>
<path style="fill:#F9F29A;" d="M196.517,272.636c0,0,23.296,5.818,47.315,6.189l0.363,22.559c0,0-28.385,0.722-47.49-6.372
	L196.517,272.636z"/>
<path style="fill:#DAC425;" d="M367.553,210.979c0,31.146-53.762,56.396-120.084,56.396c-66.33,0-120.096-25.249-120.096-56.396
	c0-31.154-12.007-56.411,120.096-56.411C381.199,154.568,367.553,179.825,367.553,210.979z"/>
<ellipse style="fill:#F4E028;" cx="247.48" cy="188.398" rx="120.073" ry="56.388"/>
<path style="fill:#F9F29A;" d="M192.151,238.631c0,0,23.292,5.822,47.311,6.185l0.363,22.559c0,0-28.381,0.73-47.483-6.365
	L192.151,238.631z"/>
<path style="fill:#DAC425;" d="M371.923,176.967c0,31.15-53.769,56.407-120.092,56.407c-66.326,0-120.088-25.257-120.088-56.407
	c0-31.146-12.007-56.403,120.088-56.403C385.566,120.563,371.923,145.82,371.923,176.967z"/>
<ellipse style="fill:#F4E028;" cx="251.82" cy="154.422" rx="120.073" ry="56.388"/>
<g>
	<ellipse style="fill:#F9F29A;stroke:#E1C821;stroke-miterlimit:10;" cx="251.82" cy="151.856" rx="100.578" ry="47.255"/>
	<path style="fill:#F9F29A;" d="M196.517,204.626c0,0,23.296,5.83,47.315,6.185l0.363,22.563c0,0-28.385,0.726-47.49-6.368
		L196.517,204.626z"/>
</g>
<g>
	<circle style="fill:#DFBFDB;" cx="78.839" cy="298.405" r="11.338"/>
	<circle style="fill:#DFBFDB;" cx="37.002" cy="324.56" r="11.338"/>
	<circle style="fill:#DFBFDB;" cx="111.953" cy="256.573" r="11.338"/>
	<circle style="fill:#DFBFDB;" cx="385.663" cy="192.065" r="11.338"/>
	<circle style="fill:#DFBFDB;" cx="444.933" cy="185.067" r="11.338"/>
</g>
<g>
</g>
<g>
</g>
<g>
</g>
<g>
</g>
<g>
</g>
<g>
</g>
<g>
</g>
<g>
</g>
<g>
</g>
<g>
</g>
<g>
</g>
<g>
</g>
<g>
</g>
<g>
</g>
<g>
</g>
</svg>
