<?xml version="1.0" encoding="iso-8859-1"?>
<!-- Generator: Adobe Illustrator 19.0.0, SVG Export Plug-In . SVG Version: 6.00 Build 0)  -->
<svg version="1.1" id="Layer_1" xmlns="http://www.w3.org/2000/svg" xmlns:xlink="http://www.w3.org/1999/xlink" x="0px" y="0px"
	 viewBox="0 0 473.931 473.931" style="enable-background:new 0 0 473.931 473.931;" xml:space="preserve">
<circle style="fill:#9F77AA;" cx="236.966" cy="236.966" r="236.966"/>
<path style="fill:#DAC425;" d="M176.435,253.848c0,13.859-23.921,25.092-53.417,25.092s-53.41-11.233-53.41-25.092
	c0-13.856-5.339-25.089,53.41-25.089C182.501,228.76,176.435,239.993,176.435,253.848z"/>
<ellipse style="fill:#F4E028;" cx="123.022" cy="243.813" rx="53.414" ry="25.085"/>
<path style="fill:#F9F29A;" d="M98.42,266.151c0,0,10.353,2.586,21.04,2.746l0.165,10.043c0,0-12.628,0.322-21.126-2.836
	L98.42,266.151z"/>
<path style="fill:#DAC425;" d="M174.493,236.988c0,13.852-23.917,25.081-53.417,25.081s-53.414-11.229-53.414-25.081
	c0-13.863-5.339-25.089,53.414-25.089C180.562,211.9,174.493,223.125,174.493,236.988z"/>
<ellipse style="fill:#F4E028;" cx="121.076" cy="226.953" rx="53.417" ry="25.089"/>
<path style="fill:#F9F29A;" d="M96.466,249.284c0,0,10.365,2.597,21.047,2.754l0.165,10.032c0,0-12.625,0.337-21.126-2.829
	L96.466,249.284z"/>
<path style="fill:#DAC425;" d="M176.435,221.86c0,13.863-23.921,25.092-53.417,25.092s-53.41-11.229-53.41-25.092
	c0-13.856-5.339-25.089,53.41-25.089C182.501,196.772,176.435,208.004,176.435,221.86z"/>
<ellipse style="fill:#F4E028;" cx="123.022" cy="211.829" rx="53.414" ry="25.085"/>
<path style="fill:#F9F29A;" d="M98.42,234.159c0,0,10.353,2.597,21.04,2.75l0.165,10.043c0,0-12.628,0.318-21.126-2.833
	L98.42,234.159z"/>
<path style="fill:#DAC425;" d="M174.493,206.736c0,13.859-23.917,25.089-53.417,25.089s-53.414-11.229-53.414-25.089
	c0-13.852-5.339-25.092,53.414-25.092C180.562,181.644,174.493,192.884,174.493,206.736z"/>
<ellipse style="fill:#F4E028;" cx="121.076" cy="196.704" rx="53.417" ry="25.092"/>
<path style="fill:#F9F29A;" d="M96.466,219.039c0,0,10.365,2.586,21.047,2.754l0.165,10.032c0,0-12.625,0.326-21.126-2.833
	L96.466,219.039z"/>
<path style="fill:#DAC425;" d="M172.548,191.612c0,13.856-23.914,25.089-53.414,25.089c-29.504,0-53.41-11.233-53.41-25.089
	s-5.347-25.092,53.41-25.092C178.62,166.52,172.548,177.756,172.548,191.612z"/>
<ellipse style="fill:#F4E028;" cx="119.134" cy="181.58" rx="53.414" ry="25.081"/>
<path style="fill:#F9F29A;" d="M94.528,203.911c0,0,10.361,2.593,21.047,2.746l0.157,10.043c0,0-12.625,0.322-21.122-2.836
	L94.528,203.911z"/>
<path style="fill:#DAC425;" d="M174.493,176.484c0,13.856-23.917,25.096-53.417,25.096s-53.414-11.24-53.414-25.096
	c0-13.856-5.339-25.089,53.414-25.089C180.562,151.395,174.493,162.628,174.493,176.484z"/>
<ellipse style="fill:#F4E028;" cx="121.076" cy="166.452" rx="53.417" ry="25.088"/>
<g>
	<ellipse style="fill:#F9F29A;stroke:#E1C821;stroke-miterlimit:10;" cx="121.076" cy="165.311" rx="44.736" ry="21.017"/>
	<path style="fill:#F9F29A;" d="M96.466,188.787c0,0,10.365,2.589,21.047,2.75l0.165,10.043c0,0-12.625,0.318-21.126-2.836
		L96.466,188.787z"/>
</g>
<path style="fill:#DAC425;" d="M423.803,250.754c0,13.856-23.914,25.096-53.414,25.096c-29.504,0-53.414-11.24-53.414-25.096
	c0-13.852-5.34-25.085,53.414-25.085C429.872,225.669,423.803,236.902,423.803,250.754z"/>
<path style="fill:#F4E028;" d="M423.803,240.715c0,13.859-23.914,25.1-53.414,25.1c-29.504,0-53.414-11.236-53.414-25.1
	c0-13.848,23.91-25.089,53.414-25.089C399.886,215.626,423.803,226.867,423.803,240.715z"/>
<path style="fill:#F9F29A;" d="M345.78,263.061c0,0,10.361,2.586,21.047,2.754l0.157,10.035c0,0-12.621,0.314-21.122-2.844
	L345.78,263.061z"/>
<path style="fill:#DAC425;" d="M421.861,233.894c0,13.852-23.921,25.089-53.417,25.089s-53.414-11.237-53.414-25.089
	c0-13.859-5.347-25.085,53.414-25.085C427.934,208.809,421.861,220.034,421.861,233.894z"/>
<path style="fill:#F4E028;" d="M421.861,223.858c0,13.859-23.921,25.096-53.417,25.096s-53.414-11.236-53.414-25.096
	c0-13.848,23.917-25.089,53.414-25.089C397.944,198.766,421.861,210.006,421.861,223.858z"/>
<path style="fill:#F9F29A;" d="M343.838,246.189c0,0,10.365,2.593,21.047,2.761l0.161,10.032c0,0-12.628,0.329-21.126-2.829
	L343.838,246.189z"/>
<path style="fill:#DAC425;" d="M423.803,218.77c0,13.859-23.914,25.089-53.414,25.089c-29.504,0-53.414-11.229-53.414-25.089
	c0-13.856-5.34-25.089,53.414-25.089C429.872,193.681,423.803,204.914,423.803,218.77z"/>
<ellipse style="fill:#F4E028;" cx="370.397" cy="208.734" rx="53.414" ry="25.081"/>
<path style="fill:#F9F29A;" d="M345.78,231.069c0,0,10.361,2.593,21.047,2.746l0.157,10.043c0,0-12.621,0.322-21.122-2.829
	L345.78,231.069z"/>
<path style="fill:#DAC425;" d="M421.861,203.642c0,13.859-23.921,25.089-53.417,25.089s-53.414-11.229-53.414-25.089
	c0-13.848-5.347-25.089,53.414-25.089C427.934,178.553,421.861,189.793,421.861,203.642z"/>
<ellipse style="fill:#F4E028;" cx="368.451" cy="193.61" rx="53.417" ry="25.096"/>
<path style="fill:#F9F29A;" d="M343.838,215.944c0,0,10.365,2.589,21.047,2.758l0.161,10.028c0,0-12.628,0.329-21.126-2.829
	L343.838,215.944z"/>
<path style="fill:#DAC425;" d="M419.912,188.521c0,13.856-23.91,25.085-53.414,25.085c-29.496,0-53.41-11.229-53.41-25.085
	c0-13.859-5.34-25.089,53.41-25.089C425.988,163.433,419.912,174.662,419.912,188.521z"/>
<ellipse style="fill:#F4E028;" cx="366.505" cy="178.489" rx="53.414" ry="25.085"/>
<path style="fill:#F9F29A;" d="M341.9,200.817c0,0,10.361,2.593,21.04,2.754l0.157,10.035c0,0-12.621,0.326-21.118-2.833
	L341.9,200.817z"/>
<path style="fill:#DAC425;" d="M421.861,173.397c0,13.852-23.921,25.089-53.417,25.089s-53.414-11.237-53.414-25.089
	c0-13.859-5.347-25.092,53.414-25.092C427.934,148.305,421.861,159.537,421.861,173.397z"/>
<ellipse style="fill:#F4E028;" cx="368.451" cy="163.362" rx="53.417" ry="25.089"/>
<g>
	<ellipse style="fill:#F9F29A;stroke:#E1C821;stroke-miterlimit:10;" cx="368.451" cy="162.205" rx="44.736" ry="21.017"/>
	<path style="fill:#F9F29A;" d="M343.838,185.692c0,0,10.365,2.589,21.047,2.754l0.161,10.039c0,0-12.628,0.318-21.126-2.833
		L343.838,185.692z"/>
</g>
<path style="fill:#DAC425;" d="M224.872,236.397c0,13.859-23.921,25.088-53.417,25.088c-29.5,0-53.414-11.229-53.414-25.088
	c0-13.848-5.34-25.089,53.414-25.089C230.945,211.308,224.872,222.549,224.872,236.397z"/>
<ellipse style="fill:#F4E028;" cx="171.459" cy="226.376" rx="53.414" ry="25.092"/>
<path style="fill:#F9F29A;" d="M146.853,248.7c0,0,10.353,2.589,21.04,2.754l0.165,10.032c0,0-12.628,0.329-21.126-2.829
	L146.853,248.7z"/>
<path style="fill:#DAC425;" d="M222.927,219.537c0,13.859-23.914,25.089-53.417,25.089c-29.496,0-53.414-11.229-53.414-25.089
	c0-13.856-5.34-25.085,53.414-25.085C228.999,194.452,222.927,205.681,222.927,219.537z"/>
<ellipse style="fill:#F4E028;" cx="169.502" cy="209.501" rx="53.417" ry="25.092"/>
<path style="fill:#F9F29A;" d="M144.907,231.839c0,0,10.361,2.589,21.044,2.754l0.161,10.032c0,0-12.625,0.326-21.126-2.829
	L144.907,231.839z"/>
<path style="fill:#DAC425;" d="M224.872,204.416c0,13.856-23.921,25.085-53.417,25.085c-29.5,0-53.414-11.229-53.414-25.085
	s-5.34-25.089,53.414-25.089C230.945,179.328,224.872,190.56,224.872,204.416z"/>
<ellipse style="fill:#F4E028;" cx="171.459" cy="194.384" rx="53.414" ry="25.085"/>
<path style="fill:#F9F29A;" d="M146.853,216.712c0,0,10.353,2.589,21.04,2.754l0.165,10.035c0,0-12.628,0.326-21.126-2.833
	L146.853,216.712z"/>
<path style="fill:#DAC425;" d="M222.927,189.284c0,13.859-23.914,25.096-53.417,25.096c-29.496,0-53.414-11.236-53.414-25.096
	c0-13.852-5.34-25.085,53.414-25.085C228.999,164.2,222.927,175.432,222.927,189.284z"/>
<ellipse style="fill:#F4E028;" cx="169.502" cy="179.257" rx="53.417" ry="25.089"/>
<path style="fill:#F9F29A;" d="M144.907,201.587c0,0,10.361,2.589,21.044,2.754l0.161,10.039c0,0-12.625,0.318-21.126-2.84
	L144.907,201.587z"/>
<path style="fill:#DAC425;" d="M220.985,174.164c0,13.859-23.917,25.089-53.41,25.089c-29.508,0-53.414-11.229-53.414-25.089
	c0-13.859-5.347-25.092,53.414-25.092C227.054,149.072,220.985,160.304,220.985,174.164z"/>
<ellipse style="fill:#F4E028;" cx="167.571" cy="164.129" rx="53.414" ry="25.088"/>
<path style="fill:#F9F29A;" d="M142.965,186.467c0,0,10.361,2.582,21.047,2.746l0.157,10.039c0,0-12.625,0.322-21.118-2.836
	L142.965,186.467z"/>
<path style="fill:#DAC425;" d="M222.927,159.036c0,13.856-23.914,25.092-53.417,25.092c-29.496,0-53.414-11.236-53.414-25.092
	c0-13.859-5.34-25.089,53.414-25.089C228.999,133.948,222.927,145.177,222.927,159.036z"/>
<path style="fill:#F4E028;" d="M222.927,149.008c0,13.848-23.914,25.081-53.417,25.081c-29.496,0-53.414-11.233-53.414-25.081
	c0-13.863,23.917-25.088,53.414-25.088C199.013,123.92,222.927,135.145,222.927,149.008z"/>
<g>
	<ellipse style="fill:#F9F29A;stroke:#E1C821;stroke-miterlimit:10;" cx="169.502" cy="147.867" rx="44.74" ry="21.017"/>
	<path style="fill:#F9F29A;" d="M144.907,171.339c0,0,10.361,2.593,21.044,2.746l0.161,10.043c0,0-12.625,0.322-21.126-2.836
		L144.907,171.339z"/>
</g>
<path style="fill:#DAC425;" d="M297.418,184.656c0,13.856-23.921,25.088-53.417,25.088s-53.41-11.233-53.41-25.089
	s-5.343-25.089,53.41-25.089C303.483,159.567,297.418,170.8,297.418,184.656z"/>
<ellipse style="fill:#F4E028;" cx="244" cy="174.62" rx="53.414" ry="25.088"/>
<path style="fill:#F9F29A;" d="M219.398,196.955c0,0,10.353,2.593,21.04,2.754l0.165,10.035c0,0-12.625,0.318-21.126-2.833
	L219.398,196.955z"/>
<path style="fill:#DAC425;" d="M295.476,167.795c0,13.848-23.917,25.089-53.417,25.089c-29.5,0-53.414-11.24-53.414-25.089
	c0-13.859-5.34-25.089,53.414-25.089C301.545,142.707,295.476,153.936,295.476,167.795z"/>
<path style="fill:#F4E028;" d="M295.476,157.756c0,13.859-23.917,25.092-53.417,25.092c-29.5,0-53.414-11.233-53.414-25.092
	c0-13.845,23.914-25.085,53.414-25.085S295.476,143.912,295.476,157.756z"/>
<path style="fill:#F9F29A;" d="M217.449,180.095c0,0,10.365,2.593,21.047,2.754l0.165,10.035c0,0-12.625,0.326-21.126-2.833
	L217.449,180.095z"/>
<path style="fill:#DAC425;" d="M297.418,152.668c0,13.859-23.921,25.089-53.417,25.089s-53.41-11.229-53.41-25.089
	c0-13.856-5.343-25.089,53.41-25.089C303.483,127.579,297.418,138.812,297.418,152.668z"/>
<ellipse style="fill:#F4E028;" cx="244" cy="142.636" rx="53.414" ry="25.089"/>
<path style="fill:#F9F29A;" d="M219.398,164.967c0,0,10.353,2.593,21.04,2.754l0.165,10.035c0,0-12.625,0.326-21.126-2.833
	L219.398,164.967z"/>
<path style="fill:#DAC425;" d="M295.476,137.547c0,13.856-23.917,25.089-53.417,25.089c-29.5,0-53.414-11.233-53.414-25.089
	s-5.34-25.089,53.414-25.089C301.545,112.459,295.476,123.691,295.476,137.547z"/>
<path style="fill:#F4E028;" d="M295.476,127.508c0,13.863-23.917,25.096-53.417,25.096c-29.5,0-53.414-11.233-53.414-25.096
	c0-13.848,23.914-25.089,53.414-25.089C271.558,102.416,295.476,113.656,295.476,127.508z"/>
<path style="fill:#F9F29A;" d="M217.449,149.85c0,0,10.365,2.582,21.047,2.75l0.165,10.035c0,0-12.625,0.326-21.126-2.836
	L217.449,149.85z"/>
<path style="fill:#DAC425;" d="M293.53,122.419c0,13.852-23.917,25.089-53.414,25.089c-29.504,0-53.41-11.236-53.41-25.089
	c0-13.856-5.347-25.089,53.41-25.089C299.599,97.331,293.53,108.563,293.53,122.419z"/>
<ellipse style="fill:#F4E028;" cx="240.109" cy="112.365" rx="53.414" ry="25.088"/>
<path style="fill:#F9F29A;" d="M215.51,134.722c0,0,10.361,2.582,21.047,2.75l0.157,10.035c0,0-12.628,0.322-21.118-2.836
	L215.51,134.722z"/>
<path style="fill:#DAC425;" d="M295.476,107.291c0,13.863-23.917,25.092-53.417,25.092c-29.5,0-53.414-11.229-53.414-25.092
	c0-13.852-5.34-25.081,53.414-25.081C301.545,82.21,295.476,93.439,295.476,107.291z"/>
<ellipse style="fill:#F4E028;" cx="242.058" cy="97.248" rx="53.417" ry="25.096"/>
<g>
	<ellipse style="fill:#F9F29A;stroke:#E1C821;stroke-miterlimit:10;" cx="242.054" cy="96.126" rx="44.736" ry="21.017"/>
	<path style="fill:#F9F29A;" d="M217.449,119.594c0,0,10.365,2.586,21.047,2.758l0.165,10.032c0,0-12.625,0.326-21.126-2.833
		L217.449,119.594z"/>
</g>
<path style="fill:#DAC425;" d="M355.351,241.916c0,13.856-23.914,25.092-53.414,25.092c-29.504,0-53.414-11.233-53.414-25.092
	c0-13.848-5.34-25.089,53.414-25.089C361.42,216.828,355.351,228.068,355.351,241.916z"/>
<ellipse style="fill:#F4E028;" cx="301.923" cy="231.877" rx="53.414" ry="25.089"/>
<path style="fill:#F9F29A;" d="M277.332,254.219c0,0,10.361,2.589,21.047,2.75l0.157,10.035c0,0-12.617,0.322-21.118-2.836
	L277.332,254.219z"/>
<path style="fill:#DAC425;" d="M353.413,225.056c0,13.852-23.921,25.089-53.417,25.089c-29.5,0-53.41-11.237-53.41-25.089
	c0-13.856-5.347-25.089,53.41-25.089C359.482,199.967,353.413,211.2,353.413,225.056z"/>
<ellipse style="fill:#F4E028;" cx="300.014" cy="215.002" rx="53.414" ry="25.088"/>
<path style="fill:#F9F29A;" d="M275.386,237.355c0,0,10.368,2.593,21.047,2.754l0.165,10.035c0,0-12.628,0.326-21.126-2.836
	L275.386,237.355z"/>
<path style="fill:#DAC425;" d="M355.351,209.928c0,13.859-23.914,25.096-53.414,25.096c-29.504,0-53.414-11.237-53.414-25.096
	c0-13.856-5.34-25.089,53.414-25.089C361.42,184.839,355.351,196.072,355.351,209.928z"/>
<ellipse style="fill:#F4E028;" cx="301.923" cy="199.885" rx="53.414" ry="25.088"/>
<path style="fill:#F9F29A;" d="M277.332,222.231c0,0,10.361,2.589,21.047,2.75l0.157,10.043c0,0-12.617,0.318-21.118-2.836
	L277.332,222.231z"/>
<path style="fill:#DAC425;" d="M353.413,194.8c0,13.859-23.921,25.096-53.417,25.096c-29.5,0-53.41-11.236-53.41-25.096
	c0-13.848-5.347-25.081,53.41-25.081C359.482,169.719,353.413,180.952,353.413,194.8z"/>
<ellipse style="fill:#F4E028;" cx="300.014" cy="184.768" rx="53.414" ry="25.089"/>
<path style="fill:#F9F29A;" d="M275.386,207.106c0,0,10.368,2.586,21.047,2.75l0.165,10.039c0,0-12.628,0.322-21.126-2.836
	L275.386,207.106z"/>
<path style="fill:#DAC425;" d="M351.467,179.679c0,13.856-23.914,25.089-53.417,25.089c-29.496,0-53.41-11.233-53.41-25.089
	c0-13.856-5.34-25.089,53.41-25.089C357.536,154.591,351.467,165.824,351.467,179.679z"/>
<ellipse style="fill:#F4E028;" cx="298.069" cy="169.651" rx="53.414" ry="25.092"/>
<path style="fill:#F9F29A;" d="M273.448,191.978c0,0,10.361,2.593,21.04,2.754l0.157,10.035c0,0-12.621,0.322-21.122-2.833
	L273.448,191.978z"/>
<path style="fill:#DAC425;" d="M353.413,164.555c0,13.852-23.921,25.089-53.417,25.089c-29.5,0-53.41-11.236-53.41-25.089
	c0-13.859-5.347-25.092,53.41-25.092C359.482,139.463,353.413,150.696,353.413,164.555z"/>
<ellipse style="fill:#F4E028;" cx="300.014" cy="154.497" rx="53.414" ry="25.088"/>
<g>
	<ellipse style="fill:#F9F29A;stroke:#E1C821;stroke-miterlimit:10;" cx="300.014" cy="153.375" rx="44.736" ry="21.017"/>
	<path style="fill:#F9F29A;" d="M275.386,176.858c0,0,10.368,2.582,21.047,2.746l0.165,10.039c0,0-12.628,0.326-21.126-2.833
		L275.386,176.858z"/>
</g>
<path style="fill:#DAC425;" d="M295.936,290.72c0,13.856-23.921,25.089-53.417,25.089c-29.5,0-53.414-11.233-53.414-25.089
	s-5.339-25.089,53.414-25.089C302.005,265.631,295.936,276.864,295.936,290.72z"/>
<ellipse style="fill:#F4E028;" cx="242.518" cy="280.669" rx="53.414" ry="25.089"/>
<path style="fill:#F9F29A;" d="M217.916,303.019c0,0,10.361,2.593,21.044,2.754l0.165,10.035c0,0-12.628,0.322-21.126-2.829
	L217.916,303.019z"/>
<path style="fill:#DAC425;" d="M293.99,273.859c0,13.856-23.914,25.089-53.41,25.089c-29.504,0-53.417-11.233-53.417-25.089
	c0-13.859-5.343-25.085,53.417-25.085C300.059,248.778,293.99,260.004,293.99,273.859z"/>
<ellipse style="fill:#F4E028;" cx="240.595" cy="263.832" rx="53.414" ry="25.089"/>
<path style="fill:#F9F29A;" d="M215.974,286.159c0,0,10.365,2.593,21.047,2.754l0.157,10.035c0,0-12.628,0.329-21.122-2.829
	L215.974,286.159z"/>
<path style="fill:#DAC425;" d="M295.936,258.735c0,13.863-23.921,25.089-53.417,25.089c-29.5,0-53.414-11.225-53.414-25.089
	c0-13.852-5.339-25.092,53.414-25.092C302.005,233.643,295.936,244.883,295.936,258.735z"/>
<ellipse style="fill:#F4E028;" cx="242.518" cy="248.715" rx="53.414" ry="25.089"/>
<path style="fill:#F9F29A;" d="M217.916,271.038c0,0,10.361,2.586,21.044,2.746l0.165,10.035c0,0-12.628,0.329-21.126-2.829
	L217.916,271.038z"/>
<path style="fill:#DAC425;" d="M293.99,243.611c0,13.856-23.914,25.092-53.41,25.092c-29.504,0-53.417-11.233-53.417-25.092
	s-5.343-25.092,53.417-25.092C300.059,218.519,293.99,229.755,293.99,243.611z"/>
<ellipse style="fill:#F4E028;" cx="240.595" cy="233.561" rx="53.414" ry="25.089"/>
<path style="fill:#F9F29A;" d="M215.974,255.918c0,0,10.365,2.582,21.047,2.746l0.157,10.035c0,0-12.628,0.322-21.122-2.836
	L215.974,255.918z"/>
<path style="fill:#DAC425;" d="M292.048,228.487c0,13.852-23.914,25.092-53.41,25.092c-29.5,0-53.414-11.24-53.414-25.092
	c0-13.859-5.347-25.089,53.414-25.089C298.117,203.398,292.048,214.627,292.048,228.487z"/>
<ellipse style="fill:#F4E028;" cx="238.634" cy="218.444" rx="53.414" ry="25.089"/>
<path style="fill:#F9F29A;" d="M214.032,240.782c0,0,10.353,2.593,21.04,2.754l0.157,10.043c0,0-12.625,0.314-21.118-2.844
	L214.032,240.782z"/>
<path style="fill:#DAC425;" d="M293.99,213.363c0,13.856-23.914,25.089-53.41,25.089c-29.504,0-53.417-11.233-53.417-25.089
	c0-13.856-5.343-25.092,53.417-25.092C300.059,188.27,293.99,199.507,293.99,213.363z"/>
<ellipse style="fill:#F4E028;" cx="240.595" cy="203.327" rx="53.414" ry="25.089"/>
<g>
	<ellipse style="fill:#F9F29A;stroke:#E1C821;stroke-miterlimit:10;" cx="240.595" cy="202.205" rx="44.74" ry="21.017"/>
	<path style="fill:#F9F29A;" d="M215.974,225.662c0,0,10.365,2.586,21.047,2.746l0.157,10.043c0,0-12.628,0.322-21.122-2.836
		L215.974,225.662z"/>
</g>
<rect x="110.345" y="247.054" transform="matrix(-0.972 0.2348 -0.2348 -0.972 567.0705 548.1971)" style="fill:#63BD6E;" width="281.106" height="121.61"/>
<g>
	<path style="fill:#117F4A;" d="M395.878,329.724L131.89,393.487L105.94,286.043l263.981-63.767L395.878,329.724z M368.249,225.624
		l-259.304,62.633l24.61,101.884l259.304-62.63L368.249,225.624z"/>
	<circle style="fill:#117F4A;" cx="250.885" cy="307.872" r="52.647"/>
</g>
<rect x="110.348" y="247.951" transform="matrix(-0.9925 0.1225 -0.1225 -0.9925 537.7186 584.4662)" style="fill:#63BD6E;" width="281.09" height="121.622"/>
<g>
	<path style="fill:#117F4A;" d="M392.443,346.962l-269.53,33.268l-13.541-109.701l269.53-33.268L392.443,346.962z M376.859,240.393
		L112.114,273.07l12.838,104.025l264.748-32.681L376.859,240.393z"/>
	<circle style="fill:#117F4A;" cx="250.885" cy="308.733" r="52.647"/>
</g>
<rect x="110.352" y="252.232" style="fill:#63BD6E;" width="281.118" height="121.626"/>
<g>
	<path style="fill:#117F4A;" d="M386.692,368.298H115.119V257.766h271.573V368.298z M384.286,260.625H117.525v104.814h266.758
		V260.625H384.286z"/>
	<circle style="fill:#117F4A;" cx="250.885" cy="313.036" r="47.977"/>
</g>
<path style="fill:#63BD6E;" d="M249.658,353.125v-7.884c-3.282-0.475-5.949-1.358-7.985-2.638c-2.039-1.287-3.809-3.334-5.302-6.14
	c-1.493-2.806-2.365-6.271-2.612-10.391l6.567-1.441c0.498,4.187,1.399,7.293,2.694,9.324c1.841,2.806,4.052,4.363,6.638,4.655
	v-25.089c-2.687-0.591-5.452-1.848-8.288-3.757c-2.092-1.373-3.693-3.304-4.812-5.781c-1.119-2.477-1.68-5.298-1.68-8.471
	c0-5.613,1.643-10.151,4.924-13.616c2.241-2.331,5.53-3.764,9.856-4.296v-3.764h3.884v3.764c3.787,0.475,6.799,1.818,9.036,4.026
	c2.885,2.874,4.629,6.81,5.224,11.824l-6.791,1.175c-0.393-3.113-1.201-5.489-2.425-7.132c-1.22-1.643-2.896-2.728-5.044-3.274
	v22.757c3.285,0.958,5.474,1.732,6.574,2.331c2.039,1.074,3.697,2.391,4.965,3.948c1.268,1.549,2.249,3.39,2.945,5.504
	c0.696,2.129,1.044,4.415,1.044,6.862c0,5.497-1.441,10.062-4.325,13.702c-2.892,3.648-6.627,5.583-11.207,5.826v7.974H249.658z
	 M249.658,284.142c-2.533,0.475-4.539,1.71-6.006,3.712c-1.467,2.002-2.2,4.348-2.2,7.031c0,2.69,0.621,4.947,1.867,6.769
	c1.246,1.818,3.36,3.274,6.342,4.34v-21.852H249.658z M253.538,338.611c2.541-0.359,4.64-1.688,6.312-3.989
	c1.665-2.294,2.496-5.115,2.496-8.464c0-2.874-0.584-5.167-1.751-6.9c-1.171-1.725-3.521-3.289-7.061-4.662v24.015H253.538z"/>
<g>
</g>
<g>
</g>
<g>
</g>
<g>
</g>
<g>
</g>
<g>
</g>
<g>
</g>
<g>
</g>
<g>
</g>
<g>
</g>
<g>
</g>
<g>
</g>
<g>
</g>
<g>
</g>
<g>
</g>
</svg>
