<?xml version="1.0" encoding="iso-8859-1"?>
<!-- Generator: Adobe Illustrator 19.0.0, SVG Export Plug-In . SVG Version: 6.00 Build 0)  -->
<svg version="1.1" id="Capa_1" xmlns="http://www.w3.org/2000/svg" xmlns:xlink="http://www.w3.org/1999/xlink" x="0px" y="0px"
	 viewBox="0 0 512.001 512.001" style="enable-background:new 0 0 512.001 512.001;" xml:space="preserve">
<circle style="fill:#7EC359;" cx="256" cy="256.001" r="256"/>
<path style="fill:#4D5BA5;" d="M508.14,127.773l-134.648,134.62c-5.144,5.172-13.516,5.172-18.692,0l-70.368-70.368
	c-5.144-5.144-5.144-13.516,0-18.692L419.08,38.713c5.144-5.172,13.516-5.172,18.692,0l70.368,70.368
	C513.288,114.229,513.288,122.601,508.14,127.773z"/>
<path style="fill:#FDFEFF;" d="M343.796,232.176l-29.128-29.128c11.244-11.244,11.244-29.476,0-40.72l93.392-93.392
	c11.244,11.244,29.476,11.244,40.72,0l29.128,29.128c-11.244,11.244-11.244,29.476,0,40.72l-93.388,93.392
	C373.272,220.933,355.044,220.933,343.796,232.176z"/>
<g>
	<circle style="fill:#4D5BA5;" cx="439.52" cy="107.329" r="15.14"/>
	<circle style="fill:#4D5BA5;" cx="353.08" cy="193.801" r="15.14"/>
	
		<ellipse transform="matrix(-0.7071 -0.7071 0.7071 -0.7071 570.0234 537.2496)" style="fill:#4D5BA5;" cx="396.28" cy="150.569" rx="37.856" ry="28.512"/>
</g>
<path style="fill:#FDFEFF;" d="M412.152,168.201l-2.948-2.948c-4.068,3.316-8.852,5.16-14.348,5.536l-0.568-6.468
	c4.232-0.296,7.732-1.456,10.508-3.476l-7.84-7.84c-3.772,2.32-6.956,3.592-9.56,3.82c-2.596,0.228-5.064-0.824-7.396-3.156
	s-3.42-5.052-3.272-8.164s1.46-6.04,3.94-8.792l-2.02-2.02l2.588-2.588l2.06,2.06c3.18-2.748,6.992-4.54,11.436-5.376l1.092,6.344
	c-3.044,0.512-5.752,1.656-8.124,3.436l7.596,7.596l0.12-0.12c3.824-2.368,7.088-3.664,9.78-3.88c2.696-0.216,5.22,0.856,7.58,3.212
	c2.36,2.36,3.44,5.116,3.256,8.268c-0.188,3.152-1.588,6.172-4.204,9.052l2.908,2.908L412.152,168.201z M383.216,144.961
	c-0.08,1.292,0.332,2.392,1.232,3.296c0.904,0.904,1.884,1.348,2.948,1.332c1.064-0.012,2.592-0.532,4.588-1.556l-6.992-6.992
	C383.888,142.361,383.296,143.669,383.216,144.961z M409.444,154.176c0.136-1.372-0.268-2.532-1.212-3.476s-1.988-1.392-3.132-1.352
	c-1.144,0.04-2.768,0.624-4.872,1.76l7.276,7.276C408.664,156.952,409.312,155.553,409.444,154.176z"/>
<path style="fill:#F1592F;" d="M466.628,94.121l-94.452,165.32c-3.6,6.344-11.68,8.548-18.032,4.92l-86.412-49.36
	c-6.32-3.608-8.524-11.684-4.92-18.032l94.452-165.32c3.6-6.344,11.68-8.548,18.032-4.92l86.412,49.36
	C468.024,79.701,470.228,87.777,466.628,94.121z"/>
<path style="fill:#FDFEFF;" d="M335.572,238.113l-35.768-20.432c7.888-13.808,3.088-31.396-10.72-39.284l65.508-114.684
	c13.808,7.888,31.396,3.088,39.284-10.72l35.768,20.432c-7.888,13.808-3.088,31.396,10.72,39.284l-65.508,114.684
	C361.048,219.505,343.46,224.305,335.572,238.113z"/>
<g>
	<circle style="fill:#F1592F;" cx="395.04" cy="92.481" r="15.14"/>
	<circle style="fill:#F1592F;" cx="334.4" cy="198.637" r="15.14"/>
	
		<ellipse transform="matrix(-0.8683 -0.496 0.496 -0.8683 609.2377 452.8471)" style="fill:#F1592F;" cx="364.731" cy="145.552" rx="37.855" ry="28.511"/>
</g>
<path style="fill:#FDFEFF;" d="M384.668,158.393l-3.624-2.068c-3.052,4.268-7.18,7.308-12.384,9.12l-2.248-6.088
	c4.004-1.4,7.076-3.44,9.224-6.12l-9.628-5.5c-3.028,3.228-5.768,5.296-8.216,6.2c-2.448,0.904-5.104,0.54-7.964-1.092
	c-2.86-1.636-4.632-3.972-5.308-7.016c-0.676-3.04-0.18-6.212,1.484-9.516l-2.48-1.416l1.816-3.176l2.532,1.444
	c2.344-3.488,5.548-6.22,9.616-8.2l2.724,5.836c-2.804,1.296-5.116,3.116-6.932,5.452l9.328,5.328l0.084-0.148
	c3.068-3.292,5.872-5.4,8.412-6.316c2.544-0.916,5.264-0.548,8.156,1.104c2.896,1.656,4.668,4.028,5.316,7.116
	c0.648,3.092,0.092,6.372-1.672,9.84l3.572,2.04L384.668,158.393z M350.636,143.592c0.264,1.268,0.948,2.22,2.056,2.852
	s2.172,0.804,3.196,0.508c1.024-0.292,2.36-1.196,4.016-2.708l-8.584-4.904C350.6,140.909,350.372,142.325,350.636,143.592z
	 M378.364,145.577c-0.232-1.36-0.924-2.372-2.084-3.036c-1.16-0.66-2.284-0.82-3.38-0.48c-1.092,0.34-2.504,1.332-4.236,2.98
	l8.932,5.104C378.344,148.461,378.6,146.941,378.364,145.577z"/>
<path style="fill:#70B1E1;" d="M402.108,69.725l-32.644,187.584c-1.232,7.192-8.076,12.008-15.284,10.756l-98.044-17.052
	c-7.168-1.248-11.988-8.092-10.756-15.284l32.64-187.58c1.232-7.192,8.076-12.012,15.284-10.756l98.044,17.052
	C398.52,55.685,403.336,62.533,402.108,69.725z"/>
<path style="fill:#FDFEFF;" d="M327.792,249.685l-40.584-7.056c2.724-15.668-7.768-30.576-23.436-33.3L286.4,79.205
	c15.668,2.724,30.576-7.768,33.304-23.436l40.584,7.056c-2.724,15.668,7.768,30.576,23.436,33.304l-22.628,130.12
	C345.424,223.525,330.516,234.017,327.792,249.685z"/>
<g>
	<circle style="fill:#70B1E1;" cx="334.24" cy="92.481" r="15.14"/>
	<circle style="fill:#70B1E1;" cx="313.28" cy="212.961" r="15.14"/>
	
		<ellipse transform="matrix(-0.9852 -0.1713 0.1713 -0.9852 616.5041 358.6476)" style="fill:#70B1E1;" cx="323.726" cy="152.725" rx="37.855" ry="28.511"/>
</g>
<path style="fill:#FDFEFF;" d="M346.872,158.025l-4.112-0.716c-1.42,5.052-4.268,9.312-8.548,12.784l-4.184-4.96
	c3.288-2.676,5.488-5.64,6.592-8.888l-10.924-1.9c-1.748,4.068-3.624,6.94-5.62,8.624c-1.992,1.684-4.616,2.244-7.86,1.676
	c-3.248-0.564-5.704-2.16-7.376-4.792c-1.672-2.628-2.284-5.78-1.836-9.456l-2.812-0.488l0.628-3.604l2.872,0.5
	c1.02-4.08,3.104-7.736,6.26-10.98l4.544,4.56c-2.196,2.172-3.752,4.668-4.668,7.484l10.584,1.84l0.028-0.168
	c1.764-4.14,3.688-7.076,5.764-8.8c2.08-1.728,4.764-2.304,8.048-1.736c3.288,0.572,5.756,2.2,7.42,4.888
	c1.66,2.688,2.252,5.96,1.772,9.824l4.052,0.704L346.872,158.025z M309.832,155.673c0.68,1.104,1.648,1.764,2.904,1.984
	c1.26,0.22,2.316,0.016,3.18-0.608c0.864-0.624,1.816-1.928,2.856-3.912l-9.74-1.696
	C308.888,153.161,309.156,154.568,309.832,155.673z M336.588,148.117c-0.68-1.2-1.676-1.916-2.992-2.144s-2.428,0.004-3.34,0.696
	s-1.904,2.104-2.972,4.24l10.136,1.764C337.544,150.833,337.268,149.316,336.588,148.117z"/>
<path style="fill:#424854;" d="M309.176,200.773H177.392l17.388-53.308h97.008L309.176,200.773z M202.912,182.257h80.748
	l-5.308-16.272h-70.136L202.912,182.257z"/>
<rect x="111.632" y="221.561" style="fill:#505666;" width="263.304" height="149.4"/>
<path style="fill:#656C7A;" d="M374.936,245.533c-85.336,26.092-177.968,26.092-263.304,0c0-22.504,0-45.012,0-67.516
	c87.768,0,175.536,0,263.304,0C374.936,200.521,374.936,223.029,374.936,245.533z"/>
<rect x="222.16" y="240.201" style="fill:#A8A7A8;" width="42.24" height="56.08"/>
<rect x="230.04" y="250.68" style="fill:#DFDFDF;" width="26.468" height="35.132"/>
<rect x="132.2" y="249.201" style="fill:#FFFFFF;" width="34.248" height="7.12"/>
<rect x="137.36" y="178.012" style="fill:#424854;" width="23.984" height="110.644"/>
<g>
	<path style="fill:#FFFFFF;" d="M162.276,273.613H136.34c-4.532,0-8.22-3.688-8.22-8.22v-25.24c0-4.532,3.688-8.22,8.22-8.22h25.936
		c4.532,0,8.22,3.688,8.22,8.22v25.24C170.496,269.929,166.812,273.613,162.276,273.613z M136.344,239.057
		c-0.608,0-1.1,0.492-1.1,1.1v25.24c0,0.604,0.492,1.1,1.1,1.1h25.936c0.608,0,1.1-0.492,1.1-1.1v-25.24c0-0.604-0.492-1.1-1.1-1.1
		L136.344,239.057L136.344,239.057z"/>
	<rect x="145.748" y="226.12" style="fill:#FFFFFF;" width="7.12" height="26.66"/>
	<rect x="320.12" y="249.201" style="fill:#FFFFFF;" width="34.248" height="7.12"/>
</g>
<rect x="325.32" y="178.012" style="fill:#424854;" width="23.984" height="110.644"/>
<g>
	<path style="fill:#FFFFFF;" d="M350.224,273.613h-25.936c-4.532,0-8.22-3.688-8.22-8.22v-25.24c0-4.532,3.688-8.22,8.22-8.22
		h25.936c4.532,0,8.22,3.688,8.22,8.22v25.24C358.444,269.929,354.76,273.613,350.224,273.613z M324.292,239.057
		c-0.608,0-1.1,0.492-1.1,1.1v25.24c0,0.604,0.492,1.1,1.1,1.1h25.936c0.608,0,1.1-0.492,1.1-1.1v-25.24c0-0.604-0.492-1.1-1.1-1.1
		L324.292,239.057L324.292,239.057z"/>
	<rect x="333.68" y="226.12" style="fill:#FFFFFF;" width="7.12" height="26.66"/>
</g>
<path style="fill:#E8BB20;" d="M382.888,411.177c0,12.504-18.776,22.64-41.94,22.64s-41.94-10.136-41.94-22.64v-8.956h83.876v8.956
	H382.888z"/>
<ellipse style="fill:#F5EA07;" cx="340.96" cy="402.241" rx="41.94" ry="22.64"/>
<path style="fill:#E8BB20;" d="M382.888,396.741c0,12.504-18.776,22.64-41.94,22.64s-41.94-10.136-41.94-22.64v-8.956h83.876v8.956
	H382.888z"/>
<ellipse style="fill:#F5EA07;" cx="340.96" cy="387.801" rx="41.94" ry="22.64"/>
<path style="fill:#E8BB20;" d="M382.888,382.309c0,12.504-18.776,22.64-41.94,22.64s-41.94-10.136-41.94-22.64v-8.956h83.876v8.956
	H382.888z"/>
<ellipse style="fill:#F5EA07;" cx="340.96" cy="373.361" rx="41.94" ry="22.64"/>
<path style="fill:#E8BB20;" d="M382.888,367.873c0,12.504-18.776,22.64-41.94,22.64s-41.94-10.136-41.94-22.64v-8.956h83.876v8.956
	H382.888z"/>
<ellipse style="fill:#F5EA07;" cx="340.96" cy="358.921" rx="41.94" ry="22.64"/>
<path style="fill:#E8BB20;" d="M382.888,353.437c0,12.504-18.776,22.64-41.94,22.64s-41.94-10.136-41.94-22.64v-8.956h83.876v8.956
	H382.888z"/>
<ellipse style="fill:#F5EA07;" cx="340.96" cy="344.481" rx="41.94" ry="22.64"/>
<path style="fill:#E8BB20;" d="M382.888,339.001c0,12.504-18.776,22.64-41.94,22.64s-41.94-10.136-41.94-22.64v-8.956h83.876v8.956
	H382.888z"/>
<ellipse style="fill:#F5EA07;" cx="340.96" cy="330.041" rx="41.94" ry="22.64"/>
<path style="fill:#E8BB20;" d="M382.888,324.569c0,12.504-18.776,22.64-41.94,22.64s-41.94-10.136-41.94-22.64v-8.956h83.876v8.956
	H382.888z"/>
<ellipse style="fill:#F5EA07;" cx="340.96" cy="315.609" rx="41.94" ry="22.64"/>
<path style="fill:#E8BB20;" d="M382.888,310.133c0,12.504-18.776,22.64-41.94,22.64s-41.94-10.136-41.94-22.64v-8.956h83.876v8.956
	H382.888z"/>
<ellipse style="fill:#F5EA07;" cx="340.96" cy="301.161" rx="41.94" ry="22.64"/>
<path style="fill:#E8BB20;" d="M382.888,295.697c0,12.504-18.776,22.64-41.94,22.64s-41.94-10.136-41.94-22.64v-8.956h83.876v8.956
	H382.888z"/>
<ellipse style="fill:#F5EA07;" cx="340.96" cy="286.761" rx="41.94" ry="22.64"/>
<path style="fill:#E8BB20;" d="M382.888,281.261c0,12.504-18.776,22.64-41.94,22.64s-41.94-10.136-41.94-22.64v-8.956h83.876v8.956
	H382.888z"/>
<ellipse style="fill:#F5EA07;" cx="340.96" cy="272.321" rx="41.94" ry="22.64"/>
<g>
	<path style="fill:#E8BB20;" d="M340.948,290.225c-19.816,0-35.936-8.04-35.936-17.92c0-9.884,16.124-17.92,35.936-17.92
		s35.936,8.04,35.936,17.92C376.884,282.189,360.764,290.225,340.948,290.225z M340.948,257.545c-16.32,0-29.6,6.62-29.6,14.76
		s13.28,14.76,29.6,14.76s29.6-6.62,29.6-14.76S357.268,257.545,340.948,257.545z"/>
	<path style="fill:#E8BB20;" d="M339.796,283.141v-1.908c-4.788-0.244-9.088-1.192-12.896-2.848l3.828-2.276
		c2.936,1.272,5.96,2.028,9.072,2.276v-5.072c-3.952-0.472-6.84-1.088-8.676-1.856c-1.836-0.768-2.756-1.904-2.756-3.412
		s1.06-2.74,3.172-3.7c2.116-0.96,4.868-1.48,8.256-1.568v-1.308h3.356v1.332c3.844,0.14,7.48,0.792,10.904,1.96l-3.408,2.404
		c-2.308-0.82-4.808-1.324-7.496-1.516v4.916h0.156c4.02,0.472,6.972,1.108,8.86,1.908c1.888,0.804,2.832,1.964,2.832,3.492
		c0,1.524-1.084,2.768-3.252,3.724c-2.168,0.96-5.032,1.48-8.596,1.568v1.88h-3.356V283.141z M336.1,266.265
		c-0.888,0.392-1.336,0.88-1.336,1.464c0,0.584,0.348,1.044,1.048,1.384s2.028,0.668,3.984,0.98v-4.524
		C338.224,265.641,336.992,265.873,336.1,266.265z M347.136,277.729c0.976-0.4,1.468-0.904,1.468-1.516
		c0-0.608-0.388-1.092-1.156-1.452s-2.2-0.692-4.3-1.008v4.704C344.828,278.377,346.156,278.133,347.136,277.729z"/>
	<path style="fill:#E8BB20;" d="M285.544,411.177c0,12.504-18.776,22.64-41.94,22.64s-41.94-10.136-41.94-22.64v-8.956h83.876v8.956
		H285.544z"/>
</g>
<ellipse style="fill:#F5EA07;" cx="243.604" cy="402.241" rx="41.94" ry="22.64"/>
<path style="fill:#E8BB20;" d="M285.544,396.741c0,12.504-18.776,22.64-41.94,22.64s-41.94-10.136-41.94-22.64v-8.956h83.876v8.956
	H285.544z"/>
<ellipse style="fill:#F5EA07;" cx="243.604" cy="387.801" rx="41.94" ry="22.64"/>
<path style="fill:#E8BB20;" d="M285.544,382.309c0,12.504-18.776,22.64-41.94,22.64s-41.94-10.136-41.94-22.64v-8.956h83.876v8.956
	H285.544z"/>
<ellipse style="fill:#F5EA07;" cx="243.604" cy="373.361" rx="41.94" ry="22.64"/>
<path style="fill:#E8BB20;" d="M285.544,367.873c0,12.504-18.776,22.64-41.94,22.64s-41.94-10.136-41.94-22.64v-8.956h83.876v8.956
	H285.544z"/>
<ellipse style="fill:#F5EA07;" cx="243.604" cy="358.921" rx="41.94" ry="22.64"/>
<path style="fill:#E8BB20;" d="M285.544,353.437c0,12.504-18.776,22.64-41.94,22.64s-41.94-10.136-41.94-22.64v-8.956h83.876v8.956
	H285.544z"/>
<ellipse style="fill:#F5EA07;" cx="243.604" cy="344.481" rx="41.94" ry="22.64"/>
<path style="fill:#E8BB20;" d="M285.544,339.001c0,12.504-18.776,22.64-41.94,22.64s-41.94-10.136-41.94-22.64v-8.956h83.876v8.956
	H285.544z"/>
<ellipse style="fill:#F5EA07;" cx="243.604" cy="330.041" rx="41.94" ry="22.64"/>
<path style="fill:#E8BB20;" d="M285.544,324.569c0,12.504-18.776,22.64-41.94,22.64s-41.94-10.136-41.94-22.64v-8.956h83.876v8.956
	H285.544z"/>
<ellipse style="fill:#F5EA07;" cx="243.604" cy="315.609" rx="41.94" ry="22.64"/>
<g>
	<path style="fill:#E8BB20;" d="M243.604,333.533c-19.816,0-35.936-8.04-35.936-17.92s16.124-17.92,35.936-17.92
		s35.936,8.04,35.936,17.92S263.42,333.533,243.604,333.533z M243.604,300.849c-16.32,0-29.6,6.62-29.6,14.76
		s13.28,14.76,29.6,14.76s29.6-6.62,29.6-14.76S259.924,300.849,243.604,300.849z"/>
	<path style="fill:#E8BB20;" d="M242.452,326.449v-1.908c-4.788-0.244-9.088-1.192-12.896-2.848l3.828-2.276
		c2.936,1.272,5.96,2.028,9.072,2.276v-5.072c-3.952-0.472-6.84-1.088-8.676-1.856c-1.836-0.768-2.756-1.904-2.756-3.412
		s1.06-2.74,3.172-3.7c2.116-0.96,4.868-1.48,8.256-1.568v-1.308h3.356v1.332c3.844,0.14,7.48,0.792,10.904,1.96l-3.408,2.404
		c-2.308-0.82-4.808-1.324-7.496-1.516v4.916h0.156c4.02,0.472,6.972,1.108,8.86,1.908c1.888,0.804,2.832,1.968,2.832,3.492
		c0,1.524-1.084,2.768-3.252,3.724c-2.168,0.96-5.032,1.48-8.596,1.568v1.88h-3.356V326.449z M238.756,309.573
		c-0.888,0.392-1.336,0.88-1.336,1.464c0,0.584,0.348,1.044,1.048,1.384s2.028,0.668,3.984,0.98v-4.524
		C240.88,308.949,239.648,309.181,238.756,309.573z M249.792,321.037c0.976-0.4,1.468-0.904,1.468-1.516
		c0-0.608-0.388-1.092-1.156-1.452s-2.2-0.692-4.3-1.008v4.704C247.484,321.681,248.812,321.437,249.792,321.037z"/>
	<path style="fill:#E8BB20;" d="M188.2,411.177c0,12.504-18.776,22.64-41.94,22.64s-41.94-10.136-41.94-22.64v-8.956h83.88V411.177z
		"/>
</g>
<ellipse style="fill:#F5EA07;" cx="146.264" cy="402.241" rx="41.94" ry="22.64"/>
<path style="fill:#E8BB20;" d="M188.2,396.741c0,12.504-18.776,22.64-41.94,22.64s-41.94-10.136-41.94-22.64v-8.956h83.88V396.741z"
	/>
<ellipse style="fill:#F5EA07;" cx="146.264" cy="387.801" rx="41.94" ry="22.64"/>
<path style="fill:#E8BB20;" d="M188.2,382.309c0,12.504-18.776,22.64-41.94,22.64s-41.94-10.136-41.94-22.64v-8.956h83.88V382.309z"
	/>
<ellipse style="fill:#F5EA07;" cx="146.264" cy="373.361" rx="41.94" ry="22.64"/>
<path style="fill:#E8BB20;" d="M188.2,367.873c0,12.504-18.776,22.64-41.94,22.64s-41.94-10.136-41.94-22.64v-8.956h83.88V367.873z"
	/>
<ellipse style="fill:#F5EA07;" cx="146.264" cy="358.921" rx="41.94" ry="22.64"/>
<g>
	<path style="fill:#E8BB20;" d="M146.26,376.837c-19.816,0-35.936-8.04-35.936-17.92s16.124-17.92,35.936-17.92
		s35.936,8.04,35.936,17.92S166.076,376.837,146.26,376.837z M146.26,344.153c-16.32,0-29.6,6.62-29.6,14.76s13.28,14.76,29.6,14.76
		s29.6-6.62,29.6-14.76S162.584,344.153,146.26,344.153z"/>
	<path style="fill:#E8BB20;" d="M145.108,369.753v-1.908c-4.788-0.244-9.088-1.192-12.896-2.848l3.828-2.276
		c2.936,1.272,5.96,2.028,9.072,2.276v-5.076c-3.952-0.472-6.84-1.088-8.676-1.856s-2.756-1.904-2.756-3.412s1.06-2.74,3.172-3.7
		c2.116-0.96,4.868-1.48,8.256-1.568v-1.308h3.356v1.332c3.844,0.14,7.48,0.792,10.904,1.96l-3.408,2.404
		c-2.308-0.82-4.808-1.324-7.496-1.516v4.916h0.156c4.02,0.472,6.972,1.108,8.86,1.908c1.888,0.804,2.832,1.968,2.832,3.492
		c0,1.524-1.084,2.768-3.252,3.724c-2.168,0.96-5.032,1.48-8.596,1.568v1.88h-3.356V369.753z M141.412,352.877
		c-0.888,0.392-1.336,0.88-1.336,1.464s0.348,1.044,1.048,1.384s2.028,0.668,3.984,0.98v-4.524
		C143.536,352.253,142.304,352.485,141.412,352.877z M152.448,364.341c0.976-0.4,1.468-0.904,1.468-1.516
		c0-0.608-0.388-1.092-1.156-1.452s-2.2-0.692-4.3-1.008v4.704C150.14,364.985,151.472,364.741,152.448,364.341z"/>
</g>
<g>
</g>
<g>
</g>
<g>
</g>
<g>
</g>
<g>
</g>
<g>
</g>
<g>
</g>
<g>
</g>
<g>
</g>
<g>
</g>
<g>
</g>
<g>
</g>
<g>
</g>
<g>
</g>
<g>
</g>
</svg>
