<?xml version="1.0"?>
<svg xmlns="http://www.w3.org/2000/svg" xmlns:xlink="http://www.w3.org/1999/xlink" version="1.1" id="Capa_1" x="0px" y="0px" viewBox="0 0 515.2 515.2" style="enable-background:new 0 0 515.2 515.2;" xml:space="preserve" width="512px" height="512px" class=""><g><g>
	<path style="fill:#415A6B;" d="M214.933,139.733c0,69.333-24.533,125.867-54.4,125.867s-54.4-56.533-54.4-125.867   s24.533-125.867,54.4-125.867C190.4,13.867,214.933,70.4,214.933,139.733z" data-original="#415A6B" class=""/>
	<path style="fill:#415A6B;" d="M348.267,135.467c0,74.667-54.4,135.467-121.6,135.467s-120.533-60.8-120.533-135.467   S159.467,0,226.667,0S348.267,60.8,348.267,135.467z" data-original="#415A6B" class=""/>
</g><path style="fill:#344A5E;" d="M451.733,512V403.2c0-102.4-450.133-102.4-450.133,0V512H451.733z" data-original="#344A5E" class=""/><path style="fill:#E6AF78" d="M296,330.667C296,368,227.733,393.6,227.733,393.6s-68.267-25.6-68.267-62.933v-137.6h137.6  L296,330.667z" data-original="#F7B64C" class="active-path" data-old_color="#F7B64C"/><polygon style="fill:#CED6E0;" points="281.067,512 313.067,396.8 300.267,382.933 226.667,393.6 144.533,382.933 164.8,512 " data-original="#CED6E0"/><g>
	<polygon style="fill:#F05540;" points="243.733,438.4 257.6,424.533 226.667,393.6 195.733,424.533 209.6,438.4  " data-original="#F05540" class=""/>
	<polygon style="fill:#F05540;" points="262.933,512 243.733,438.4 209.6,438.4 190.4,512  " data-original="#F05540" class=""/>
</g><g>
	<path style="fill:#F0C087" d="M93.333,193.067c1.067,19.2,12.8,33.067,24.533,32C129.6,224,139.2,206.933,137.067,188.8   c-1.067-19.2-12.8-33.067-24.533-32C100.8,157.867,92.267,173.867,93.333,193.067z" data-original="#FFD15C" class="" data-old_color="#FFD15C"/>
	<path style="fill:#F0C087" d="M360,193.067c-1.067,19.2-12.8,33.067-24.533,32c-11.733-1.067-21.333-18.133-19.2-36.267   c1.067-19.2,12.8-33.067,24.533-32C352.533,157.867,361.067,173.867,360,193.067z" data-original="#FFD15C" class="" data-old_color="#FFD15C"/>
</g><polygon style="fill:#F3F3F3;" points="296,317.867 226.667,393.6 269.333,435.2 315.2,342.4 " data-original="#F3F3F3" class=""/><path style="fill:#415A6B;" d="M332.267,512C344,487.467,353.6,440.533,360,414.933l-32-33.067L360,368l-56.533-40.533  c-7.467,49.067-19.2,126.933-34.133,185.6h62.933V512z" data-original="#415A6B" class=""/><polygon style="fill:#F3F3F3;" points="158.4,317.867 226.667,393.6 185.067,435.2 138.133,342.4 " data-original="#F3F3F3" class=""/><path style="fill:#415A6B;" d="M122.133,512h62.933c-13.867-58.667-25.6-135.467-34.133-185.6L94.4,366.933l32,13.867l-32,33.067  C100.8,440.533,110.4,487.467,122.133,512z" data-original="#415A6B" class=""/><path style="fill:#F0C087" d="M337.6,180.267c0,81.067-50.133,147.2-110.933,147.2s-110.933-66.133-110.933-147.2  c0-44.8,14.933-85.333,39.467-112c39.467,25.6,96,41.6,158.933,41.6c3.2,0,6.4,0,9.6,0C332.267,130.133,337.6,154.667,337.6,180.267  z" data-original="#FFD15C" class="" data-old_color="#FFD15C"/><path style="fill:#66C6B9;" d="M348.267,358.4c-5.333-1.067-11.733-1.067-17.067,0l-13.867-17.067l-22.4,9.6l2.133,22.4  c-4.267,3.2-8.533,7.467-12.8,12.8L262.933,384l-9.6,22.4l17.067,13.867c-1.067,5.333-1.067,11.733,0,17.067L253.333,451.2l9.6,22.4  l22.4-2.133c3.2,4.267,7.467,8.533,12.8,12.8L296,505.6l22.4,9.6l13.867-17.067c5.333,1.067,11.733,1.067,17.067,0L363.2,515.2  l22.4-9.6l-2.133-22.4c4.267-3.2,8.533-7.467,12.8-12.8l21.333,2.133l9.6-22.4L406.933,435.2c1.067-5.333,1.067-11.733,0-17.067  L424,404.267l-9.6-22.4L392,384c-3.2-4.267-7.467-8.533-12.8-12.8l2.133-21.333l-19.2-8.533L348.267,358.4z M348.267,404.267  c11.733,5.333,18.133,19.2,12.8,30.933c-5.333,11.733-19.2,18.133-30.933,12.8c-11.733-5.333-18.133-19.2-12.8-30.933  C322.667,405.333,336.533,398.933,348.267,404.267z" data-original="#66C6B9" class=""/><path style="fill:#4ABAA5" d="M297.067,409.6c-9.6,22.4,1.067,49.067,24.533,58.667c23.467,9.6,49.067-1.067,58.667-24.533  c9.6-22.4-1.067-49.067-24.533-58.667C333.333,375.467,306.667,386.133,297.067,409.6z M317.333,417.067  c5.333-11.733,19.2-18.133,30.933-12.8c11.733,5.333,18.133,19.2,12.8,30.933c-5.333,11.733-19.2,18.133-30.933,12.8  C317.333,443.733,312,429.867,317.333,417.067z" data-original="#4ABAA5" class=""/><path style="fill:#F0C087" d="M436.8,267.733c-4.267,1.067-8.533,3.2-11.733,4.267l-13.867-7.467l-12.8,11.733l7.467,13.867  c-2.133,3.2-4.267,7.467-5.333,11.733l-14.933,4.267V323.2l14.933,4.267c1.067,4.267,3.2,8.533,4.267,11.733l-7.467,13.867  l11.733,12.8l13.867-7.467c3.2,2.133,7.467,4.267,11.733,5.333l4.267,14.933H456l4.267-14.933c4.267-1.067,8.533-3.2,11.733-4.267  l13.867,7.467l12.8-11.733l-5.333-13.867c2.133-3.2,4.267-7.467,5.333-11.733l14.933-4.267v-17.067L498.667,304  c-1.067-4.267-3.2-8.533-4.267-11.733l7.467-13.867l-11.733-12.8l-13.867,7.467c-3.2-2.133-7.467-4.267-11.733-5.333l-4.267-14.933  H443.2L436.8,267.733z M449.6,298.667c9.6,0,17.067,7.467,17.067,18.133c0,9.6-7.467,17.067-18.133,17.067  c-9.6,0-17.067-7.467-17.067-18.133C432.533,306.133,440,297.6,449.6,298.667z" data-original="#FFD15C" class="" data-old_color="#FFD15C"/><path style="fill:#E6AF78" d="M417.6,315.733c0,18.133,13.867,33.067,32,33.067c18.133,0,33.067-14.933,33.067-32  c0-18.133-13.867-33.067-32-33.067C432.533,282.667,417.6,297.6,417.6,315.733z M432.533,315.733c0-9.6,7.467-17.067,18.133-17.067  c9.6,0,17.067,7.467,17.067,18.133s-7.467,17.067-18.133,17.067C440,332.8,432.533,325.333,432.533,315.733z" data-original="#F7B64C" class="active-path" data-old_color="#F7B64C"/></g> </svg>
