<?xml version="1.0" encoding="iso-8859-1"?>
<!-- Generator: Adobe Illustrator 19.0.0, SVG Export Plug-In . SVG Version: 6.00 Build 0)  -->
<svg version="1.1" id="Capa_1" xmlns="http://www.w3.org/2000/svg" xmlns:xlink="http://www.w3.org/1999/xlink" x="0px" y="0px"
	 viewBox="0 0 508.1 508.1" style="enable-background:new 0 0 508.1 508.1;" xml:space="preserve">
<rect y="114" style="fill:#84DBFF;" width="508" height="279.9"/>
<path style="fill:#40596B;" d="M486.8,0H21.2C9.5,0,0,9.5,0,21.2V114h508V21.2C508,9.5,498.5,0,486.8,0z"/>
<g>
	<rect x="31.7" y="31.7" style="fill:#F2F2F2;" width="91.3" height="50.6"/>
	<rect x="142.6" y="31.7" style="fill:#F2F2F2;" width="91.3" height="50.6"/>
	<rect x="260.4" y="31.7" style="fill:#F2F2F2;" width="91.3" height="50.6"/>
	<rect x="378.1" y="31.7" style="fill:#F2F2F2;" width="91.3" height="50.6"/>
</g>
<path style="fill:#40596B;" d="M0,394v92.9c0,11.7,9.5,21.2,21.2,21.2h465.7c11.7,0,21.2-9.5,21.2-21.2V394H0z"/>
<g>
	<rect x="31.7" y="425.7" style="fill:#F2F2F2;" width="91.3" height="50.5"/>
	<rect x="149.5" y="425.7" style="fill:#F2F2F2;" width="91.3" height="50.5"/>
	<rect x="267.2" y="425.7" style="fill:#F2F2F2;" width="91.3" height="50.5"/>
	<rect x="384.9" y="425.7" style="fill:#F2F2F2;" width="91.3" height="50.5"/>
</g>
<circle style="fill:#FF7058;" cx="254" cy="254" r="113.3"/>
<polygon style="fill:#FFFFFF;" points="212.6,187.6 212.6,320.4 323.3,254 "/>
<g>
</g>
<g>
</g>
<g>
</g>
<g>
</g>
<g>
</g>
<g>
</g>
<g>
</g>
<g>
</g>
<g>
</g>
<g>
</g>
<g>
</g>
<g>
</g>
<g>
</g>
<g>
</g>
<g>
</g>
</svg>
